<svg xmlns="http://www.w3.org/2000/svg" xmlns:xlink="http://www.w3.org/1999/xlink" width="294.459" height="165" viewBox="0 0 294.459 165">
  <defs>
    <clipPath id="clip-path">
      <rect id="Rectángulo_46267" data-name="Rectángulo 46267" width="35.823" height="31.316" fill="none"/>
    </clipPath>
    <clipPath id="clip-path-2">
      <rect id="Rectángulo_46268" data-name="Rectángulo 46268" width="20.678" height="32.015" fill="none"/>
    </clipPath>
    <clipPath id="clip-path-3">
      <rect id="Rectángulo_46269" data-name="Rectángulo 46269" width="62.781" height="70.393" fill="none"/>
    </clipPath>
  </defs>
  <g id="Grupo_155653" data-name="Grupo 155653" transform="translate(15.5 0)">
    <g id="Grupo_155654" data-name="Grupo 155654" transform="translate(-15.5 0)">
      <g id="Grupo_155651" data-name="Grupo 155651">
        <g id="Grupo_155655" data-name="Grupo 155655" transform="translate(0 0)">
          <path id="Trazado_204535" data-name="Trazado 204535" d="M51.648,164.707s-31.974-30.39-11.632-66.144S87.679,80.789,86.357,39.174,149.189-6.017,169.61,6.05s20.3,26.6,62.455,21.791,50.21,35.275,39.243,55.7c-15.561,28.984,43.188,24.2,6.17,81.163Z" transform="translate(-14.364 -0.003)" fill="#d2e1f1"/>
          <g id="Grupo_155643" data-name="Grupo 155643" transform="translate(177.698 61.878)" opacity="0.3">
            <g id="Grupo_155642" data-name="Grupo 155642">
              <g id="Grupo_155641" data-name="Grupo 155641" clip-path="url(#clip-path)">
                <path id="Trazado_204536" data-name="Trazado 204536" d="M1595.006,652.717s6.794-28.2,29.714-31.3a5.659,5.659,0,0,1,5.944,4.272c1.485,4.808-7.381,4.843-12.862,6.777s-18.257,10.133-22.8,20.249" transform="translate(-1595.006 -621.402)" fill="#8c6df2"/>
              </g>
            </g>
          </g>
          <g id="Grupo_155646" data-name="Grupo 155646" transform="translate(177.059 55.901)" opacity="0.3">
            <g id="Grupo_155645" data-name="Grupo 155645">
              <g id="Grupo_155644" data-name="Grupo 155644" clip-path="url(#clip-path-2)">
                <path id="Trazado_204537" data-name="Trazado 204537" d="M1588.851,593.4s-2.383-23.357,14.343-31.646a4.639,4.639,0,0,1,5.7,1.739c2.432,3.3-4.352,5.615-8.03,8.511s-11.261,12.475-12.016,21.4" transform="translate(-1588.733 -561.382)" fill="#8c6df2"/>
              </g>
            </g>
          </g>
          <path id="Trazado_204538" data-name="Trazado 204538" d="M294.12,1650.583H.339a.321.321,0,0,1-.339-.3v-.114a.322.322,0,0,1,.339-.3H294.12a.322.322,0,0,1,.339.3v.114a.321.321,0,0,1-.339.3" transform="translate(0 -1485.584)" fill="#12263f"/>
          <path id="Trazado_204539" data-name="Trazado 204539" d="M368.381,1202.587c-3.539-7.9,9.3-14.679,9.3-14.679s16.914,5.361,19.342,3.891-13.547-7.348-13.547-7.348c3.941-3.777,19.055-7.237,19.055-7.237s10.195,13.776,12.179,11.766-9.663-11.748-9.663-11.748c5.136-2.047,12.885-.366,12.885-.366,11.157,3.89,5.48,17.718,5.48,17.718a28.176,28.176,0,0,0,10.866,7.682h0a20.726,20.726,0,0,1,3.477,1.585l-1.128.89c-.336-.223-.673-.43-1.011-.616a.009.009,0,0,0-.006,0l-.015-.008c-.218-.11-.528-.265-.91-.452h0c-.888-.389-1.522-.693-1.959-.929l0,0c-2.738-1.259-6.447-2.787-7.905-2.572a2.7,2.7,0,0,0-.175-.7l.175.7c1.4,5.574-7.7,13.862-13.962,17.023s-5.144-.173-4.231-4.867,7.5-8.844,8.518-11.2-2.382-1.238-5.745,1.86-2.268,8.022-7.615,13.13-18.534-2.079-18.534-2.079c5-1.939,10.392-9.755,9.557-11.322s-11.341,6.942-13.329,7.842-7.549-.057-11.088-7.952" transform="translate(-314.866 -1059.091)" fill="#f3f9ff"/>
          <path id="Trazado_204540" data-name="Trazado 204540" d="M1427.455,1220.682c5.162-5.964-4.2-15.113-4.2-15.113s-16.115.372-17.837-1.521,13.715-2.952,13.715-2.952c-2.427-4.281-14.646-11.12-14.646-11.12s-12.5,9.388-13.694,7.138,11.5-7.76,11.5-7.76c-3.922-3.081-11.1-3.585-11.1-3.585-10.724.553-9.446,14.009-9.446,14.009a25.934,25.934,0,0,1-11.473,3.922h0a18.943,18.943,0,0,0-3.441.5l.745,1.059q.526-.164,1.042-.279a.007.007,0,0,1,.006,0l.015,0c.218-.04.529-.1.91-.162h0c.874-.113,1.506-.216,1.948-.311h0c2.712-.4,6.34-.788,7.55-.231a2.488,2.488,0,0,1,.337-.561l-.337.561c-2.691,4.488,3.024,14,7.634,18.332s4.516,1.154,4.964-3.158-4.182-9.588-4.441-11.9,2.4-.472,4.5,3.073-.15,7.547,3.147,13.341,16.656,2.891,16.656,2.891c-3.832-2.952-6.452-11.111-5.312-12.262s8.021,8.907,9.511,10.193,6.575,1.864,11.738-4.1" transform="translate(-1212.342 -1067.693)" fill="#f3f9ff"/>
          <g id="Grupo_155649" data-name="Grupo 155649" transform="translate(83.67 33.196)" opacity="0.5">
            <g id="Grupo_155648" data-name="Grupo 155648">
              <g id="Grupo_155647" data-name="Grupo 155647" clip-path="url(#clip-path-3)">
                <path id="Trazado_204541" data-name="Trazado 204541" d="M673.387,337.633c5.32-8.742,20.777-1.318,20.777-1.318s6.337,19.588,9.444,20.865S701.53,339.4,701.53,339.4c6.408,1.119,20.166,12.966,20.166,12.966s-6.528,19.037-3.195,19.526,4.9-17.145,4.9-17.145c5.531,3.429,9.194,11.871,9.194,11.871,3.833,13.164-13.628,17.3-13.628,17.3a31.993,31.993,0,0,0-.088,15.49h0a23.261,23.261,0,0,1,.828,4.358l-1.646-.451c-.011-.469-.04-.927-.089-1.373a.01.01,0,0,0,0-.008l0-.019c-.041-.28-.1-.679-.181-1.166v0s0,0,0,0c-.227-1.1-.364-1.907-.431-2.48a.016.016,0,0,1,0-.005c-.642-3.439-1.685-7.977-2.9-9.2a3.266,3.266,0,0,0,.564-.643l-.564.643c-4.508,5.14-18.877,2.263-26.276-1.465s-3.357-4.958,1.875-7.318,13.822.995,16.833.333-.419-3.09-5.764-4.13-9.426,3.367-18.1,1.838-10.667-18.863-10.667-18.863c5.329,3.373,16.7,3.089,17.662,1.229s-14.587-5.911-16.833-7.164-5.12-7.142.2-15.884" transform="translate(-670.366 -333.373)" fill="#f3f9ff"/>
              </g>
            </g>
          </g>
          <path id="Trazado_204542" data-name="Trazado 204542" d="M1284.268,275.674a3.923,3.923,0,0,1,.309-1.567,3.663,3.663,0,0,1,.873-1.245,4.023,4.023,0,0,1,1.357-.822,5.092,5.092,0,0,1,1.787-.3,5.207,5.207,0,0,1,1.8.3,4,4,0,0,1,1.37.822,3.668,3.668,0,0,1,.873,1.245,3.931,3.931,0,0,1,.309,1.567,3.838,3.838,0,0,1-.309,1.554,3.691,3.691,0,0,1-.873,1.233,3.991,3.991,0,0,1-1.37.822,5.211,5.211,0,0,1-1.8.3,5.1,5.1,0,0,1-1.787-.3,4.01,4.01,0,0,1-1.357-.822,3.686,3.686,0,0,1-.873-1.233,3.83,3.83,0,0,1-.309-1.554m7.549-7.307h-6.448l-.914-21.574h8.275Z" transform="translate(-1138.17 -222.217)" fill="#fdb74d"/>
          <path id="Trazado_204543" data-name="Trazado 204543" d="M1092.813,124.6a3.009,3.009,0,0,1,.237-1.2,2.806,2.806,0,0,1,.67-.956,3.089,3.089,0,0,1,1.041-.631,3.91,3.91,0,0,1,1.371-.227,4,4,0,0,1,1.381.227,3.071,3.071,0,0,1,1.052.631,2.811,2.811,0,0,1,.67.956,3.017,3.017,0,0,1,.237,1.2,2.946,2.946,0,0,1-.237,1.192,2.83,2.83,0,0,1-.67.946,3.061,3.061,0,0,1-1.052.631,4,4,0,0,1-1.381.227,3.91,3.91,0,0,1-1.371-.227,3.079,3.079,0,0,1-1.041-.631,2.825,2.825,0,0,1-.67-.946,2.938,2.938,0,0,1-.237-1.192m5.794-5.608h-4.949l-.7-16.558h6.351Z" transform="translate(-966.184 -92.235)" fill="#8c6df2"/>
          <path id="Trazado_204544" data-name="Trazado 204544" d="M2038.188,405.559a3.015,3.015,0,0,1,.237-1.2,2.812,2.812,0,0,1,.67-.956,3.088,3.088,0,0,1,1.042-.631,3.907,3.907,0,0,1,1.371-.227,4,4,0,0,1,1.382.227,3.071,3.071,0,0,1,1.052.631,2.818,2.818,0,0,1,.67.956,3.019,3.019,0,0,1,.237,1.2,2.948,2.948,0,0,1-.237,1.192,2.837,2.837,0,0,1-.67.946,3.062,3.062,0,0,1-1.052.631,4,4,0,0,1-1.382.227,3.908,3.908,0,0,1-1.371-.227,3.08,3.08,0,0,1-1.042-.631,2.83,2.83,0,0,1-.67-.946,2.944,2.944,0,0,1-.237-1.192m5.794-5.608h-4.949l-.7-16.558h6.351Z" transform="translate(-1815.423 -345.216)" fill="#8c6df2"/>
          <path id="Trazado_204545" data-name="Trazado 204545" d="M1784.6,950.593a32.638,32.638,0,0,1-3.643,5.32h0a10.9,10.9,0,0,1-3.994,3.262l-.009,0c-.062.021-.124.041-.185.057a.015.015,0,0,1-.009,0h0a2.22,2.22,0,0,1-.694.087c-3.921-.172-8.054-8.409-8.054-8.409a2.9,2.9,0,0,1,.87-1.666,3.538,3.538,0,0,1,1.177-.759s4.223,4.246,5.255,4.552c.649.192,1.5-2.774,2.724-6.5s5.518-4.642,5.518-4.642,4.347,2.694,1.045,8.688" transform="translate(-1572.717 -848.112)" fill="#8c6df2"/>
          <path id="Trazado_204546" data-name="Trazado 204546" d="M1858.228,1056.32h0a10.9,10.9,0,0,1-3.994,3.262l-.009,0-.185.057-.01,0h0a2.993,2.993,0,0,0,1.522-1.883c.205-1.232-1.126-2.239,2.218-4.144,1.949-1.11.457,2.7.457,2.7" transform="translate(-1649.992 -948.519)" fill="#5038a1"/>
          <path id="Trazado_204547" data-name="Trazado 204547" d="M1865.211,1605.2h9.19c.658-.437-.177-4.712-.177-4.712s-2.508-.932-2.942.963-3.195,2.5-4.655,2.727a1.566,1.566,0,0,0-1.416,1.022" transform="translate(-1660.036 -1440.904)" fill="#12263f"/>
          <path id="Trazado_204548" data-name="Trazado 204548" d="M1901.068,1177s-.29,5.25-.652,11.333c-.261,4.362-.558,9.152-.812,12.74-.034.476-.068.931-.1,1.361-.009.133-.019.266-.03.4a78.508,78.508,0,0,1-2.858,15.093c-2.584.533-3.751-.442-3.751-.442s-1.78-20.431-2.44-28.671c-.485-6.066-.9-14.9-.9-14.9Z" transform="translate(-1681.879 -1057.015)" fill="#fdb74d"/>
          <path id="Trazado_204549" data-name="Trazado 204549" d="M1944.023,1261.117c-.261,4.362-.558,9.152-.813,12.74-1.689-3.9-5.14-19.109-5.14-19.109Z" transform="translate(-1725.486 -1129.803)" fill="#ed7d2b"/>
          <path id="Trazado_204550" data-name="Trazado 204550" d="M1999.241,1605.2h9.19c.658-.437-.177-4.712-.177-4.712s-2.508-.932-2.941.963-3.195,2.5-4.656,2.727a1.566,1.566,0,0,0-1.415,1.022" transform="translate(-1780.437 -1440.904)" fill="#12263f"/>
          <path id="Trazado_204551" data-name="Trazado 204551" d="M1914.075,1166.461s6.563,16,8.661,22.06c1.494,4.319,5.709,19.471,5.709,19.471a4.315,4.315,0,0,0,3.373-.51s1.568-15.48-1.6-19.845c-1.68-2.316-.417-24.073-7.231-24.259s-8.913,3.083-8.913,3.083" transform="translate(-1703.932 -1047.524)" fill="#fdb74d"/>
          <path id="Trazado_204552" data-name="Trazado 204552" d="M1896.861,954.267c-.027,2.275-.053,3.945-.047,4.367.018,1.377-.88,1.687-1.807,1.9,0,0-.856.18-1.936.36a21.752,21.752,0,0,1-3.234.339,29.725,29.725,0,0,1-8.464-1.364c-.867,0-1.262-1.313-1.4-3.147-.1-1.241.295-13.617.344-16.708a7.966,7.966,0,0,1,1.623-4.564c3.218-2.786,12.713-2.435,14.422-.513.423.475.545,5.057.56,10.077.009,3.231-.025,6.643-.056,9.258" transform="translate(-1673.28 -840.475)" fill="#8c6df2"/>
          <path id="Trazado_204553" data-name="Trazado 204553" d="M1944.527,898.766c-1.212,1.286-5.283,1.1-5.163-.027.017-.139.043-.96.056-1.088.01-.1.021-.2.029-.3q.041-.415.069-.733c.054-.616.072-.949.072-.949h0c.117-.032,2.735-.76,4.037-1.062a2.134,2.134,0,0,1,.722-.117c-.4,2.864.572,3.85.175,4.272" transform="translate(-1726.647 -805.411)" fill="#ffb27d"/>
          <path id="Trazado_204554" data-name="Trazado 204554" d="M1945.148,896.623s-1.093,1.088-4.25,1.166c.054-.616.072-.949.072-.949h0c.117-.032,2.735-.76,4.037-1.062.229.092-.075.691.138.845" transform="translate(-1728.027 -806.578)" fill="#ed975d"/>
          <path id="Trazado_204555" data-name="Trazado 204555" d="M1928.974,834.235a10.07,10.07,0,0,0,1.819.415c1.49.2,3.45.081,4.065-1.685,1.037-2.972,2.362-4.754-.69-5.968a4.94,4.94,0,0,0-3.388-.436,2.44,2.44,0,0,0-1.255,1.064c-.592.91-1.785,6.089-.55,6.609" transform="translate(-1716.831 -744.126)" fill="#ffb27d"/>
          <path id="Trazado_204556" data-name="Trazado 204556" d="M1935.685,807.054a1.4,1.4,0,0,0,.55,2.565,10.788,10.788,0,0,1,1.789.322c.759.33,1.411.68,1.232,1.833-.061.392-.256.87.774.633a.51.51,0,0,1,.374.022c.427.248-.119,1.452-.284,1.713,0,0-.237.862.289,1.282.064.05,1.1.493,3.589-3.241a3.4,3.4,0,0,0,.161-3.177c-.6-1.271-2.289-2.879-5.463-2.879a6.143,6.143,0,0,0-3.012.927" transform="translate(-1722.763 -725.855)" fill="#5038a1"/>
          <path id="Trazado_204557" data-name="Trazado 204557" d="M2018.858,1047.4c-.464,2.11-.346,2.133-1.057,1.579-2.9-2.256-2.051-3.437-1.407-5.392s-1.616-5.012,0-6.315c1.581-1.274,2.481.78,2.52.871.009,3.231-.025,6.643-.056,9.258" transform="translate(-1795.276 -933.604)" fill="#5038a1"/>
          <path id="Trazado_204558" data-name="Trazado 204558" d="M1998.716,1140.017s-1.092,1.749-1.809,1.688-1.683-.323-2.241.2-1.457,1.866-1.206,2.224,1.261.041,1.988-.352,1.87.193,2.479-.252a20.984,20.984,0,0,0,2.069-2.214Z" transform="translate(-1775.206 -1026.496)" fill="#ffb27d"/>
          <path id="Trazado_204559" data-name="Trazado 204559" d="M2023.951,948.58s9.066,8.353,7.888,13.91c-.536,2.532-2.2,4.668-6.637,8.127,0,0-2.1-1.42-2.559-2.573,0,0,4.027-5.554,3.871-6.5-.191-1.157-2.939-4.06-3.926-4.511s-.9-7.484,1.362-8.454" transform="translate(-1800.873 -854.123)" fill="#8c6df2"/>
          <path id="Trazado_204560" data-name="Trazado 204560" d="M2014.6,1151.175s-.956-.409-1.262-.585-.239.109-.145.251a1.06,1.06,0,0,0,.725.493,1.217,1.217,0,0,0,.683-.159" transform="translate(-1792.9 -1035.967)" fill="#ffb27d"/>
          <path id="Trazado_204561" data-name="Trazado 204561" d="M421.579,801.721c-.328-.619,7.151-2.848,7.269,3.261,0,0,14.01-.337,7.32-7.984-2.316-2.647-2.077-4.836-2.008-6.873s-1.442-7.959-6.628-7.363a3.936,3.936,0,0,0-3.053.32c-3.854,1.958-12.488,20.892-2.9,18.639" transform="translate(-359.287 -704.665)" fill="#163560"/>
          <path id="Trazado_204562" data-name="Trazado 204562" d="M685.371,1016.382s.912-1.359,1.647-1.386,2.1-.4,1.987-.133-.953.293-1.034.453,1.252.4,1.633.426,1.279,0,1.252.187a4.384,4.384,0,0,1-2.742.853,7.764,7.764,0,0,0-2.511.32Z" transform="translate(-600.175 -913.718)" fill="#ffb27d"/>
          <path id="Trazado_204563" data-name="Trazado 204563" d="M555.68,937.243a13.365,13.365,0,0,0,1.395,2.065,8.173,8.173,0,0,0,4.852,3.168,5.306,5.306,0,0,0,2.883-.458h0a13.064,13.064,0,0,0,4.464-3.654,2.019,2.019,0,0,0-.286-2.013s-5.145,1.133-5.635.893-3.5-6.784-4.045-7.874a6.055,6.055,0,0,0-2.984-2.981Z" transform="translate(-483.673 -834.14)" fill="#8c6df2"/>
          <path id="Trazado_204564" data-name="Trazado 204564" d="M567.965,1032a8.171,8.171,0,0,0,4.852,3.168,5.306,5.306,0,0,0,2.883-.458c-.1.013-2.644.321-3.659-1.456-1.035-1.813-2.153-4.692-3.69-3.732-.663.414-.634,1.443-.386,2.479" transform="translate(-494.563 -926.833)" fill="#5038a1"/>
          <path id="Trazado_204565" data-name="Trazado 204565" d="M355.42,1575.5s-1.57,1.4-1.264,2.4,1.723,1.661,1.914,2.88.957,1.883,1.646,1.883H361s.507-.857-.718-1.116-1.687-1.69-1.611-3.019a22.949,22.949,0,0,0-.115-3.1l-2.6-.591Z" transform="translate(-302.607 -1418.016)" fill="#12263f"/>
          <path id="Trazado_204566" data-name="Trazado 204566" d="M495.669,1587.489s-.565,5.943.125,6.275l8.82-.018s0-1-1.417-1.218-3.905-1.034-4.326-2.843-3.2-2.2-3.2-2.2" transform="translate(-429.568 -1429.41)" fill="#12263f"/>
          <path id="Trazado_204567" data-name="Trazado 204567" d="M430.356,926.785a33.678,33.678,0,0,0,0,3.992c.087,1.443,1.578,3.377,1.79,3.855.531,1.2,1.129,1.395,1.129,1.395l4.631,1.112,1.628.39,5.135-1.5s2.339-6.393,1.4-9.991a27.329,27.329,0,0,0-2.374-6.1s-3.481-1.345-9.646-.341Z" transform="translate(-371.04 -827.691)" fill="#8c6df2"/>
          <path id="Trazado_204568" data-name="Trazado 204568" d="M444.2,1027.947a13.841,13.841,0,0,0,.434,3.266c.531,1.2,1.129,1.395,1.129,1.395l4.631,1.112,2.011-.579s-6.714-1-5.97-6.653Z" transform="translate(-383.531 -924.272)" fill="#f2ccaa"/>
          <path id="Trazado_204569" data-name="Trazado 204569" d="M493.155,1097.7s2.543,7.751,2.706,10.39-4.861,37.487-5.063,38.7c-.191,1.146-1.644,1.877-1.644,1.877a2.239,2.239,0,0,1-1.623.122,4.044,4.044,0,0,1-1.742-.8s-1.979-24.854-.754-33.732a137.734,137.734,0,0,0,1.239-16.556Z" transform="translate(-419.852 -988.389)" fill="#5038a1"/>
          <path id="Trazado_204570" data-name="Trazado 204570" d="M381.382,1095.375s-3.879,5.1-4.241,8.542-.567,15.546-1.338,18.905-3.6,9.822-3.6,20.3a2.121,2.121,0,0,0,1.2.92,10.124,10.124,0,0,0,1.058.286,1.674,1.674,0,0,0,1.86-.864c1.914-3.773,8.01-15.942,8.322-18.468.221-1.787,2.146-13.619,6.344-20.561,1.008-1.667-.618-8.295-.618-8.295Z" transform="translate(-318.853 -986.3)" fill="#5038a1"/>
          <path id="Trazado_204571" data-name="Trazado 204571" d="M468.794,1085.68a5.406,5.406,0,0,1-3.049.831c-2.422.048-8.425-.6-8.425-.6a4.771,4.771,0,0,0-.256,1.5s7.331,1.811,11.579.264a2.581,2.581,0,0,0,.151-1.991" transform="translate(-395.085 -977.57)" fill="#5038a1"/>
          <path id="Trazado_204572" data-name="Trazado 204572" d="M537.275,1091.171a1.111,1.111,0,1,1,1.105,1.225,1.171,1.171,0,0,1-1.105-1.225m.366,0a.748.748,0,1,0,.739-.866.811.811,0,0,0-.739.866" transform="translate(-467.139 -981.412)" fill="#fff"/>
          <path id="Trazado_204573" data-name="Trazado 204573" d="M386.5,1013.149l5.953,5.076a1.048,1.048,0,0,0,1.457-.1l7.6-8.542a1,1,0,0,0-.1-1.427l-5.953-5.076a1.048,1.048,0,0,0-1.457.1l-7.6,8.542a1,1,0,0,0,.1,1.427" transform="translate(-331.381 -902.973)" fill="#fdb74d"/>
          <path id="Trazado_204574" data-name="Trazado 204574" d="M471.631,1100c.084.022,3.162.376,3.163,1a1.9,1.9,0,0,1-1.752,1.639,10.083,10.083,0,0,1-1.932-1.448Z" transform="translate(-407.702 -990.461)" fill="#ffb27d"/>
          <path id="Trazado_204575" data-name="Trazado 204575" d="M490.97,886.509a9.841,9.841,0,0,0,.549-3.666l.232.045,3.909.758s-.089,1.2-.092,2.34c0,.009,0,.019,0,.028,0,.986.68,1.975-.935,2.366-.5.121-4.4-.124-3.664-1.871" transform="translate(-425.46 -794.931)" fill="#ffb27d"/>
          <path id="Trazado_204576" data-name="Trazado 204576" d="M503.374,884.052s-.089,1.2-.092,2.34c-2.188-.06-3.344-2.014-3.818-3.1Z" transform="translate(-433.174 -795.338)" fill="#e8945b"/>
          <path id="Trazado_204577" data-name="Trazado 204577" d="M498.825,824.366s-5.176.084-5.179-3.073-.674-5.273,2.631-5.459,3.948,1.017,4.211,2.071-.316,6.359-1.662,6.462" transform="translate(-427.894 -734.577)" fill="#ffb27d"/>
          <path id="Trazado_204578" data-name="Trazado 204578" d="M483.932,809.429s-1.417,3.7-3.592,4.251-3.118-.023-3.118-.023a6.013,6.013,0,0,0,2.014-3.563s3.627-2.429,4.7-.666" transform="translate(-413.193 -728.25)" fill="#163560"/>
          <path id="Trazado_204579" data-name="Trazado 204579" d="M539.754,812.789a3.208,3.208,0,0,1,1.483,1.135,5.02,5.02,0,0,1,.7,2.9s1.068-2.517-.132-3.942c-1.272-1.51-2.051-.092-2.051-.092" transform="translate(-469.366 -731.31)" fill="#163560"/>
          <path id="Trazado_204580" data-name="Trazado 204580" d="M476.241,1098.4a3.589,3.589,0,0,1,1.23-.164c.493.068.858-.01.858.125s-.636.2-.772.263a6.828,6.828,0,0,1-1.316-.224" transform="translate(-412.312 -988.862)" fill="#ffb27d"/>
          <path id="Trazado_204581" data-name="Trazado 204581" d="M386.25,922.968a6.278,6.278,0,0,0-5.082,3.6c-1.408,3.352-4.08,8.981-4.08,9.928s1.493,3.866,9.509,5.544c0,0,.829-.854.779-1.529,0,0-5-4.209-4.991-4.7.025-.931.82-2.159,5.214-6.463,1.195-1.17-1.348-6.385-1.348-6.385" transform="translate(-323.241 -831.061)" fill="#8c6df2"/>
          <path id="Trazado_204582" data-name="Trazado 204582" d="M846.188,636.079h-39.7a3.66,3.66,0,0,0-2.56,1.038l-28.075,27.491a3.509,3.509,0,0,0-1.06,2.507v38.879a3.508,3.508,0,0,0,1.06,2.507l28.075,27.491a3.66,3.66,0,0,0,2.56,1.038h39.7a3.66,3.66,0,0,0,2.56-1.038L876.822,708.5a3.508,3.508,0,0,0,1.06-2.507V667.116a3.509,3.509,0,0,0-1.06-2.507l-28.075-27.491a3.66,3.66,0,0,0-2.56-1.038" transform="translate(-680.5 -572.74)" fill="#fdb74d"/>
          <path id="Trazado_204583" data-name="Trazado 204583" d="M888.983,777.674H854.866a5.225,5.225,0,0,1-3.679-1.492l-24.125-23.624a5.008,5.008,0,0,1-1.524-3.6V715.547a5.008,5.008,0,0,1,1.524-3.6l24.124-23.623a5.225,5.225,0,0,1,3.679-1.492h34.117a5.224,5.224,0,0,1,3.679,1.492l24.124,23.623a5.008,5.008,0,0,1,1.524,3.6v33.409a5.008,5.008,0,0,1-1.524,3.6l-24.124,23.623a5.225,5.225,0,0,1-3.679,1.492m-34.117-87.38a1.673,1.673,0,0,0-1.177.478l-24.124,23.623a1.6,1.6,0,0,0-.488,1.153v33.409a1.6,1.6,0,0,0,.488,1.153l24.125,23.624a1.672,1.672,0,0,0,1.177.477h34.117a1.673,1.673,0,0,0,1.178-.477l24.125-23.623a1.6,1.6,0,0,0,.487-1.153V715.547a1.6,1.6,0,0,0-.487-1.153l-24.125-23.623a1.672,1.672,0,0,0-1.178-.478Z" transform="translate(-726.089 -618.436)" fill="#fff"/>
          <path id="Trazado_204584" data-name="Trazado 204584" d="M1148.972,865.749l-.7-.589a4.274,4.274,0,0,0-5.924.417l-3.926,4.44a.929.929,0,0,1-1.625-.593,9.581,9.581,0,0,0-.057-1.042V840.429a3.384,3.384,0,0,0-3.409-3.338h-.252a3.384,3.384,0,0,0-3.409,3.338v18.192a.808.808,0,0,1-.816.8.892.892,0,0,1-.9-.882V836.9a3.27,3.27,0,0,0-3.294-3.226h-.48a3.27,3.27,0,0,0-3.295,3.226V858.68a.748.748,0,0,1-.756.74.952.952,0,0,1-.962-.942v-17.36a3.384,3.384,0,0,0-3.409-3.338h-.252a3.384,3.384,0,0,0-3.409,3.338v17.5a.809.809,0,0,1-.818.8.89.89,0,0,1-.9-.881V844.848a3.384,3.384,0,0,0-3.409-3.338h-.252a3.384,3.384,0,0,0-3.409,3.338v24.04c0,.067,0,.133.007.2,0,.112-.007.224-.007.337v13.233a9.913,9.913,0,0,0,9.986,9.779h13.513a10.052,10.052,0,0,0,8.4-4.5,20.751,20.751,0,0,1,1.77-2.34l12.414-14.04a4.065,4.065,0,0,0-.426-5.8" transform="translate(-975.62 -750.662)" fill="#fff"/>
        </g>
      </g>
    </g>
  </g>
</svg>
