<svg xmlns="http://www.w3.org/2000/svg" xmlns:xlink="http://www.w3.org/1999/xlink" width="196.955" height="191.308" viewBox="0 0 196.955 191.308">
  <defs>
    <clipPath id="clip-path">
      <path id="Trazado_205055" data-name="Trazado 205055" d="M660.979,507.8c5.025-45.032-39.349-60.677-70.808-49.147-31.713,11.624-39.066-7.645-83.66-2.139-45.154,5.574-22.229,75.31-22.229,75.31s7.185,60.639,15.7,88.591c8.466,27.8,89.5,17.742,109.216,16.913,19.6-.825,36.631.767,53.684-29.757C679.9,577.1,655.97,552.678,660.979,507.8Z" transform="matrix(0.999, -0.035, 0.035, 0.999, -211.882, 1459.628)" fill="#f4f7fa"/>
    </clipPath>
    <clipPath id="clip-path-2">
      <rect id="Rectángulo_46383" data-name="Rectángulo 46383" width="138.147" height="262.176" fill="none"/>
    </clipPath>
    <clipPath id="clip-path-4">
      <rect id="Rectángulo_46370" data-name="Rectángulo 46370" width="9.137" height="84.905" fill="none"/>
    </clipPath>
    <clipPath id="clip-path-5">
      <rect id="Rectángulo_46371" data-name="Rectángulo 46371" width="47.449" height="98.614" fill="none"/>
    </clipPath>
    <clipPath id="clip-path-6">
      <rect id="Rectángulo_46372" data-name="Rectángulo 46372" width="48.457" height="73.639" fill="none"/>
    </clipPath>
    <clipPath id="clip-path-7">
      <rect id="Rectángulo_46373" data-name="Rectángulo 46373" width="17.366" height="15.629" fill="none"/>
    </clipPath>
    <clipPath id="clip-path-8">
      <rect id="Rectángulo_46374" data-name="Rectángulo 46374" width="42.15" height="84.718" fill="none"/>
    </clipPath>
    <clipPath id="clip-path-9">
      <rect id="Rectángulo_46375" data-name="Rectángulo 46375" width="50.11" height="79.249" fill="none"/>
    </clipPath>
    <clipPath id="clip-path-10">
      <rect id="Rectángulo_46376" data-name="Rectángulo 46376" width="7.665" height="7.664" fill="none"/>
    </clipPath>
    <clipPath id="clip-path-11">
      <rect id="Rectángulo_46377" data-name="Rectángulo 46377" width="30.061" height="70.157" fill="none"/>
    </clipPath>
    <clipPath id="clip-path-12">
      <rect id="Rectángulo_46378" data-name="Rectángulo 46378" width="16.482" height="13.007" fill="none"/>
    </clipPath>
    <clipPath id="clip-path-13">
      <rect id="Rectángulo_46380" data-name="Rectángulo 46380" width="31.467" height="17.543" fill="none"/>
    </clipPath>
    <clipPath id="clip-path-14">
      <rect id="Rectángulo_46381" data-name="Rectángulo 46381" width="13.091" height="4.398" fill="none"/>
    </clipPath>
  </defs>
  <g id="Grupo_156266" data-name="Grupo 156266" transform="translate(-2314.853 10253.396)">
    <g id="Grupo_132734" data-name="Grupo 132734" transform="translate(2033.019 -12091.924)">
      <path id="Trazado_1035" data-name="Trazado 1035" d="M660.979,507.8c5.025-45.032-39.349-60.677-70.808-49.147-31.713,11.624-39.066-7.645-83.66-2.139-45.154,5.574-22.229,75.31-22.229,75.31s7.185,60.639,15.7,88.591c8.466,27.8,89.5,17.742,109.216,16.913,19.6-.825,36.631.767,53.684-29.757C679.9,577.1,655.97,552.678,660.979,507.8Z" transform="matrix(0.999, -0.035, 0.035, 0.999, -212.217, 1407.156)" fill="#f4f7fa"/>
    </g>
    <g id="Enmascarar_grupo_157" data-name="Enmascarar grupo 157" transform="translate(2032.684 -12144.396)" clip-path="url(#clip-path)">
      <g id="Grupo_155820" data-name="Grupo 155820" transform="translate(311.573 1911.21)">
        <g id="Grupo_155819" data-name="Grupo 155819" clip-path="url(#clip-path-2)">
          <g id="Grupo_155818" data-name="Grupo 155818">
            <g id="Grupo_155817" data-name="Grupo 155817" clip-path="url(#clip-path-2)">
              <path id="Trazado_205002" data-name="Trazado 205002" d="M109.809,231.527l24.555,10.534s11-2.824,12-1.538-1.767,2.432-4.044,2.929c0,0,8.32,6.3,8.854,7.549s-1.752,2.484-3.556,1.322c0,0-5.1,3.18-7.024,2.559-3.831-.682-5.171-2.374-8.344-6.29,0,0-29.691-6.269-32.564-9.935" transform="translate(-57.541 -133.645)" fill="#e5b7ac"/>
              <path id="Trazado_205003" data-name="Trazado 205003" d="M94.52,186.659c-1.774-3.126-3.643-27.581-3.334-37.816.085-2.844,1.942-6.117,5.355-6.244,4.084-.266,5.013,2.872,5.8,6.465l3.244,32.04" transform="translate(-52.617 -82.304)" fill="#e5b7ac"/>
              <path id="Trazado_205004" data-name="Trazado 205004" d="M71.634,384.01l.351-36.216a12.41,12.41,0,0,0,2.845-5.716c1.159-6.009,2.529-12.2,2.11-18.35a17.467,17.467,0,0,0-3.333-9.322c.8-3.832,1.6-7.665,2.336-11.509,1.084-5.637,1.64-11.359,3.117-16.92a15.376,15.376,0,0,0,.43-5.7l3.79,9.489.131,1.891,3.845,55.018-5.532,48.968-1.13,10.072c-4.058.445-5.1-.157-9.173.009l.1-10.081Z" transform="translate(-41.226 -161.788)" fill="#e5b7ac"/>
              <path id="Trazado_205005" data-name="Trazado 205005" d="M98.4,576.711H66.033L68.012,566.3s3.605,3.915,6.362,2.628a8.367,8.367,0,0,0,4.186-3.777s5.327,2.342,10.588,4.49c.008,0,.016.007.025.007v.008c4.833,1.97,10.231,3.738,9.229,7.05" transform="translate(-38.116 -326.225)" fill="#fff"/>
              <path id="Trazado_205006" data-name="Trazado 205006" d="M125.538,582.841H113.6l-.557-.419a14.818,14.818,0,0,1,3.241-6.646c.008,0,.016.007.025.007v.008c4.833,1.97,10.231,3.738,9.229,7.05" transform="translate(-65.253 -332.356)" fill="#e6e6e7"/>
              <rect id="Rectángulo_46369" data-name="Rectángulo 46369" width="32.468" height="2.935" transform="translate(27.914 250.061)" fill="#d1d1d1"/>
              <path id="Trazado_205007" data-name="Trazado 205007" d="M14.064,393.133l.352-36.216a12.423,12.423,0,0,0,2.845-5.716c1.159-6.009,2.528-12.2,2.11-18.35a17.472,17.472,0,0,0-3.334-9.322c.8-3.831,1.6-7.665,2.337-11.509,1.084-5.637,1.641-11.359,3.117-16.919a15.386,15.386,0,0,0,.431-5.7l3.789,9.489.13,1.89L29.685,355.8l-5.532,48.968-1.13,10.072c-4.059.445-5.105-.157-9.173.01l.1-10.082Z" transform="translate(-7.995 -167.054)" fill="#e5b7ac"/>
              <path id="Trazado_205008" data-name="Trazado 205008" d="M.591,588.542a23.769,23.769,0,0,1,5.5-11.159,6.248,6.248,0,0,0,5.647,2.854c1.127-.12,3.94-2.543,3.94-2.543s4.737,9.308,5.092,11.485" transform="translate(-0.341 -333.284)" fill="#fff"/>
              <path id="Trazado_205009" data-name="Trazado 205009" d="M20.767,597.25s-1.108-5.234-9.713-5.84-10.463,5.2-10.463,5.2l9.522,6.138Z" transform="translate(-0.341 -341.355)" fill="#e6e6e7"/>
              <path id="Trazado_205010" data-name="Trazado 205010" d="M20.457,604.72v3.9S6.6,614.111.013,607.23a16.609,16.609,0,0,1,.236-3.453c9.21,5.81,19.561.931,20.176.637a2.047,2.047,0,0,1,.032.306" transform="translate(0 -348.519)" fill="#d1d1d1"/>
              <path id="Trazado_205011" data-name="Trazado 205011" d="M55.786,301.059l-.043.946-.109,2.252-4.582,98.252-16.228.773,1.443-81.636L24.911,405.323l-14.777-.773.361-11.147,2.59-79.428.643-19.185L14,286.715Z" transform="translate(-5.849 -165.501)" fill="#5038a1"/>
              <g id="Grupo_155786" data-name="Grupo 155786" transform="translate(28.975 152.875)" opacity="0.4" style="mix-blend-mode: multiply;isolation: isolate">
                <g id="Grupo_155785" data-name="Grupo 155785">
                  <g id="Grupo_155784" data-name="Grupo 155784" clip-path="url(#clip-path-4)">
                    <path id="Trazado_205012" data-name="Trazado 205012" d="M69.974,365.222l7.7-3.618-4.3,7.4L68.537,446.51Z" transform="translate(-68.537 -361.605)" fill="#bbbcbf"/>
                  </g>
                </g>
              </g>
              <g id="Grupo_155789" data-name="Grupo 155789" transform="translate(4.645 129.289)" opacity="0.4" style="mix-blend-mode: multiply;isolation: isolate">
                <g id="Grupo_155788" data-name="Grupo 155788">
                  <g id="Grupo_155787" data-name="Grupo 155787" clip-path="url(#clip-path-5)">
                    <path id="Trazado_205013" data-name="Trazado 205013" d="M58.436,313.4a14.127,14.127,0,0,1-2.309,1.876c-4.026,2.771-18.428,6.754-36.012,5.462l-9.127,83.685L13.577,325l.643-19.185,42.016,7.215Z" transform="translate(-10.987 -305.815)" fill="#bbbcbf"/>
                  </g>
                </g>
              </g>
              <path id="Trazado_205014" data-name="Trazado 205014" d="M56.765,204.538a8.8,8.8,0,0,1-1.174.936c-6.962,4.733-23.361,4-23.361,4a90.669,90.669,0,0,1-17.116-3.322c-3.246-1.046-6.185-2.4-7.98-4.1L15.292,175.5l-4.539-22.657-3.447-17.2s1.764-7.6,14.447-11.844a51.316,51.316,0,0,1,10.185-2.213,45.976,45.976,0,0,1,12.884,5.084,40.965,40.965,0,0,1,5.436,4.114c3.007,5.96,4.577,9.909,4.966,13a10.53,10.53,0,0,1-1.69,7.352,58.127,58.127,0,0,1-4.158,5.607Z" transform="translate(-4.117 -70.183)" fill="#fedc72"/>
              <g id="Grupo_155792" data-name="Grupo 155792" transform="translate(3.015 65.693)" opacity="0.4" style="mix-blend-mode: multiply;isolation: isolate">
                <g id="Grupo_155791" data-name="Grupo 155791">
                  <g id="Grupo_155790" data-name="Grupo 155790" clip-path="url(#clip-path-6)">
                    <path id="Trazado_205015" data-name="Trazado 205015" d="M55.589,224.985c-6.962,4.733-23.361,4-23.361,4a90.651,90.651,0,0,1-17.116-3.321c-3.246-1.046-6.185-2.4-7.98-4.1l8.159-26.547-4.539-22.657,7.291-16.968s8.383,61.214,37.547,69.6" transform="translate(-7.132 -155.387)" fill="#bbbcbf"/>
                  </g>
                </g>
              </g>
              <path id="Trazado_205016" data-name="Trazado 205016" d="M60.136,138.361c-9.788.463-16.613-10.9-18.422-14.564A51.376,51.376,0,0,1,51.9,121.584a45.975,45.975,0,0,1,12.884,5.085c1.555,5.625,2,11.37-4.647,11.692" transform="translate(-24.079 -70.182)" fill="#e5b7ac"/>
              <path id="Trazado_205017" data-name="Trazado 205017" d="M87.419,42.3A14.5,14.5,0,0,1,90.08,55.005c-2.132,7.092-1.007,8.958,1.136,12.9s.988,11.958-8.65,11.421c-9.278-.519-6.873-10.49-6.873-10.49L77.6,42.17Z" transform="translate(-43.53 -24.342)" fill="#563b29"/>
              <path id="Trazado_205018" data-name="Trazado 205018" d="M40.925,96.539s9.945,9.961,15.182,9.493c3.258-.288,3.2-6.8,3.2-6.8l-.375-4.458-.545-6.546-.273-3.3L50.691,86.8l-8.012-8.315-.3,3.39-.421,4.871-.2,1.917Z" transform="translate(-23.623 -45.302)" fill="#e5b7ac"/>
              <g id="Grupo_155795" data-name="Grupo 155795" transform="translate(18.136 36.569)" opacity="0.4">
                <g id="Grupo_155794" data-name="Grupo 155794">
                  <g id="Grupo_155793" data-name="Grupo 155793" clip-path="url(#clip-path-7)">
                    <path id="Trazado_205019" data-name="Trazado 205019" d="M42.9,93.288c4.821,6.286,14.257,10.265,17.366,8.363l-.734-8.8L52.009,94.02,43.522,86.5,43.1,91.371Z" transform="translate(-42.898 -86.499)" fill="#ca7e86"/>
                  </g>
                </g>
              </g>
              <path id="Trazado_205020" data-name="Trazado 205020" d="M36.927,72.7s-2.808-5.609-6.469-3.985,1.11,10.931,6.743,8.514Z" transform="translate(-16.84 -39.493)" fill="#e5b7ac"/>
              <path id="Trazado_205021" data-name="Trazado 205021" d="M35.079,75.188A5.4,5.4,0,0,1,39.5,77.4a.224.224,0,0,1-.052.313.22.22,0,0,1-.116.041.224.224,0,0,1-.2-.094,5.817,5.817,0,0,0-1.7-1.475c-.886.658-.318,2.19-.311,2.207a.225.225,0,0,1-.129.289.255.255,0,0,1-.068.015.222.222,0,0,1-.222-.142c-.03-.075-.627-1.687.294-2.584a3.9,3.9,0,0,0-1.824-.343l-.069.005a.221.221,0,0,1-.241-.205.225.225,0,0,1,.205-.242" transform="translate(-20.129 -43.394)" fill="#ca7e86"/>
              <path id="Trazado_205022" data-name="Trazado 205022" d="M44.273,45.2c.637,10.527,8.019,18.728,15.121,18.3s11.233-9.328,10.6-19.854-6.91-18.712-14.012-18.283S43.637,34.678,44.273,45.2" transform="translate(-25.526 -14.633)" fill="#e5b7ac"/>
              <path id="Trazado_205023" data-name="Trazado 205023" d="M39.369,28.628s7.85,3.43,11.694,1.579c2.665-1.415-.9-4.49-.9-4.49s9.982,7.149,15.231,3.5,1.675-11.835-8.673-12.946c0,0-6.789-7.8-15.07-5.416a14.25,14.25,0,0,0-10,9.527l-4.125,15.04s5.065-.609,7.124,1.8c0,0-.413-1.929,1.623,1.354,0,0,4.3-5.08,3.1-9.946" transform="translate(-15.889 -6.005)" fill="#563b29"/>
              <path id="Trazado_205024" data-name="Trazado 205024" d="M28.145,41.955A14.183,14.183,0,0,1,32.48,49.72c.7,4.636.948,11.641,5.62,17.205s-3.546,10.579-10.658,9.433a10.061,10.061,0,0,1-8.059-13.254c1.847-5.1,3.965-9.418,3.295-14.552-5.146-12.741.169-14.84,4.125-17.365s1.343,10.767,1.343,10.767" transform="translate(-10.869 -17.819)" fill="#563b29"/>
              <path id="Trazado_205025" data-name="Trazado 205025" d="M184.761,564.205l-.5,2.844s-7.064,3.212-8.2,3.212-14.758-3.128-13.244,9.977H196.87l-1.009-16.033Z" transform="translate(-93.913 -325.677)" fill="#12263f"/>
              <path id="Trazado_205026" data-name="Trazado 205026" d="M275.312,564.295V569s-4.118,9.559-4.118,10.882v3.676s15.44,5.175,22.793-1.309a16.328,16.328,0,0,0-5.588-12.625l-1.4-8.248Z" transform="translate(-156.542 -324.044)" fill="#12263f"/>
              <path id="Trazado_205027" data-name="Trazado 205027" d="M204.85,281.432l2.982,120.622h15.721l2.725-95.268,9.043,95.851,15.29-1.056-1.693-121.348Z" transform="translate(-118.246 -161.759)" fill="#5038a1"/>
              <g id="Grupo_155798" data-name="Grupo 155798" transform="translate(86.956 133.95)" opacity="0.4" style="mix-blend-mode: multiply;isolation: isolate">
                <g id="Grupo_155797" data-name="Grupo 155797">
                  <g id="Grupo_155796" data-name="Grupo 155796" clip-path="url(#clip-path-8)">
                    <path id="Trazado_205028" data-name="Trazado 205028" d="M225.948,325.066c14.773-2.234,21.885-8.225,21.885-8.225h-42.15l2.055,83.113,3.517-74.126a78.755,78.755,0,0,0,13.269-.565l2.234,2.654,7.388,73.642-4.138-73.866Z" transform="translate(-205.683 -316.841)" fill="#bbbcbf"/>
                  </g>
                </g>
              </g>
              <path id="Trazado_205029" data-name="Trazado 205029" d="M181.343,146.677l-7.418,28.913s10.146,5.948,17.238,4.935-4.526-32.155-4.526-32.155Z" transform="translate(-100.395 -84.667)" fill="#fff"/>
              <path id="Trazado_205030" data-name="Trazado 205030" d="M242.334,175.5l2.091,21.493c-6.059,5.892-27.282,6.559-27.282,6.559s-16.77,1.193-22.828-4.7l4.062-37.762-.437-2.226-6.473-32.593s12.9-12.5,26.336-14.94c14.416,2.409,25.892,13.816,25.892,13.816l-3.732,25.926Z" transform="translate(-110.521 -64.263)" fill="#fff"/>
              <path id="Trazado_205031" data-name="Trazado 205031" d="M207.067,115.69l-.023,2.189s-5.313,21.375-4.858,27.949c.428,6.175-1.791,55.307-1.791,55.307a94.282,94.282,0,0,1-13.025-4.364l1.733-47.846-.554-20.952s15.576-12.141,18.519-12.284" transform="translate(-108.156 -66.78)" fill="#5038a1"/>
              <g id="Grupo_155801" data-name="Grupo 155801" transform="translate(83.794 60.137)" opacity="0.4" style="mix-blend-mode: multiply;isolation: isolate">
                <g id="Grupo_155800" data-name="Grupo 155800">
                  <g id="Grupo_155799" data-name="Grupo 155799" clip-path="url(#clip-path-9)">
                    <path id="Trazado_205032" data-name="Trazado 205032" d="M248.312,214.837c-6.059,5.892-27.282,6.559-27.282,6.559s-16.77,1.193-22.828-4.7l4.062-37.762-.437-2.226,8.734-34.463s.469,23.078,5.4,35.951c5.129,13.382,15.009,16.554,30.257,15.147Z" transform="translate(-198.202 -142.246)" fill="#bbbcbf"/>
                  </g>
                </g>
              </g>
              <path id="Trazado_205033" data-name="Trazado 205033" d="M250.7,93.98s-9.541,9.557-14.567,9.108c-3.126-.276-3.074-6.528-3.074-6.528l.359-4.278L233.937,86l.262-3.162,7.126,1.8,7.688-7.98.284,3.252.4,4.674.194,1.84Z" transform="translate(-134.527 -44.247)" fill="#d8a49a"/>
              <path id="Trazado_205034" data-name="Trazado 205034" d="M277.33,192.312c-.1.09-.194.173-.3.263-3.036,2.617-8.2,4.486-13.347,5.794a.23.23,0,0,0-.076.015c-3.216.816-6.423,1.414-9.108,1.833-4.016.635-6.872.882-6.872.882-.03-.1-.06-.2-.09-.307-6.707-23.1-2.333-59.4-2.333-59.4,2.072-9.326,5.474-19.473,11.7-28.35,4.965.95,20.841,13.406,20.841,13.406-.142,5.609-.41,11.735-.142,21.555.352,13.048-.038,28.977-.269,44.313" transform="translate(-140.731 -65.249)" fill="#5038a1"/>
              <g id="Grupo_155804" data-name="Grupo 155804" transform="translate(109.921 71.285)" opacity="0.4" style="mix-blend-mode: multiply;isolation: isolate">
                <g id="Grupo_155803" data-name="Grupo 155803">
                  <g id="Grupo_155802" data-name="Grupo 155802" clip-path="url(#clip-path-10)">
                    <path id="Trazado_205035" data-name="Trazado 205035" d="M267.667,172.447a3.833,3.833,0,1,1-3.833-3.832,3.833,3.833,0,0,1,3.833,3.832" transform="translate(-260.002 -168.615)" fill="#bbbcbf"/>
                  </g>
                </g>
              </g>
              <path id="Trazado_205036" data-name="Trazado 205036" d="M266.277,170.611a3.832,3.832,0,1,1-3.832-3.831,3.833,3.833,0,0,1,3.832,3.831" transform="translate(-149.28 -96.271)" fill="#fff"/>
              <path id="Trazado_205037" data-name="Trazado 205037" d="M266.077,171.8c-1.056-.7-1.707.558-1.707.558s-1.246-1.339-2.022-.368c-.85.72,1.053,3.052,1.926,3.193.687-.046,2.989-2.424,1.8-3.384" transform="translate(-151.312 -99.048)" fill="#5038a1"/>
              <g id="Grupo_155807" data-name="Grupo 155807" transform="translate(106.807 65.693)" opacity="0.4" style="mix-blend-mode: multiply;isolation: isolate">
                <g id="Grupo_155806" data-name="Grupo 155806">
                  <g id="Grupo_155805" data-name="Grupo 155805" clip-path="url(#clip-path-11)">
                    <path id="Trazado_205038" data-name="Trazado 205038" d="M282.7,172.443l-.269,44.314c-.1.09-.194.172-.3.262-2.445,2.02-7.709,4.068-13.347,5.794a.222.222,0,0,0-.076.016c-3.215.815-6.423,1.414-9.108,1.833-4.016.635-6.871.881-6.871.881-.03-.1-.061-.2-.09-.306,3.739-5.854,13.542-18.306,13.026-34.839-.807-25.8,3.559-33.778,3.559-33.778,2.341-4.958,13.207,6,13.476,15.824" transform="translate(-252.638 -155.387)" fill="#bbbcbf"/>
                  </g>
                </g>
              </g>
              <g id="Grupo_155810" data-name="Grupo 155810" transform="translate(98.888 35.659)" opacity="0.4">
                <g id="Grupo_155809" data-name="Grupo 155809">
                  <g id="Grupo_155808" data-name="Grupo 155808" clip-path="url(#clip-path-12)">
                    <path id="Trazado_205039" data-name="Trazado 205039" d="M250.387,90.862c-6.917,5.5-13.5,7.687-16.482,5.863l.523-6.282,7.217,1.123,8.143-7.217.4,4.674Z" transform="translate(-233.905 -84.348)" fill="#ca7e86"/>
                  </g>
                </g>
              </g>
              <path id="Trazado_205040" data-name="Trazado 205040" d="M182.354,197.9l-2.934,31.235-.747,7.959H148.051l-.064-18.343-.08-20.85Z" transform="translate(-85.377 -114.235)" fill="#b28052"/>
              <path id="Trazado_205041" data-name="Trazado 205041" d="M112.707,197.909l-.89,32.91-.171,6.281H79.064l-.942-17.543h-.008l-.934-17.4c-.007-.06-.007-.082-.007-.082l-.225-4.166Z" transform="translate(-44.417 -114.239)" fill="#c9a06c"/>
              <rect id="Rectángulo_46379" data-name="Rectángulo 46379" width="14.348" height="14.349" transform="translate(42.512 95.492)" fill="#fff"/>
              <path id="Trazado_205042" data-name="Trazado 205042" d="M110.386,235.582c0-5-11.768-.965,0,6.929,11.768-7.893,0-11.931,0-6.929" transform="translate(-60.699 -134.715)" fill="#5038a1"/>
              <path id="Trazado_205043" data-name="Trazado 205043" d="M194.681,206.982h-6.308l.482-9.073h6.308Z" transform="translate(-108.735 -114.239)" fill="#dcbf9b"/>
              <path id="Trazado_205044" data-name="Trazado 205044" d="M190.925,276.438h-6.308l.536-10.1h6.308Z" transform="translate(-106.567 -153.737)" fill="#dcbf9b"/>
              <g id="Grupo_155813" data-name="Grupo 155813" transform="translate(33.705 105.318)" opacity="0.2" style="mix-blend-mode: multiply;isolation: isolate">
                <g id="Grupo_155812" data-name="Grupo 155812">
                  <g id="Grupo_155811" data-name="Grupo 155811" clip-path="url(#clip-path-13)">
                    <path id="Trazado_205045" data-name="Trazado 205045" d="M111.192,266.659H80.666l-.942-17.543Z" transform="translate(-79.724 -249.116)" fill="#c9a06c"/>
                  </g>
                </g>
              </g>
              <path id="Trazado_205046" data-name="Trazado 205046" d="M232.475,179.589l-1.757,24.255-23.884,11.668s-11.134-2.255-12.063-.918,1.89,2.337,4.19,2.717c0,0-7.985,6.717-8.455,7.995s1.878,2.389,3.62,1.137c0,0,5.253,2.914,7.146,2.2,3.791-.879,5.041-2.637,8.008-6.712,0,0,29.486-7.865,32.072-11.738s3.473-25.166,3.473-25.166Z" transform="translate(-109.931 -103.664)" fill="#d8a49a"/>
              <g id="Grupo_155816" data-name="Grupo 155816" transform="translate(120.986 93.028)" opacity="0.4">
                <g id="Grupo_155815" data-name="Grupo 155815">
                  <g id="Grupo_155814" data-name="Grupo 155814" clip-path="url(#clip-path-14)">
                    <path id="Trazado_205047" data-name="Trazado 205047" d="M286.176,224.444l12.889-2.43.2-1.968-12.823.709Z" transform="translate(-286.176 -220.046)" fill="#ca7e86"/>
                  </g>
                </g>
              </g>
              <path id="Trazado_205048" data-name="Trazado 205048" d="M281.1,156.251l1.125,20.188L300.4,174.9l-.967-23.063s-1.965-10.54-9.177-9.666c-3.416.413-9.165,4.3-9.165,14.075" transform="translate(-162.257 -82.039)" fill="#fff"/>
              <path id="Trazado_205049" data-name="Trazado 205049" d="M206.932,35.253s-4.335,6.034.059,12.25c4.562,6.456-.059-12.25-.059-12.25" transform="translate(-118.346 -20.349)" fill="#12263f"/>
              <path id="Trazado_205050" data-name="Trazado 205050" d="M220.573,23.381v-.008s9.975-2.508,15.25,9.5c0,0,3.138,7.763-.093,15.3,0,0-6.981,9.972-15.157,12.792-5.735,1.768-10.357-8.543-11.66-18.83-.805-9.478,2.115-17.981,11.659-18.746" transform="translate(-120.519 -13.366)" fill="#d8a49a"/>
              <path id="Trazado_205051" data-name="Trazado 205051" d="M270.861,66.362v4.653c3.936,1.415,7.162-2.465,7.751-5.636.293-1.6-.083-3.016-1.37-3.5-2.721-1.011-4.771,1.637-5.745,3.282a11.162,11.162,0,0,0-.635,1.2" transform="translate(-156.35 -35.587)" fill="#d8a49a"/>
              <path id="Trazado_205052" data-name="Trazado 205052" d="M277.058,68.621a5.547,5.547,0,0,0-4.395,2.542.23.23,0,0,0,.2.352.227.227,0,0,0,.194-.108,5.973,5.973,0,0,1,1.647-1.616c.948.619.461,2.223.456,2.24a.23.23,0,0,0,.149.288.216.216,0,0,0,.07.011.228.228,0,0,0,.219-.16c.025-.078.537-1.766-.463-2.628a4.027,4.027,0,0,1,1.848-.464h.071a.225.225,0,0,0,.233-.225.229.229,0,0,0-.225-.235" transform="translate(-157.37 -39.61)" fill="#b76c77"/>
              <path id="Trazado_205053" data-name="Trazado 205053" d="M234.055,17.841c1.22-6.265-3.518-10.223-7.691-10C223.7,1.314,213.756,2.465,207.9,4.674L208.712,0c-5.674,1.683-6.014,8.094-6.022,8.1L201.462,2.5c-3.947,3.459-1.742,9.628-1.742,9.628l-3.043-2.168c-.573,4.609,5.1,8.224,5.1,8.224,3.43,2.119,21.151-.819,21.715-.434,0,1.308.329,6.306,3.312,8.318a20.465,20.465,0,0,0,.653,9.428s.941-6.25,2.524-7.738a6.143,6.143,0,0,1,2.74-1.691Z" transform="translate(-113.505)" fill="#12263f"/>
              <path id="Trazado_205054" data-name="Trazado 205054" d="M19.382,149.668l1.335,31.991,22.641,13.927s11.3-1.166,12.095.255-2.108,2.144-4.433,2.3c0,0,7.3,7.46,7.641,8.777s-2.1,2.2-3.714.78c0,0-5.511,2.391-7.325,1.493-3.688-1.241-4.762-3.113-7.321-7.455,0,0-28.585-10.685-30.784-14.789-1.7-3.169-2.97-27.664-2.413-37.888a5.882,5.882,0,0,1,5.7-5.724,6.663,6.663,0,0,1,6.574,6.334" transform="translate(-4.024 -82.737)" fill="#e5b7ac"/>
            </g>
          </g>
        </g>
      </g>
    </g>
  </g>
</svg>
