<svg xmlns="http://www.w3.org/2000/svg" width="452" height="452" viewBox="0 0 452 452">
  <g id="Grupo_180212" data-name="Grupo 180212" transform="translate(11961.667 12403)">
    <path id="Trazado_113538" data-name="Trazado 113538" d="M1147.026,206.529a117.009,117.009,0,1,1-117.008,117.01h0a117.009,117.009,0,0,1,117.008-117.009Z" transform="translate(-12883.167 -12501.709)" fill="#fff" opacity="0.8" style="mix-blend-mode: overlay;isolation: isolate"/>
    <g id="Grupo_80155" data-name="Grupo 80155" transform="translate(-12883.167 -12501.709)" style="mix-blend-mode: overlay;isolation: isolate">
      <g id="Grupo_80153" data-name="Grupo 80153" opacity="0.5">
        <path id="Trazado_113539" data-name="Trazado 113539" d="M1147.027,530.475c-114.1,0-206.937-92.832-206.937-206.937S1032.922,116.6,1147.027,116.6a206.7,206.7,0,0,1,136.792,51.657,5.543,5.543,0,1,1-7.332,8.315,195.63,195.63,0,0,0-129.46-48.886c-107.993,0-195.851,87.859-195.851,195.851s87.858,195.851,195.851,195.851,195.851-87.859,195.851-195.851a194.671,194.671,0,0,0-15.036-75.391,5.543,5.543,0,1,1,10.231-4.271,205.714,205.714,0,0,1,15.891,79.662C1353.964,437.643,1261.132,530.475,1147.027,530.475Z" fill="#fff"/>
      </g>
      <g id="Grupo_80154" data-name="Grupo 80154" opacity="0.5">
        <path id="Trazado_113540" data-name="Trazado 113540" d="M1147.027,504.463c-99.762,0-180.925-81.163-180.925-180.925s81.163-180.925,180.925-180.925,180.925,81.162,180.925,180.925S1246.789,504.463,1147.027,504.463Zm0-320.542c-76.985,0-139.616,62.632-139.616,139.617s62.631,139.616,139.616,139.616,139.616-62.631,139.616-139.616S1224.011,183.921,1147.027,183.921Z" fill="#fff"/>
      </g>
    </g>
    <g id="Elipse_5294" data-name="Elipse 5294" transform="translate(-11961.667 -12403)" fill="none" stroke="#fff" stroke-width="6" stroke-dasharray="20">
      <circle cx="226" cy="226" r="226" stroke="none"/>
      <circle cx="226" cy="226" r="223" fill="none"/>
    </g>
    <rect id="Rectángulo_45126" data-name="Rectángulo 45126" width="313.446" height="294.192" transform="translate(-11932.577 -12293.354)" fill="none"/>
  </g>
</svg>
