<svg xmlns="http://www.w3.org/2000/svg" xmlns:xlink="http://www.w3.org/1999/xlink" width="241" height="241" viewBox="0 0 241 241">
  <defs>
    <clipPath id="clip-path">
      <circle id="Elipse_5368" data-name="Elipse 5368" cx="110.636" cy="110.636" r="110.636" fill="none"/>
    </clipPath>
    <clipPath id="clip-path-2">
      <path id="Trazado_188103" data-name="Trazado 188103" d="M209.318,50.214A85.4,85.4,0,0,1,220.5,65.682c23.54,39.834,14.444,83.87,11.4,97.476-4.917,21.951-8.509,40.5-23.255,55.958-33.5,35.119-100.142,30.572-140.312,1-4.763-3.506-43.642-32.98-47.44-77.65-.092-1.093-.137-1.907-.181-2.619-.421-6.9-2.381-49.657,27.325-83.213A102.788,102.788,0,0,1,71.358,37.179C113.183,11.742,176.212,14.276,209.318,50.214Z" transform="translate(1065.823 1593.244)" fill="#e5e1f1"/>
    </clipPath>
    <clipPath id="clip-path-3">
      <rect id="Rectángulo_46270" data-name="Rectángulo 46270" width="8.798" height="15.341" fill="none"/>
    </clipPath>
    <clipPath id="clip-path-4">
      <rect id="Rectángulo_46271" data-name="Rectángulo 46271" width="61.132" height="41.836" fill="none"/>
    </clipPath>
    <clipPath id="clip-path-5">
      <rect id="Rectángulo_46273" data-name="Rectángulo 46273" width="22.256" height="22.256" fill="none"/>
    </clipPath>
    <clipPath id="clip-path-6">
      <rect id="Rectángulo_46279" data-name="Rectángulo 46279" width="3.365" height="3.365" fill="none"/>
    </clipPath>
  </defs>
  <g id="Grupo_156251" data-name="Grupo 156251" transform="translate(-1074.001 -1873)">
    <g id="Grupo_155467" data-name="Grupo 155467" transform="translate(1074.001 1873.334)">
      <rect id="Rectángulo_43932" data-name="Rectángulo 43932" width="241" height="241" transform="translate(0 -0.334)" fill="none"/>
      <g id="Grupo_132821" data-name="Grupo 132821" transform="translate(7.625 3.606)">
        <circle id="Elipse_5243" data-name="Elipse 5243" cx="42.82" cy="42.82" r="42.82" fill="#fdb74d" opacity="0.8" style="isolation: isolate"/>
        <g id="Elipse_5250" data-name="Elipse 5250" transform="translate(14.749 51.86)">
          <circle id="Elipse_5364" data-name="Elipse 5364" cx="3.33" cy="3.33" r="3.33" fill="none"/>
          <circle id="Elipse_5365" data-name="Elipse 5365" cx="2.617" cy="2.617" r="2.617" transform="translate(0.714 0.714)" fill="none" stroke="#8c6df2" stroke-width="2.372"/>
        </g>
        <circle id="Elipse_5251" data-name="Elipse 5251" cx="2.141" cy="2.141" r="2.141" transform="translate(39.49 40.441)" fill="#8c6df2"/>
      </g>
      <path id="Trazado_188103-2" data-name="Trazado 188103" d="M209.318,50.214A85.4,85.4,0,0,1,220.5,65.682c23.54,39.834,14.444,83.87,11.4,97.476-4.917,21.951-8.509,40.5-23.255,55.958-33.5,35.119-100.142,30.572-140.312,1-4.763-3.506-43.642-32.98-47.44-77.65-.092-1.093-.137-1.907-.181-2.619-.421-6.9-2.381-49.657,27.325-83.213A102.788,102.788,0,0,1,71.358,37.179C113.183,11.742,176.212,14.276,209.318,50.214Z" transform="translate(-8.178 -8.09)" fill="#e5e1f1"/>
      <path id="Trazado_139920" data-name="Trazado 139920" d="M37.808,235.332a3.388,3.388,0,0,0-.087.379,2.48,2.48,0,0,0,2.859,2.966,4.553,4.553,0,0,0,3.958-3.54,85.189,85.189,0,0,1,5.6-18.685,101.082,101.082,0,0,1,9.853-17.943l.733-1.075.767-1.055c.507-.706,1.035-1.4,1.567-2.088q1.584-2.077,3.3-4.055c.562-.665,1.158-1.3,1.733-1.955s1.19-1.271,1.782-1.905c.618-.614,1.214-1.241,1.849-1.838s1.249-1.2,1.9-1.774,1.279-1.156,1.939-1.705c.329-.276.652-.558.984-.826l1-.8c.658-.543,1.351-1.027,2.021-1.541.684-.489,1.367-.977,2.056-1.443s1.381-.924,2.085-1.34c.351-.21.7-.431,1.048-.636l1.054-.6c.177-.1.348-.2.529-.3l.549-.281,1.094-.558c.742-.345,1.472-.706,2.219-1.028a78.947,78.947,0,0,1,18.468-5.4c6.336-1.114,12.8-1.711,19.508-2.32,3.357-.308,6.775-.6,10.293-.978,1.754-.18,3.542-.4,5.346-.638.91-.129,1.815-.247,2.737-.391l2.689-.419c6.882-1.087,13.988-2.3,21.343-4a152.765,152.765,0,0,0,22.907-7.091,108.24,108.24,0,0,0,12.063-5.747,93.694,93.694,0,0,0,12.1-7.991c1.976-1.544,3.917-3.2,5.795-4.951.941-.874,1.859-1.78,2.768-2.7.451-.463.889-.91,1.341-1.4s.908-.986,1.345-1.488a76.125,76.125,0,0,0,9.144-12.821c.635-1.125,1.245-2.256,1.811-3.4.3-.6.519-1.067.771-1.578l.725-1.511c.48-1.01.928-2.04,1.366-3.073s.842-2.084,1.259-3.13A80.119,80.119,0,0,0,247.718,87.7a67.547,67.547,0,0,0,1.328-13.21,62.263,62.263,0,0,0-10.315-34.476,79.485,79.485,0,0,0-14.513-16.575,95.677,95.677,0,0,0-8.624-6.7c-1.519-1.044-3.079-2.05-4.718-3.032-.823-.49-1.66-.978-2.549-1.464-.446-.244-.9-.486-1.39-.736l-.772-.383-.439-.2-.269-.119-.406-.165c-13.6-4.756-31.625,3.124-40.246,17.6s-4.58,30.063,9.024,34.819l-.138-.069c-.032-.019-.012-.017-.012-.017l.011-.007c.007-.011.059,0,.09-.006.094.005.189.016.282.03.209.026.453.075.7.123.494.1,1.022.223,1.55.36,1.066.282,2.159.606,3.241.964a57.116,57.116,0,0,1,6.341,2.512A48.6,48.6,0,0,1,196.716,73.7a30.4,30.4,0,0,1,7.2,8.6,22.28,22.28,0,0,1,2.007,4.966,24.561,24.561,0,0,1,.848,5.561,31.438,31.438,0,0,1-.377,6.266c-.106.557-.188,1.112-.3,1.68-.133.57-.238,1.14-.384,1.72l-.432,1.685c-.1.442-.233.889-.362,1.333a24.666,24.666,0,0,1-2.33,5.225c-.122.214-.253.422-.382.633l-.445.674c-.307.451-.623.9-.964,1.349-.675.894-1.413,1.785-2.222,2.67a57.155,57.155,0,0,1-12.844,10.083q-1.942,1.177-4.014,2.268t-4.247,2.124c-2.895,1.375-5.908,2.673-9,3.9-6.191,2.466-12.686,4.655-19.387,6.811l-2.405.77c-.776.25-1.567.482-2.358.727-1.593.468-3.2.931-4.839,1.374-3.27.891-6.632,1.74-10.054,2.588-6.843,1.709-13.964,3.475-21.221,5.9a104.309,104.309,0,0,0-21.638,9.819c-.872.525-1.727,1.1-2.584,1.645-.848.586-1.685,1.141-2.532,1.753l-1.264.906c-.415.308-.82.626-1.229.938-.824.617-1.6,1.28-2.393,1.925a88.959,88.959,0,0,0-8.6,8.343,119.229,119.229,0,0,0-13.48,18.327,149,149,0,0,0-9.758,19.306,184.081,184.081,0,0,0-6.9,19.737Z" transform="translate(-15.008 -3.686)" fill="#fdb74d"/>
      <circle id="Elipse_5247" data-name="Elipse 5247" cx="16.414" cy="16.414" r="16.414" transform="translate(38.244 18.823)" fill="#8c6df2" opacity="0.7" style="isolation: isolate"/>
      <g id="Elipse_5249" data-name="Elipse 5249" transform="translate(44.609 25.287)">
        <circle id="Elipse_5369" data-name="Elipse 5369" cx="6.185" cy="6.185" r="6.185" fill="none"/>
        <circle id="Elipse_5370" data-name="Elipse 5370" cx="5.471" cy="5.471" r="5.471" transform="translate(0.714 0.714)" fill="none" stroke="#fff" stroke-width="2.372"/>
      </g>
      <g id="Elipse_5245" data-name="Elipse 5245" transform="translate(195.286 5.567)">
        <circle id="Elipse_5371" data-name="Elipse 5371" cx="17.842" cy="17.842" r="17.842" fill="none"/>
        <circle id="Elipse_5372" data-name="Elipse 5372" cx="16.89" cy="16.89" r="16.89" transform="translate(0.952 0.952)" fill="none" stroke="#fff" stroke-linecap="round" stroke-width="3.163" stroke-dasharray="2.372 6.326"/>
      </g>
    </g>
    <g id="Enmascarar_grupo_151" data-name="Enmascarar grupo 151" transform="translate(0 272)" clip-path="url(#clip-path-2)">
      <g id="Grupo_155671" data-name="Grupo 155671" transform="translate(1064.351 1644.674)">
        <g id="Grupo_155672" data-name="Grupo 155672">
          <g id="Grupo_155669" data-name="Grupo 155669" transform="translate(0 0)">
            <g id="Grupo_155673" data-name="Grupo 155673">
              <path id="Trazado_204585" data-name="Trazado 204585" d="M1832.514,1177.592s-10.75,7.581-23.1,1.012l11.549-6.444Z" transform="translate(-1602.994 -1038.437)" fill="#6f3428"/>
              <path id="Trazado_204586" data-name="Trazado 204586" d="M1257.4,775.648s-10.459,19.615-7.185,25.409l11.909-6.611Z" transform="translate(-1107.021 -687.16)" fill="#6f3428"/>
              <path id="Trazado_204587" data-name="Trazado 204587" d="M1081.142,470.708a36.365,36.365,0,0,1-3.78-3.274,55.018,55.018,0,0,1-6.577-8.037v0c-1.342-1.966-2.6-4.018-3.76-6.1a127.275,127.275,0,0,1-7.857-17.163c-1.951-5.181-3.084-9.024-3.386-9.9a.955.955,0,0,0-.073-.185l5.658-16.244c2.734-4.378,4.267,9.832,4.267,9.832a10.958,10.958,0,0,0,2.208-2.442c.608-.793,1.075.462,1.158.91.472,2.612-1.63,7.579-1.63,7.579l13.49,19.771a27.355,27.355,0,0,0,2.754,3.41,26.377,26.377,0,0,0,2.033,1.936c1.2,5.084,1.075,14.886-4.5,19.912" transform="translate(-935.272 -362.307)" fill="#f9b384"/>
              <path id="Trazado_204588" data-name="Trazado 204588" d="M1341.484,826.327a46.2,46.2,0,0,0-18.083-.37,35.945,35.945,0,0,0-5.016,1.382l-1.484,5.317-2.929,10.513-1.9,6.83-1.732,6.2-.973,3.5h-52.278l8.27-53.922-10.207-4.709a21.743,21.743,0,0,0,1.82-3.367c3.1-6.981,4.763-17.562,5.366-22.043a26.774,26.774,0,0,0,10.109,5.458,51.81,51.81,0,0,0,14.838,2.253l.516-.015c11.612-.452,16.793,3.075,16.793,3.075,2.627.521,9.477,3.152,15.456,5.784,2.637,1.153,5.1,2.311,6.971,3.284a19.729,19.729,0,0,1,10.017,12.785Z" transform="translate(-1111.962 -687.171)" fill="#fedc72"/>
              <g id="Grupo_155658" data-name="Grupo 155658" transform="translate(120.511 58.486)" opacity="0.6">
                <g id="Grupo_155657" data-name="Grupo 155657">
                  <g id="Grupo_155656" data-name="Grupo 155656" clip-path="url(#clip-path-3)">
                    <path id="Trazado_204589" data-name="Trazado 204589" d="M1059.734,528c-1.951-5.181-3.084-9.024-3.386-9.9l8.778-5.436c.336,4.948-3.577,12-5.392,15.341" transform="translate(-1056.348 -512.661)" fill="#e28b6d"/>
                  </g>
                </g>
              </g>
              <path id="Trazado_204590" data-name="Trazado 204590" d="M1619.153,786.918l-1.454,11.369a8.345,8.345,0,0,1-16.623-1.041,8.705,8.705,0,0,1,.1-1.318l.263-1.664,1.026-6.485,5.779-.3Z" transform="translate(-1418.421 -697.144)" fill="#f9b384"/>
              <path id="Trazado_204591" data-name="Trazado 204591" d="M1582.113,528.148a17.239,17.239,0,0,1,1.839-5.485,11.725,11.725,0,0,1,8.835-6.417c5.74-.828,13.161-.021,17.2,5.492,4.556,6.215.77,18.642-4.115,19.7s-23.762-13.291-23.762-13.291" transform="translate(-1401.622 -457.106)" fill="#12263f"/>
              <path id="Trazado_204592" data-name="Trazado 204592" d="M1614.667,794.22c-1.951,1.849-6.446,6.173-12.7,6.091l1.289-8.149,5.78-.3Z" transform="translate(-1419.214 -701.527)" fill="#e28b6d"/>
              <path id="Trazado_204593" data-name="Trazado 204593" d="M1595.56,575.879l-.871,4.529-.214,1.109-.856,4.456-.492,2.554-.608,3.152-2.973,1.785a13.213,13.213,0,0,1-2.306,1.133,0,0,0,0,1-.005,0,21.848,21.848,0,0,1-10.926,1.245,4.639,4.639,0,0,1-.963-.229c-2.3-.783-3.474-3.2-3.989-6.212a32.758,32.758,0,0,1-.268-7.195,76.589,76.589,0,0,1,1.187-9.263c5.113-4.568,12.094-5.4,17.27-6.412Z" transform="translate(-1391.787 -501.906)" fill="#f9b384"/>
              <path id="Trazado_204594" data-name="Trazado 204594" d="M1582.113,553.311c8.144-6.411,19.116.084,19.116.084s-1.677,10.1,1.566,9.263,6.534-7.583,6.534-7.583l-7.424-10.7-16.239,2.8Z" transform="translate(-1401.622 -482.269)" fill="#102048"/>
              <path id="Trazado_204595" data-name="Trazado 204595" d="M1758.9,686.214c1.6-2.8,4.7-3.7,6.372-1.575s1.734,8.812-6.477,7.368Z" transform="translate(-1558.146 -605.493)" fill="#f9b384"/>
              <path id="Trazado_204596" data-name="Trazado 204596" d="M1612.848,759.832l5.294.111s-2.935,3.981-5.091.276Z" transform="translate(-1428.851 -673.149)" fill="#fff"/>
              <path id="Trazado_204597" data-name="Trazado 204597" d="M1770.836,702.2a4,4,0,0,1,.248-1.359,2.975,2.975,0,0,1,.8-1.212,2.05,2.05,0,0,1,1.43-.53,2.131,2.131,0,0,1,1.33.558l-.143.247a2.93,2.93,0,0,0-1.174-.163,1.786,1.786,0,0,0-.964.436,3.329,3.329,0,0,0-.712.924c-.2.359-.361.75-.534,1.154Z" transform="translate(-1568.816 -619.347)" fill="#e28b6d"/>
              <path id="Trazado_204598" data-name="Trazado 204598" d="M939.253,599.771s10.618,5.2,8.65,13.82l-7.023,1.966Z" transform="translate(-832.101 -531.348)" fill="#102048"/>
              <path id="Trazado_204599" data-name="Trazado 204599" d="M939.253,419.9c1.14-1.122,6.983-7.579,6.779-15.648-.155-6.119,2.559-3.355,2.908.868,0,0,1.492-8.636,5.606-7.761l-1.209,1.655s1.56-2.925,2.819-2.142.118,3.285.118,3.285.588-2.169,1.667-2.335,2.07,3.234-.344,12.1a22.581,22.581,0,0,1,3.648-3.031c1.033-.438.964,6.349-6.367,13.571s-12.516,12.809-12.516,12.809Z" transform="translate(-832.101 -351.48)" fill="#f9b384"/>
              <path id="Trazado_204600" data-name="Trazado 204600" d="M564.23,635.151c.258.4,42.783-35.38,42.783-35.38l8.65,13.82-43.406,51.114Z" transform="translate(-499.861 -531.348)" fill="#8c6df2"/>
              <path id="Trazado_204601" data-name="Trazado 204601" d="M1041.552,401.785c-.507.781-.975,1.593-1.407,2.419a26.85,26.85,0,0,0-1.162,2.537,20.939,20.939,0,0,0-.879,2.642l-.175.675-.134.684c-.115.454-.139.919-.226,1.381l-.19-.01a13.408,13.408,0,0,1,.312-2.829,17.27,17.27,0,0,1,.845-2.722,20.837,20.837,0,0,1,1.25-2.556,16.726,16.726,0,0,1,1.616-2.337Z" transform="translate(-919.033 -355.845)" fill="#e28b6d"/>
              <path id="Trazado_204602" data-name="Trazado 204602" d="M1070.517,426.538c-.141.772-.307,1.537-.478,2.3s-.362,1.522-.536,2.285l-.579,2.273c-.2.755-.406,1.51-.633,2.261l-.186-.04c.1-.78.251-1.551.405-2.319s.34-1.53.525-2.291c.2-.757.386-1.518.606-2.27s.438-1.5.693-2.248Z" transform="translate(-946.253 -377.835)" fill="#e28b6d"/>
              <path id="Trazado_204603" data-name="Trazado 204603" d="M1076.193,409.3a31.956,31.956,0,0,1-.237,7.991c-.108.66-.222,1.321-.381,1.972-.075.327-.157.652-.25.974l-.067.243-.031.113a.075.075,0,0,0-.01-.056.08.08,0,0,0-.111-.022l.171-.151c.5-.441,1-.879,1.511-1.309l.774-.638c.137-.108.25-.2.412-.318a.609.609,0,0,1,.939.408l.049.259c.018.173.048.346.05.519a4.443,4.443,0,0,1,.006.518,4.557,4.557,0,0,1-.033.514,9.352,9.352,0,0,1-.427,1.993,16.815,16.815,0,0,1-1.73,3.641,30.716,30.716,0,0,1-2.369,3.236c-.429.512-.887,1-1.329,1.5l-1.4,1.431-.136-.133,1.335-1.475c.42-.512.857-1.011,1.263-1.533a30.446,30.446,0,0,0,2.271-3.242,17.48,17.48,0,0,0,1.65-3.56,8.864,8.864,0,0,0,.394-1.9,6.4,6.4,0,0,0,.019-.959c0-.16-.031-.315-.048-.472l-.045-.231c-.014-.074-.017-.067-.04-.094a.131.131,0,0,0-.161-.014l-.378.29-.769.625c-.509.423-1.012.856-1.511,1.292l-.2.176a.378.378,0,0,1-.587-.4l.036-.128.067-.237c.094-.315.176-.634.252-.955.157-.64.286-1.287.405-1.936a36.159,36.159,0,0,0,.447-3.938,29.219,29.219,0,0,0,.009-3.966Z" transform="translate(-949.348 -362.609)" fill="#e28b6d"/>
              <path id="Trazado_204604" data-name="Trazado 204604" d="M232.9,1170.472s-14.693-5.8-20.692,5.292c-7.544,13.942,3.792,30.324,3.792,30.324H235.94Z" transform="translate(-185.703 -1035.601)" fill="#fdb74d"/>
              <path id="Trazado_204605" data-name="Trazado 204605" d="M383.106,619.21c4.818,2.94,8.149,1.192,9.122-1.981s4.53-15.129-10.338-13.2c0,0-18.22-7.346-25.931,3.492-6.8,9.562-.561,16.171-10.954,24.1-7.247,5.528-15.463,15.241.834,31.852l17.676-4.869Z" transform="translate(-298.011 -532.963)" fill="#ae5140"/>
              <path id="Trazado_204606" data-name="Trazado 204606" d="M624.508,877.523c.36,1.682,4.259,6.038,5.819,7.672,4.717,4.939,5.757,14.206-7.691,17.038l-7.566-17.624Z" transform="translate(-544.903 -777.413)" fill="#6f3428"/>
              <path id="Trazado_204607" data-name="Trazado 204607" d="M565.027,846.029l-1.591,7.322-2.471,11.393-13.792-2.914,3.245-22.344,14.064,6.3Z" transform="translate(-484.75 -743.715)" fill="#f9b384"/>
              <path id="Trazado_204608" data-name="Trazado 204608" d="M778.058,769.953s3.98,4.463,3.84,5.6-3.84,3.171-3.84,3.171Z" transform="translate(-689.296 -682.115)" fill="#f9b384"/>
              <path id="Trazado_204609" data-name="Trazado 204609" d="M634.35,892.8l-1.591,7.321c-4.242-2.257-7.336-7.842-7.336-7.842l8.382.277Z" transform="translate(-554.073 -790.484)" fill="#e28b6d"/>
              <path id="Trazado_204610" data-name="Trazado 204610" d="M589.556,676.956c-.559,4.242-1.97,7.5-4.986,7.794-8.338.807-20.34-8.533-20.34-8.533l.647-17.1,9.068-5.595,14.677,2.724c.175,1.931,1.075,7.837,1.221,13.777a45.886,45.886,0,0,1-.287,6.937" transform="translate(-499.861 -578.962)" fill="#f9b384"/>
              <path id="Trazado_204611" data-name="Trazado 204611" d="M559.761,640.147l-1.809,1.393c-9.433-7.36-7.478,3.243-8.353,6.639s-5.346,2.5-8.835.307l-.623,4.753-10.484.331-.608-13.286L539.5,632.11l19.352,3.775Z" transform="translate(-468.694 -559.997)" fill="#ae5140"/>
              <path id="Trazado_204612" data-name="Trazado 204612" d="M493.013,816.627c5.149-2.763,3.69-9.973,1.685-12.44s-10.522-6.608-11.556-14.377c-.575-4.321,3.794-9.423,3.794-9.423l-8.862-4.755-9.081,14.277,6.851,24.52Z" transform="translate(-415.489 -687.145)" fill="#ae5140"/>
              <path id="Trazado_204613" data-name="Trazado 204613" d="M397.657,1056.945l-43.224.029c-1.888-27.676,5.011-41.828,10.975-48.78a17.166,17.166,0,0,1,15.149-5.838c4.977.613,9.3,2.977,13.675,13.281l-20.462,9.516,13.135,23.127a15.208,15.208,0,0,0,5.536,5.614Z" transform="translate(-313.717 -887.891)" fill="#8c6df2"/>
              <path id="Trazado_204614" data-name="Trazado 204614" d="M526.405,1203.19s6.432,25.743,8.815,29.131c2.482,3.527,7.809,2.641,17.1,2.661h0l-11.731-26.134Z" transform="translate(-466.352 -1065.927)" fill="#5038a1"/>
              <path id="Trazado_204615" data-name="Trazado 204615" d="M578.879,1154.09l-1.858,6.84-24.706.157h-2.024l-5.215-3.05a15.208,15.208,0,0,1-5.536-5.614L526.405,1129.3l20.461-9.516c2.2,5.162,4.408,12.323,6.718,22.247a4.365,4.365,0,0,0,2.5,3.007Z" transform="translate(-466.352 -992.033)" fill="#8c6df2"/>
              <path id="Trazado_204616" data-name="Trazado 204616" d="M597.517,764.089c-.743-4.121-5.633-4.667-6.484-1.883s-.644,7.57,5.5,7.286Z" transform="translate(-523.284 -673.72)" fill="#f9b384"/>
              <path id="Trazado_204617" data-name="Trazado 204617" d="M607.5,776.2l-.765-.874a3.678,3.678,0,0,0-.792-.691.717.717,0,0,0-.758-.064,3.136,3.136,0,0,0-.777.711l-.255-.128a2.006,2.006,0,0,1,.686-1.123,1.21,1.21,0,0,1,.747-.25,1.51,1.51,0,0,1,.726.227,2.936,2.936,0,0,1,.916.936,4.38,4.38,0,0,1,.522,1.117Z" transform="translate(-535.233 -685.508)" fill="#e28b6d"/>
              <path id="Trazado_204618" data-name="Trazado 204618" d="M1009.611,1159.3H958.192l9.713-41.836h51.418Z" transform="translate(-848.88 -989.98)" fill="#5038a1"/>
              <g id="Grupo_155661" data-name="Grupo 155661" transform="translate(109.312 127.483)" opacity="0.6">
                <g id="Grupo_155660" data-name="Grupo 155660">
                  <g id="Grupo_155659" data-name="Grupo 155659" clip-path="url(#clip-path-4)">
                    <path id="Trazado_204619" data-name="Trazado 204619" d="M1009.61,1159.3l9.713-41.836c-14.7,34.01-36.536,37.779-61.132,41.836" transform="translate(-958.192 -1117.463)" fill="#102048"/>
                  </g>
                </g>
              </g>
              <path id="Trazado_204620" data-name="Trazado 204620" d="M1204.28,1274.17a3.131,3.131,0,1,1-1.427-4.573,3.413,3.413,0,0,1,1.427,4.573" transform="translate(-1061.557 -1124.576)" fill="#fff"/>
              <path id="Trazado_204621" data-name="Trazado 204621" d="M1409.525,1210.548l-.156,4.252-.7,19.055v.025a9.7,9.7,0,0,1-3.8,7.321H1383.44l-44.747.151c-.8,0-1.615-1.858-.433-2.778,2.612-2.043,6.7-4.291,9.55-6.11a7.964,7.964,0,0,1,5.293-1.2c3.079.394,7.521,1.956,13.048.326a22.312,22.312,0,0,1,2.914-.652l18.01-2.768,7.088-1.09.2-12.007.063-3.634c.676-.18,1.367-.34,2.077-.481a42.248,42.248,0,0,1,13.023-.409" transform="translate(-1185.063 -1072.17)" fill="#f9b384"/>
              <rect id="Rectángulo_46272" data-name="Rectángulo 46272" width="259.665" height="22.754" transform="translate(0 169.074)" fill="#d3dfff"/>
              <path id="Línea_234" data-name="Línea 234" d="M259.665,1H0V-1H259.665Z" transform="translate(0 169.084)" fill="#102048"/>
              <g id="Grupo_155664" data-name="Grupo 155664" transform="translate(111.93 11.16)" opacity="0.2">
                <g id="Grupo_155663" data-name="Grupo 155663">
                  <g id="Grupo_155662" data-name="Grupo 155662" clip-path="url(#clip-path-5)">
                    <path id="Trazado_204622" data-name="Trazado 204622" d="M1003.4,108.948a11.881,11.881,0,0,1-7.945,11.128h-6.128a11.613,11.613,0,0,1-8.184-11.128,11.128,11.128,0,1,1,22.257,0" transform="translate(-981.139 -97.82)" fill="#fedc72"/>
                  </g>
                </g>
              </g>
              <rect id="Rectángulo_46274" data-name="Rectángulo 46274" width="0.973" height="8.309" transform="translate(122.572 0)" fill="#fdb74d"/>
              <rect id="Rectángulo_46275" data-name="Rectángulo 46275" width="0.973" height="9.089" transform="translate(107.69 5.622) rotate(-53.259)" fill="#fdb74d"/>
              <rect id="Rectángulo_46276" data-name="Rectángulo 46276" width="9.089" height="0.973" transform="matrix(0.801, -0.598, 0.598, 0.801, 130.562, 10.279)" fill="#fdb74d"/>
              <rect id="Rectángulo_46277" data-name="Rectángulo 46277" width="0.973" height="4.184" transform="translate(117.122 5.408) rotate(-21.291)" fill="#fdb74d"/>
              <rect id="Rectángulo_46278" data-name="Rectángulo 46278" width="4.184" height="0.973" transform="matrix(0.363, -0.932, 0.932, 0.363, 126.57, 8.953)" fill="#fdb74d"/>
              <path id="Trazado_204623" data-name="Trazado 204623" d="M1030.542,156.269a7.144,7.144,0,0,0-14.225-.284,6.346,6.346,0,0,0,1.965,4.856,6.852,6.852,0,0,1,2.2,4.882v.264h6.128v-.546a6.71,6.71,0,0,1,2.055-4.694,6.345,6.345,0,0,0,1.877-4.478" transform="translate(-900.368 -132.57)" fill="#fdb74d"/>
              <path id="Trazado_204624" data-name="Trazado 204624" d="M1054.894,315.647h0a3.064,3.064,0,0,1-3.064-3.064v-.151h6.128v.151a3.064,3.064,0,0,1-3.064,3.064" transform="translate(-931.835 -276.789)" fill="#fdb74d"/>
              <g id="Grupo_155667" data-name="Grupo 155667" transform="translate(119.094 21.04)" opacity="0.8">
                <g id="Grupo_155666" data-name="Grupo 155666">
                  <g id="Grupo_155665" data-name="Grupo 155665" clip-path="url(#clip-path-6)">
                    <path id="Trazado_204625" data-name="Trazado 204625" d="M1047.3,186.113a1.682,1.682,0,1,1-1.682-1.682,1.682,1.682,0,0,1,1.682,1.682" transform="translate(-1043.932 -184.431)" fill="#fff"/>
                  </g>
                </g>
              </g>
              <path id="Trazado_204626" data-name="Trazado 204626" d="M1454.136,259.6v-3.768h-1.8a8.722,8.722,0,0,0-1.236-2.927l1.288-1.288-2.664-2.664-1.32,1.32a8.718,8.718,0,0,0-2.895-1.155V247.2h-3.768v1.978a8.72,8.72,0,0,0-2.781,1.2l-1.434-1.434-2.664,2.664,1.466,1.466a8.722,8.722,0,0,0-1.122,2.749h-2.09V259.6h2.09a8.721,8.721,0,0,0,1.122,2.749l-1.466,1.466,2.664,2.664,1.434-1.434a8.721,8.721,0,0,0,2.781,1.2v1.978h3.768v-1.912a8.719,8.719,0,0,0,2.895-1.155l1.32,1.32,2.664-2.664-1.288-1.288a8.722,8.722,0,0,0,1.236-2.927Z" transform="translate(-1269.625 -219.001)" fill="#b0c0d2"/>
              <path id="Trazado_204627" data-name="Trazado 204627" d="M1485.448,293.653a5.881,5.881,0,1,1-5.881-5.881,5.881,5.881,0,0,1,5.881,5.881" transform="translate(-1305.566 -254.942)" fill="#fff"/>
              <path id="Trazado_204628" data-name="Trazado 204628" d="M1672.781,215.829l.847-2.594-1.238-.4a6.322,6.322,0,0,0-.194-2.293l1.177-.6-1.236-2.433-1.206.612a6.31,6.31,0,0,0-1.733-1.446l.43-1.316-2.594-.847-.444,1.362a6.319,6.319,0,0,0-2.185.2l-.665-1.31L1661.306,206l.68,1.339a6.312,6.312,0,0,0-1.391,1.64l-1.439-.47-.847,2.594,1.439.47a6.311,6.311,0,0,0,.155,2.145l-1.339.68,1.236,2.433,1.31-.665a6.319,6.319,0,0,0,1.644,1.453l-.444,1.361,2.594.847.43-1.316a6.313,6.313,0,0,0,2.253-.144l.612,1.206,2.433-1.236-.6-1.177a6.312,6.312,0,0,0,1.509-1.737Z" transform="translate(-1469.127 -181.18)" fill="#b0c0d2"/>
              <path id="Trazado_204629" data-name="Trazado 204629" d="M1696.408,239.884a4.259,4.259,0,1,1-2.727-5.371,4.259,4.259,0,0,1,2.727,5.371" transform="translate(-1495.517 -207.572)" fill="#fff"/>
              <path id="Trazado_204630" data-name="Trazado 204630" d="M612.122,248.289l1.9-2.594-1.238-.907a7.441,7.441,0,0,0,.625-2.638l1.537-.238-.491-3.178-1.575.243a7.438,7.438,0,0,0-1.411-2.255l.964-1.316-2.594-1.9-1,1.362a7.449,7.449,0,0,0-2.521-.574l-.264-1.711-3.178.491.27,1.749a7.441,7.441,0,0,0-2.159,1.327l-1.439-1.054-1.9,2.594,1.439,1.054a7.444,7.444,0,0,0-.614,2.459l-1.749.27.491,3.178,1.711-.264a7.45,7.45,0,0,0,1.308,2.23l-1,1.362,2.594,1.9.964-1.316a7.443,7.443,0,0,0,2.576.665l.243,1.575,3.178-.491-.237-1.537a7.443,7.443,0,0,0,2.327-1.392Z" transform="translate(-528.65 -206.049)" fill="#b0c0d2"/>
              <path id="Trazado_204631" data-name="Trazado 204631" d="M641.647,276.419a5.019,5.019,0,1,1-1.084-7.015,5.019,5.019,0,0,1,1.084,7.015" transform="translate(-560.413 -237.81)" fill="#fff"/>
              <path id="Trazado_204632" data-name="Trazado 204632" d="M454.656,223.146l1.891-1.359-.649-.9a5.39,5.39,0,0,0,1.023-1.676l1.112.182.376-2.3-1.139-.187a5.386,5.386,0,0,0-.465-1.869l.959-.69-1.359-1.891-.993.713a5.389,5.389,0,0,0-1.607-.962l.2-1.237-2.3-.376-.207,1.265a5.388,5.388,0,0,0-1.785.428l-.754-1.049-1.891,1.359.754,1.049a5.386,5.386,0,0,0-.975,1.555l-1.265-.207-.376,2.3,1.237.2a5.393,5.393,0,0,0,.4,1.83l-.993.713,1.359,1.891.96-.69a5.389,5.389,0,0,0,1.624,1.037l-.186,1.139,2.3.376.182-1.112a5.393,5.393,0,0,0,1.915-.435Z" transform="translate(-394.421 -186.568)" fill="#b0c0d2"/>
              <path id="Trazado_204633" data-name="Trazado 204633" d="M476.944,243.155a3.635,3.635,0,1,1,.83-5.073,3.635,3.635,0,0,1-.83,5.073" transform="translate(-417.434 -209.58)" fill="#fff"/>
            </g>
          </g>
        </g>
      </g>
    </g>
  </g>
</svg>
