<svg xmlns="http://www.w3.org/2000/svg" xmlns:xlink="http://www.w3.org/1999/xlink" width="295.001" height="214.333" viewBox="0 0 295.001 214.333">
  <defs>
    <clipPath id="clip-path">
      <rect id="Rectángulo_46579" data-name="Rectángulo 46579" width="295" height="186.204" fill="none"/>
    </clipPath>
    <clipPath id="clip-path-2">
      <path id="Trazado_205450" data-name="Trazado 205450" d="M286.546,21.423s7.162,54.718,23.854,85.6c24.745,45.784-4.53,113.373-89.656,126.061S43.3,211.939,26.512,159.072c-7.194-27.491,12.7-90.983,12.7-90.983l24-46.666Z" transform="translate(156.121 397.244)" fill="#fedc72"/>
    </clipPath>
    <clipPath id="clip-path-3">
      <rect id="Rectángulo_46580" data-name="Rectángulo 46580" width="11.625" height="9.598" fill="none"/>
    </clipPath>
    <clipPath id="clip-path-4">
      <rect id="Rectángulo_46581" data-name="Rectángulo 46581" width="18.621" height="73.156" fill="none"/>
    </clipPath>
    <clipPath id="clip-path-5">
      <rect id="Rectángulo_46582" data-name="Rectángulo 46582" width="2.327" height="4.363" fill="none"/>
    </clipPath>
    <clipPath id="clip-path-6">
      <rect id="Rectángulo_46583" data-name="Rectángulo 46583" width="1.622" height="53.04" fill="none"/>
    </clipPath>
    <clipPath id="clip-path-7">
      <rect id="Rectángulo_46584" data-name="Rectángulo 46584" width="45.949" height="45.435" fill="none"/>
    </clipPath>
    <clipPath id="clip-path-8">
      <rect id="Rectángulo_46585" data-name="Rectángulo 46585" width="4.297" height="4.629" fill="none"/>
    </clipPath>
    <clipPath id="clip-path-9">
      <rect id="Rectángulo_46586" data-name="Rectángulo 46586" width="18.916" height="81.737" fill="none"/>
    </clipPath>
    <clipPath id="clip-path-10">
      <rect id="Rectángulo_46587" data-name="Rectángulo 46587" width="13.116" height="11.01" fill="none"/>
    </clipPath>
    <clipPath id="clip-path-11">
      <rect id="Rectángulo_46588" data-name="Rectángulo 46588" width="2.389" height="4.931" fill="none"/>
    </clipPath>
    <clipPath id="clip-path-12">
      <rect id="Rectángulo_46589" data-name="Rectángulo 46589" width="1.621" height="50.461" fill="none"/>
    </clipPath>
    <clipPath id="clip-path-13">
      <rect id="Rectángulo_46590" data-name="Rectángulo 46590" width="12.246" height="10.521" fill="none"/>
    </clipPath>
    <clipPath id="clip-path-14">
      <rect id="Rectángulo_46591" data-name="Rectángulo 46591" width="2.426" height="4.886" fill="none"/>
    </clipPath>
    <clipPath id="clip-path-15">
      <rect id="Rectángulo_46592" data-name="Rectángulo 46592" width="16.483" height="20.173" fill="none"/>
    </clipPath>
    <clipPath id="clip-path-16">
      <rect id="Rectángulo_46593" data-name="Rectángulo 46593" width="1.622" height="53.039" fill="none"/>
    </clipPath>
    <clipPath id="clip-path-17">
      <rect id="Rectángulo_46594" data-name="Rectángulo 46594" width="3.433" height="17.385" fill="none"/>
    </clipPath>
    <clipPath id="clip-path-18">
      <rect id="Rectángulo_46595" data-name="Rectángulo 46595" width="28.033" height="18.048" fill="none"/>
    </clipPath>
    <clipPath id="clip-path-19">
      <rect id="Rectángulo_46600" data-name="Rectángulo 46600" width="52.973" height="35.682" fill="none"/>
    </clipPath>
    <clipPath id="clip-path-20">
      <rect id="Rectángulo_46607" data-name="Rectángulo 46607" width="25.738" height="25.073" fill="none"/>
    </clipPath>
  </defs>
  <g id="Grupo_156144" data-name="Grupo 156144" transform="translate(-180 -418.667)">
    <g id="Grupo_156087" data-name="Grupo 156087" transform="translate(180 446.796)">
      <g id="Grupo_156086" data-name="Grupo 156086" clip-path="url(#clip-path)">
        <path id="Trazado_205349" data-name="Trazado 205349" d="M198.21,50.529c-58.717-5.907-111.031,16.009-140.95,37.6-31.242,22.541-37.943,43.457-30.748,70.948,16.785,52.867,109.106,86.7,194.232,74.014s114.4-80.278,89.656-126.061c-16.692-30.884-53.473-50.589-112.19-56.5" transform="translate(-23.879 -49.552)" fill="#fedc72" opacity="0.4"/>
      </g>
    </g>
    <g id="Enmascarar_grupo_158" data-name="Enmascarar grupo 158" clip-path="url(#clip-path-2)">
      <g id="Grupo_156143" data-name="Grupo 156143" transform="translate(-2.569)">
        <path id="Trazado_205350" data-name="Trazado 205350" d="M83.438,138.482c-3.829,1.342-13.72,26.624-13.99,29.517s8.22,6.248,8.22,6.248l8.226-18.22Z" transform="translate(177.993 362.849)" fill="#fdb74d"/>
        <path id="Trazado_205351" data-name="Trazado 205351" d="M113.354,111.217s1.812,5.635-.848,9.773c-.345.536-3.186,1.114-3.4,1.719-1.9,5.269,2.746,13.86,6.743,13.784,4.024-.077,17.113-10.671,12.577-14.913-.49-.458-2.938-1.267-3.276-1.861-1.67-2.932-1.215-8.161-1.215-8.161Z" transform="translate(162.417 374.101)" fill="#fcc790"/>
        <g id="Grupo_156091" data-name="Grupo 156091" transform="translate(275.335 485.318)" opacity="0.2">
          <g id="Grupo_156090" data-name="Grupo 156090">
            <g id="Grupo_156089" data-name="Grupo 156089" clip-path="url(#clip-path-3)">
              <path id="Trazado_205352" data-name="Trazado 205352" d="M127.345,118.3a20.436,20.436,0,0,1-.613-6.741l-10.576-.34s1.606,5-.436,9.045c3.943,1.319,7.956.129,11.625-1.963" transform="translate(-115.72 -111.217)" fill="#5038a1"/>
            </g>
          </g>
        </g>
        <path id="Trazado_205353" data-name="Trazado 205353" d="M133.59,307.075a134.392,134.392,0,0,0-1.343-22.459s5.483-33.58,5.05-48.552-4.52-18.048-4.52-18.048c-19.471,2.871-32.862-.946-32.862-.946s-2.144,4.861-1.927,14.09,4.148,43.685,4.633,46.332c.207,1.135,1.232,11.261,2.37,22.829a144.347,144.347,0,0,0,28.158,12.767c.217-2.143.376-4.187.443-6.013" transform="translate(166.663 330.417)" fill="#fcc790"/>
        <g id="Grupo_156094" data-name="Grupo 156094" transform="translate(264.719 563.771)" opacity="0.25">
          <g id="Grupo_156093" data-name="Grupo 156093">
            <g id="Grupo_156092" data-name="Grupo 156092" clip-path="url(#clip-path-4)">
              <path id="Trazado_205354" data-name="Trazado 205354" d="M113.431,254.156c-1.754-5.555-9.046-7.835-15.32-9.358.651,11.6,4.085,41.588,4.535,44.05.208,1.138,1.236,11.3,2.377,22.9q5.647,3.351,11.709,6.2c-.8-22.68-1.666-42.606-3.3-63.8" transform="translate(-98.111 -244.797)" fill="#fdb74d"/>
            </g>
          </g>
        </g>
        <path id="Trazado_205355" data-name="Trazado 205355" d="M134.625,268.856c1.44-10.793,2.979-23.963,2.743-32.168-.433-14.972-5.8-18.672-5.8-18.672-19.471,2.871-32.221-.946-32.221-.946a36.751,36.751,0,0,0-4.415,17.211,233.612,233.612,0,0,0,3.262,35.667c8.17,1.432,27.169.848,36.433-1.092" transform="translate(167.874 330.417)" fill="#5038a1"/>
        <path id="Trazado_205356" data-name="Trazado 205356" d="M93.856,69.038a63.1,63.1,0,0,0,2.1,10c2.218,7.082,6.511,15.174,12.718,14.255,4.669-.692,12.286-5.529,12.777-11.939,5.563-2.224,6.542-5.086,6.543-7.795,0-10.972-7.026-21.178-21.567-19.083C94.209,56.233,93.3,65.59,93.856,69.038" transform="translate(168.346 397.633)" fill="#fcc790"/>
        <g id="Grupo_156097" data-name="Grupo 156097" transform="translate(289.936 471.514)" opacity="0.2">
          <g id="Grupo_156096" data-name="Grupo 156096">
            <g id="Grupo_156095" data-name="Grupo 156095" clip-path="url(#clip-path-5)">
              <path id="Trazado_205357" data-name="Trazado 205357" d="M141.8,91.155c1.459-2.839-.938-5.056-1.809-1.9-.323,3.112.779,3.493,1.809,1.9" transform="translate(-139.939 -87.712)" fill="#5038a1"/>
            </g>
          </g>
        </g>
        <path id="Trazado_205358" data-name="Trazado 205358" d="M129.167,166.326A31.208,31.208,0,0,1,130.6,160.8a47.8,47.8,0,0,0,1.9-5.693l-.037,10.665s6.372,4.329,10.224,5.39a7.991,7.991,0,0,0,.274-1.166,75.345,75.345,0,0,0,.569-12.326c-.209-7.28-1.381-20.42-5.432-23.321s-18.545-7.855-18.545-7.855-2.778,8.221-8.93,9.688l-1.683,5.369-1.146-5.463c-4.477-2.367-2.642-9.056-2.642-9.056s-11.431,4.824-12.971,6.5-.423,2.826,1.491,15.312c-.144,7.578,4.9,16.323,4.671,22.6-.1,2.63-4.75,17.057-5.513,21.548,12.123,3.571,32.468,2.891,44.015-1.912-.6-1.69-7.2-14.322-7.878-17.057a26.927,26.927,0,0,1,.2-7.7" transform="translate(169.25 367.798)" fill="#fdb74d"/>
        <path id="Trazado_205359" data-name="Trazado 205359" d="M107.02,142.822a24.4,24.4,0,0,1,4.448-6.291l-.014-.068c-4.477-2.367-2.642-9.056-2.642-9.056s-4.425,1.868-8.139,3.684c.156,2.821,2.487,8.078,6.348,11.731" transform="translate(165.59 367.419)" fill="#fff"/>
        <path id="Trazado_205360" data-name="Trazado 205360" d="M139.754,129.261c-4.053-1.566-7.57-2.769-7.57-2.769s-2.775,8.211-8.92,9.684a48.671,48.671,0,0,1,5.3,6.621c4.766-3.05,7.758-8.159,11.194-13.536" transform="translate(156.618 367.798)" fill="#fff"/>
        <path id="Trazado_205361" data-name="Trazado 205361" d="M124.7,50.21a7.2,7.2,0,0,0,1.568-1.972c2.146-3.976.1-9.14-4.573-11.532s-10.2-1.11-12.345,2.866a7.085,7.085,0,0,0-.845,3.267c-.122,0-.242-.006-.365-.006-8,.046-15.173,4.8-17.379,14.267-1.464,6.287,3.2,12.141,2.89,10.4-.768-4.252.18-7.141,1.824-9.074a23.566,23.566,0,0,0,14.586,1.923,8.689,8.689,0,0,1-4.531-3.261c3.271,2.9,8.894,2.672,8.894,2.672-2.735-.675-4.627-3.212-5.542-4.73,4.276.917,9.083,3.4,9.873,11.13a2.985,2.985,0,0,1,5.672-.7c1.658,3.037-1.107,8.376-4.557,7.717a5.257,5.257,0,0,1-.506,3.52c3.274-.715,7.406-5.381,8.3-12.8.654-5.454-.446-10.133-2.959-13.689" transform="translate(169.641 405.349)" fill="#5038a1"/>
        <g id="Grupo_156100" data-name="Grupo 156100" transform="translate(276.941 510.301)" opacity="0.25">
          <g id="Grupo_156099" data-name="Grupo 156099">
            <g id="Grupo_156098" data-name="Grupo 156098" clip-path="url(#clip-path-6)">
              <path id="Trazado_205362" data-name="Trazado 205362" d="M118.916,206.794h-.029a.3.3,0,0,1-.271-.321,159.633,159.633,0,0,0,.215-27.9c-.467-7.659-.909-14.893.577-24.572a.3.3,0,0,1,.343-.247.3.3,0,0,1,.253.334c-1.477,9.618-1.038,16.822-.572,24.45a160.1,160.1,0,0,1-.216,27.987.3.3,0,0,1-.3.265" transform="translate(-118.385 -153.754)" fill="#5038a1"/>
            </g>
          </g>
        </g>
        <path id="Trazado_205363" data-name="Trazado 205363" d="M66.558,227.8l31.613-11.914a2.531,2.531,0,0,0-.421-4.873L59.7,203.455a2.68,2.68,0,0,0-1.383.09l-25.9,8.787a2.527,2.527,0,0,0,.02,4.819l32.332,10.687a2.681,2.681,0,0,0,1.785-.036" transform="translate(193.391 336.056)" fill="#fff"/>
        <path id="Trazado_205364" data-name="Trazado 205364" d="M56.422,211.349,51.677,220c-.127.056,16.869,7.4,16.869,7.4l23.028-7.868Z" transform="translate(185.048 332.778)" fill="#8c6df2"/>
        <path id="Trazado_205365" data-name="Trazado 205365" d="M58.072,209.589,55.93,179.738a2.233,2.233,0,0,0-1.636-1.976L15.046,166.621a2.33,2.33,0,0,0-1.877.268,2.2,2.2,0,0,0-1,2.262l5.468,29.119a2.237,2.237,0,0,0,1.51,1.7l35.923,11.874a2.266,2.266,0,0,0,3.006-2.257" transform="translate(200.752 351.274)" fill="#fff"/>
        <g id="Grupo_156103" data-name="Grupo 156103" transform="translate(212.882 517.805)" opacity="0.2">
          <g id="Grupo_156102" data-name="Grupo 156102">
            <g id="Grupo_156101" data-name="Grupo 156101" clip-path="url(#clip-path-7)">
              <path id="Trazado_205366" data-name="Trazado 205366" d="M58.072,209.589,55.93,179.738a2.233,2.233,0,0,0-1.636-1.976L15.046,166.621a2.33,2.33,0,0,0-1.877.268,2.2,2.2,0,0,0-1,2.262l5.468,29.119a2.237,2.237,0,0,0,1.51,1.7l35.923,11.874a2.266,2.266,0,0,0,3.006-2.257" transform="translate(-12.13 -166.531)" fill="#8c6df2"/>
            </g>
          </g>
        </g>
        <g id="Grupo_156106" data-name="Grupo 156106" transform="translate(231.898 539.029)" opacity="0.3">
          <g id="Grupo_156105" data-name="Grupo 156105">
            <g id="Grupo_156104" data-name="Grupo 156104" clip-path="url(#clip-path-8)">
              <path id="Trazado_205367" data-name="Trazado 205367" d="M47.937,204.665a2.215,2.215,0,0,1-1.754,2.611A2.258,2.258,0,0,1,43.7,205.3a2.215,2.215,0,0,1,1.754-2.611,2.258,2.258,0,0,1,2.481,1.973" transform="translate(-43.671 -202.669)" fill="#8c6df2"/>
            </g>
          </g>
        </g>
        <path id="Trazado_205368" data-name="Trazado 205368" d="M109.036,195.2a38.408,38.408,0,0,0-5.455,2.672s-3.644,1.7-5.151,2.221a9.333,9.333,0,0,0-4.191,3.521c-.456,1.064-.335,4.862.343,4.911s1.489-3.874,1.606-4.147a12.318,12.318,0,0,1,2.063-1.354l-3.324,8.65a2.532,2.532,0,0,0,2.015-.731c.936-.9,3.07-6.775,3.557-6.631s-2.51,8.287-2.51,8.287a3.481,3.481,0,0,0,2.254-.9c.757-.869,2.551-7.36,3.086-7.2s-.177,5.919-.177,5.919a2.562,2.562,0,0,0,2.055-1.464c.719-1.42.71-5.114.71-5.114s4.713-2.129,4.716-4.414c0-.587,5.755,1.241,12.409,2.241a59.141,59.141,0,0,0,19.513-.578,4.639,4.639,0,0,0,1.311-3.352c-2.835-1.209-7.473-2.857-10.406-5.374-3.3.556-22.9,2.431-24.425,2.835" transform="translate(168.253 340.61)" fill="#fcc790"/>
        <path id="Trazado_205369" data-name="Trazado 205369" d="M283.084,215.383s-5.369,3.076-5.8,18.048,5.05,48.552,5.05,48.552a134.4,134.4,0,0,0-1.343,22.459c.133,3.606.62,8.062,1.219,12.451a101.043,101.043,0,0,0,26.4-9.175c1.472-15.123,3.085-31.4,3.351-32.858.484-2.647,4.416-37.1,4.633-46.332s-1.928-14.09-1.928-14.09-12.109,3.817-31.58.946" transform="translate(95.465 331.503)" fill="#fcc790"/>
        <g id="Grupo_156109" data-name="Grupo 156109" transform="translate(393.044 562.313)" opacity="0.25">
          <g id="Grupo_156108" data-name="Grupo 156108">
            <g id="Grupo_156107" data-name="Grupo 156107" clip-path="url(#clip-path-9)">
              <path id="Trazado_205370" data-name="Trazado 205370" d="M314.561,251.672c-1.838,23.825-2.708,46.04-3.6,72.38a95.377,95.377,0,0,0,11.03-4.829c1.472-15.123,3.084-31.4,3.351-32.858.45-2.462,3.884-32.45,4.536-44.05-6.274,1.522-13.565,3.8-15.32,9.358" transform="translate(-310.964 -242.314)" fill="#fdb74d"/>
            </g>
          </g>
        </g>
        <path id="Trazado_205371" data-name="Trazado 205371" d="M347.21,150.45c1.138-10.971-2.59-21.075-5.783-21.811-2.287,1.962-.578,14.89-.807,29.041q2.854-.175,5.689-.284c.346-2.3.666-4.674.9-6.946" transform="translate(70.461 366.911)" fill="#fdb74d"/>
        <path id="Trazado_205372" data-name="Trazado 205372" d="M313.285,108.22s-1.812,5.635.848,9.773c.345.536,3.186,1.114,3.4,1.719,1.9,5.269-3.387,12.612-7.383,12.536-4.024-.077-16.473-9.423-11.936-13.665.49-.458,2.938-1.267,3.276-1.861,1.67-2.932,1.215-8.162,1.215-8.162Z" transform="translate(87.531 375.338)" fill="#fcc790"/>
        <g id="Grupo_156112" data-name="Grupo 156112" transform="translate(388.942 483.559)" opacity="0.2">
          <g id="Grupo_156111" data-name="Grupo 156111">
            <g id="Grupo_156110" data-name="Grupo 156110" clip-path="url(#clip-path-10)">
              <path id="Trazado_205373" data-name="Trazado 205373" d="M316.882,117.993c-2.661-4.138-.848-9.773-.848-9.773l-10.576.34s.455,5.229-1.215,8.162a.585.585,0,0,1-.082.106c3.972,2.433,8.956,3.2,13.116,1.455a1.068,1.068,0,0,1-.395-.29" transform="translate(-304.161 -108.22)" fill="#5038a1"/>
            </g>
          </g>
        </g>
        <path id="Trazado_205374" data-name="Trazado 205374" d="M315.247,260.892a208.237,208.237,0,0,0,1.372-31.48,40.924,40.924,0,0,0-3.209-15.339s-13.391,3.817-32.862.946c0,0-5.207,4.33-5.8,19.3a188.612,188.612,0,0,0,.791,26.779c10.581,3.315,30.233,2.453,39.71-.2" transform="translate(96.524 331.653)" fill="#5038a1"/>
        <path id="Trazado_205375" data-name="Trazado 205375" d="M326.473,69.541a63.349,63.349,0,0,1-3.107,9.745c-2.929,6.833-8.025,14.47-14.108,12.955-4.576-1.139-11.662-6.689-11.5-13.115-4.929-.157-5.771-5.681-5.717-8.389a4,4,0,0,1,4.743-3.244,19.526,19.526,0,0,1,1.7-6.834s2.708-10.316,16.964-6.826c11.978,2.932,11.933,12.331,11.025,15.708" transform="translate(89.594 398.081)" fill="#fcc790"/>
        <g id="Grupo_156115" data-name="Grupo 156115" transform="translate(385.365 469.821)" opacity="0.2">
          <g id="Grupo_156114" data-name="Grupo 156114">
            <g id="Grupo_156113" data-name="Grupo 156113" clip-path="url(#clip-path-11)">
              <path id="Trazado_205376" data-name="Trazado 205376" d="M300.523,86.3c-.266-1.287-1.41-2.065-2.02-.908a3.372,3.372,0,0,0,1.745,4.365,7.5,7.5,0,0,0,.276-3.457" transform="translate(-298.228 -84.831)" fill="#5038a1"/>
            </g>
          </g>
        </g>
        <path id="Trazado_205377" data-name="Trazado 205377" d="M310.584,126.455l-10.421-3.107s1.511,6.372-2.176,7.757l-1.268,6.058-2.175-5.8c-5.831-.86-7.5-7.93-7.5-7.93S271,127.781,266.7,131.671s-4.273,25.8-4.078,32.909l10.8-.274,1.154-9.82a27.875,27.875,0,0,0,.786,3.255c3.189,10.443-3.42,24.094-4.9,28.234,11.548,4.8,29.359,2.928,41.481-.643-.763-4.492-4.225-14.315-4.321-16.945-.228-6.274,4.174-15.019,4.03-22.6a173.69,173.69,0,0,0-1.059-19.334" transform="translate(101.303 369.095)" fill="#fdb74d"/>
        <g id="Grupo_156118" data-name="Grupo 156118" transform="translate(397.956 506.587)" opacity="0.25">
          <g id="Grupo_156117" data-name="Grupo 156117">
            <g id="Grupo_156116" data-name="Grupo 156116" clip-path="url(#clip-path-12)">
              <path id="Trazado_205378" data-name="Trazado 205378" d="M320.2,197.892h.029a.286.286,0,0,0,.271-.3,144.526,144.526,0,0,1-.215-26.54c.467-7.287.909-14.169-.577-23.377a.3.3,0,0,0-.343-.235.283.283,0,0,0-.253.318c1.477,9.15,1.038,16,.572,23.261a144.943,144.943,0,0,0,.216,26.627.293.293,0,0,0,.3.253" transform="translate(-319.112 -147.431)" fill="#5038a1"/>
            </g>
          </g>
        </g>
        <path id="Trazado_205379" data-name="Trazado 205379" d="M302.71,138.139a50.324,50.324,0,0,1,3.934-6.744c-5.693-.971-7.332-7.9-7.332-7.9s-2.539.688-5.864,1.76a23.212,23.212,0,0,0,9.262,12.883" transform="translate(89.035 369.034)" fill="#fff"/>
        <path id="Trazado_205380" data-name="Trazado 205380" d="M325.967,137.453a21.323,21.323,0,0,0,3.848-12.227l-6.3-1.879s1.506,6.349-2.157,7.748a7.927,7.927,0,0,1,4.609,6.357" transform="translate(77.952 369.095)" fill="#fff"/>
        <path id="Trazado_205381" data-name="Trazado 205381" d="M305.7,134.208l-1.263,35.465a1.559,1.559,0,0,0,1.1,1.351l23.265,6.8a1.6,1.6,0,0,0,1.977-.93s14.34-13.466,14.355-13.592l12.2-36.89a1.6,1.6,0,0,0-2.924-1.012l-18.927,16.285a1.614,1.614,0,0,1-1.818.647l-25.9-9.726a1.581,1.581,0,0,0-2.061,1.606" transform="translate(84.671 368.548)" fill="#8c6df2"/>
        <path id="Trazado_205382" data-name="Trazado 205382" d="M376.933,143.62c-.09-1.4,7.52-4.327,8.183-2.774.414.97-1.048,1.484-1.048,1.484a.831.831,0,0,1,.821.914c-.043.839-1.356,1.077-1.356,1.077a.717.717,0,0,1,.622,1.021,1.75,1.75,0,0,1-1.46,1.089.846.846,0,0,1,.3,1.234c-.373.72-4.345,3.642-4.831,2.86-.512-.822,1.234-2.066,1.234-2.066s-1.814,1.014-2.1.294c-.294-.739,1.066-1.646,1.066-1.646s-1.179.238-1.31-.506c-.154-.876,3.247-2.7,3.247-2.7s-3.342.053-3.363-.285" transform="translate(55.883 362.057)" fill="#fcc790"/>
        <path id="Trazado_205383" data-name="Trazado 205383" d="M265.949,175.5,286.4,160.258s3.128-8.073,4.347-8.6,9.284-1.484,9.284-1.484c.332,1.755-7.613,3.614-7.613,3.614l8.558-.506c.4,1.322-5.3,2.438-7.856,2.922l8.68.789c.2,1.457-7.333,1.788-7.333,1.788l5.571,3.563s-.7,1.7-5.834-1.419c0,0-1.4,3.546-2.929,4.808a6.359,6.359,0,0,1-3.591,1.276s-16.434,19.559-21.734,19.684c-2.018.048-2.283-11.151-2.283-11.151Z" transform="translate(100.861 358.026)" fill="#fcc790"/>
        <path id="Trazado_205384" data-name="Trazado 205384" d="M295.085,47.29a7.163,7.163,0,0,1-1.355-2.117c-1.72-4.168.855-9.1,5.753-11.02s10.262-.094,11.982,4.074a7.069,7.069,0,0,1,.5,3.333c.122.011.241.018.364.031,7.952.838,14.594,6.274,15.8,15.913.8,6.4-4.454,11.761-3.96,10.065,1.208-4.155.566-7.122-.868-9.208a23.578,23.578,0,0,1-14.711.469,8.752,8.752,0,0,0,4.848-2.8c-3.557,2.564-9.128,1.777-9.128,1.777,2.791-.4,4.939-2.737,6.008-4.157-4.35.489-9.391,2.486-10.983,10.1a2.981,2.981,0,0,0-5.57-1.255c-1.967,2.857.228,8.441,3.728,8.128a5.25,5.25,0,0,0,.137,3.551c-3.183-1.035-6.806-6.087-6.917-13.559-.081-5.49,1.5-10.036,4.372-13.325" transform="translate(90.122 406.22)" fill="#5038a1"/>
        <path id="Trazado_205385" data-name="Trazado 205385" d="M254.954,258.24c1.138-10.971-2.59-21.075-5.783-21.811-2.287,1.962-.578,14.89-.807,29.04q2.854-.175,5.689-.284c.346-2.3.666-4.674.9-6.946" transform="translate(107.098 322.427)" fill="#fdb74d"/>
        <path id="Trazado_205386" data-name="Trazado 205386" d="M221.029,216.01s-1.812,5.635.848,9.773c.345.536,3.186,1.114,3.4,1.719,1.9,5.269-3.387,12.612-7.383,12.536-4.024-.077-16.472-9.423-11.936-13.665.49-.458,2.938-1.267,3.276-1.861,1.67-2.932,1.215-8.161,1.215-8.161Z" transform="translate(124.168 330.854)" fill="#fcc790"/>
        <g id="Grupo_156121" data-name="Grupo 156121" transform="translate(333.595 546.864)" opacity="0.2">
          <g id="Grupo_156120" data-name="Grupo 156120">
            <g id="Grupo_156119" data-name="Grupo 156119" clip-path="url(#clip-path-13)">
              <path id="Trazado_205387" data-name="Trazado 205387" d="M224.6,225.423c-2.343-4.1-.644-9.413-.644-9.413l-10.576.34s.412,4.8-1.026,7.784c3.366,2.891,8.114,2.968,12.247,1.29" transform="translate(-212.356 -216.01)" fill="#5038a1"/>
            </g>
          </g>
        </g>
        <path id="Trazado_205388" data-name="Trazado 205388" d="M220.783,321.863s-13.391,3.818-32.861.946c0,0-6.01,4.949-6.443,19.92a150.362,150.362,0,0,0,.488,17.9,153.55,153.55,0,0,0,43.333,3.163c1.51-11.959-.127-22.68-.318-27.351a37.315,37.315,0,0,0-4.2-14.573" transform="translate(133.53 287.17)" fill="#5038a1"/>
        <path id="Trazado_205389" data-name="Trazado 205389" d="M230.12,175.07a63.108,63.108,0,0,1-1.955,10.025c-2.117,7.112-6.293,15.261-12.513,14.427-4.678-.628-12.624-5.463-13.207-11.865-5.594-2.148-6.134-4.907-6.395-7.6-.133-1.367,6.72-21.272,21.29-19.375,12.242,1.593,13.289,10.936,12.779,14.391" transform="translate(127.715 353.741)" fill="#fcc790"/>
        <g id="Grupo_156124" data-name="Grupo 156124" transform="translate(327.439 533.793)" opacity="0.2">
          <g id="Grupo_156123" data-name="Grupo 156123">
            <g id="Grupo_156122" data-name="Grupo 156122" clip-path="url(#clip-path-14)">
              <path id="Trazado_205390" data-name="Trazado 205390" d="M204.422,195.175c-.322-1.276-1.5-2.005-2.058-.824a3.378,3.378,0,0,0,1.933,4.29,7.493,7.493,0,0,0,.125-3.466" transform="translate(-202.145 -193.754)" fill="#5038a1"/>
            </g>
          </g>
        </g>
        <path id="Trazado_205391" data-name="Trazado 205391" d="M218.329,234.245l-10.421-3.107s1.511,6.372-2.176,7.757l-1.268,6.058-2.175-5.8c-5.831-.86-7.5-7.93-7.5-7.93s-16.049,4.347-20.347,8.236-4.273,25.8-4.078,32.909l10.8-.274,1.154-9.82a27.871,27.871,0,0,0,.786,3.255c3.189,10.444-6.73,29.5-8.212,33.636,11.548,4.8,36.641,6.934,48.763,3.363-.763-4.492-8.2-23.722-8.293-26.352-.228-6.274,4.174-15.019,4.03-22.6a173.686,173.686,0,0,0-1.059-19.334" transform="translate(137.94 324.611)" fill="#fdb74d"/>
        <g id="Grupo_156127" data-name="Grupo 156127" transform="translate(356.939 578.298)" opacity="0.25">
          <g id="Grupo_156126" data-name="Grupo 156126">
            <g id="Grupo_156125" data-name="Grupo 156125" clip-path="url(#clip-path-15)">
              <path id="Trazado_205392" data-name="Trazado 205392" d="M266.406,279.618a18.7,18.7,0,0,1,1.118,3.839c.672,2.83-8.22,6.247-8.22,6.247l-8.226-18.22.273-1.953c4.044,6.04,7.925,13.59,15.056,10.086" transform="translate(-251.077 -269.532)" fill="#5038a1"/>
            </g>
          </g>
        </g>
        <g id="Grupo_156130" data-name="Grupo 156130" transform="translate(342.263 571.676)" opacity="0.25">
          <g id="Grupo_156129" data-name="Grupo 156129">
            <g id="Grupo_156128" data-name="Grupo 156128" clip-path="url(#clip-path-16)">
              <path id="Trazado_205393" data-name="Trazado 205393" d="M227.824,311.295h.029a.3.3,0,0,0,.271-.321,159.633,159.633,0,0,1-.215-27.9c.467-7.659.909-14.894-.577-24.572a.3.3,0,0,0-.343-.247.3.3,0,0,0-.253.334c1.477,9.618,1.038,16.822.572,24.45a160.1,160.1,0,0,0,.216,27.987.3.3,0,0,0,.3.265" transform="translate(-226.734 -258.256)" fill="#5038a1"/>
            </g>
          </g>
        </g>
        <path id="Trazado_205394" data-name="Trazado 205394" d="M210.454,245.929a50.334,50.334,0,0,1,3.934-6.744c-5.693-.971-7.332-7.9-7.332-7.9s-2.539.688-5.864,1.76a23.213,23.213,0,0,0,9.262,12.883" transform="translate(125.672 324.549)" fill="#fff"/>
        <path id="Trazado_205395" data-name="Trazado 205395" d="M233.711,245.243a21.32,21.32,0,0,0,3.848-12.227l-6.3-1.879s1.506,6.349-2.157,7.748a7.925,7.925,0,0,1,4.608,6.357" transform="translate(114.588 324.611)" fill="#fff"/>
        <path id="Trazado_205396" data-name="Trazado 205396" d="M260.675,234.117v13.792h12.937v-3.775a3.98,3.98,0,0,0,2.858-.363,4,4,0,0,0-1.883-7.611,4.269,4.269,0,0,0-.975.117v-2.16Zm12.937,8.709v-5.24a2.717,2.717,0,0,1,2.4.231A2.759,2.759,0,0,1,274.587,243a2.9,2.9,0,0,1-.975-.177" transform="translate(102.051 323.381)" fill="#8c6df2"/>
        <path id="Trazado_205397" data-name="Trazado 205397" d="M284.287,235.6c-.277-.015-3.087-.629-3.559-.409a14,14,0,0,0-1.961,2.393l-2.632,1.055a1.968,1.968,0,0,0,1.162.381,39.1,39.1,0,0,0,4.173-.782l2.717,1.139-2.956-.479-4.51,2.538a3.262,3.262,0,0,0,1.387.158,10.33,10.33,0,0,0,3.337-1.143l2.431.711-2.656.274-3.366,1.987a3.111,3.111,0,0,0,3.1-.023c.55-.327.892.478.892.478l-2.3,1.992-6.7,13.8,7.462,1.107,3.6-12.026s3.837-8.266,3.839-9.177c0-1.354-3.151-3.958-3.465-3.975m-3.383,1.249c.72-.643,2.055-.15,2.546.274a6.7,6.7,0,0,0-2.546-.274" transform="translate(97.216 322.958)" fill="#fcc790"/>
        <path id="Trazado_205398" data-name="Trazado 205398" d="M274.827,271c0,1.572-1.736,2.847-3.879,2.847s-3.878-1.274-3.878-2.847,1.736-2.847,3.878-2.847,3.879,1.274,3.879,2.847" transform="translate(99.51 309.335)" fill="#5038a1"/>
        <path id="Trazado_205399" data-name="Trazado 205399" d="M231.4,270.456,217.07,300.2a2,2,0,0,0,1.649,2.838l29.668,2.952a2.069,2.069,0,0,0,1.982-.983l16.771-28.051a1.991,1.991,0,0,0-1.472-2.984l-32.108-4.645a2.065,2.065,0,0,0-2.16,1.128" transform="translate(119.445 308.859)" fill="#fff"/>
        <g id="Grupo_156133" data-name="Grupo 156133" transform="translate(366.524 539.738)" opacity="0.5">
          <g id="Grupo_156132" data-name="Grupo 156132">
            <g id="Grupo_156131" data-name="Grupo 156131" clip-path="url(#clip-path-17)">
              <path id="Trazado_205400" data-name="Trazado 205400" d="M268.795,221.263l-.4-.444c1.8-1.521.884-2.673-.176-4.007-.684-.86-1.391-1.75-1.223-2.739a3.09,3.09,0,0,1,1.59-1.932,2.3,2.3,0,0,0,1.2-1.448c.122-.822-.632-1.7-1.362-2.549-.763-.886-1.551-1.8-1.4-2.752a2.3,2.3,0,0,1,1.244-1.515l.319.5a1.775,1.775,0,0,0-.968,1.109c-.112.685.556,1.461,1.262,2.283.816.949,1.659,1.929,1.5,3.011a2.819,2.819,0,0,1-1.466,1.853c-.806.52-1.241,1.022-1.327,1.538-.125.737.472,1.488,1.1,2.285,1.036,1.3,2.325,2.925.1,4.81" transform="translate(-266.976 -203.878)" fill="#5038a1"/>
            </g>
          </g>
        </g>
        <path id="Trazado_205401" data-name="Trazado 205401" d="M181.346,291.259,203.11,286.3s6.546-5.814,7.879-5.749,8.965,2.779,8.965,2.779c-.522,1.711-8.467-.142-8.467-.142l7.864,3.33c-.259,1.355-5.856-.167-8.362-.866l7.369,4.537c-.5,1.388-7.369-1.646-7.369-1.646l3.307,5.636s-1.411,1.21-4.54-3.842c0,0-2.9,2.543-4.848,2.992a6.389,6.389,0,0,1-3.795-.449S178.6,303.679,173.3,303.8c-2.018.048-2.891-11.041-2.891-11.041Z" transform="translate(137.899 304.217)" fill="#fcc790"/>
        <path id="Trazado_205402" data-name="Trazado 205402" d="M197.159,156.416a7.205,7.205,0,0,1-1.568-1.972c-2.146-3.976-.1-9.14,4.573-11.532s10.2-1.11,12.345,2.866a7.085,7.085,0,0,1,.845,3.267c.122,0,.242-.006.365-.006,8,.046,15.173,4.8,17.379,14.267,1.464,6.287-3.2,12.141-2.89,10.4.768-4.252-.18-7.141-1.824-9.074a23.567,23.567,0,0,1-14.586,1.923,8.689,8.689,0,0,0,4.531-3.261c-3.271,2.9-8.894,2.672-8.894,2.672,2.735-.675,4.627-3.212,5.542-4.73-4.276.917-9.083,3.4-9.873,11.13a2.985,2.985,0,0,0-5.672-.7c-1.658,3.037,1.107,8.376,4.557,7.717a5.257,5.257,0,0,0,.506,3.52c-3.274-.715-7.406-5.381-8.295-12.8-.654-5.454.446-10.133,2.959-13.689" transform="translate(128.522 361.519)" fill="#5038a1"/>
        <path id="Trazado_205403" data-name="Trazado 205403" d="M27.627,110.156H1.131A1.117,1.117,0,0,1,0,109.055V92.6a1.117,1.117,0,0,1,1.131-1.1h26.5a1.117,1.117,0,0,1,1.131,1.1v16.45a1.117,1.117,0,0,1-1.131,1.1" transform="translate(205.569 382.238)" fill="#f9e6a7"/>
        <path id="Trazado_205404" data-name="Trazado 205404" d="M28.4,93.813H1.731l12.383,7.416S2.774,108.8,2.974,109.1s12.073-7.317,12.073-7.317,11.821,7.59,12.072,7.317-11.085-7.91-11.085-7.91Z" transform="translate(204.882 381.283)" fill="#fff"/>
        <g id="Grupo_156136" data-name="Grupo 156136" transform="translate(223.848 442.169)" opacity="0.4">
          <g id="Grupo_156135" data-name="Grupo 156135">
            <g id="Grupo_156134" data-name="Grupo 156134" clip-path="url(#clip-path-18)">
              <path id="Trazado_205405" data-name="Trazado 205405" d="M57.2,55.8H31.471a1.138,1.138,0,0,1-1.153-1.123v-15.8a1.138,1.138,0,0,1,1.153-1.123H57.2a1.138,1.138,0,0,1,1.153,1.123v15.8A1.138,1.138,0,0,1,57.2,55.8" transform="translate(-30.318 -37.747)" fill="#8c6df2"/>
            </g>
          </g>
        </g>
        <path id="Trazado_205406" data-name="Trazado 205406" d="M56.195,49.407a6.933,6.933,0,1,1-6.931-6.752,6.843,6.843,0,0,1,6.931,6.752" transform="translate(188.758 402.396)" fill="#fff"/>
        <path id="Trazado_205407" data-name="Trazado 205407" d="M49.066,56.245A7.047,7.047,0,1,1,56.3,49.2a7.148,7.148,0,0,1-7.232,7.045m0-13.5A6.46,6.46,0,1,0,55.695,49.2a6.553,6.553,0,0,0-6.629-6.458" transform="translate(188.956 402.603)" fill="#fdb74d"/>
        <rect id="Rectángulo_46596" data-name="Rectángulo 46596" width="0.603" height="13.503" transform="translate(237.721 445.052)" fill="#fdb74d"/>
        <path id="Trazado_205408" data-name="Trazado 205408" d="M51.344,56.246h-.049c-2.633-.049-3.832-3.687-3.832-7.045,0-3.463,1.435-7.045,3.838-7.045,2.452,0,3.79,4.654,3.79,7.045,0,1.64-.415,4.811-1.968,6.3a2.516,2.516,0,0,1-1.778.749m-.043-13.5c-1.784,0-3.235,2.9-3.235,6.458,0,2.572.863,6.413,3.241,6.457a1.891,1.891,0,0,0,1.393-.581c1.229-1.173,1.788-3.869,1.788-5.877,0-2.541-1.369-6.458-3.187-6.458" transform="translate(186.721 402.603)" fill="#fdb74d"/>
        <rect id="Rectángulo_46597" data-name="Rectángulo 46597" width="13.861" height="0.591" transform="translate(231.089 451.628) rotate(-0.516)" fill="#fdb74d"/>
        <rect id="Rectángulo_46598" data-name="Rectángulo 46598" width="11.561" height="0.587" transform="translate(232.282 447.727)" fill="#fdb74d"/>
        <rect id="Rectángulo_46599" data-name="Rectángulo 46599" width="11.561" height="0.587" transform="translate(232.242 454.974)" fill="#fdb74d"/>
        <g id="Grupo_156139" data-name="Grupo 156139" transform="translate(313.838 455.312)" opacity="0.4">
          <g id="Grupo_156138" data-name="Grupo 156138">
            <g id="Grupo_156137" data-name="Grupo 156137" clip-path="url(#clip-path-19)">
              <path id="Trazado_205409" data-name="Trazado 205409" d="M230.351,95.808h-48.56a2.179,2.179,0,0,1-2.207-2.15V62.276a2.179,2.179,0,0,1,2.207-2.15h48.56a2.178,2.178,0,0,1,2.207,2.15V93.659a2.178,2.178,0,0,1-2.207,2.15" transform="translate(-179.585 -60.126)" fill="#8c6df2"/>
            </g>
          </g>
        </g>
        <rect id="Rectángulo_46601" data-name="Rectángulo 46601" width="52.973" height="35.682" rx="4.264" transform="translate(313.838 455.312)" fill="none" stroke="#fff" stroke-miterlimit="10" stroke-width="2.125"/>
        <rect id="Rectángulo_46602" data-name="Rectángulo 46602" width="6.871" height="23.57" transform="translate(317.361 466.822)" fill="#5038a1"/>
        <rect id="Rectángulo_46603" data-name="Rectángulo 46603" width="6.871" height="16.692" transform="translate(337.196 473.7)" fill="#5038a1"/>
        <rect id="Rectángulo_46604" data-name="Rectángulo 46604" width="6.871" height="11.807" transform="translate(347.114 478.585)" fill="#5038a1"/>
        <rect id="Rectángulo_46605" data-name="Rectángulo 46605" width="6.871" height="6.7" transform="translate(357.032 483.692)" fill="#5038a1"/>
        <rect id="Rectángulo_46606" data-name="Rectángulo 46606" width="6.871" height="28.997" transform="translate(327.279 461.395)" fill="#5038a1"/>
        <path id="Trazado_205410" data-name="Trazado 205410" d="M360.372,15.854a6.639,6.639,0,0,0-13.273,0,6.442,6.442,0,0,0,3.573,5.732v2.588H356.8V21.586a6.443,6.443,0,0,0,3.573-5.732" transform="translate(67.73 416.126)" fill="#f9e6a7"/>
        <path id="Trazado_205411" data-name="Trazado 205411" d="M354.752,29.1l-.595-.095.632-3.762-.7-3.772h4.94l-.7,3.649.632,3.761-.594.1-.649-3.862.584-3.055h-3.494l.586,3.18Z" transform="translate(64.951 411.137)" fill="#fdb74d"/>
        <path id="Trazado_205412" data-name="Trazado 205412" d="M352.732,21.163a1.029,1.029,0,1,1,1.056-1.028,1.043,1.043,0,0,1-1.056,1.028m0-1.469a.441.441,0,1,0,.453.441.448.448,0,0,0-.453-.441" transform="translate(65.912 412.115)" fill="#fdb74d"/>
        <path id="Trazado_205413" data-name="Trazado 205413" d="M362.242,21.163a1.029,1.029,0,1,1,1.056-1.028,1.043,1.043,0,0,1-1.056,1.028m0-1.469a.441.441,0,1,0,.453.441.448.448,0,0,0-.453-.441" transform="translate(62.135 412.115)" fill="#fdb74d"/>
        <path id="Trazado_205414" data-name="Trazado 205414" d="M357.925,4.786a.274.274,0,0,1-.277-.27V1.425a.277.277,0,0,1,.553,0V4.516a.274.274,0,0,1-.277.27" transform="translate(63.54 419.523)" fill="#fcc790"/>
        <path id="Trazado_205415" data-name="Trazado 205415" d="M364.775,6.882a.282.282,0,0,1-.142-.038.266.266,0,0,1-.1-.369l1.627-2.655a.281.281,0,0,1,.379-.093.266.266,0,0,1,.1.37L365.012,6.75a.278.278,0,0,1-.238.132" transform="translate(60.82 418.478)" fill="#fcc790"/>
        <path id="Trazado_205416" data-name="Trazado 205416" d="M369.432,12.5a.278.278,0,0,1-.241-.138.265.265,0,0,1,.106-.366l2.77-1.509a.28.28,0,0,1,.376.1.265.265,0,0,1-.107.366l-2.77,1.508a.28.28,0,0,1-.135.035" transform="translate(58.971 415.689)" fill="#fcc790"/>
        <path id="Trazado_205417" data-name="Trazado 205417" d="M374.335,20.941h0l-3.174-.017a.27.27,0,1,1,0-.539h0l3.174.017a.27.27,0,1,1,0,.539" transform="translate(58.284 411.587)" fill="#fcc790"/>
        <path id="Trazado_205418" data-name="Trazado 205418" d="M350.16,6.2a.278.278,0,0,1-.237-.132L348.3,3.411a.266.266,0,0,1,.1-.369.28.28,0,0,1,.379.093L350.4,5.789a.266.266,0,0,1-.1.369.282.282,0,0,1-.142.038" transform="translate(67.269 418.761)" fill="#fcc790"/>
        <path id="Trazado_205419" data-name="Trazado 205419" d="M344.75,11.811a.28.28,0,0,1-.135-.035l-2.769-1.508a.266.266,0,0,1-.107-.367.28.28,0,0,1,.376-.1l2.77,1.509a.265.265,0,0,1,.106.366.278.278,0,0,1-.241.138" transform="translate(69.872 415.971)" fill="#fcc790"/>
        <path id="Trazado_205420" data-name="Trazado 205420" d="M339.579,20.256a.27.27,0,1,1,0-.539l3.174-.017h0a.27.27,0,1,1,0,.539l-3.174.017Z" transform="translate(70.826 411.87)" fill="#fcc790"/>
        <path id="Trazado_205421" data-name="Trazado 205421" d="M359.395,33.24h-7.546v1.689h.848l.643,1.986H357.9l.643-1.986h.848Z" transform="translate(65.843 406.283)" fill="#5038a1"/>
        <path id="Trazado_205422" data-name="Trazado 205422" d="M391.756,70.2a7.414,7.414,0,1,0-9.367,6.957V88.767a1.192,1.192,0,0,0,1.208,1.176h1.5a1.192,1.192,0,0,0,1.208-1.176V77.155a7.261,7.261,0,0,0,5.456-6.957m-7.412,5.972a5.974,5.974,0,1,1,6.13-5.972,6.059,6.059,0,0,1-6.13,5.972" transform="translate(55.882 394.008)" fill="#8c6df2"/>
        <path id="Trazado_205423" data-name="Trazado 205423" d="M172.479,23.511l-.8-.876,14.25-12.412,11.866,8.33L222.208,2.014l10.125,7.159-.708.951-9.432-6.668L197.779,19.992l-11.773-8.263Z" transform="translate(137.394 419.169)" fill="#8c6df2"/>
        <path id="Trazado_205424" data-name="Trazado 205424" d="M173.009,36.533a1.955,1.955,0,1,1-1.954-1.9,1.929,1.929,0,0,1,1.954,1.9" transform="translate(138.416 405.709)" fill="#fdb74d"/>
        <path id="Trazado_205425" data-name="Trazado 205425" d="M196.045,15.935a1.955,1.955,0,1,1-1.954-1.9,1.929,1.929,0,0,1,1.954,1.9" transform="translate(129.268 414.209)" fill="#fdb74d"/>
        <path id="Trazado_205426" data-name="Trazado 205426" d="M215.651,30.062a1.955,1.955,0,1,1-1.954-1.9,1.929,1.929,0,0,1,1.954,1.9" transform="translate(121.482 408.379)" fill="#fdb74d"/>
        <path id="Trazado_205427" data-name="Trazado 205427" d="M256.149,1.9a1.955,1.955,0,0,1-3.908,0,1.955,1.955,0,0,1,3.908,0" transform="translate(105.399 420)" fill="#fdb74d"/>
        <path id="Trazado_205428" data-name="Trazado 205428" d="M272.369,13.675a1.955,1.955,0,1,1-1.954-1.9,1.929,1.929,0,0,1,1.954,1.9" transform="translate(98.959 415.142)" fill="#fdb74d"/>
        <path id="Trazado_205429" data-name="Trazado 205429" d="M42.539,269.482a13.444,13.444,0,0,1-13.616,13.264,13.269,13.269,0,1,1,0-26.529,13.444,13.444,0,0,1,13.616,13.264" transform="translate(199.491 314.261)" fill="#fff"/>
        <path id="Trazado_205430" data-name="Trazado 205430" d="M28.29,283.026a14.206,14.206,0,1,1,0-28.4,14.206,14.206,0,1,1,0,28.4m0-26.529a12.333,12.333,0,1,0,0,24.657,12.333,12.333,0,1,0,0-24.657" transform="translate(200.124 314.918)" fill="#8c6df2"/>
        <path id="Trazado_205431" data-name="Trazado 205431" d="M37.47,276.331a.661.661,0,0,1-.323-.085.622.622,0,0,1-.318-.54v-3.44a.641.641,0,0,1,1.282,0v2.37l5.9-3.255a.65.65,0,0,1,.874.236.615.615,0,0,1-.242.85l-6.86,3.782a.654.654,0,0,1-.316.081" transform="translate(190.944 308.036)" fill="#5038a1"/>
        <path id="Trazado_205432" data-name="Trazado 205432" d="M38.2,260.551a.685.685,0,1,1-.684-.667.675.675,0,0,1,.684.667" transform="translate(190.944 312.748)" fill="#5038a1"/>
        <path id="Trazado_205433" data-name="Trazado 205433" d="M38.2,295.9a.685.685,0,1,1-.684-.667.675.675,0,0,1,.684.667" transform="translate(190.944 298.16)" fill="#5038a1"/>
        <path id="Trazado_205434" data-name="Trazado 205434" d="M55.187,278.891a.667.667,0,1,1,.684-.667.675.675,0,0,1-.684.667" transform="translate(183.925 305.454)" fill="#5038a1"/>
        <path id="Trazado_205435" data-name="Trazado 205435" d="M19.84,278.891a.667.667,0,1,1,.684-.667.675.675,0,0,1-.684.667" transform="translate(197.962 305.454)" fill="#5038a1"/>
        <path id="Trazado_205436" data-name="Trazado 205436" d="M52.567,287.5a.657.657,0,0,1-.259-.909.694.694,0,0,1,.933-.253.658.658,0,0,1,.259.909.7.7,0,0,1-.933.253" transform="translate(184.832 301.867)" fill="#8c6df2"/>
        <path id="Trazado_205437" data-name="Trazado 205437" d="M21.788,270.114a.657.657,0,0,1-.259-.909.694.694,0,0,1,.933-.253.658.658,0,0,1,.259.909.7.7,0,0,1-.933.253" transform="translate(197.056 309.04)" fill="#8c6df2"/>
        <path id="Trazado_205438" data-name="Trazado 205438" d="M45.91,293.782a.657.657,0,0,1,.241-.913.7.7,0,0,1,.937.236.657.657,0,0,1-.241.913.7.7,0,0,1-.937-.235" transform="translate(187.376 299.173)" fill="#8c6df2"/>
        <path id="Trazado_205439" data-name="Trazado 205439" d="M27.938,263.345a.657.657,0,0,1,.241-.913.7.7,0,0,1,.937.236.656.656,0,0,1-.241.913.7.7,0,0,1-.937-.235" transform="translate(194.512 311.734)" fill="#8c6df2"/>
        <path id="Trazado_205440" data-name="Trazado 205440" d="M46.779,263.15a.694.694,0,0,1-.932.254.657.657,0,0,1-.261-.908.7.7,0,0,1,.933-.254.657.657,0,0,1,.26.908" transform="translate(187.501 311.81)" fill="#8c6df2"/>
        <path id="Trazado_205441" data-name="Trazado 205441" d="M29.441,293.953a.694.694,0,0,1-.932.254.658.658,0,0,1-.261-.908.7.7,0,0,1,.933-.254.657.657,0,0,1,.26.908" transform="translate(194.386 299.098)" fill="#8c6df2"/>
        <path id="Trazado_205442" data-name="Trazado 205442" d="M53.068,269.79a.694.694,0,0,1-.937-.234.657.657,0,0,1,.24-.914.7.7,0,0,1,.937.234.657.657,0,0,1-.24.913" transform="translate(184.905 309.171)" fill="#8c6df2"/>
        <path id="Trazado_205443" data-name="Trazado 205443" d="M22.656,287.805a.694.694,0,0,1-.937-.234.657.657,0,0,1,.24-.914.7.7,0,0,1,.937.234.657.657,0,0,1-.24.913" transform="translate(196.982 301.737)" fill="#8c6df2"/>
        <g id="Grupo_156142" data-name="Grupo 156142" transform="translate(425.87 557.423)" opacity="0.5">
          <g id="Grupo_156141" data-name="Grupo 156141">
            <g id="Grupo_156140" data-name="Grupo 156140" clip-path="url(#clip-path-20)">
              <path id="Trazado_205444" data-name="Trazado 205444" d="M389.4,259.062H367.16a1.725,1.725,0,0,1-1.747-1.7V235.69a1.725,1.725,0,0,1,1.747-1.7H389.4a1.725,1.725,0,0,1,1.747,1.7v21.67a1.724,1.724,0,0,1-1.747,1.7" transform="translate(-365.413 -233.989)" fill="#5038a1"/>
            </g>
          </g>
        </g>
        <path id="Trazado_205445" data-name="Trazado 205445" d="M389.605,260.128H370.079a.728.728,0,0,1-.737-.718V244.881a.728.728,0,0,1,.737-.718h19.526a.728.728,0,0,1,.737.718V259.41a.728.728,0,0,1-.737.718" transform="translate(58.897 319.236)" fill="#fff"/>
        <rect id="Rectángulo_46608" data-name="Rectángulo 46608" width="2.822" height="2.749" transform="translate(429.999 565.339)" fill="#8c6df2"/>
        <rect id="Rectángulo_46609" data-name="Rectángulo 46609" width="2.822" height="2.749" transform="translate(429.999 569.945)" fill="#8c6df2"/>
        <rect id="Rectángulo_46610" data-name="Rectángulo 46610" width="2.822" height="2.749" transform="translate(429.999 574.552)" fill="#8c6df2"/>
        <rect id="Rectángulo_46611" data-name="Rectángulo 46611" width="2.822" height="2.749" transform="translate(434.636 565.339)" fill="#8c6df2"/>
        <rect id="Rectángulo_46612" data-name="Rectángulo 46612" width="2.822" height="2.749" transform="translate(434.636 569.945)" fill="#8c6df2"/>
        <rect id="Rectángulo_46613" data-name="Rectángulo 46613" width="2.822" height="2.749" transform="translate(434.636 574.552)" fill="#8c6df2"/>
        <rect id="Rectángulo_46614" data-name="Rectángulo 46614" width="2.822" height="2.749" transform="translate(439.272 565.339)" fill="#8c6df2"/>
        <rect id="Rectángulo_46615" data-name="Rectángulo 46615" width="2.822" height="2.749" transform="translate(439.272 569.945)" fill="#8c6df2"/>
        <rect id="Rectángulo_46616" data-name="Rectángulo 46616" width="2.822" height="2.749" transform="translate(439.272 574.552)" fill="#8c6df2"/>
        <rect id="Rectángulo_46617" data-name="Rectángulo 46617" width="2.822" height="2.749" transform="translate(443.909 565.339)" fill="#8c6df2"/>
        <rect id="Rectángulo_46618" data-name="Rectángulo 46618" width="2.822" height="2.749" transform="translate(443.909 569.945)" fill="#8c6df2"/>
        <path id="Trazado_205446" data-name="Trazado 205446" d="M398.243,236.64a1.645,1.645,0,1,1-1.644-1.6,1.623,1.623,0,0,1,1.644,1.6" transform="translate(48.725 323.001)" fill="#fff"/>
        <path id="Trazado_205447" data-name="Trazado 205447" d="M377.5,236.64a1.645,1.645,0,1,1-1.644-1.6,1.623,1.623,0,0,1,1.644,1.6" transform="translate(56.961 323.001)" fill="#fff"/>
        <path id="Trazado_205448" data-name="Trazado 205448" d="M396.823,234.39h0a1.287,1.287,0,0,1-1.3-1.27v-5.181a1.3,1.3,0,0,1,2.607,0v5.181a1.287,1.287,0,0,1-1.3,1.27" transform="translate(48.501 326.456)" fill="#5038a1"/>
        <path id="Trazado_205449" data-name="Trazado 205449" d="M376.084,234.39h0a1.287,1.287,0,0,1-1.3-1.27v-5.181a1.3,1.3,0,0,1,2.607,0v5.181a1.287,1.287,0,0,1-1.3,1.27" transform="translate(56.737 326.456)" fill="#5038a1"/>
      </g>
    </g>
  </g>
</svg>
