<svg xmlns="http://www.w3.org/2000/svg" width="180.111" height="102.734" viewBox="0 0 180.111 102.734">
  <g id="Grupo_155685" data-name="Grupo 155685" transform="translate(-70)">
    <g id="Grupo_155693" data-name="Grupo 155693" transform="translate(70 0)">
      <path id="Rectángulo_46285" data-name="Rectángulo 46285" d="M8.324,0H171.786a8.325,8.325,0,0,1,8.325,8.325V94.409a8.325,8.325,0,0,1-8.325,8.325H8.324A8.324,8.324,0,0,1,0,94.41V8.324A8.324,8.324,0,0,1,8.324,0Z" fill="#0c964e"/>
      <path id="Trazado_204745" data-name="Trazado 204745" d="M97.3,10.6V83.649L81.34,96.028h52.972l15.959-12.379V10.6Z" transform="translate(-68.376 1.518)" fill="#fff"/>
      <path id="Trazado_204746" data-name="Trazado 204746" d="M126.258,37.708a6.111,6.111,0,1,0-6.112-6.113,6.114,6.114,0,0,0,6.112,6.113" transform="translate(-62.817 3.651)" fill="#0c964e"/>
      <path id="Trazado_204747" data-name="Trazado 204747" d="M126.329,38.351a6.683,6.683,0,1,1,6.685-6.683,6.692,6.692,0,0,1-6.685,6.683m0-12.222a5.54,5.54,0,1,0,5.541,5.539,5.546,5.546,0,0,0-5.541-5.539" transform="translate(-62.888 3.579)" fill="#fff"/>
      <path id="Trazado_204748" data-name="Trazado 204748" d="M144.52,47.521l-10.151,1.015-6.161-11.268a3.146,3.146,0,0,0-2.035-1.553l-2-.472h0l-10.57-2.5a3.147,3.147,0,0,0-2.587.532l-10.652,7.856a3.144,3.144,0,0,0,3.733,5.06l9.481-7,4.755,1.124L102.2,63.661l-15.781-.785a3.143,3.143,0,0,0-.313,6.279l17.532.872c.053,0,.105,0,.157,0a3.148,3.148,0,0,0,2.586-1.355l5.39-7.807,8.613,6.228V81.033a3.142,3.142,0,0,0,6.284,0V65.491a3.143,3.143,0,0,0-1.3-2.547l-6.7-4.85,7.524-11.413,3.662,6.7a3.141,3.141,0,0,0,2.756,1.636c.1,0,.209-.006.313-.016l12.224-1.223a3.143,3.143,0,1,0-.625-6.255" transform="translate(-68.12 4.679)" fill="#0c964e"/>
      <path id="Trazado_204749" data-name="Trazado 204749" d="M123.6,84.819a3.717,3.717,0,0,1-3.713-3.713V67.462l-7.9-5.715-5.059,7.326a3.635,3.635,0,0,1-3.249,1.6L86.153,69.8a3.714,3.714,0,0,1,.37-7.42l15.464.769,15.466-22.387-3.682-.871L104.5,46.726a3.715,3.715,0,0,1-4.411-5.979l10.652-7.856a3.717,3.717,0,0,1,3.057-.629l12.576,2.97a3.727,3.727,0,0,1,2.405,1.834L134.761,48l9.774-.977a3.714,3.714,0,1,1,.739,7.391L133.05,55.638a3.687,3.687,0,0,1-3.629-1.914l-3.207-5.864-6.7,10.162,6.26,4.53a3.725,3.725,0,0,1,1.538,3.01V81.105a3.718,3.718,0,0,1-3.714,3.713M111.708,60.135l9.322,6.742V81.105a2.571,2.571,0,0,0,5.141,0V65.563a2.575,2.575,0,0,0-1.064-2.083l-7.149-5.171,8.349-12.664,4.117,7.531a2.562,2.562,0,0,0,2.514,1.325l12.221-1.222a2.572,2.572,0,0,0-.511-5.118h0L134.12,49.213l-6.342-11.6a2.59,2.59,0,0,0-1.666-1.272l-12.575-2.968a2.562,2.562,0,0,0-2.116.436l-10.652,7.856a2.572,2.572,0,0,0,3.054,4.14l9.694-7.153,5.827,1.378L102.566,64.32l-16.1-.8a2.572,2.572,0,0,0-.255,5.138l17.66.877a2.573,2.573,0,0,0,2.115-1.109Z" transform="translate(-68.192 4.607)" fill="#fff"/>
      <path id="Trazado_204750" data-name="Trazado 204750" d="M228.276,48.6,187.231,27.137V38.124H149.957V59.076h37.274V70.061Z" transform="translate(-58.547 3.887)" fill="#fff"/>
    </g>
  </g>
</svg>
