<svg xmlns="http://www.w3.org/2000/svg" xmlns:xlink="http://www.w3.org/1999/xlink" width="400" height="261" viewBox="0 0 400 261">
  <defs>
    <clipPath id="clip-path">
      <rect id="Rectángulo_46284" data-name="Rectángulo 46284" width="400" height="261" transform="translate(0.001 0)" fill="none"/>
    </clipPath>
    <clipPath id="clip-path-3">
      <rect id="Rectángulo_46280" data-name="Rectángulo 46280" width="99.251" height="101.501" fill="none"/>
    </clipPath>
    <clipPath id="clip-path-4">
      <rect id="Rectángulo_46282" data-name="Rectángulo 46282" width="46.899" height="42.476" fill="none"/>
    </clipPath>
  </defs>
  <g id="Grupo_155683" data-name="Grupo 155683" transform="translate(-0.002 0.001)">
    <g id="Grupo_155682" data-name="Grupo 155682" transform="translate(0.001 -0.001)" clip-path="url(#clip-path)">
      <g id="Grupo_155681" data-name="Grupo 155681" transform="translate(0 0.001)">
        <g id="Grupo_155680" data-name="Grupo 155680" clip-path="url(#clip-path)">
          <path id="Trazado_204634" data-name="Trazado 204634" d="M382.852,311.406c-25.239,0-366.461-.667-366.461-.7-.141-.3-43.317-48.227,11.051-98.337,26.938-24.829-24.738-57,0-84.614,42.375-47.309,84.3-20.665,119.233-33.971a56.492,56.492,0,0,0,18.564-11.93,67.978,67.978,0,0,1,11.408-8.578q.941-.569,1.9-1.109a78.817,78.817,0,0,1,7.612-3.742q2.638-1.127,5.375-2.084h0q4.344-1.521,8.909-2.627a110.181,110.181,0,0,1,13.288-2.361Q216.7,61,219.711,60.8c39.029-2.657,82.951,12.29,105.617,34.136,4.563,4.4,25.315,27.161,8.957,58.448C323.958,173.136,367.224,192,382.6,214.559c39.089,57.35.609,96.1.254,96.847" transform="translate(-0.001 -51.161)" fill="#d2e1f1"/>
          <g id="Grupo_155676" data-name="Grupo 155676" transform="translate(198.29 66.609)" opacity="0.8">
            <g id="Grupo_155675" data-name="Grupo 155675" transform="translate(0 -11.609)">
              <g id="Grupo_155674" data-name="Grupo 155674" clip-path="url(#clip-path-3)">
                <path id="Trazado_204635" data-name="Trazado 204635" d="M1260.509,499.9a51.617,51.617,0,0,1-3.807,8.309,50.063,50.063,0,0,1-13.861,15.558,48.644,48.644,0,0,1-45.907,6.483,51.137,51.137,0,0,1-32.5-51.973,51.865,51.865,0,0,1,7.482-22.8c.021-.036.042-.068.063-.1a49.872,49.872,0,0,1,20.879-18.766,48.892,48.892,0,0,1,7.4-2.835c1.211-.355,2.44-.663,3.677-.922a48.309,48.309,0,0,1,26.891,2.028q1.779.661,3.476,1.445a48.653,48.653,0,0,1,4.623,2.432,49.742,49.742,0,0,1,15.486,14.547h0a51.566,51.566,0,0,1,7.935,18.412q.456,2.129.736,4.3a51.587,51.587,0,0,1-2.582,23.882" transform="translate(-1164.257 -431.812)" fill="#f3f9ff"/>
                <path id="Trazado_204636" data-name="Trazado 204636" d="M1242.954,460.251c-2.932,2.322-2.154,8.535-7.229,5.033s-8.261-5.406-9.7-2.35,3.059,4.729,1.875,8.059-3.592,3.682-6.13.947-2.614-5.366-6.726-5.279-5.868-1.643-5.667-4.8a4.533,4.533,0,0,0-.135-1.464c.021-.036.042-.068.063-.1a49.876,49.876,0,0,1,20.879-18.766,48.928,48.928,0,0,1,7.4-2.835c1.211-.355,2.44-.663,3.677-.922a6.612,6.612,0,0,1,3.786,4.23c1.79,5.335,4.693,4.079,2.228,8.548s-1.451,5.565,1.24,6.385,5.795,1.974,5.371,4.151-8.007-3.157-10.939-.835" transform="translate(-1201.583 -436.733)" fill="#b0c0d2"/>
                <path id="Trazado_204637" data-name="Trazado 204637" d="M1559.037,690.132a51.653,51.653,0,0,1-3.807,8.309A50.066,50.066,0,0,1,1541.369,714a5.593,5.593,0,0,1-3.692-1.488c-4.969-4.54,1.616-9.363,5.083-11.709s-2.971-3.124-6.217-7.7,4.354-10.769-.53-11.1-10.825-.658-11.82-6.01,4.144-4.249,3.245-8.757,3.351-5.352,7.9-4.066,5.106-2.141,10.74-.585,2.982,8.649,9.2,10.421,5.437,3.1,5.437,3.1a2.988,2.988,0,0,1,1.167.741,51.814,51.814,0,0,1-2.841,13.289" transform="translate(-1462.786 -622.047)" fill="#b0c0d2"/>
                <path id="Trazado_204638" data-name="Trazado 204638" d="M1620.7,571.936c-5.918.633-5.518-6.923-10.543-6.475-5.066.451-2.9-3.232-5.406-7.037s-10.967-1.742-9.248-5.592,6.44-.837,8.654-3.6,6.893-.13,6.893-.13a3.5,3.5,0,0,1,.977.126s0,0,0,0a51.56,51.56,0,0,1,7.935,18.412q.456,2.128.736,4.3" transform="translate(-1521.867 -527.732)" fill="#b0c0d2"/>
                <path id="Trazado_204639" data-name="Trazado 204639" d="M1468.523,474.591s4.018-2.91.24-5.613-4.235-1.173-7.365-2.738-5.326.536-3.884,4.259,1.5,9.859,4.732,7.8,3.582-4.4,6.277-3.708" transform="translate(-1407.193 -459.811)" fill="#b0c0d2"/>
              </g>
            </g>
          </g>
          <path id="Trazado_204640" data-name="Trazado 204640" d="M1827.469,1046.549s.383-3.446-1.607-3.328-2.516.944-2.294,1.607a18.87,18.87,0,0,0,2.157,2.853Z" transform="translate(-1512.948 -882.298)" fill="#ffb27d"/>
          <path id="Trazado_204641" data-name="Trazado 204641" d="M1865.923,1068.726a31.929,31.929,0,0,1-6.939,5.049c-.448.257-.918.515-1.413.776a54.85,54.85,0,0,1-6.489,2.891c-.274.1-.6.215-.958.332a50.879,50.879,0,0,1-11.3,2.363c-.282.01-.549.01-.8,0-4.926-.18-5.527-17.5-5.527-17.5s.549-1.733,3.08-1.3c0,0,3.843,9.779,5.221,10.577,1.223.708,8.256-8.946,14.308-9.621,4.075-.455,10.812,6.424,10.812,6.424" transform="translate(-1520.401 -897.57)" fill="#f3f9ff"/>
          <path id="Trazado_204642" data-name="Trazado 204642" d="M1893,1648.906s.364,3.812-.526,4.209l-11.386-.021s0-1.19,1.829-1.455,5.041-1.234,5.585-3.394,4.5.661,4.5.661" transform="translate(-1560.713 -1393.308)" fill="#1c3154"/>
          <path id="Trazado_204643" data-name="Trazado 204643" d="M1901.781,1292.444c.056,2.493.188,5.064.447,7.374,1.23,10.964,1.662,24.211,1.839,26.765.306,4.433,1.273,11.516,1.273,11.516s1.918,1.649,5.657.862a105.5,105.5,0,0,0,3.79-20.943q.016-.265.031-.531c.08-1.42.164-3.044.25-4.795.569-11.729,1.188-29.151,1.188-29.151l-14.287-3.038s-.329,5.727-.188,11.94" transform="translate(-1577.851 -1082.981)" fill="#8c6df2"/>
          <path id="Trazado_204644" data-name="Trazado 204644" d="M1901.781,1292.444c3.621,5.658,10.522,16.082,13.287,20.25.569-11.729,1.188-29.151,1.188-29.151l-14.287-3.038s-.329,5.727-.188,11.94" transform="translate(-1577.851 -1082.981)" fill="#5038a1"/>
          <path id="Trazado_204645" data-name="Trazado 204645" d="M1880.931,1144.55a50.883,50.883,0,0,1-11.3,2.362c.495-.084,4.1-.73,5.432-2.188,1.431-1.567,3.842-5.821,5.759-4.085.9.818.638,2.433.107,3.911" transform="translate(-1551.207 -964.345)" fill="#b0c0d2"/>
          <path id="Trazado_204646" data-name="Trazado 204646" d="M2061.365,1344.9a18.374,18.374,0,0,1,.741,3.85,13.018,13.018,0,0,1-1.551,3.659c-.54.588-.562-2.556-.921-3.051s-.164,1.174-.452,1.311-.768-1.263-.981-1.76.767-2.224.858-3.462,2.306-.546,2.306-.546" transform="translate(-1707.634 -1137.284)" fill="#ffb27d"/>
          <path id="Trazado_204647" data-name="Trazado 204647" d="M2081.8,1624.56s2.026,1.675,1.631,2.865-2.224,1.984-2.471,3.438a2.413,2.413,0,0,1-2.125,2.248h-4.242s-.655-1.024.927-1.332,2.178-2.018,2.079-3.6a25.378,25.378,0,0,1,.148-3.7l3.361-.705Z" transform="translate(-1721.144 -1373.294)" fill="#1c3154"/>
          <path id="Trazado_204648" data-name="Trazado 204648" d="M1916.276,1280.33s13.375,25.918,20.492,37.289,9.342,14.546,9.342,14.546,4.078-1.454,4.448-2.446c0,0-2.721-21.954-7.488-27.306-2.693-3.024-5.857-12.1-6-15.273s-3.273-10.748-3.273-10.748Z" transform="translate(-1589.906 -1079.503)" fill="#8c6df2"/>
          <path id="Trazado_204649" data-name="Trazado 204649" d="M1901.545,1098.763a23.864,23.864,0,0,0,11.755,5.527c3.248.563,9.84,1.107,11.475-.987a3.429,3.429,0,0,0,.3-2.357c-.22-2.954-1.041-8.665,2.664-20.143a17.99,17.99,0,0,0,.712-3.068c.809-5.872.721-10.3-4.9-12.673-8.428-3.548-11.887-.629-11.887-.629a13.3,13.3,0,0,0-6.531,7.426c-4.1,11.059-3.587,26.9-3.587,26.9" transform="translate(-1577.667 -899.285)" fill="#f3f9ff"/>
          <path id="Trazado_204650" data-name="Trazado 204650" d="M1969.751,1026.549a6.812,6.812,0,0,1-6.3.374,5.932,5.932,0,0,1-.115-2.343c.046-1.1.16-2.177.16-2.177l3-1.783,2.862-1.7c-.344,5.847,1.03,7.215.389,7.63" transform="translate(-1628.928 -861.747)" fill="#ffb27d"/>
          <path id="Trazado_204651" data-name="Trazado 204651" d="M1969.015,1030.656a9.236,9.236,0,0,1-5.517,3.246c.046-1.1.176-2.309.176-2.309l2.984-1.651Z" transform="translate(-1629.085 -871.069)" fill="#ed985f"/>
          <path id="Trazado_204652" data-name="Trazado 204652" d="M1944.867,978.673s7.255,2.452,8.87-1.6,3.638-6.459-.926-8.2-6.085-.484-6.993.749-2.8,8.3-.951,9.044" transform="translate(-1612.98 -818.705)" fill="#ffb27d"/>
          <path id="Trazado_204653" data-name="Trazado 204653" d="M1953.85,954.707a.929.929,0,0,1,.606-.042,1.5,1.5,0,0,0-.616-.283,1.572,1.572,0,0,0-.861-1.617.937.937,0,0,1,.359.776c-.772-1.074-2.7-2.1-8.54-2.718-7.691-.813-6.153,4.024-5.287,4.723s3.647-.295,5.445.163,1.624,2.911,2.172,3.35.431-.185,1.344-.378.719,1.079.3,1.854.5,2.06.5,2.06l1.412-.927c1.412-.927,3.558-5.541,3.252-6.661-.027-.1-.053-.2-.081-.3" transform="translate(-1608.574 -804.076)" fill="#12263f"/>
          <path id="Trazado_204654" data-name="Trazado 204654" d="M2017.914,1178.9c-.22-2.954-1.041-8.666,2.664-20.143a18,18,0,0,0,.712-3.068h0c-2.752-.822-7.767,1.006-7.767,1.006s-1.179,15.172,4.392,22.205" transform="translate(-1670.503 -977.243)" fill="#b0c0d2"/>
          <path id="Trazado_204655" data-name="Trazado 204655" d="M1980.894,1079.679s3.386,1.115,5.546,9.236c1.427,5.366,4.055,13.252,4.351,15.73s-3,16.988-3,16.988a2.344,2.344,0,0,1-1.606.1,2.682,2.682,0,0,1-1.6-.866s-.789-9.671-.585-14.237c.084-1.9-9.7-13.894-14.976-15.439-2.073-.607,11.873-11.513,11.873-11.513" transform="translate(-1633.494 -913.134)" fill="#f3f9ff"/>
          <path id="Trazado_204656" data-name="Trazado 204656" d="M1761.626,931.527a124.137,124.137,0,0,1,21.084,1.631l1.18-2.693,1.294-2.951s-11.34-4.422-18.156-10.579Z" transform="translate(-1461.595 -775.494)" fill="#8c6df2"/>
          <path id="Trazado_204657" data-name="Trazado 204657" d="M1761.658,915.49l-5.62,15.025a1.333,1.333,0,0,1-.985-1.751L1760,916.139a1.277,1.277,0,0,1,1.658-.65" transform="translate(-1456.071 -774.192)" fill="#fdb74d"/>
          <path id="Trazado_204658" data-name="Trazado 204658" d="M1817.817,1016.024h0a2.034,2.034,0,0,0,2.384-1.44l1.935-8.769a1.855,1.855,0,0,0-1.59-2.159,2.034,2.034,0,0,0-2.384,1.44l-1.935,8.769a1.855,1.855,0,0,0,1.59,2.159" transform="translate(-1506.864 -848.808)" fill="#8c6df2"/>
          <path id="Trazado_204659" data-name="Trazado 204659" d="M1761.626,1002.075a124.137,124.137,0,0,1,21.084,1.631l1.18-2.693c-10.614-1.963-22.264,1.062-22.264,1.062" transform="translate(-1461.595 -846.043)" fill="#5038a1"/>
          <path id="Trazado_204660" data-name="Trazado 204660" d="M1867.084,982.226l3.058.487c-.047,0,2.841.509,3.788-1.809a1.75,1.75,0,0,0,.182-.5c.736-2.889-1.016-3.422-1.016-3.422l-3.936-1.389-1.251,4.008v.014Z" transform="translate(-1549.092 -825.104)" fill="#8c6df2"/>
          <path id="Trazado_204661" data-name="Trazado 204661" d="M1867.084,1004.2l3.058.487c-.047,0,2.841.509,3.788-1.809-1.73-1.14-6.021-1.3-6.021-1.3v.014Z" transform="translate(-1549.092 -847.082)" fill="#5038a1"/>
          <path id="Trazado_204662" data-name="Trazado 204662" d="M1820.8,1028.558s1.5.54,1.222,1.137-2.177,1.417-2.477.946.314-2.587,1.255-2.083" transform="translate(-1509.582 -869.834)" fill="#ffb27d"/>
          <path id="Trazado_204663" data-name="Trazado 204663" d="M1844.7,1043.746a17.407,17.407,0,0,0,.3-2.023c.017-.637.1-1.157-.065-1.175s-.286.1-.353.3-.327,1.475-.327,1.475l.131,1.226Z" transform="translate(-1530.154 -880.038)" fill="#ffb27d"/>
          <path id="Trazado_204664" data-name="Trazado 204664" d="M936.31,1050.689l-8.477,91.288s-.888,5.534,3.657,5.543c7.472.016,37.193,0,37.193,0s-5.624-1.152-5.556-3.744c.08-3.055,9.908-93.951,9.908-93.951Z" transform="translate(-769.752 -887.885)" fill="#727997"/>
          <path id="Trazado_204665" data-name="Trazado 204665" d="M983.382,1136.819c-1.47,0-30.243.048-37.52-.036-3.171-.036-3.727-2.554-3.754-4.183a7.393,7.393,0,0,1,.1-1.359l.22-2.373.562-6.047.5-5.343.638-6.866.537-5.795,6.023-64.866,36.725-.863s-4.139,38.04-7.067,65.729c-.327,3.085-.638,6.043-.925,8.8q-.14,1.322-.27,2.583c-.272,2.62-.52,5.026-.735,7.15-.114,1.12-.219,2.16-.314,3.113-.374,3.734-.593,6.119-.6,6.572a3.478,3.478,0,0,0,.071.739c.6,2.909,5.26,3.041,5.812,3.041" transform="translate(-781.653 -878.804)" fill="#f3f9ff"/>
          <path id="Trazado_204666" data-name="Trazado 204666" d="M454.288,733.388l20.648,75.118,2.827,10.288,9.617,34.988H666.049L630.6,733.388Z" transform="translate(-376.917 -620.26)" fill="#b0c0d2"/>
          <path id="Trazado_204667" data-name="Trazado 204667" d="M440.346,733.387l-2.862.864L469.634,856.4l3.8-2.613Z" transform="translate(-362.975 -620.259)" fill="#dee4f0"/>
          <path id="Trazado_204668" data-name="Trazado 204668" d="M626.252,1516.5H803.821l4.9-2.613H630.057Z" transform="translate(-519.593 -1280.365)" fill="#727997"/>
          <rect id="Rectángulo_46281" data-name="Rectángulo 46281" width="38.446" height="1.655" transform="translate(169.016 258.015)" fill="#b0c0d2"/>
          <path id="Trazado_204669" data-name="Trazado 204669" d="M983.627,1530.822l-.2,1.265-36.157,6.616.5-5.343.236-2.538Z" transform="translate(-785.938 -1294.687)" fill="#727997"/>
          <path id="Trazado_204670" data-name="Trazado 204670" d="M454.286,733.387H630.6l28.607,96.759H480.882Z" transform="translate(-376.915 -620.259)" fill="#b0c0d2"/>
          <path id="Trazado_204671" data-name="Trazado 204671" d="M686.468,854.373H521.383l-5.9-21.284-2.282-8.236-.931-3.358-6.063-21.873-.314-1.139-3.205-11.562-1.434-5.173-1.223-4.413-2.867-10.345h162.7l3.149,10.345,1.342,4.413,1.575,5.173L676.309,821v0l.88,2.887.409,1.341,7.163,23.529Z" transform="translate(-412.491 -648.679)" fill="#dee4f0"/>
          <path id="Trazado_204672" data-name="Trazado 204672" d="M663.022,777.333H500.036l-2.867-10.346h162.7Z" transform="translate(-412.495 -648.677)" fill="#727997"/>
          <path id="Trazado_204673" data-name="Trazado 204673" d="M536.474,790.207a1,1,0,0,1,1.072-1.293,1.921,1.921,0,0,1,1.784,1.293,1,1,0,0,1-1.072,1.293,1.921,1.921,0,0,1-1.784-1.293" transform="translate(-445.069 -667.221)" fill="#e9f3fe"/>
          <path id="Trazado_204674" data-name="Trazado 204674" d="M564.332,790.207a1,1,0,0,1,1.072-1.293,1.921,1.921,0,0,1,1.784,1.293,1,1,0,0,1-1.072,1.293,1.921,1.921,0,0,1-1.784-1.293" transform="translate(-468.182 -667.221)" fill="#e9f3fe"/>
          <path id="Trazado_204675" data-name="Trazado 204675" d="M594.329,790.207a1,1,0,0,1,1.072-1.293,1.921,1.921,0,0,1,1.784,1.293,1,1,0,0,1-1.072,1.293,1.922,1.922,0,0,1-1.784-1.293" transform="translate(-493.071 -667.221)" fill="#e9f3fe"/>
          <path id="Trazado_204676" data-name="Trazado 204676" d="M1215.433,58.164c6.672-7.1,16.962-21.348,23.889-28.647,1.426-1.5.24-3.821-1.947-3.821H1224.77l11.89-24.35c.508-1.04-1.057-1.868-1.808-.957L1206.1,35.239a1.454,1.454,0,0,0,1.469,2.293l14.27-1.592-8.49,21.123c-.467,1.163,1.195,2.044,2.081,1.1" transform="translate(-1000.42 0.002)" fill="#fedc72"/>
          <path id="Trazado_204677" data-name="Trazado 204677" d="M837.626,407.308c1.5-6.973,2.449-19.925,4.035-27.12a1.914,1.914,0,0,0-2.871-1.878l-8.372,4.27-2.16-20.2a.816.816,0,0,0-1.6-.023l-4.7,32.886a1.209,1.209,0,0,0,1.923,1.025l8.821-5.892,3.084,16.906a.954.954,0,0,0,1.837.027" transform="translate(-681.96 -305.924)" fill="#dee4f0"/>
          <path id="Trazado_204678" data-name="Trazado 204678" d="M876.284,589.095,732.839,600.041c-10.892.831-18.774-9.226-14.315-18.264L779.3,458.594c4.61-9.345,18.782-10.427,25.054-1.912l82.672,112.237c6.066,8.235.153,19.345-10.739,20.176" transform="translate(-595.096 -381.341)" fill="#f6f6f6"/>
          <path id="Trazado_204679" data-name="Trazado 204679" d="M850.194,566.957,706.749,577.9a20.463,20.463,0,0,1-17.811-7.49,16.382,16.382,0,0,1-1.932-17.7l60.772-123.182c2.987-6.053,9.124-10,16.419-10.556a20.316,20.316,0,0,1,18.137,7.919l82.672,112.237a16.358,16.358,0,0,1,1.365,17.742,19.71,19.71,0,0,1-16.177,10.084M765.111,428.8a8.8,8.8,0,0,0-7.39,4.751L696.948,556.737a7.374,7.374,0,0,0,.87,7.966,9.211,9.211,0,0,0,8.017,3.371L849.28,557.129a8.872,8.872,0,0,0,7.281-4.539,7.364,7.364,0,0,0-.614-7.986L773.274,432.368a9.144,9.144,0,0,0-8.163-3.564" transform="translate(-568.549 -354.29)" fill="#fdb74d"/>
          <path id="Trazado_204680" data-name="Trazado 204680" d="M1098.523,743.986a10.829,10.829,0,0,1,.558-4.718,10.68,10.68,0,0,1,2.455-3.9,12.875,12.875,0,0,1,4.121-2.767,17.42,17.42,0,0,1,5.644-1.312,18.093,18.093,0,0,1,5.849.435,13.366,13.366,0,0,1,4.618,2.1,11.211,11.211,0,0,1,3.141,3.478,11.07,11.07,0,0,1,1.422,4.567,10.6,10.6,0,0,1-.562,4.68,10.772,10.772,0,0,1-2.458,3.867,12.78,12.78,0,0,1-4.164,2.771,19.333,19.333,0,0,1-11.493.877,13.389,13.389,0,0,1-4.574-2.1,11.28,11.28,0,0,1-3.138-3.439,10.789,10.789,0,0,1-1.418-4.529m22.177-23.5-20.662,1.577-8.875-63.718,26.517-2.023Z" transform="translate(-905.322 -555.078)" fill="#fdb74d"/>
          <path id="Trazado_204681" data-name="Trazado 204681" d="M611.385,1082.217s.45-.916.741-1.35,1.536-1.7,1.748-1.417,1.059,2.224.609,2.767.029,1.486-2.21,2.057Z" transform="translate(-507.258 -912.905)" fill="#ffb27d"/>
          <path id="Trazado_204682" data-name="Trazado 204682" d="M465.311,1060.115s11.46,8.664,15.929,7.862c3.494-.627,9.018-2.214,9.018-2.214a3.047,3.047,0,0,1,1.046,2.761s-7.038,6-12.052,6.036c-7.838.061-11.534-3.518-11.534-3.518Z" transform="translate(-386.063 -896.588)" fill="#fdb74d"/>
          <path id="Trazado_204683" data-name="Trazado 204683" d="M347.3,1643.986s.333,4.861,1.371,4.93c.138.009,5.266.009,5.266.009l6.546-.034s-.043-1.429-1.956-1.731-5.116-1.52-6.275-3.811c-1.219-2.409-4.952.636-4.952.636" transform="translate(-288.154 -1389.073)" fill="#113c68"/>
          <path id="Trazado_204684" data-name="Trazado 204684" d="M345.088,1325.742a14.9,14.9,0,0,0,3.544.6,14.267,14.267,0,0,0,3.308-.427,75.247,75.247,0,0,1,2.436-10.512c1.081-3.789,2.624-8.662,4.82-14.717,6.072-16.733,7.918-26.522,8.087-27.449.009-.049.013-.073.013-.073l-.02-.008-18.667-7.423s2.307,23.062-.637,31.915a34.338,34.338,0,0,0-1.068,4.241c-1.859,9.615-1.816,23.851-1.816,23.851" transform="translate(-286.315 -1070.49)" fill="#8c6df2"/>
          <path id="Trazado_204685" data-name="Trazado 204685" d="M368.341,1315.405c1.081-3.789,2.625-8.662,4.821-14.717,6.072-16.734,7.918-26.522,8.087-27.449,0-.028,0-.054-.007-.081l-18.668-7.423s2.307,23.062-.636,31.915c-.413,1.237,6.4,17.756,6.4,17.756" transform="translate(-300.28 -1070.49)" fill="#5038a1"/>
          <path id="Trazado_204686" data-name="Trazado 204686" d="M432.911,1643.986s.333,4.861,1.371,4.93c.138.009,5.266.009,5.266.009l6.546-.034s-.043-1.429-1.956-1.731-5.116-1.52-6.275-3.811c-1.22-2.409-4.952.636-4.952.636" transform="translate(-359.181 -1389.073)" fill="#15447c"/>
          <path id="Trazado_204687" data-name="Trazado 204687" d="M398.366,1269.258a218.312,218.312,0,0,1-2.612,33.294c-2.855,18.349-1.887,26.138-1.887,26.138a21.091,21.091,0,0,1-2.753.634,13.707,13.707,0,0,1-4.085-.428s-4.086-18.356-2.915-27.541-5.6-31.515-5.6-31.515Z" transform="translate(-314.052 -1073.47)" fill="#8c6df2"/>
          <path id="Trazado_204688" data-name="Trazado 204688" d="M417.334,1002.034l3.644,2.164,3.319-.85a6.61,6.61,0,0,0,.776-3.6,20.33,20.33,0,0,0-.13-2.4l-4.916-1.965-1.834-.732c.005.026.143,1.364.162,1.56a10.456,10.456,0,0,1-1.021,5.828" transform="translate(-346.257 -841.218)" fill="#ffb27d"/>
          <path id="Trazado_204689" data-name="Trazado 204689" d="M383.473,1074.791c-4.535,3.966-21.7,3.3-22.758-1.071s1.154-37.2,8.9-39.261c1.608-.428,10.2,2.088,10.2,2.088a45.853,45.853,0,0,1,2.233,7.264c.172.792.673,9.181,1.048,17.03.175,3.671.323,7.224.4,9.826a25.671,25.671,0,0,1-.025,4.125" transform="translate(-299.075 -874.849)" fill="#fedc72"/>
          <path id="Trazado_204690" data-name="Trazado 204690" d="M424.8,1000.278c1,1.527,4.5,2.864,6.351,3.476a20.326,20.326,0,0,0-.13-2.4l-4.916-1.965c-1.087-.013-1.749.207-1.3.889" transform="translate(-352.339 -845.229)" fill="#fca56b"/>
          <path id="Trazado_204691" data-name="Trazado 204691" d="M419.083,945.635s-7.921,2.238-9.384-2.251-3.471-7.224,1.525-8.842,6.541-.17,7.432,1.221,2.45,9.175.427,9.872" transform="translate(-338.543 -789.781)" fill="#ffb27d"/>
          <path id="Trazado_204692" data-name="Trazado 204692" d="M401.557,921.89s-.505,5.224-1.7,5-2.506-.712-2.331.863-1.16,4.274-2.88,4.268c-3.689-.014-7.7-8.587-6.687-10.213,2.914-4.691,17.808-5.638,13.6.085" transform="translate(-321.755 -776.341)" fill="#12263f"/>
          <path id="Trazado_204693" data-name="Trazado 204693" d="M422.278,1023.385c-.1-.039-5.9-2.393-6.575-2.191s-1.522,2.077-1.522,2.077l10.2,2.089a4.789,4.789,0,0,0-2.107-1.976" transform="translate(-343.641 -863.661)" fill="#fdb74d"/>
          <path id="Trazado_204694" data-name="Trazado 204694" d="M500.5,1184.862l-32.483,27.7c-.637.543-1.44.716-1.784.385l-1.1-1.055c-.345-.332-.106-1.047.531-1.59l32.483-27.7c.637-.543,1.439-.716,1.784-.384l1.1,1.055c.345.332.106,1.047-.531,1.59" transform="translate(-385.785 -999.713)" fill="#12263f"/>
          <path id="Trazado_204695" data-name="Trazado 204695" d="M482.27,1288.662l-14.254,12.155c-.637.543-1.44.716-1.784.384l-1.1-1.055c-.345-.331-.106-1.047.531-1.59L479.92,1286.4Z" transform="translate(-385.786 -1087.969)" fill="#dee4f0"/>
          <path id="Trazado_204696" data-name="Trazado 204696" d="M624.323,969.171a22.727,22.727,0,0,0,6.909,10.065c10.241,8.726,26.355,8.28,35.989-.994,9.508-9.154,9.154-23.483-.7-32.245-.13-.118-.264-.234-.4-.349-10.239-8.726-26.351-8.283-35.986.992a21.5,21.5,0,0,0-5.814,22.53m7.277-21.282a24.948,24.948,0,0,1,21.1-6.373,24.337,24.337,0,0,1,12.049,5.458c9.433,8.037,9.884,21.477,1.01,30.02a24.012,24.012,0,0,1-11.656,6.113,25.163,25.163,0,0,1-21.49-5.2c-9.433-8.037-9.886-21.478-1.01-30.022" transform="translate(-517.077 -794.48)" fill="#12263f"/>
          <g id="Grupo_155679" data-name="Grupo 155679" transform="translate(108.152 146.724)" opacity="0.5">
            <g id="Grupo_155678" data-name="Grupo 155678">
              <g id="Grupo_155677" data-name="Grupo 155677" clip-path="url(#clip-path-4)">
                <path id="Trazado_204697" data-name="Trazado 204697" d="M675.546,986.977a24.016,24.016,0,0,1-11.657,6.113,25.17,25.17,0,0,1-21.49-5.2c-9.432-8.037-9.885-21.478-1.01-30.022a24.949,24.949,0,0,1,21.1-6.372,24.332,24.332,0,0,1,12.049,5.457c9.432,8.037,9.885,21.478,1.011,30.021" transform="translate(-635.017 -951.187)" fill="#dee4f0"/>
              </g>
            </g>
          </g>
          <path id="Trazado_204698" data-name="Trazado 204698" d="M415.6,1121.609c-17.9-11.551-16.41-26.965-16.41-26.965,6.542,3.342,13.033,10.73,16.011,17.14.175,3.671.323,7.224.4,9.826" transform="translate(-331.181 -925.791)" fill="#fdb74d"/>
          <path id="Trazado_204699" data-name="Trazado 204699" d="M588.972,1228.339a4.954,4.954,0,0,0,2.286-1.279s.538.033-.088,1.073c-.052.087-.169.311-.257.469a.1.1,0,0,0,.094.145,13.135,13.135,0,0,1,2.864.054c.194.036.25.457.242.636a1.515,1.515,0,0,1-.377,1.107,6.462,6.462,0,0,1-2.262,1.073,7.5,7.5,0,0,1-3.5-.4l-1.146-.48.355-1.929.288.055c.457.087,1.023-.419,1.5-.525" transform="translate(-486.884 -1037.781)" fill="#ffb27d"/>
          <path id="Trazado_204700" data-name="Trazado 204700" d="M403.079,1048.272s-16.082,2.773,4.732,23.866c3.329,3.373,21.313,7.766,21.313,7.766s1.824-1.406.9-2.544c0,0-12.383-8.144-15.107-9.438-1.226-.583-4.757-13-6.755-15.989a9.027,9.027,0,0,0-5.087-3.66" transform="translate(-329.511 -886.572)" fill="#fedc72"/>
          <path id="Trazado_204701" data-name="Trazado 204701" d="M613.945,1079.812a7.051,7.051,0,0,0,.629-1.391,7.344,7.344,0,0,1,1.038-2.128c.109-.1.469.029.512.453a2.28,2.28,0,0,1-.258.921,9.486,9.486,0,0,0-.34,1.831c-.249.734-1.58.313-1.58.313" transform="translate(-509.382 -910.245)" fill="#ffb27d"/>
          <path id="Trazado_204702" data-name="Trazado 204702" d="M650.3,821.789a.816.816,0,0,0-.174.94.009.009,0,0,0,0,0,6.076,6.076,0,0,0,2.037,2.025c.123.09.232.171.327.247l.074.06.056.046c.9.748.558.919,2.167,2.437,1.834,1.729,3.1,1.761,3.456,1.6.3-.134-.313-1.051-1-2.082-.033-.05-.066-.1-.1-.15-.091-.137-.182-.276-.272-.414-.8-1.241-.6-1.822-.4-3.668a86.041,86.041,0,0,1,2.58-8.379l-3.515-.55s-1.061,5.478-2.228,6.321a14.632,14.632,0,0,1-1.922.788c-.042.023-.084.047-.125.071a4.559,4.559,0,0,0-.962.7" transform="translate(-539.342 -688.359)" fill="#ffb27d"/>
          <path id="Trazado_204703" data-name="Trazado 204703" d="M650.3,861.16a.816.816,0,0,0-.174.94.009.009,0,0,0,0,0,7.047,7.047,0,0,0,2.04,2.018c.121.091.228.175.323.254l.074.06.056.046c.9.748.558.919,2.167,2.437,1.834,1.729,3.1,1.761,3.456,1.6.3-.134-.313-1.051-1-2.082a7.867,7.867,0,0,1-3.269-2.184c-1.064-1.23-1.786-2.8-2.51-3.761l-.207-.035a4.573,4.573,0,0,0-.962.7" transform="translate(-539.342 -727.731)" fill="#5038a1"/>
          <path id="Trazado_204704" data-name="Trazado 204704" d="M804.29,814.537c.217.983,1.763.819,3.492.437s1.318.073,3.777-.173,3.205-1.076,3.28-1.407c.067-.294-1.148-.4-2.452-.534-.164-.017-.329-.035-.493-.054-1.472-.168-2.549-1.028-3.886-1.735-1.266-.67-3.155-3.4-3.155-3.4l-3.373.241s1.769,2.436,2.453,3.494a3.381,3.381,0,0,1,.331,2.082,3.551,3.551,0,0,0,.026,1.045" transform="translate(-664.978 -683.087)" fill="#ffb27d"/>
          <path id="Trazado_204705" data-name="Trazado 204705" d="M821.217,843.4c1.728-.382,1.317.073,3.777-.173s3.205-1.076,3.281-1.407c.067-.294-1.148-.4-2.452-.534l-.012.023a7.41,7.41,0,0,1-3.523.99c-1.669.036-3.436-.4-4.589-.381a3.554,3.554,0,0,0,.026,1.045c.217.983,1.764.82,3.492.438" transform="translate(-678.412 -711.516)" fill="#5038a1"/>
          <path id="Trazado_204706" data-name="Trazado 204706" d="M685.714,698.634l-3.156,7.684-4.12,10.033a7.345,7.345,0,0,1-2.187-.182,9.894,9.894,0,0,1-2.115-.933s1.147-10.774,3.282-16.958a10.6,10.6,0,0,1,1.836-3.594c3.307-3.537,6.461,3.95,6.461,3.95" transform="translate(-559.321 -586.724)" fill="#5038a1"/>
          <path id="Trazado_204707" data-name="Trazado 204707" d="M574.721,637.9c-1.795-.525-6.478-.01-11.559.821a3.589,3.589,0,0,1-3.557-1.456l-12.784-.908s-4.222,8.472-1.914,13.871a2.256,2.256,0,0,0,2.234,1.306h0s7.725.012,10.2.013c6.358,0,13.457-3.954,14.375-4.12,1.5-.272,2.1,2.451,3.6,5.31S589.439,665.4,589.439,665.4a12.233,12.233,0,0,0,2.742-.254,2.722,2.722,0,0,0,1.178-.673s-13.979-25.21-18.637-26.573" transform="translate(-451.53 -538.198)" fill="#8c6df2"/>
          <path id="Trazado_204708" data-name="Trazado 204708" d="M525.234,418.049a4.914,4.914,0,0,0-2.442-.576,7.492,7.492,0,0,1-1.179-.065c-4.879-.65-7.82,5.768-7.993,7.708-.318,3.561-2.4,4.1-5.326,6.332-5.872,4.47-4.152,9.666-.944,11.6,1.926,1.159,5.32,0,5.32,0,.048.03,9.285-4.673,13.839-6.942,6.825-.877,1.465-16.577-1.276-18.056" transform="translate(-418.503 -352.982)" fill="#12263f"/>
          <path id="Trazado_204709" data-name="Trazado 204709" d="M581.424,490.783a6.606,6.606,0,0,1-3.751.1A6.2,6.2,0,0,1,575.2,488.2c.647-.027,1.357-.539,1.905-3.9l.275.09,4.629,1.51s-.336,1.346-.553,2.627c-.183,1.076-.282,2.106-.029,2.258" transform="translate(-477.233 -409.593)" fill="#ffb27d"/>
          <path id="Trazado_204710" data-name="Trazado 204710" d="M592.629,486.389s-.185.726-.455,2.082A5.009,5.009,0,0,1,588,484.879Z" transform="translate(-487.856 -410.084)" fill="#ed975d"/>
          <path id="Trazado_204711" data-name="Trazado 204711" d="M591.061,447.992s-6.335-.772-5.743-4.338.172-6.066,4.242-5.724,4.628,1.809,4.75,3.043-1.586,7.128-3.249,7.019" transform="translate(-485.598 -370.351)" fill="#ffb27d"/>
          <path id="Trazado_204712" data-name="Trazado 204712" d="M585.229,437.292s-4.056,3.164-6.815,3.418-3.8-.548-3.8-.548a9.959,9.959,0,0,0,2.605-3.195,1.94,1.94,0,0,1,1.6-1.035c1.97-.154,5.7-.223,6.413,1.36" transform="translate(-476.748 -368.624)" fill="#12263f"/>
          <path id="Trazado_204713" data-name="Trazado 204713" d="M622.069,439.555a9.266,9.266,0,0,1,1.783,2.07,6.317,6.317,0,0,1,.206,3.692s2.115-3.722.919-5.531a1.779,1.779,0,0,0-2.909-.231" transform="translate(-516.122 -371.171)" fill="#5038a1"/>
          <path id="Trazado_204714" data-name="Trazado 204714" d="M560.253,519.871c-.2,11.614-.056,9.187-1.459,10.289a5.845,5.845,0,0,1-2.539.5c-3.932.235-10.844-.354-11.107-1.012-.906-2.278-.266-2.985-1.021-6.471-.079-.371-.176-.772-.29-1.209-.63-2.395-1.244-3.21,1-7.056,2.031-3.484,4.141-6.312,4.331-6.21,5.354,2.881,5.787.461,5.787.461s5.4,5.046,5.3,10.711" transform="translate(-450.731 -430.228)" fill="#fedc72"/>
          <path id="Trazado_204715" data-name="Trazado 204715" d="M682.556,731.229l-4.121,10.033a7.345,7.345,0,0,1-2.187-.182,9.9,9.9,0,0,1-2.115-.933s1.147-10.774,3.282-16.958Z" transform="translate(-559.32 -611.634)" fill="#8c6df2"/>
          <path id="Trazado_204716" data-name="Trazado 204716" d="M611.933,511.7s5.51.848,6.156,3,2.772,15.193,2.772,15.193-1.555,1.374-2.848.2-4.068-12.2-4.068-12.2Z" transform="translate(-507.713 -432.766)" fill="#fedc72"/>
          <path id="Trazado_204717" data-name="Trazado 204717" d="M560.511,583.519c-3.932.235-10.844-.354-11.107-1.012-.906-2.278-.266-2.985-1.021-6.472l1.9-4.836s-.316,5.386,1.438,6.8,7.18,2.737,8.032,3.921a4.129,4.129,0,0,1,.76,1.6" transform="translate(-454.986 -483.089)" fill="#fdb74d"/>
          <path id="Trazado_204718" data-name="Trazado 204718" d="M593.143,633.395s3.88-.781,4.505-.469a8.906,8.906,0,0,1,2.347,1.843c.191.4-1.394-.3-1.909-.426a5,5,0,0,0-1.648.326,6.021,6.021,0,0,1-2.953.268Z" transform="translate(-492.123 -535.232)" fill="#ffb27d"/>
          <path id="Trazado_204719" data-name="Trazado 204719" d="M516.682,508.7s-5.209.289-7.013,2.566c-2.539,3.206-7.58,16.869-4.695,18.692,3.249,2.053,14.791.542,14.791.542a3.864,3.864,0,0,0-.149-2.412c-.534-.787-9.217-2.06-9.618-2.423s5.012-7.077,5.013-8.166,1.671-8.8,1.671-8.8" transform="translate(-418.252 -430.228)" fill="#fedc72"/>
          <path id="Trazado_204720" data-name="Trazado 204720" d="M620.7,639.669a7.1,7.1,0,0,0,1.079,1.063.867.867,0,0,0,.439.085l-.547-.893Z" transform="translate(-514.984 -540.997)" fill="#ffb27d"/>
          <path id="Trazado_204721" data-name="Trazado 204721" d="M619.6,633.329l2.363,1.04a.438.438,0,0,1-.391.137,6.111,6.111,0,0,1-1.025-.256Z" transform="translate(-514.07 -535.635)" fill="#ffb27d"/>
          <path id="Trazado_204722" data-name="Trazado 204722" d="M617.823,649.168l-24.685-.008v.494l24.466.008Z" transform="translate(-492.119 -549.025)" fill="#5038a1"/>
          <path id="Trazado_204723" data-name="Trazado 204723" d="M627.029,582.941l18.693.006,5.628-12.663-18.665-.006Z" transform="translate(-520.238 -482.31)" fill="#5038a1"/>
          <path id="Trazado_204724" data-name="Trazado 204724" d="M700.247,606.926a.6.6,0,0,0-.635-.806,1.261,1.261,0,0,0-1.146.806.6.6,0,0,0,.634.806,1.261,1.261,0,0,0,1.146-.806" transform="translate(-579.478 -512.623)" fill="#fff"/>
          <path id="Trazado_204725" data-name="Trazado 204725" d="M1395.671,960.391a5.861,5.861,0,0,0-4.262.2c-7.251.27-7.52,7-6.669,9.506,1.2,3.518-3.035,6.293,1.656,7.716,5.443,1.652,10.011-.308,9.7.543,17.213,1.229,5.3-16.241-.425-17.964" transform="translate(-1148.39 -812)" fill="#12263f"/>
          <path id="Trazado_204726" data-name="Trazado 204726" d="M1355.576,1097.717a17.1,17.1,0,0,1-1.939,2.655c-1.506,1.708-9.412-2.347-8.73-2.655s4.653-10.674,5.6-11.976,4.17-1.979,4.17-1.979Z" transform="translate(-1115.816 -916.588)" fill="#fedc72"/>
          <path id="Trazado_204727" data-name="Trazado 204727" d="M1525.885,1622.754s2.182,1.8,1.756,3.085-2.395,2.136-2.661,3.7a2.6,2.6,0,0,1-2.288,2.42h-4.567s-.705-1.1,1-1.434,2.345-2.173,2.238-3.881a27.3,27.3,0,0,1,.16-3.987l3.619-.759Z" transform="translate(-1259.446 -1371.715)" fill="#1f447f"/>
          <path id="Trazado_204728" data-name="Trazado 204728" d="M1395.395,1632.4s.785,7.64-.173,8.067l-12.259-.023s0-1.281,1.969-1.566,5.428-1.329,6.014-3.654,4.449-2.824,4.449-2.824" transform="translate(-1147.425 -1380.597)" fill="#1c3154"/>
          <path id="Trazado_204729" data-name="Trazado 204729" d="M1403.429,1089.25a40.025,40.025,0,0,1,0,5.132c-.121,1.855-2.194,4.341-2.488,4.956-.738,1.542-1.57,1.793-1.57,1.793l-6.437,1.429-2.263.5-7.137-1.931s-3.25-8.218-1.945-12.844a33.7,33.7,0,0,1,3.3-7.839,56.148,56.148,0,0,1,13.407-.438Z" transform="translate(-1146.028 -913.274)" fill="#fedc72"/>
          <path id="Trazado_204730" data-name="Trazado 204730" d="M1455.158,1146.957c-.121,1.855-2.807,4.276-3.1,4.891-.738,1.542-1.57,1.793-1.57,1.793l-6.437,1.429-1.162-3.017s9.405-2.238,7.892-10.121Z" transform="translate(-1197.143 -965.784)" fill="#fdb74d"/>
          <path id="Trazado_204731" data-name="Trazado 204731" d="M1378.833,1225.927s-3.535,9.964-3.762,13.356,6.756,48.192,7.037,49.755c.265,1.473,2.285,2.412,2.285,2.412a3.339,3.339,0,0,0,2.255.157,5.794,5.794,0,0,0,2.421-1.034s2.751-31.951,1.049-43.364a164.053,164.053,0,0,1-1.723-21.283Z" transform="translate(-1140.873 -1036.823)" fill="#5038a1"/>
          <path id="Trazado_204732" data-name="Trazado 204732" d="M1417.827,1224s5.391,6.552,5.894,10.981.788,19.986,1.859,24.3,5.005,12.626,5.005,26.093a2.9,2.9,0,0,1-1.672,1.183,14.89,14.89,0,0,1-1.47.368,2.393,2.393,0,0,1-2.585-1.111c-2.66-4.85-11.133-20.494-11.567-23.742-.307-2.3-2.982-17.507-8.818-26.432-1.4-2.143.86-10.663.86-10.663Z" transform="translate(-1164.891 -1035.195)" fill="#8c6df2"/>
          <path id="Trazado_204733" data-name="Trazado 204733" d="M1392.892,1215.956a7.936,7.936,0,0,0,4.238,1.068c3.367.061,11.71-.777,11.71-.777a5.73,5.73,0,0,1,.355,1.928s-10.189,2.328-16.093.34a3.1,3.1,0,0,1-.209-2.559" transform="translate(-1155.496 -1028.39)" fill="#5038a1"/>
          <path id="Trazado_204734" data-name="Trazado 204734" d="M1406.522,1222.646a1.575,1.575,0,1,1,1.537-1.575,1.558,1.558,0,0,1-1.537,1.575m0-2.688a1.117,1.117,0,1,0,1.027,1.114,1.074,1.074,0,0,0-1.027-1.114" transform="translate(-1165.697 -1031.384)" fill="#fff"/>
          <path id="Trazado_204735" data-name="Trazado 204735" d="M1345.911,1170.542l-15.315.13-7.536-16.04,15.315-.13Z" transform="translate(-1097.724 -976.416)" fill="#fdb74d"/>
          <path id="Trazado_204736" data-name="Trazado 204736" d="M1407.2,1197.577l-1.123-1.25a4.026,4.026,0,0,0-1.311-.718c-.551-.1-1.715-.712-1.828-.541s.894,1.394.894,1.394l.051.007c-1.156.787-4.075.092-4.436.414-.437.389.6,1.231,1.158,1.7a4.373,4.373,0,0,0,3.391.911c.907-.256,2.336-.516,2.336-.516Z" transform="translate(-1161.012 -1010.699)" fill="#ffb27d"/>
          <path id="Trazado_204737" data-name="Trazado 204737" d="M1329.345,1170.1s.962-.99,1.575-.515-.161,2.813-.744,2.575-1.167-1.77-.831-2.06" transform="translate(-1102.857 -989.064)" fill="#ffb27d"/>
          <path id="Trazado_204738" data-name="Trazado 204738" d="M1443.31,1080.923s4.384.438,7.53,5.615c2.481,4.083,6.723,11.609,5.122,13.735-.7.934-7.437,4.255-20.428,2.356a3.436,3.436,0,0,1,1.252-2.175s10.932-3.179,10.913-3.811c-.036-1.2-1.477-2.23-7.584-7.762-1.66-1.5,3.193-7.959,3.193-7.959" transform="translate(-1191.042 -914.186)" fill="#fedc72"/>
          <path id="Trazado_204739" data-name="Trazado 204739" d="M1429.123,1049c.151-.183-.043-.766-.284-1.853a18.5,18.5,0,0,1-.58-4.218l-.323.049-5.434.828s.124,1.316.127,2.555c0,.01,0,.021,0,.031.007,1.077-.321,2.7.08,2.916,2.059,1.093,5.834.4,6.413-.308" transform="translate(-1180.229 -882.051)" fill="#ffb27d"/>
          <path id="Trazado_204740" data-name="Trazado 204740" d="M1422.5,1044.072s.108,1.855.112,3.095c3.041-.066,4.663-2.74,5.322-3.923Z" transform="translate(-1180.229 -882.32)" fill="#e8945b"/>
          <path id="Trazado_204741" data-name="Trazado 204741" d="M1402.406,1000.57s7.123-.919,6.423-4.928-.252-6.827-4.83-6.41-5.192,2.073-5.318,3.462,1.853,8.011,3.724,7.875" transform="translate(-1160.461 -836.605)" fill="#ffb27d"/>
          <path id="Trazado_204742" data-name="Trazado 204742" d="M1410.831,985.753s2.772,4.422,5.88,4.686,4.275-.647,4.275-.647a8.022,8.022,0,0,1-3.561-4.125s-5.521-2.365-6.594.085" transform="translate(-1170.546 -832.757)" fill="#12263f"/>
          <path id="Trazado_204743" data-name="Trazado 204743" d="M1398.244,990.59a4.271,4.271,0,0,0-1.782,1.735,5.981,5.981,0,0,0-.313,3.818s-2.028-2.985-.7-5.03c1.409-2.169,2.795-.523,2.795-.523" transform="translate(-1157.409 -837.281)" fill="#12263f"/>
          <path id="Trazado_204744" data-name="Trazado 204744" d="M409.6,1684.544H14.748a.473.473,0,0,1-.494-.447v-.258a.473.473,0,0,1,.494-.447H409.6a.473.473,0,0,1,.494.447v.258a.473.473,0,0,1-.494.447" transform="translate(-11.827 -1423.723)" fill="#12263f"/>
        </g>
      </g>
    </g>
  </g>
</svg>
