<svg xmlns="http://www.w3.org/2000/svg" xmlns:xlink="http://www.w3.org/1999/xlink" width="1240" height="552" viewBox="0 0 1240 552">
  <defs>
    <clipPath id="clip-path">
      <rect id="Rectángulo_46258" data-name="Rectángulo 46258" width="1240" height="552" rx="10" transform="translate(180.001 4794)" fill="#8c6df2" opacity="0.35"/>
    </clipPath>
    <filter id="Elipse_6282" x="91" y="53.765" width="238" height="238" filterUnits="userSpaceOnUse">
      <feOffset dy="3" input="SourceAlpha"/>
      <feGaussianBlur stdDeviation="3" result="blur"/>
      <feFlood flood-opacity="0.161"/>
      <feComposite operator="in" in2="blur"/>
      <feComposite in="SourceGraphic"/>
    </filter>
    <filter id="Elipse_6282-2" x="91" y="53.765" width="238" height="238" filterUnits="userSpaceOnUse">
      <feOffset dy="3" input="SourceAlpha"/>
      <feGaussianBlur stdDeviation="3" result="blur-2"/>
      <feFlood flood-opacity="0.161" result="color"/>
      <feComposite operator="out" in="SourceGraphic" in2="blur-2"/>
      <feComposite operator="in" in="color"/>
      <feComposite operator="in" in2="SourceGraphic"/>
    </filter>
    <filter id="Elipse_6283" x="113" y="72.765" width="194" height="194" filterUnits="userSpaceOnUse">
      <feOffset dy="3" input="SourceAlpha"/>
      <feGaussianBlur stdDeviation="3" result="blur-3"/>
      <feFlood flood-opacity="0.161" result="color-2"/>
      <feComposite operator="out" in="SourceGraphic" in2="blur-3"/>
      <feComposite operator="in" in="color-2"/>
      <feComposite operator="in" in2="SourceGraphic"/>
    </filter>
    <clipPath id="clip-path-2">
      <rect id="Rectángulo_46253" data-name="Rectángulo 46253" width="164.703" height="200.886" fill="none"/>
    </clipPath>
    <filter id="Elipse_6284" x="501" y="53.765" width="238" height="238" filterUnits="userSpaceOnUse">
      <feOffset dy="3" input="SourceAlpha"/>
      <feGaussianBlur stdDeviation="3" result="blur-4"/>
      <feFlood flood-opacity="0.161"/>
      <feComposite operator="in" in2="blur-4"/>
      <feComposite in="SourceGraphic"/>
    </filter>
    <filter id="Elipse_6284-2" x="501" y="53.765" width="238" height="238" filterUnits="userSpaceOnUse">
      <feOffset dy="3" input="SourceAlpha"/>
      <feGaussianBlur stdDeviation="3" result="blur-5"/>
      <feFlood flood-opacity="0.161" result="color-3"/>
      <feComposite operator="out" in="SourceGraphic" in2="blur-5"/>
      <feComposite operator="in" in="color-3"/>
      <feComposite operator="in" in2="SourceGraphic"/>
    </filter>
    <filter id="Elipse_6285" x="523" y="72.765" width="194" height="194" filterUnits="userSpaceOnUse">
      <feOffset dy="3" input="SourceAlpha"/>
      <feGaussianBlur stdDeviation="3" result="blur-6"/>
      <feFlood flood-opacity="0.161" result="color-4"/>
      <feComposite operator="out" in="SourceGraphic" in2="blur-6"/>
      <feComposite operator="in" in="color-4"/>
      <feComposite operator="in" in2="SourceGraphic"/>
    </filter>
    <clipPath id="clip-path-3">
      <rect id="Rectángulo_46255" data-name="Rectángulo 46255" width="164.703" height="210.677" fill="#12263f"/>
    </clipPath>
    <filter id="Elipse_6287" x="912" y="53.765" width="238" height="238" filterUnits="userSpaceOnUse">
      <feOffset dy="3" input="SourceAlpha"/>
      <feGaussianBlur stdDeviation="3" result="blur-7"/>
      <feFlood flood-opacity="0.161"/>
      <feComposite operator="in" in2="blur-7"/>
      <feComposite in="SourceGraphic"/>
    </filter>
    <filter id="Elipse_6287-2" x="912" y="53.765" width="238" height="238" filterUnits="userSpaceOnUse">
      <feOffset dy="3" input="SourceAlpha"/>
      <feGaussianBlur stdDeviation="3" result="blur-8"/>
      <feFlood flood-opacity="0.161" result="color-5"/>
      <feComposite operator="out" in="SourceGraphic" in2="blur-8"/>
      <feComposite operator="in" in="color-5"/>
      <feComposite operator="in" in2="SourceGraphic"/>
    </filter>
    <filter id="Elipse_6286" x="934" y="72.765" width="194" height="194" filterUnits="userSpaceOnUse">
      <feOffset dy="3" input="SourceAlpha"/>
      <feGaussianBlur stdDeviation="3" result="blur-9"/>
      <feFlood flood-opacity="0.161" result="color-6"/>
      <feComposite operator="out" in="SourceGraphic" in2="blur-9"/>
      <feComposite operator="in" in="color-6"/>
      <feComposite operator="in" in2="SourceGraphic"/>
    </filter>
    <clipPath id="clip-path-4">
      <rect id="Rectángulo_46257" data-name="Rectángulo 46257" width="164.703" height="198.259" fill="none"/>
    </clipPath>
    <filter id="Elipse_6288" x="296" y="215.765" width="238" height="238" filterUnits="userSpaceOnUse">
      <feOffset dy="3" input="SourceAlpha"/>
      <feGaussianBlur stdDeviation="3" result="blur-10"/>
      <feFlood flood-opacity="0.161"/>
      <feComposite operator="in" in2="blur-10"/>
      <feComposite in="SourceGraphic"/>
    </filter>
    <filter id="Elipse_6288-2" x="296" y="215.765" width="238" height="238" filterUnits="userSpaceOnUse">
      <feOffset dy="3" input="SourceAlpha"/>
      <feGaussianBlur stdDeviation="3" result="blur-11"/>
      <feFlood flood-opacity="0.161" result="color-7"/>
      <feComposite operator="out" in="SourceGraphic" in2="blur-11"/>
      <feComposite operator="in" in="color-7"/>
      <feComposite operator="in" in2="SourceGraphic"/>
    </filter>
    <filter id="Elipse_6289" x="318" y="234.765" width="194" height="194" filterUnits="userSpaceOnUse">
      <feOffset dy="3" input="SourceAlpha"/>
      <feGaussianBlur stdDeviation="3" result="blur-12"/>
      <feFlood flood-opacity="0.161" result="color-8"/>
      <feComposite operator="out" in="SourceGraphic" in2="blur-12"/>
      <feComposite operator="in" in="color-8"/>
      <feComposite operator="in" in2="SourceGraphic"/>
    </filter>
    <clipPath id="clip-path-5">
      <rect id="Rectángulo_46254" data-name="Rectángulo 46254" width="164.703" height="200.634" fill="none"/>
    </clipPath>
    <filter id="Elipse_6291" x="706" y="215.765" width="238" height="238" filterUnits="userSpaceOnUse">
      <feOffset dy="3" input="SourceAlpha"/>
      <feGaussianBlur stdDeviation="3" result="blur-13"/>
      <feFlood flood-opacity="0.161"/>
      <feComposite operator="in" in2="blur-13"/>
      <feComposite in="SourceGraphic"/>
    </filter>
    <filter id="Elipse_6291-2" x="706" y="215.765" width="238" height="238" filterUnits="userSpaceOnUse">
      <feOffset dy="3" input="SourceAlpha"/>
      <feGaussianBlur stdDeviation="3" result="blur-14"/>
      <feFlood flood-opacity="0.161" result="color-9"/>
      <feComposite operator="out" in="SourceGraphic" in2="blur-14"/>
      <feComposite operator="in" in="color-9"/>
      <feComposite operator="in" in2="SourceGraphic"/>
    </filter>
    <filter id="Elipse_6290" x="728" y="234.765" width="194" height="194" filterUnits="userSpaceOnUse">
      <feOffset dy="3" input="SourceAlpha"/>
      <feGaussianBlur stdDeviation="3" result="blur-15"/>
      <feFlood flood-opacity="0.161" result="color-10"/>
      <feComposite operator="out" in="SourceGraphic" in2="blur-15"/>
      <feComposite operator="in" in="color-10"/>
      <feComposite operator="in" in2="SourceGraphic"/>
    </filter>
    <clipPath id="clip-path-6">
      <rect id="Rectángulo_46256" data-name="Rectángulo 46256" width="164.703" height="209.209" fill="none"/>
    </clipPath>
  </defs>
  <g id="Grupo_156257" data-name="Grupo 156257" transform="translate(-180.001 -5001)">
    <g id="Grupo_155632" data-name="Grupo 155632" transform="translate(0 207)">
      <g id="Enmascarar_grupo_141" data-name="Enmascarar grupo 141" clip-path="url(#clip-path)">
        <rect id="Rectángulo_46220" data-name="Rectángulo 46220" width="1240" height="552" rx="10" transform="translate(180.001 4794)" fill="#8c6df2" opacity="0.35"/>
        <g id="Elipse_6292" data-name="Elipse 6292" transform="translate(560.001 5466) rotate(180)" fill="none" stroke="#8c6df2" stroke-linecap="round" stroke-width="4" stroke-dasharray="3 8">
          <circle cx="90" cy="90" r="90" stroke="none"/>
          <circle cx="90" cy="90" r="88" fill="none"/>
        </g>
        <g id="Elipse_6309" data-name="Elipse 6309" transform="translate(1304.001 5504) rotate(180)" fill="none" stroke="#8c6df2" stroke-linecap="round" stroke-width="4" stroke-dasharray="3 8">
          <circle cx="138.5" cy="138.5" r="138.5" stroke="none"/>
          <circle cx="138.5" cy="138.5" r="136.5" fill="none"/>
        </g>
        <g id="Elipse_6308" data-name="Elipse 6308" transform="translate(918.001 4837) rotate(180)" fill="none" stroke="#8c6df2" stroke-linecap="round" stroke-width="4" stroke-dasharray="3 8">
          <circle cx="90" cy="90" r="90" stroke="none"/>
          <circle cx="90" cy="90" r="88" fill="none"/>
        </g>
        <g id="Elipse_6306" data-name="Elipse 6306" transform="translate(888.001 5246) rotate(180)" fill="none" stroke="#8c6df2" stroke-linecap="round" stroke-width="4" stroke-dasharray="3 8">
          <circle cx="164" cy="164" r="164" stroke="none"/>
          <circle cx="164" cy="164" r="162" fill="none"/>
        </g>
        <g id="Elipse_6299" data-name="Elipse 6299" transform="translate(1470.001 5022) rotate(180)" fill="none" stroke="#8c6df2" stroke-linecap="round" stroke-width="4" stroke-dasharray="3 8">
          <circle cx="176.5" cy="176.5" r="176.5" stroke="none"/>
          <circle cx="176.5" cy="176.5" r="174.5" fill="none"/>
        </g>
        <circle id="Elipse_6302" data-name="Elipse 6302" cx="85" cy="85" r="85" transform="translate(1175.001 4879) rotate(180)" fill="#8c6df2" opacity="0.5"/>
        <circle id="Elipse_6301" data-name="Elipse 6301" cx="28" cy="28" r="28" transform="translate(295.001 4833) rotate(180)" fill="#8c6df2" opacity="0.5"/>
        <circle id="Elipse_6307" data-name="Elipse 6307" cx="28" cy="28" r="28" transform="translate(828.001 5255) rotate(180)" fill="#8c6df2" opacity="0.5"/>
        <circle id="Elipse_6311" data-name="Elipse 6311" cx="28" cy="28" r="28" transform="translate(1389.001 5138) rotate(180)" fill="#8c6df2" opacity="0.5"/>
        <circle id="Elipse_6296" data-name="Elipse 6296" cx="23" cy="23" r="23" transform="translate(252.001 5322) rotate(180)" fill="#5038a1"/>
        <circle id="Elipse_6305" data-name="Elipse 6305" cx="23" cy="23" r="23" transform="translate(1389.001 4851) rotate(180)" fill="#5038a1"/>
        <circle id="Elipse_6300" data-name="Elipse 6300" cx="44" cy="44" r="44" transform="translate(224.001 4910) rotate(180)" fill="#5038a1"/>
        <circle id="Elipse_6310" data-name="Elipse 6310" cx="44" cy="44" r="44" transform="translate(1277.001 5283) rotate(180)" fill="#5038a1"/>
        <g id="Elipse_6294" data-name="Elipse 6294" transform="translate(337.001 5269) rotate(180)" fill="none" stroke="#fff" stroke-width="3">
          <circle cx="42.5" cy="42.5" r="42.5" stroke="none"/>
          <circle cx="42.5" cy="42.5" r="41" fill="none"/>
        </g>
        <g id="Elipse_6303" data-name="Elipse 6303" transform="translate(1463.001 5022) rotate(180)" fill="none" stroke="#fff" stroke-width="3">
          <circle cx="42.5" cy="42.5" r="42.5" stroke="none"/>
          <circle cx="42.5" cy="42.5" r="41" fill="none"/>
        </g>
        <g id="Elipse_6298" data-name="Elipse 6298" transform="translate(656.001 4887) rotate(180)" fill="none" stroke="#fff" stroke-width="3">
          <circle cx="78" cy="78" r="78" stroke="none"/>
          <circle cx="78" cy="78" r="76.5" fill="none"/>
        </g>
        <g id="Elipse_6313" data-name="Elipse 6313" transform="translate(972.001 5425) rotate(180)" fill="none" stroke="#fff" stroke-width="3">
          <circle cx="78" cy="78" r="78" stroke="none"/>
          <circle cx="78" cy="78" r="76.5" fill="none"/>
        </g>
        <g id="Elipse_6312" data-name="Elipse 6312" transform="translate(1470.001 5276) rotate(180)" fill="none" stroke="#fff" stroke-width="3">
          <circle cx="78" cy="78" r="78" stroke="none"/>
          <circle cx="78" cy="78" r="76.5" fill="none"/>
        </g>
        <g id="Elipse_6295" data-name="Elipse 6295" transform="translate(520.001 5473) rotate(180)" fill="none" stroke="#eee9fd" stroke-linecap="round" stroke-width="4" stroke-dasharray="3 8">
          <circle cx="190" cy="190" r="190" stroke="none"/>
          <circle cx="190" cy="190" r="188" fill="none"/>
        </g>
        <g id="Elipse_6304" data-name="Elipse 6304" transform="translate(1294.001 5127) rotate(180)" fill="none" stroke="#eee9fd" stroke-linecap="round" stroke-width="4" stroke-dasharray="3 8">
          <circle cx="190" cy="190" r="190" stroke="none"/>
          <circle cx="190" cy="190" r="188" fill="none"/>
        </g>
        <g id="Elipse_6297" data-name="Elipse 6297" transform="translate(560.001 5029) rotate(180)" fill="none" stroke="#eee9fd" stroke-linecap="round" stroke-width="4" stroke-dasharray="3 8">
          <circle cx="252.5" cy="252.5" r="252.5" stroke="none"/>
          <circle cx="252.5" cy="252.5" r="250.5" fill="none"/>
        </g>
      </g>
      <rect id="Rectángulo_46259" data-name="Rectángulo 46259" width="1240" height="552" rx="10" transform="translate(180.001 4794)" fill="#d2e1f1" opacity="0.58"/>
      <g data-type="innerShadowGroup">
        <g transform="matrix(1, 0, 0, 1, 180, 4794)" filter="url(#Elipse_6282)">
          <circle id="Elipse_6282-3" data-name="Elipse 6282" cx="110" cy="110" r="110" transform="translate(100 59.76)" fill="#5038a1"/>
        </g>
        <g transform="matrix(1, 0, 0, 1, 180, 4794)" filter="url(#Elipse_6282-2)">
          <circle id="Elipse_6282-4" data-name="Elipse 6282" cx="110" cy="110" r="110" transform="translate(100 59.76)" fill="#fff"/>
        </g>
      </g>
      <g data-type="innerShadowGroup">
        <circle id="Elipse_6283-2" data-name="Elipse 6283" cx="97" cy="97" r="97" transform="translate(293.001 4866.765)" fill="#8c6df2"/>
        <g transform="matrix(1, 0, 0, 1, 180, 4794)" filter="url(#Elipse_6283)">
          <circle id="Elipse_6283-3" data-name="Elipse 6283" cx="97" cy="97" r="97" transform="translate(113 72.76)" fill="#fff"/>
        </g>
      </g>
      <g id="Grupo_155619" data-name="Grupo 155619" transform="translate(307.203 4876.293)">
        <g id="Grupo_155618" data-name="Grupo 155618" clip-path="url(#clip-path-2)">
          <path id="Trazado_204399" data-name="Trazado 204399" d="M105.514,27.254c0-.023,0-.047,0-.07a1.65,1.65,0,0,0-.124-.539c-.132-.612-.287-1.223-.479-1.829-.581-1.834-3.478-1.051-2.893.8.044.139.079.277.119.416a1.5,1.5,0,0,0-1,1.065,1.535,1.535,0,0,0-.141.407,108.176,108.176,0,0,1-4.1,15.361,1.53,1.53,0,0,0,2.119,1.756,1.569,1.569,0,0,0,.6-.371,16.81,16.81,0,0,0,1.329-1.441,1.61,1.61,0,0,0,1.141-.64,19.118,19.118,0,0,0,3.427-14.912" fill="#fedc72"/>
          <path id="Trazado_204400" data-name="Trazado 204400" d="M71.318,42.582c-.194-.441-.388-.888-.582-1.334A1.4,1.4,0,0,0,71,39.99a4.343,4.343,0,0,0-1.839-2.505,55.557,55.557,0,0,1-2.846-8.892c-.337-1.568-.734-5.117-3.4-4.1A1.377,1.377,0,0,0,61.166,25.9c.352,7.121,1.452,14.755,8.1,18.733,1.4.839,2.614-.77,2.052-2.052" fill="#fedc72"/>
          <path id="Trazado_204401" data-name="Trazado 204401" d="M100.893,73.825c-4.265,3.292-8.657,6.6-13.954,7.992A22.94,22.94,0,0,1,71.681,80.4c-2.389-1.1-5.4-2.6-5.979-5.442a3.636,3.636,0,0,1-.069-.418,3.406,3.406,0,0,1-.963-3.13,3.524,3.524,0,0,1,.494-1.228l9.084-14.815c1.16-1.885,2.243-4.35,3.787-6.09a7.994,7.994,0,0,1,1.032-.989c1.475-1.169,3.539-1.2,5.5-1.126,1.493-2.337,5.936-1.6,6.482,1.16a1.1,1.1,0,0,1,.043.23A27.288,27.288,0,0,0,93.345,56.8,26.447,26.447,0,0,0,99.4,65.219a3.376,3.376,0,0,1,.93,2.806.087.087,0,0,0,.043.017,3.69,3.69,0,0,1,.52,5.783" fill="#ff7871"/>
          <path id="Trazado_204402" data-name="Trazado 204402" d="M93.344,56.8c-4.051,1.544-8.64,2.269-12.427,4.171a20.345,20.345,0,0,0-7.557,6.5,22.931,22.931,0,0,1-4.631,5.152,1.633,1.633,0,0,1-1.714,0,5.989,5.989,0,0,1-.794-.725,3.283,3.283,0,0,1-1.424-.41l-.128-.076a3.55,3.55,0,0,1,.5-1.229l9.083-14.815c1.16-1.885,2.243-4.35,3.787-6.09A21.265,21.265,0,0,1,84.977,49a18.629,18.629,0,0,0,6.073-.682,1.1,1.1,0,0,1,.042.23A27.309,27.309,0,0,0,93.344,56.8" fill="#d1514e"/>
          <path id="Trazado_204403" data-name="Trazado 204403" d="M152.227,122.723a4.243,4.243,0,0,1-.961.61,3.674,3.674,0,0,1-4.41,2.35c-2.33-.42-4.95,1.53-7.04,2.21a13.639,13.639,0,0,1-6.5.46,3.523,3.523,0,0,1-2.58-2.38q-2.848-8.52-6.03-16.95a102.28,102.28,0,0,0-3.99,10.39c-.5,1.5-.97,3-1.409,4.51a.037.037,0,0,1-.01.03c-.75,2.52-1.451,5.06-2.14,7.59a37.153,37.153,0,0,0-1.581,11.5c.02.42.051.84.111,1.26a15.8,15.8,0,0,0,3.6,8.75,1.556,1.556,0,0,1-.229,2.29,54.216,54.216,0,0,1-6.62,3.6H53.407a37.045,37.045,0,0,0,2.94-16.53,39.439,39.439,0,0,0-.5-4.2c-.241-1.32-.54-2.62-.89-3.91a78.1,78.1,0,0,0-2.921-8.48c-2.279-5.7-4.71-11.36-7.07-17.03-.239-.58-.47-1.16-.709-1.75a142.068,142.068,0,0,1-6.21,20.05c-7.721-1.79-15.36-4.19-23.141-5.77a86.279,86.279,0,0,1,2.86-13.38c.571-1.72,1.181-3.43,1.8-5.12.161-.44.33-.89.5-1.33a61.842,61.842,0,0,1,12.211-19.05,64.065,64.065,0,0,1,9.53-8.39,51.851,51.851,0,0,1,5.93-3.66c1.46-.76,2.97-1.46,4.52-2.08a35.511,35.511,0,0,1,9.86-2.39c.4-.04.8-.07,1.209-.1,1.041-.07,2.1-.14,3.181-.25l.819-.09a26.484,26.484,0,0,0,2.831-.47,30.452,30.452,0,0,0,7.449,1.53c6.351.47,12.691-1.03,18.57-3.14a.039.039,0,0,1,.021-.01,6.012,6.012,0,0,0,1.379.44c.481.1.96.18,1.45.25.7.11,1.39.19,2.091.24,1.75.17,3.5.22,5.25.29,1.6.07,3.19.16,4.79.36.28.03.549.08.829.12.141.04.281.07.421.11.729.19,1.46.42,2.18.67a42.8,42.8,0,0,1,8.079,3.93c1,.6,1.96,1.23,2.9,1.86a47.47,47.47,0,0,1,14.77,16.66c5.91,10.74,8.531,22.75,11.891,34.4" fill="#fedc72"/>
          <path id="Trazado_204404" data-name="Trazado 204404" d="M106.686,31.329c-.074-1.745-1.859-2.622-3.862-2.563a10.336,10.336,0,0,0-2.455.379,1.715,1.715,0,0,0-1.324.059l-1.227.53a2.79,2.79,0,0,0-2.161,1.12,1.118,1.118,0,0,0-.152.277,1.083,1.083,0,0,0-.493,1.193,16.125,16.125,0,0,1,.319,4.494q-.029.327-.055.654c-.119,1.412,2.261,1.591,2.871.489,3.653-.706,8.682-3.253,8.539-6.632" fill="#d1514e"/>
          <path id="Trazado_204405" data-name="Trazado 204405" d="M92.9,103.747a9.321,9.321,0,0,0-.512-2.846c-2.119-6.165-4.026-12.367-5.678-18.661,1.105-.662,1.458-1.8,1.933-3.062.587-1.55,2.086-3.864,1.627-5.523-.369-1.338-2.464-3.247-3.563-4.024a5.517,5.517,0,0,0-4.629-.271c-1.739.7-2.706,3.017-3.7,4.5a1,1,0,0,0,0,1.01c.349.661.714,1.309,1.091,1.95a1,1,0,0,0,.153.406c.937,1.473,1.927,2.9,2.982,4.291a1.124,1.124,0,0,0,.195.195l.043.057q-1.007,9.055-2.014,18.111c-.272,2.455-1.145,5.534-.413,7.994.021.068.055.136.078.205a.814.814,0,0,0,.1.872l5.77,8.1a1.015,1.015,0,0,0,1.728,0c1.611-2.614,5.772-7.125,5.948-10.228a4.893,4.893,0,0,0-1.132-3.081" fill="#8c6df2"/>
          <path id="Trazado_204406" data-name="Trazado 204406" d="M101.116,64.323q-3.51,9.09-7.37,18.04c-.31.73-1.37.57-1.72,0q-3.765-5.955-7.2-12.1a5.21,5.21,0,0,0-1.47-.19q-4.125,6.06-7.88,12.37a1.011,1.011,0,0,1-1.73,0c-3.18-5.12-5.22-11.07-7.24-16.87l.82-.09a26.508,26.508,0,0,0,2.83-.47,30.46,30.46,0,0,0,7.45,1.53c6.35.47,12.69-1.03,18.57-3.14a.035.035,0,0,1,.02-.01,6.037,6.037,0,0,0,1.38.44c.48.1.96.18,1.45.25.7.11,1.39.19,2.09.24" fill="#fff"/>
          <path id="Trazado_204407" data-name="Trazado 204407" d="M61.331,31.8c.2-1.74,2.044-2.545,4.04-2.407a10.246,10.246,0,0,1,2.425.476,1.7,1.7,0,0,1,1.317.112l1.188.578a2.684,2.684,0,0,1,2.077,1.2,1.1,1.1,0,0,1,.133.283,1.055,1.055,0,0,1,.406,1.211,16.269,16.269,0,0,0-.64,4.475q0,.327.008.655c.017,1.414-2.371,1.5-2.9.374-3.6-.85-8.437-3.593-8.053-6.961" fill="#d1514e"/>
          <path id="Trazado_204408" data-name="Trazado 204408" d="M140.34,88.324a47.444,47.444,0,0,0-14.773-16.658c-.938-.631-1.9-1.262-2.9-1.859a42.711,42.711,0,0,0-8.086-3.932c-.717-.256-1.442-.477-2.175-.674-.137-.042-.282-.068-.418-.111-.281-.034-.555-.085-.836-.119-1.6-.2-3.19-.29-4.785-.358a68.641,68.641,0,0,1-7.343-.529,163,163,0,0,1-13.246,50.442c-10.4-14.159-15.361-31.61-18.457-49.043-1.348.162-2.7.247-4,.341-.409.025-.8.06-1.2.1a35.292,35.292,0,0,0-9.86,2.388c-1.552.623-3.062,1.323-4.521,2.082a51.425,51.425,0,0,0-5.927,3.659,63.824,63.824,0,0,0-9.536,8.384,61.963,61.963,0,0,0-12.214,19.054c-.162.443-.332.887-.494,1.331-.623,1.688-1.229,3.394-1.8,5.117a85.055,85.055,0,0,0-2.857,13.382c7.778,1.578,15.42,3.983,23.139,5.775a142.477,142.477,0,0,0,6.209-20.053c.239.589.47,1.169.708,1.749,2.363,5.672,4.785,11.327,7.071,17.024a77.192,77.192,0,0,1,2.917,8.487c.35,1.288.657,2.593.887,3.906a36.5,36.5,0,0,1,.5,4.205,36.929,36.929,0,0,1-2.943,16.53h59.03a54.528,54.528,0,0,0,6.628-3.6,1.569,1.569,0,0,0,.23-2.294,15.843,15.843,0,0,1-3.608-8.751c-.051-.418-.085-.836-.111-1.254a37.333,37.333,0,0,1,1.587-11.506c.69-2.524,1.39-5.066,2.141-7.591a.031.031,0,0,0,.008-.025q.665-2.265,1.407-4.512a102.771,102.771,0,0,1,3.992-10.389q3.172,8.431,6.03,16.948a3.521,3.521,0,0,0,2.576,2.379,13.531,13.531,0,0,0,6.5-.46c2.1-.683,4.717-2.627,7.045-2.209a3.673,3.673,0,0,0,4.41-2.346,4.637,4.637,0,0,0,.964-.614c-3.361-11.651-5.979-23.66-11.89-34.4" fill="#fdb74d"/>
          <path id="Trazado_204409" data-name="Trazado 204409" d="M146.906,200.886H17.38a12.035,12.035,0,0,1-12-12V112.241a12.035,12.035,0,0,1,12-12H146.906a12.035,12.035,0,0,1,12,12v76.645a12.035,12.035,0,0,1-12,12" fill="#12263f"/>
          <path id="Trazado_204410" data-name="Trazado 204410" d="M159.169,164.32c-.445.043-.89.073-1.335.124l.608-.575a.936.936,0,0,0-.7-1.592c-2.664.265-10.54.719-11.419,3.991a1.489,1.489,0,0,0,.35,1.687c-1.535,1.437-2.9,3.413-1.958,5.036a2.381,2.381,0,0,0,2.708,1.076,2.6,2.6,0,0,0,.017,2.128c.638,1.326,2.143,1.379,3.7.987a2.431,2.431,0,0,0,1.271,2.3c1.769,1.254,4.245,1.1,6.757.37Z" fill="#12263f"/>
          <path id="Trazado_204411" data-name="Trazado 204411" d="M164.052,170.01a3.624,3.624,0,0,0-.41-.157c.04-.059.077-.118.113-.178a1.3,1.3,0,0,0,.235-.459,2.129,2.129,0,0,0,.028-1.668,1.822,1.822,0,0,0-.1-.2,1.012,1.012,0,0,0-.062-.106,1.9,1.9,0,0,0-1.9-.683c.16-.136.328-.264.481-.406a1.2,1.2,0,0,0,.3-.476,1.661,1.661,0,0,0,.419-1.521,1.626,1.626,0,0,0-1.806-1.288,2.8,2.8,0,0,0,.157-.744,1.552,1.552,0,0,0-.024-.366,1,1,0,0,0-.683-1.64,42.715,42.715,0,0,0-9.351,1.717c-1.193.366-3.548.592-4.09,2.222a2.015,2.015,0,0,0-.069,1.09,1.3,1.3,0,0,0,.572,1.5,2.453,2.453,0,0,0,.532.232,5.283,5.283,0,0,0-.726.679,5.656,5.656,0,0,0-1.71,2.527,1.3,1.3,0,0,0,.134,1.146.974.974,0,0,0,.4.537,2.355,2.355,0,0,0,2.475-.117c.16-.011.323-.03.488-.058a2.668,2.668,0,0,0-.478,1.743c.1,1.884,1.612,1.749,3.444.881.022,0,.043,0,.064,0a2.047,2.047,0,0,0,.684,2.336c1.574,1.183,4.753-.6,6.376-1.213a10.359,10.359,0,0,0,4.939-3.477,1.307,1.307,0,0,0-.424-1.852" fill="#ff7871"/>
          <path id="Trazado_204412" data-name="Trazado 204412" d="M150.365,166.735l-.05-.163,10.309-3.18.05.164Z" fill="#d1514e"/>
          <path id="Trazado_204413" data-name="Trazado 204413" d="M150.406,171.114l-.058-.161,10.928-3.9.057.161Z" fill="#d1514e"/>
          <path id="Trazado_204414" data-name="Trazado 204414" d="M154.673,173.672l-.063-.158,8.529-3.412.063.158Z" fill="#d1514e"/>
          <path id="Trazado_204415" data-name="Trazado 204415" d="M5.533,165.173c.445.043.89.073,1.335.124l-.608-.575a.936.936,0,0,1,.7-1.592c2.664.264,10.54.719,11.419,3.991a1.489,1.489,0,0,1-.35,1.687c1.535,1.437,2.905,3.413,1.958,5.036a2.381,2.381,0,0,1-2.708,1.076,2.6,2.6,0,0,1-.017,2.128c-.638,1.326-2.143,1.379-3.7.987a2.426,2.426,0,0,1-1.271,2.3c-1.769,1.255-4.244,1.1-6.757.371Z" fill="#12263f"/>
          <path id="Trazado_204416" data-name="Trazado 204416" d="M.65,170.863a3.7,3.7,0,0,1,.41-.157c-.039-.059-.077-.118-.113-.178a1.3,1.3,0,0,1-.235-.459A2.129,2.129,0,0,1,.684,168.4a1.821,1.821,0,0,1,.1-.2,1.02,1.02,0,0,1,.063-.106,1.9,1.9,0,0,1,1.9-.683c-.16-.136-.328-.264-.481-.406a1.2,1.2,0,0,1-.3-.476,1.661,1.661,0,0,1-.419-1.521,1.626,1.626,0,0,1,1.806-1.288,2.789,2.789,0,0,1-.157-.744,1.49,1.49,0,0,1,.025-.365h0a1,1,0,0,1,.683-1.64,42.716,42.716,0,0,1,9.351,1.717c1.194.366,3.548.592,4.09,2.222a2.015,2.015,0,0,1,.069,1.09,1.3,1.3,0,0,1-.573,1.5,2.425,2.425,0,0,1-.531.232,5.411,5.411,0,0,1,.727.679,5.662,5.662,0,0,1,1.709,2.527,1.3,1.3,0,0,1-.134,1.146.971.971,0,0,1-.4.537,2.355,2.355,0,0,1-2.475-.117c-.16-.011-.323-.03-.488-.058a2.668,2.668,0,0,1,.478,1.743c-.1,1.884-1.612,1.749-3.444.881-.022,0-.043,0-.064,0a2.049,2.049,0,0,1-.684,2.337c-1.574,1.182-4.752-.6-6.376-1.214a10.359,10.359,0,0,1-4.939-3.477,1.307,1.307,0,0,1,.424-1.852" fill="#ff7871"/>
          <path id="Trazado_204417" data-name="Trazado 204417" d="M14.338,167.588l.05-.163-10.309-3.18-.05.164Z" fill="#d1514e"/>
          <path id="Trazado_204418" data-name="Trazado 204418" d="M14.3,171.967l.057-.161-10.927-3.9-.057.161Z" fill="#d1514e"/>
          <path id="Trazado_204419" data-name="Trazado 204419" d="M10.029,174.525l.063-.158-8.529-3.412-.063.158Z" fill="#d1514e"/>
          <path id="Trazado_204420" data-name="Trazado 204420" d="M103.636,31.9c0,12.7-8.73,23-19.5,23s-19.5-10.3-19.5-23,8.73-23,19.5-23,19.5,10.3,19.5,23" fill="#ff7871"/>
          <path id="Trazado_204421" data-name="Trazado 204421" d="M106.895,26.162l-.006-.032A32.58,32.58,0,0,0,106,20.252c.015-.008.029-.013.043-.021,3.918-2.3.343-8.172-1.867-10.465a14.547,14.547,0,0,0-6.423-3.895A22.246,22.246,0,0,0,88.427.782a23.362,23.362,0,0,0-13.919.6,15.819,15.819,0,0,0-9.461,7.125c-3.85,2.58-6.929,6.615-6.912,11.28A5.034,5.034,0,0,0,59.5,23.211c0,.189.012.381.03.58a2.6,2.6,0,0,0,2.033,2.438c.4,2.133,1.43,3.683,3.629,3.633a1.573,1.573,0,0,0,1.069-.463A1.366,1.366,0,0,0,67.351,28c0-1.454.052-2.9.123-4.337,1.825-2.107,4.408-3.87,5.934-5.846A21.688,21.688,0,0,0,76,13.48c2.4,4.8,7.807,8.842,12.3,10.212,2.254.689,6.5,1.483,8.365-.381A7.07,7.07,0,0,0,98.4,19.264a37.555,37.555,0,0,1,2.367,8.245,1.223,1.223,0,0,0,.792.924,1.457,1.457,0,0,0,1.771.925l2.518-.74a1.529,1.529,0,0,0,1.1-1.447c0-.193-.026-.388-.034-.582a1.827,1.827,0,0,0-.021-.427" fill="#fedc72"/>
          <path id="Trazado_204422" data-name="Trazado 204422" d="M89.918,19.2c-.012.089-.7.095-1.712-.322A8.72,8.72,0,0,1,84.9,16.3a15.772,15.772,0,0,1-2.122-3.571c-.421-.968-.616-1.592-.525-1.637s.459.5,1,1.393a28.514,28.514,0,0,0,2.232,3.341A10.855,10.855,0,0,0,88.44,18.4c.878.506,1.5.684,1.478.8" fill="#fdb74d"/>
          <path id="Trazado_204423" data-name="Trazado 204423" d="M95.169,18.368c.059-.057.34.124.77.478l.266.22-.375.147a1.9,1.9,0,0,1-1.744-.443,8.18,8.18,0,0,1-1.468-1.664c-1.541-2.065-2.653-3.835-2.483-3.953s1.548,1.446,3.077,3.5a11.456,11.456,0,0,0,1.3,1.612,1.587,1.587,0,0,0,1.221.525l-.109.366c-.341-.44-.514-.726-.455-.783" fill="#fdb74d"/>
          <path id="Trazado_204424" data-name="Trazado 204424" d="M81.659,177.615c2.922,0,3.21-2.143,7.848-8.028,6.819,1.025,12.129,3.423,12.129,6.125,0,3.678-8.944,6.66-19.977,6.66s-19.977-2.982-19.977-6.66c0-2.732,4.935-5.08,12.125-6.125,4.044,5.412,5.018,8.028,7.852,8.028" fill="#b0c0d2"/>
          <path id="Trazado_204425" data-name="Trazado 204425" d="M81.659,175.637a1.539,1.539,0,0,1-1.256-.65c-3.884-5.51-6.546-9.406-8.137-11.912a106.467,106.467,0,0,1-7.937-14.531c-1.758-4.1-2.648-7.534-2.648-10.2a19.977,19.977,0,1,1,39.954,0c0,2.663-.888,6.084-2.638,10.177a106.389,106.389,0,0,1-7.912,14.494c-1.6,2.519-4.345,6.545-8.169,11.969a1.545,1.545,0,0,1-1.257.652m0-45.586a8.562,8.562,0,1,0,8.561,8.562h0a8.572,8.572,0,0,0-8.562-8.561Z" fill="#b0c0d2"/>
        </g>
      </g>
      <g data-type="innerShadowGroup">
        <g transform="matrix(1, 0, 0, 1, 180, 4794)" filter="url(#Elipse_6284)">
          <circle id="Elipse_6284-3" data-name="Elipse 6284" cx="110" cy="110" r="110" transform="translate(510 59.76)" fill="#5038a1"/>
        </g>
        <g transform="matrix(1, 0, 0, 1, 180, 4794)" filter="url(#Elipse_6284-2)">
          <circle id="Elipse_6284-4" data-name="Elipse 6284" cx="110" cy="110" r="110" transform="translate(510 59.76)" fill="#fff"/>
        </g>
      </g>
      <g data-type="innerShadowGroup">
        <circle id="Elipse_6285-2" data-name="Elipse 6285" cx="97" cy="97" r="97" transform="translate(703.001 4866.765)" fill="#8c6df2"/>
        <g transform="matrix(1, 0, 0, 1, 180, 4794)" filter="url(#Elipse_6285)">
          <circle id="Elipse_6285-3" data-name="Elipse 6285" cx="97" cy="97" r="97" transform="translate(523 72.76)" fill="#fff"/>
        </g>
      </g>
      <g id="Grupo_155623" data-name="Grupo 155623" transform="translate(717.5 4866.293)">
        <g id="Grupo_155622" data-name="Grupo 155622" clip-path="url(#clip-path-3)">
          <path id="Trazado_204450" data-name="Trazado 204450" d="M101.463,68.3c-4.37,2.87-9.4,3.94-14.56,4.22-5.47.31-11.43.64-16.72-.97a1.626,1.626,0,0,1-.92-2.28,1.919,1.919,0,0,1,.44-.65,18.633,18.633,0,0,0,2.49-3.09,28.748,28.748,0,0,0,3.85-10.97l.06-.36c.4-2.44.63-4.9.87-7.27a1.543,1.543,0,0,1,.78-1.26,1.656,1.656,0,0,1,1.79-1.35,39.4,39.4,0,0,1,9.71,1.64,4.813,4.813,0,0,1,2.03,1.07,3.4,3.4,0,0,1,.82,1.25c.47,1.21.67,2.54,1.09,3.77.28.84.59,1.67.94,2.48.16.39.33.77.51,1.16a32.6,32.6,0,0,0,1.53,2.93,37.016,37.016,0,0,0,5.52,7.26,1.725,1.725,0,0,1-.23,2.42" fill="#f27d76"/>
          <path id="Trazado_204451" data-name="Trazado 204451" d="M94.643,55.688a25.351,25.351,0,0,0-11.87,2.95c-3.35,1.76-5.74,5.03-8.87,6.98a1.4,1.4,0,0,1-1.71-.09,1.072,1.072,0,0,1-.2-.22,5.734,5.734,0,0,1-.74-1.27v-.01a2.345,2.345,0,0,1,.4-.75A24.943,24.943,0,0,0,76.1,54.2a52.179,52.179,0,0,0,1.4-7.06c1.5.3,2.93.62,4.35.86a67.562,67.562,0,0,0,8.83-.92c.21-.02.41-.04.6-.05a3.4,3.4,0,0,1,.82,1.25c.47,1.21.67,2.54,1.09,3.77.28.84.59,1.67.94,2.48.16.39.33.77.51,1.16" fill="#d1514e"/>
          <path id="Trazado_204452" data-name="Trazado 204452" d="M104.4,69.165l-.566-.654a1.24,1.24,0,0,0-.237-1c-2.161-2.638-4.43-5.147-6.837-7.562a1.013,1.013,0,0,0-1.414,0L92.007,63.4q-2.4,1.826-4.706,3.77c-.309.171-.613.322-.914.458a72.923,72.923,0,0,1-12.914-5.966,1.008,1.008,0,0,0-1.211.157c-.083.1-.171.2-.254.3l-.368.415c-2.218.847-4.152,3.354-5.6,5.434a1.122,1.122,0,0,0-.47.679c-.24.35-.468.683-.675.978-.555.788.293,1.553,1.064,1.435,11.184,6.666,26.275,2.633,38.006-.229a1.011,1.011,0,0,0,.441-1.671" fill="#fdb74d"/>
          <path id="Trazado_204453" data-name="Trazado 204453" d="M147.153,126.238a4.326,4.326,0,0,1-.89.62,3.381,3.381,0,0,1-4.08,2.35c-2.15-.42-4.58,1.52-6.51,2.2a11.5,11.5,0,0,1-6.01.46,3.35,3.35,0,0,1-2.38-2.38q-2.64-8.52-5.58-16.94c-1.41,3.38-2.62,6.86-3.69,10.38-1.22,4.02-2.27,8.09-3.29,12.14-1.77,7.03-2.83,15.38,1.97,21.51a1.649,1.649,0,0,1-.21,2.29,49.651,49.651,0,0,1-6.13,3.6H55.783a39.556,39.556,0,0,0,2.72-16.53,43.378,43.378,0,0,0-1.29-8.11,81.285,81.285,0,0,0-2.7-8.49c-2.11-5.7-4.35-11.35-6.53-17.03l-.66-1.74a149.9,149.9,0,0,1-5.74,20.05c-7.14-1.79-14.2-4.2-21.39-5.78a90.473,90.473,0,0,1,2.64-13.38c.53-1.72,1.09-3.43,1.66-5.11.15-.45.31-.89.46-1.33.48-1.27,1-2.52,1.55-3.75.55-1.21,1.13-2.41,1.75-3.6a62.518,62.518,0,0,1,4.28-6.98c.79-1.13,1.63-2.24,2.53-3.33.38-.47.78-.94,1.18-1.4a58.7,58.7,0,0,1,10.39-9.54,42.141,42.141,0,0,1,3.8-2.43,40.966,40.966,0,0,1,4.29-2.16,30.85,30.85,0,0,1,9.5-2.42c6.33,2.4,14.3,2.54,19.81,2.23a66.545,66.545,0,0,0,18.94-3.58c2.07.1,4.13.15,6.2.43.26.04.51.08.77.13.13.03.26.06.39.1a34.682,34.682,0,0,1,9.24,4.45c1.01.65,1.98,1.33,2.93,2.02.21.15.42.31.62.47a43.578,43.578,0,0,1,9.86,10.73c.78,1.16,1.51,2.37,2.19,3.6q.51.915.99,1.86a72.076,72.076,0,0,1,3.04,6.85c.48,1.22.93,2.45,1.35,3.7,2.67,7.76,4.48,15.89,6.6,23.84" fill="#fedc72"/>
          <path id="Trazado_204454" data-name="Trazado 204454" d="M146.906,210.677H17.381a12.035,12.035,0,0,1-12-12V122.032a12.035,12.035,0,0,1,12-12H146.906a12.035,12.035,0,0,1,12,12v76.645a12.035,12.035,0,0,1-12,12" fill="#12263f"/>
          <path id="Trazado_204455" data-name="Trazado 204455" d="M159.169,151.935c-.445.043-.89.073-1.335.124l.608-.575a.936.936,0,0,0-.7-1.592c-2.664.264-10.54.719-11.419,3.991a1.489,1.489,0,0,0,.35,1.687c-1.535,1.437-2.9,3.413-1.958,5.036a2.381,2.381,0,0,0,2.708,1.076,2.6,2.6,0,0,0,.017,2.128c.638,1.326,2.143,1.379,3.7.987a2.426,2.426,0,0,0,1.271,2.3c1.769,1.255,4.245,1.1,6.757.371Z" fill="#12263f"/>
          <path id="Trazado_204456" data-name="Trazado 204456" d="M164.052,157.625a3.624,3.624,0,0,0-.41-.157c.04-.059.078-.118.113-.178a1.317,1.317,0,0,0,.236-.459,2.137,2.137,0,0,0,.028-1.668,2.013,2.013,0,0,0-.1-.2,1.014,1.014,0,0,0-.062-.106,1.9,1.9,0,0,0-1.9-.683c.16-.136.328-.264.481-.406a1.2,1.2,0,0,0,.3-.476,1.661,1.661,0,0,0,.419-1.521,1.625,1.625,0,0,0-1.806-1.288,2.79,2.79,0,0,0,.157-.744,1.54,1.54,0,0,0-.024-.365h0a1,1,0,0,0-.683-1.64,42.725,42.725,0,0,0-9.351,1.717c-1.193.366-3.548.592-4.09,2.222a2.015,2.015,0,0,0-.069,1.09,1.3,1.3,0,0,0,.573,1.5,2.446,2.446,0,0,0,.531.232,5.346,5.346,0,0,0-.726.679,5.656,5.656,0,0,0-1.71,2.527,1.3,1.3,0,0,0,.135,1.146.964.964,0,0,0,.395.537,2.355,2.355,0,0,0,2.475-.117c.16-.011.323-.03.489-.058a2.662,2.662,0,0,0-.479,1.743c.1,1.884,1.612,1.749,3.445.881.021,0,.042,0,.063,0a2.048,2.048,0,0,0,.685,2.337c1.573,1.182,4.752-.6,6.375-1.214a10.359,10.359,0,0,0,4.939-3.477,1.307,1.307,0,0,0-.424-1.852" fill="#ff7871"/>
          <path id="Trazado_204457" data-name="Trazado 204457" d="M150.365,154.35l-.05-.163,10.309-3.18.05.164Z" fill="#d1514e"/>
          <path id="Trazado_204458" data-name="Trazado 204458" d="M150.406,158.729l-.057-.161,10.927-3.9.057.161Z" fill="#d1514e"/>
          <path id="Trazado_204459" data-name="Trazado 204459" d="M154.673,161.287l-.063-.158,8.529-3.412.063.158Z" fill="#d1514e"/>
          <path id="Trazado_204460" data-name="Trazado 204460" d="M5.533,140.847c.445.043.89.073,1.335.124L6.26,140.4a.936.936,0,0,1,.7-1.592c2.664.265,10.54.719,11.419,3.991a1.487,1.487,0,0,1-.35,1.686c1.535,1.438,2.905,3.414,1.958,5.037a2.381,2.381,0,0,1-2.708,1.076,2.6,2.6,0,0,1-.017,2.128c-.638,1.326-2.143,1.379-3.7.987a2.426,2.426,0,0,1-1.271,2.3c-1.769,1.255-4.244,1.1-6.757.371Z" fill="#12263f"/>
          <path id="Trazado_204461" data-name="Trazado 204461" d="M.65,146.537a3.621,3.621,0,0,1,.41-.157c-.04-.059-.078-.118-.113-.178a1.317,1.317,0,0,1-.236-.459,2.137,2.137,0,0,1-.028-1.668,2.014,2.014,0,0,1,.1-.2,1.014,1.014,0,0,1,.062-.106,1.9,1.9,0,0,1,1.9-.683c-.16-.135-.328-.264-.481-.406a1.2,1.2,0,0,1-.3-.476,1.661,1.661,0,0,1-.419-1.521,1.625,1.625,0,0,1,1.806-1.288,2.8,2.8,0,0,1-.157-.744,1.552,1.552,0,0,1,.024-.366,1,1,0,0,1,.683-1.64,42.726,42.726,0,0,1,9.351,1.717c1.193.366,3.548.592,4.09,2.222a2.015,2.015,0,0,1,.069,1.09,1.3,1.3,0,0,1-.573,1.5,2.445,2.445,0,0,1-.531.232,5.284,5.284,0,0,1,.726.679,5.656,5.656,0,0,1,1.71,2.527,1.3,1.3,0,0,1-.134,1.146.971.971,0,0,1-.4.537,2.353,2.353,0,0,1-2.475-.117c-.16-.011-.323-.03-.489-.058a2.662,2.662,0,0,1,.479,1.743c-.1,1.884-1.612,1.749-3.445.881-.021,0-.042,0-.063,0a2.049,2.049,0,0,1-.684,2.337c-1.574,1.182-4.753-.6-6.376-1.214a10.359,10.359,0,0,1-4.939-3.477,1.307,1.307,0,0,1,.424-1.852" fill="#ff7871"/>
          <path id="Trazado_204462" data-name="Trazado 204462" d="M14.338,143.262l.05-.163-10.309-3.18-.05.164Z" fill="#d1514e"/>
          <path id="Trazado_204463" data-name="Trazado 204463" d="M14.3,147.641l.057-.161-10.927-3.9-.057.161Z" fill="#d1514e"/>
          <path id="Trazado_204464" data-name="Trazado 204464" d="M10.029,150.2l.063-.158-8.529-3.412-.063.158Z" fill="#d1514e"/>
          <path id="Trazado_204465" data-name="Trazado 204465" d="M107.3,30.164c-.074-1.745-1.859-2.622-3.862-2.563a10.336,10.336,0,0,0-2.455.379,1.715,1.715,0,0,0-1.324.059l-1.227.53a2.79,2.79,0,0,0-2.161,1.12,1.117,1.117,0,0,0-.152.277,1.083,1.083,0,0,0-.493,1.193,16.125,16.125,0,0,1,.319,4.494q-.028.327-.055.654c-.119,1.412,2.261,1.591,2.871.489,3.653-.706,8.682-3.253,8.539-6.632" fill="#d1514e"/>
          <path id="Trazado_204466" data-name="Trazado 204466" d="M61.947,30.633c.2-1.739,2.044-2.545,4.04-2.407a10.256,10.256,0,0,1,2.425.476,1.708,1.708,0,0,1,1.317.112l1.188.578a2.686,2.686,0,0,1,2.077,1.2,1.1,1.1,0,0,1,.133.283,1.055,1.055,0,0,1,.406,1.211,16.269,16.269,0,0,0-.64,4.475q0,.327.008.655c.017,1.414-2.371,1.5-2.9.374-3.6-.849-8.437-3.593-8.053-6.961" fill="#d1514e"/>
          <path id="Trazado_204467" data-name="Trazado 204467" d="M104.253,30.738c0,12.7-8.73,23-19.5,23s-19.5-10.3-19.5-23,8.73-23,19.5-23,19.5,10.3,19.5,23" fill="#ff7871"/>
          <path id="Trazado_204468" data-name="Trazado 204468" d="M106.845,10.5c-1.527-.814-3.392-1.019-5.046-1.575-3.03-1.016-5.034-3.144-7.576-4.739A26.443,26.443,0,0,0,80.33,0a19.9,19.9,0,0,0-2.19.143A16.429,16.429,0,0,0,72.7,1.01a15.882,15.882,0,0,0-8.9,8.206,13.945,13.945,0,0,0-1.655,5.519,13.78,13.78,0,0,0,1.236,8.073c.819,1.576,3.705.671,3.727-.829.014-1.044-.016-2.245.068-3.457a27.267,27.267,0,0,1,17.6-3.181c5.543.9,9.773,4.421,15.319,5.14a9.989,9.989,0,0,0,3.22-.131,21.426,21.426,0,0,0,.5,2.4,1.505,1.505,0,0,0,2.162.219,13.541,13.541,0,0,0,1.752-4.617c2.733-2.189,3.46-5.541-.88-7.856" transform="translate(0 5.138)" fill="#12263f"/>
          <path id="Trazado_204469" data-name="Trazado 204469" d="M82.2,31.315c-.034-.29-.077-.572-.137-.862a8.743,8.743,0,1,0,.18,1.766c0-.307-.018-.606-.043-.9m-8.7,9a8.1,8.1,0,1,1,7.949-9.689c.051.29.094.58.12.878a6.882,6.882,0,0,1,.034.717,8.108,8.108,0,0,1-8.1,8.094" fill="#303043"/>
          <path id="Trazado_204470" data-name="Trazado 204470" d="M96.327,23.476a8.736,8.736,0,0,0-8.606,7.216c-.051.282-.085.563-.111.844-.017.231-.025.453-.025.683a8.742,8.742,0,1,0,8.742-8.743m0,16.837a8.108,8.108,0,0,1-8.1-8.094c0-.137,0-.273.009-.41.017-.3.051-.6.094-.878a8.1,8.1,0,1,1,8,9.382" fill="#303043"/>
          <path id="Trazado_204471" data-name="Trazado 204471" d="M88.327,30.931c-.043.281-.077.58-.094.878a5.126,5.126,0,0,0-.623-.273,9.039,9.039,0,0,0-5.407-.221,5.317,5.317,0,0,0-.631.188c-.026-.3-.068-.589-.12-.879.2-.068.41-.119.614-.171a9.882,9.882,0,0,1,5.656.239,4.088,4.088,0,0,1,.605.239" fill="#12263f"/>
          <path id="Trazado_204472" data-name="Trazado 204472" d="M123.123,75.658c-13.35,8.51-29.02,9.14-45.3,8.3-10.51-.55-22.14-2.15-31.19-7.54a42.141,42.141,0,0,1,3.8-2.43c8.65,4.54,19.54,5.61,29.24,6.06,14.28.67,28.04.09,39.9-6.88,1.01.65,1.98,1.33,2.93,2.02.21.15.42.31.62.47" fill="#fdb74d"/>
          <path id="Trazado_204473" data-name="Trazado 204473" d="M135.173,89.988c-17.69,4.21-35.89,6.05-54.07,6.59-16.4.49-33.15-.37-48.57-5.89.79-1.13,1.63-2.24,2.53-3.33,15.2,5.2,31.71,5.73,47.77,5.16a262.252,262.252,0,0,0,50.15-6.13c.78,1.16,1.51,2.37,2.19,3.6" fill="#fdb74d"/>
          <path id="Trazado_204474" data-name="Trazado 204474" d="M140.553,102.4c-18.81,5.851-39.8,5.641-59.15,6.011-18.59.36-37.42-.97-54.9-7.14.55-1.21,1.13-2.41,1.75-3.6,16.93,5.9,35.19,7.089,53.15,6.74,18.78-.37,39.49.02,57.8-5.71.48,1.22.93,2.449,1.35,3.7" fill="#fdb74d"/>
          <path id="Trazado_204475" data-name="Trazado 204475" d="M102.469,160.8H63.679a2.424,2.424,0,0,1-2.424-2.424V143.829a2.424,2.424,0,0,1,2.424-2.424h38.79a2.425,2.425,0,0,1,1.714.71l7.273,7.273a2.424,2.424,0,0,1,0,3.429l-7.273,7.273a2.425,2.425,0,0,1-1.714.71" fill="#b0c0d2"/>
          <path id="Trazado_204476" data-name="Trazado 204476" d="M86.711,138.12v-7.273a2.424,2.424,0,0,0-4.849,0v7.273Z" fill="#b0c0d2"/>
          <path id="Trazado_204477" data-name="Trazado 204477" d="M90.348,189.145H86.711V164.9H81.863v24.244H78.226a2.424,2.424,0,0,0,0,4.849H90.348a2.424,2.424,0,0,0,0-4.849" fill="#b0c0d2"/>
        </g>
      </g>
      <g data-type="innerShadowGroup">
        <g transform="matrix(1, 0, 0, 1, 180, 4794)" filter="url(#Elipse_6287)">
          <circle id="Elipse_6287-3" data-name="Elipse 6287" cx="110" cy="110" r="110" transform="translate(921 59.76)" fill="#5038a1"/>
        </g>
        <g transform="matrix(1, 0, 0, 1, 180, 4794)" filter="url(#Elipse_6287-2)">
          <circle id="Elipse_6287-4" data-name="Elipse 6287" cx="110" cy="110" r="110" transform="translate(921 59.76)" fill="#fff"/>
        </g>
      </g>
      <g data-type="innerShadowGroup">
        <circle id="Elipse_6286-2" data-name="Elipse 6286" cx="97" cy="97" r="97" transform="translate(1114.001 4866.765)" fill="#8c6df2"/>
        <g transform="matrix(1, 0, 0, 1, 180, 4794)" filter="url(#Elipse_6286)">
          <circle id="Elipse_6286-3" data-name="Elipse 6286" cx="97" cy="97" r="97" transform="translate(934 72.76)" fill="#fff"/>
        </g>
      </g>
      <g id="Grupo_155627" data-name="Grupo 155627" transform="translate(1129.001 4879.293)">
        <g id="Grupo_155626" data-name="Grupo 155626" clip-path="url(#clip-path-4)">
          <path id="Trazado_204502" data-name="Trazado 204502" d="M105.2,41.944a17.073,17.073,0,0,1-4.841-3.536c-.185-.461-.36-.92-.523-1.358a2.924,2.924,0,0,0-1.779-1.809,17.222,17.222,0,0,1-1.166-2.561A2.748,2.748,0,0,0,94.014,30.6a3,3,0,0,0-1.3.076,2.183,2.183,0,0,0-1.943-.148c-7.249,3.095-16.755,1.8-24.354.872-1.664-.2-3.45-.744-5.176-.917-.072-2.789-3.7-4.275-5.216-1.5a29.233,29.233,0,0,1-4.732,6.485,24.156,24.156,0,0,1-4.271,2.585,3.14,3.14,0,0,0-1.2,5.024c2.255,2.863,5.451,6.162,9.045,5.373a5.031,5.031,0,0,0,5.244.152,61.342,61.342,0,0,0,18.309,4.178c4.984.339,10.457.412,14.958-2.065,3.589.507,8.39-1.071,10.956-1.636a2.594,2.594,0,0,0,1.933-3.171,3.017,3.017,0,0,0-1.066-3.957" fill="#fedc72"/>
          <path id="Trazado_204503" data-name="Trazado 204503" d="M148.661,118.234q-.285-2.76-.6-5.52c-.93-8.17-2.28-16.64-6.57-23.8a27.91,27.91,0,0,0-4.76-5.94,31.142,31.142,0,0,0-3.13-2.61,40.759,40.759,0,0,0-10.66-5.38v-.01c-.94-.33-1.9-.64-2.87-.92-.01,0-.03-.01-.04-.01-.17-.05-.34-.1-.51-.14-.78-.22-1.56-.43-2.36-.62-.81-.21-1.64-.4-2.47-.57h-.01q-.765-.18-1.53-.33c-.1-.04-.19-.07-.29-.1s-.19-.07-.28-.1l-.78-.27c-.13-.04-.27-.09-.39-.13-.46-.16-.91-.32-1.37-.47-1.67-.58-3.33-1.16-5-1.73-.52-.18-1.04-.35-1.56-.53-.76-.25-1.52-.51-2.28-.76-.1-.03-.2-.07-.3-.1-.96-.32-1.91-.64-2.86-.98-.4-.13-.8-.28-1.2-.42-.82-.29-1.63-.59-2.43-.91-.31-.13-.62-.25-.93-.39-.19-.07-.37-.15-.56-.23-.53-.24-1.06-.5-1.58-.77a3.093,3.093,0,0,0-.48-.75.658.658,0,0,0-.14-.15,26.882,26.882,0,0,1-3.16-3.53,25.98,25.98,0,0,1-2.89-4.89,27.175,27.175,0,0,1-2.25-8.25.948.948,0,0,0-.05-.23c-.54-2.76-4.99-3.5-6.48-1.16-1.96-.08-4.03-.04-5.5,1.13a7.386,7.386,0,0,0-1.03.99c-1.55,1.74-2.63,4.2-3.79,6.09l-3.63,5.91c-1.26,2.06-2.53,4.12-3.79,6.19-.26.41-.5.81-.75,1.22-.26.17-.52.34-.79.5a2.26,2.26,0,0,1-.26.16c-.28.18-.56.35-.85.5-.12.08-.25.15-.37.22-.28.16-.55.32-.83.46-.03.02-.06.03-.09.05-.37.2-.73.39-1.1.58-.4.21-.81.41-1.22.61-.21.1-.41.2-.62.29-.24.12-.49.24-.73.35-.47.22-.95.44-1.42.65-.17.08-.34.15-.51.23-.78.35-1.57.69-2.37,1.03-.74.31-1.47.63-2.21.95-.99.43-1.97.86-2.95,1.31-.09.04-.19.09-.28.13-.11.05-.21.1-.32.15-.52.24-1.03.49-1.54.74-.56.27-1.11.56-1.66.85-.15.07-.29.15-.44.23-.38.21-.77.42-1.15.64-.13.07-.25.14-.38.21-.25.14-.49.29-.74.44s-.49.3-.73.45c-.09.06-.18.12-.27.17-.1.07-.19.12-.28.18-.35.23-.7.47-1.05.71-.16.11-.32.23-.48.35-.26.18-.5.36-.75.55-.14.11-.28.21-.42.32-.1.08-.21.16-.31.25-.17.14-.34.27-.51.42a35.483,35.483,0,0,0-9.6,13.3,68.079,68.079,0,0,0-4.78,19.92c-.35,3.34-.55,6.7-.71,10.05,7.27,2,14.09,5.48,20.93,8.93a12.979,12.979,0,0,1,6.07,6.48c.75-2.6,1.41-5.23,1.94-7.9a209.945,209.945,0,0,0,5.82,24.64c.59,1.97,1.21,3.92,1.86,5.87q2.505,7.515,5.57,14.81a1.827,1.827,0,0,0,2.16,1.22c2.4-.44,4.81-.88,7.21-1.33a3.669,3.669,0,0,0,1.68-.3c.85-.17,1.69-.32,2.54-.47a3.575,3.575,0,0,0,4.3-.8l10.52-1.93c.88-.16,1.76-.32,2.65-.47,6.84-1.19,13.8-2.23,20.45-4.19a37.244,37.244,0,0,0,9.24-3.96,21.072,21.072,0,0,0,6.33-5.73c.13-.19.25-.38.36-.58a5.8,5.8,0,0,0,.41-.78,6.906,6.906,0,0,0-.02-5.3c-.69-2.14-1.39-4.28-2.04-6.44q-1.5-4.95-2.8-9.98c-.22-.85-.44-1.7-.65-2.55q-1.575-6.3-2.81-12.69c-.4-2.04-.76-4.08-1.11-6.13-.17-1.03-.34-2.06-.51-3.08a6.663,6.663,0,0,1-.1-2.7,1.244,1.244,0,0,1,1.03-.91,5.54,5.54,0,0,1,2.12.21c1.12.25,2.23.53,3.34.8l6.72,25.89c.17.64.33,1.28.5,1.92,1.08,4.2,1.82,8.72,6.22,10.6,4.34,1.85,9.97.46,14.41-.3a2.991,2.991,0,0,0,2.19-2.89c-.86-8.9-1.62-17.84-2.55-26.74m-4.42,24.37a7.788,7.788,0,0,0,.69-.83c.03.24.05.48.07.71-.25.05-.51.09-.76.12" fill="#ff7871"/>
          <path id="Trazado_204504" data-name="Trazado 204504" d="M148.661,118.234c-4.04,7.71-13.16,14.68-20.77,17.41a20.861,20.861,0,0,1-4.43,1.12q1.32,4.86,2.65,9.73c.78,2.83,2.31,6.33,1.47,9.31a5.062,5.062,0,0,1-3.27,3.5c-.11.2-.23.39-.36.58-4.26,2.06-8.61,3.94-13.01,5.71-7.56,3.03-15.26,5.67-23.01,8.17-.89.15-1.77.31-2.65.47l-10.52,1.93a3.575,3.575,0,0,1-4.3.8c-.85.15-1.69.3-2.54.47a3.669,3.669,0,0,1-1.68.3c-2.4.45-4.81.89-7.21,1.33a1.827,1.827,0,0,1-2.16-1.22q-3.06-7.3-5.57-14.81c-.65-1.95-1.27-3.9-1.86-5.87-1.96-7.15-3.66-14.4-5.09-21.68-1.48-7.56-2.61-15.18-4.03-22.75q-.285-1.56-.6-3.12c-.65.36-1.31.72-1.97,1.06-.09.04-.18.08-.28.12a20.427,20.427,0,0,1-4.03,3.09l-.21.12a10.553,10.553,0,0,1-2.76,1.08,6.679,6.679,0,0,1-.96.17c-4.19,2.02-9.01,2.9-13,.51a9.066,9.066,0,0,1-1.12-.8,68.079,68.079,0,0,1,4.78-19.92,35.483,35.483,0,0,1,9.6-13.3c.17-.15.34-.28.51-.42.1-.09.21-.17.31-.25.14-.11.28-.21.42-.32.25-.19.49-.37.75-.55.16-.12.32-.24.48-.35.35-.24.7-.48,1.05-.71.09-.06.18-.11.28-.18.09-.05.18-.11.27-.17.24-.15.48-.31.73-.45s.49-.3.74-.44c.13-.07.25-.14.38-.21.38-.22.77-.43,1.15-.64.15-.08.29-.16.44-.23.55-.29,1.1-.58,1.66-.85.51-.25,1.02-.5,1.54-.74.11-.05.21-.1.32-.15.09-.04.19-.09.28-.13.98-.45,1.96-.88,2.95-1.31.74-.32,1.47-.64,2.21-.95.8-.34,1.59-.68,2.37-1.03.17-.08.34-.15.51-.23.47-.21.95-.43,1.42-.65.24-.11.49-.23.73-.35.21-.09.41-.19.62-.29.41-.2.82-.4,1.22-.61.37-.19.73-.38,1.1-.58.03-.02.06-.03.09-.05.28-.14.55-.3.83-.46.12-.07.25-.14.37-.22.29-.16.57-.33.85-.5a2.26,2.26,0,0,0,.26-.16c.27-.16.53-.33.79-.5.25-.41.49-.81.75-1.22.65.26,1.3.49,1.95.7q1.17.375,2.34.66c.98.24,1.97.43,2.96.57,6.7.99,13.66-.03,20.36-2.17,1.01-.33,2.02-.68,3.01-1.05.7-.26,1.4-.53,2.09-.81a3.093,3.093,0,0,1,.48.75c.52.27,1.05.53,1.58.77.19.08.37.16.56.23.31.14.62.26.93.39.8.32,1.61.62,2.43.91.4.14.8.29,1.2.42.95.34,1.9.66,2.86.98.1.03.2.07.3.1.76.25,1.52.51,2.28.76.52.18,1.04.35,1.56.53,1.67.57,3.33,1.15,5,1.73.46.15.91.31,1.37.47.12.04.26.09.39.13l.78.27c.1-.01.21-.01.31-.01a3.3,3.3,0,0,1,1.79.54h.01c.12.03.24.06.37.09q1.05.225,2.1.48c.62.16,1.23.32,1.85.49.17.05.34.09.51.13s.34.09.51.14c.01,0,.03.01.04.01.97.28,1.93.59,2.87.92v.01a40.759,40.759,0,0,1,10.66,5.38,31.142,31.142,0,0,1,3.13,2.61,27.91,27.91,0,0,1,4.76,5.94c4.29,7.16,5.64,15.63,6.57,23.8q.315,2.76.6,5.52" fill="#fdb74d"/>
          <path id="Trazado_204505" data-name="Trazado 204505" d="M67.041,63.1a19.9,19.9,0,0,1,5.2-3.757c3.787-1.9,8.376-2.627,12.427-4.171a27.273,27.273,0,0,1-2.251-8.247,1.173,1.173,0,0,0-.043-.231,18.629,18.629,0,0,1-6.073.683,21.237,21.237,0,0,0-6.943.273c-1.544,1.74-2.627,4.2-3.787,6.09Q61.24,60.8,56.909,67.869c2.931-1.129,5.764-2.5,8.6-3.879q.765-.447,1.53-.889" fill="#d1514e"/>
          <path id="Trazado_204506" data-name="Trazado 204506" d="M98.432,33.429c.159-1.739-1.5-2.846-3.487-3.053a10.32,10.32,0,0,0-2.484.05,1.709,1.709,0,0,0-1.32-.117l-1.287.362a2.793,2.793,0,0,0-2.29.823,1.169,1.169,0,0,0-.188.255,1.083,1.083,0,0,0-.647,1.117,16.075,16.075,0,0,1-.281,4.5l-.141.64c-.3,1.384,2.03,1.878,2.781.866,3.714-.215,9.037-2.072,9.344-5.44" fill="#d1514e"/>
          <path id="Trazado_204507" data-name="Trazado 204507" d="M53.416,27.874c.428-1.7,2.364-2.251,4.323-1.849a10.192,10.192,0,0,1,2.341.793,1.708,1.708,0,0,1,1.29.286l1.1.73a2.691,2.691,0,0,1,1.9,1.469,1.086,1.086,0,0,1,.094.3,1.052,1.052,0,0,1,.242,1.254,16.255,16.255,0,0,0-1.228,4.35c-.026.217-.052.433-.079.65-.171,1.405-2.55,1.172-2.925-.014-3.453-1.319-7.886-4.68-7.058-7.968" fill="#d1514e"/>
          <path id="Trazado_204508" data-name="Trazado 204508" d="M95.333,33.592C93.647,46.183,83.627,55.23,72.953,53.8S54.992,41.007,56.678,28.417,68.384,6.779,79.058,8.208,97.019,21,95.333,33.592" fill="#ff7871"/>
          <path id="Trazado_204509" data-name="Trazado 204509" d="M33.231,114a1.62,1.62,0,0,0-.01.22,1.538,1.538,0,0,1-2.75.86,1.313,1.313,0,0,1-.25-.86q.555-16.575.37-33.15c.14-.11.28-.21.42-.32.25-.19.49-.37.75-.55.16-.12.32-.24.48-.35.35-.24.7-.48,1.05-.71.09-.06.18-.11.28-.18q.225,17.52-.34,35.04" fill="#5038a1"/>
          <path id="Trazado_204510" data-name="Trazado 204510" d="M44.541,111.984c-.04,1.93-3.04,1.93-3,0q.345-18.525-.46-37.03c.98-.45,1.96-.88,2.95-1.31q.87,19.155.51,38.34" fill="#5038a1"/>
          <path id="Trazado_204511" data-name="Trazado 204511" d="M55.271,113.734c.13,1.93-2.88,1.92-3,0q-1.4-21.63-1-43.3c.21-.09.41-.19.62-.29.41-.2.82-.4,1.22-.61.37-.19.73-.38,1.1-.58.03-.02.06-.03.09-.05q-.465,22.425.97,44.83" fill="#5038a1"/>
          <path id="Trazado_204512" data-name="Trazado 204512" d="M65.406,67.749c-.229-1.893-3.231-1.916-3,0a160.838,160.838,0,0,1-.855,45.041c-.3,1.889,2.586,2.7,2.893.8a163.645,163.645,0,0,0,.962-45.838" fill="#5038a1"/>
          <path id="Trazado_204513" data-name="Trazado 204513" d="M74.769,70.214q-1.554,20.23-1.935,40.517c-.036,1.931,2.964,1.931,3,0q.379-20.286,1.935-40.517c.148-1.925-2.853-1.916-3,0" fill="#5038a1"/>
          <path id="Trazado_204514" data-name="Trazado 204514" d="M88.772,64.231a1.5,1.5,0,0,0-3,0q-.224,21.256.588,42.5c.074,1.925,3.074,1.934,3,0q-.812-21.242-.588-42.5" fill="#5038a1"/>
          <path id="Trazado_204515" data-name="Trazado 204515" d="M101.221,107.744c.12,1.93-2.88,1.92-3,0-.55-8.91-1.3-17.84-1.61-26.77a40.7,40.7,0,0,1,1.43-13.76c.95.34,1.9.66,2.86.98-1.6,5.07-1.45,10.55-1.14,15.96.45,7.87.98,15.73,1.46,23.59" fill="#5038a1"/>
          <path id="Trazado_204516" data-name="Trazado 204516" d="M112.861,72.284c-3.22,9.88-2.6,20.57-1.81,30.97.14,1.93-2.86,1.91-3,0-.82-10.79-1.33-21.75,1.99-31.94.46.15.91.31,1.37.47.12.04.26.09.39.13l.78.27c.1-.01.21-.01.31-.01a.228.228,0,0,0-.03.11" fill="#5038a1"/>
          <path id="Trazado_204517" data-name="Trazado 204517" d="M122.941,74.984c-1.71,9.18-1.5,19.1-1.45,28.25a1.5,1.5,0,0,1-3,0c-.05-9.46-.24-19.71,1.58-29.18.97.28,1.93.59,2.87.92Z" fill="#5038a1"/>
          <path id="Trazado_204518" data-name="Trazado 204518" d="M135.311,106.6c-.3,1.91-3.19,1.09-2.89-.79a113.062,113.062,0,0,0,1.18-25.45,31.142,31.142,0,0,1,3.13,2.61,117.171,117.171,0,0,1-1.42,23.63" fill="#5038a1"/>
          <path id="Trazado_204519" data-name="Trazado 204519" d="M93.481,65.494l-10.85,11.85a2.526,2.526,0,0,1-3.54,0l-5.1-6.03q-2.595,2.85-5.18,5.68a2.536,2.536,0,0,1-3.54,0,56.731,56.731,0,0,1-8.66-9.43c.27-.16.53-.33.79-.5.25-.41.49-.81.75-1.22,1.26-2.07,2.53-4.13,3.79-6.19,8.29,3.13,17.14,2.52,25.62.41a26.882,26.882,0,0,0,3.16,3.53.658.658,0,0,1,.14.15,3.093,3.093,0,0,1,.48.75c.52.27,1.05.53,1.58.77.19.08.37.16.56.23" fill="#5038a1"/>
          <path id="Trazado_204520" data-name="Trazado 204520" d="M146.906,198.259H17.38a12.035,12.035,0,0,1-12-12V109.614a12.035,12.035,0,0,1,12-12H146.906a12.035,12.035,0,0,1,12,12v76.645a12.035,12.035,0,0,1-12,12" fill="#12263f"/>
          <path id="Trazado_204521" data-name="Trazado 204521" d="M159.169,165.1c-.445.043-.89.073-1.335.124l.608-.575a.936.936,0,0,0-.7-1.592c-2.664.264-10.54.719-11.419,3.991a1.487,1.487,0,0,0,.35,1.686c-1.535,1.438-2.9,3.414-1.958,5.037a2.381,2.381,0,0,0,2.708,1.076,2.6,2.6,0,0,0,.017,2.128c.638,1.326,2.143,1.379,3.7.987a2.427,2.427,0,0,0,1.271,2.3c1.769,1.255,4.245,1.1,6.757.371Z" fill="#12263f"/>
          <path id="Trazado_204522" data-name="Trazado 204522" d="M164.052,170.795a3.624,3.624,0,0,0-.41-.157c.04-.059.078-.118.113-.178a1.317,1.317,0,0,0,.236-.459,2.137,2.137,0,0,0,.028-1.668,2.013,2.013,0,0,0-.1-.2,1.014,1.014,0,0,0-.062-.106,1.9,1.9,0,0,0-1.9-.683c.16-.136.328-.264.481-.406a1.2,1.2,0,0,0,.3-.476,1.661,1.661,0,0,0,.419-1.521,1.625,1.625,0,0,0-1.806-1.288,2.79,2.79,0,0,0,.157-.744,1.54,1.54,0,0,0-.024-.365h0a1,1,0,0,0-.683-1.64,42.726,42.726,0,0,0-9.351,1.717c-1.193.366-3.548.592-4.09,2.222a2.015,2.015,0,0,0-.069,1.09,1.3,1.3,0,0,0,.573,1.5,2.446,2.446,0,0,0,.531.232,5.347,5.347,0,0,0-.726.679,5.656,5.656,0,0,0-1.71,2.527,1.3,1.3,0,0,0,.134,1.146.971.971,0,0,0,.4.537,2.353,2.353,0,0,0,2.475-.117c.16-.011.323-.03.489-.058a2.662,2.662,0,0,0-.479,1.743c.1,1.884,1.612,1.749,3.445.881.021,0,.042,0,.063,0a2.048,2.048,0,0,0,.685,2.337c1.573,1.182,4.752-.6,6.375-1.214a10.359,10.359,0,0,0,4.939-3.477,1.307,1.307,0,0,0-.424-1.852" fill="#ff7871"/>
          <path id="Trazado_204523" data-name="Trazado 204523" d="M150.365,167.519l-.05-.163,10.309-3.18.05.164Z" fill="#d1514e"/>
          <path id="Trazado_204524" data-name="Trazado 204524" d="M150.406,171.9l-.057-.161,10.927-3.9.057.161Z" fill="#d1514e"/>
          <path id="Trazado_204525" data-name="Trazado 204525" d="M154.673,174.456l-.063-.158,8.529-3.412.063.158Z" fill="#d1514e"/>
          <path id="Trazado_204526" data-name="Trazado 204526" d="M5.533,153.164c.445.043.89.073,1.335.124l-.608-.575a.936.936,0,0,1,.7-1.592c2.664.264,10.54.719,11.419,3.991a1.487,1.487,0,0,1-.35,1.686c1.535,1.438,2.905,3.414,1.958,5.037a2.381,2.381,0,0,1-2.708,1.076,2.6,2.6,0,0,1-.017,2.128c-.638,1.326-2.143,1.379-3.7.987a2.426,2.426,0,0,1-1.271,2.3c-1.769,1.255-4.245,1.1-6.757.371Z" fill="#12263f"/>
          <path id="Trazado_204527" data-name="Trazado 204527" d="M.65,158.854a3.7,3.7,0,0,1,.41-.157c-.039-.059-.077-.118-.113-.178a1.317,1.317,0,0,1-.236-.459,2.137,2.137,0,0,1-.028-1.668,2.012,2.012,0,0,1,.1-.2,1.014,1.014,0,0,1,.062-.106,1.9,1.9,0,0,1,1.9-.683c-.16-.136-.328-.264-.481-.406a1.2,1.2,0,0,1-.3-.476A1.661,1.661,0,0,1,1.55,153a1.625,1.625,0,0,1,1.806-1.288,2.8,2.8,0,0,1-.157-.744,1.552,1.552,0,0,1,.024-.366,1,1,0,0,1,.683-1.64,42.715,42.715,0,0,1,9.351,1.717c1.193.366,3.548.592,4.09,2.222a2.015,2.015,0,0,1,.069,1.09,1.3,1.3,0,0,1-.573,1.5,2.425,2.425,0,0,1-.531.232,5.284,5.284,0,0,1,.726.679,5.656,5.656,0,0,1,1.71,2.527,1.3,1.3,0,0,1-.134,1.146.974.974,0,0,1-.4.537,2.355,2.355,0,0,1-2.475-.117c-.16-.011-.323-.03-.489-.058a2.662,2.662,0,0,1,.479,1.743c-.1,1.884-1.612,1.749-3.444.881-.022,0-.043,0-.064,0a2.047,2.047,0,0,1-.684,2.336c-1.574,1.183-4.753-.6-6.376-1.213a10.359,10.359,0,0,1-4.939-3.477,1.307,1.307,0,0,1,.424-1.852" fill="#ff7871"/>
          <path id="Trazado_204528" data-name="Trazado 204528" d="M14.338,155.579l.05-.163-10.309-3.18-.05.164Z" fill="#d1514e"/>
          <path id="Trazado_204529" data-name="Trazado 204529" d="M14.3,159.958l.057-.161L3.427,155.9l-.057.161Z" fill="#d1514e"/>
          <path id="Trazado_204530" data-name="Trazado 204530" d="M10.029,162.516l.063-.158-8.529-3.412L1.5,159.1Z" fill="#d1514e"/>
          <path id="Trazado_204531" data-name="Trazado 204531" d="M101.748,25.305C98.841,14.07,92.611.935,79.353.049A20.364,20.364,0,0,0,70.217,1.5c-10.841,1.61-18.291,11.914-18.6,23.011-.067,2.45,3.437,4.16,5.122,2.122.222-.269.435-.547.643-.831a2.75,2.75,0,0,0,1.6-.429c.816-.506,1.677-1.013,2.556-1.523a2.8,2.8,0,0,0,2.782-1.606,76.246,76.246,0,0,0,8.591-5.53,8.273,8.273,0,0,0,7.126,1.243,12.72,12.72,0,0,1,2.178-.817q-.261-1.273.545.06l1.16,1.328c1.74,1.99,3.426,4.039,5.225,5.976a14.83,14.83,0,0,0,5.537,4.091c.017.069.039.14.056.209.484,2.041,3.594,3.1,5.014,1.324a9.189,9.189,0,0,0,1.152-1.819,3.307,3.307,0,0,0,.839-3" fill="#fedc72"/>
          <path id="Trazado_204532" data-name="Trazado 204532" d="M110.885,141.69a1.249,1.249,0,0,0-1.008-.827l-18.955-2.648-8.868-18.578a1.3,1.3,0,0,0-2.258,0l-8.867,18.578-18.956,2.648a1.251,1.251,0,0,0-.732,2.1l13.945,14.609-3.8,19.923a1.251,1.251,0,0,0,1.741,1.376l17.8-7.993,17.8,7.993a1.25,1.25,0,0,0,1.741-1.376l-3.8-19.923,13.944-14.609a1.254,1.254,0,0,0,.276-1.276M82.176,125.7l6.459,13.531-6.459,9.021Zm-2.5,22.552-6.458-9.021L79.674,125.7Zm-2.067,1.413-20.164-7.042,13.748-1.92ZM79.674,168.7l-13.347,5.992,13.347-18.644Zm2.5-12.652,13.348,18.644L82.176,168.7Zm8.483-15.344,13.748,1.92-20.164,7.042ZM56.639,145l20.489,7.155-10.244,3.577ZM67.63,158.12l9.977-3.484-12.7,17.738Zm29.312,14.254-12.7-17.738,9.978,3.484Zm-1.976-16.645-10.244-3.577L105.211,145Z" fill="#b0c0d2"/>
        </g>
      </g>
      <g data-type="innerShadowGroup">
        <g transform="matrix(1, 0, 0, 1, 180, 4794)" filter="url(#Elipse_6288)">
          <circle id="Elipse_6288-3" data-name="Elipse 6288" cx="110" cy="110" r="110" transform="translate(305 221.76)" fill="#5038a1"/>
        </g>
        <g transform="matrix(1, 0, 0, 1, 180, 4794)" filter="url(#Elipse_6288-2)">
          <circle id="Elipse_6288-4" data-name="Elipse 6288" cx="110" cy="110" r="110" transform="translate(305 221.76)" fill="#fff"/>
        </g>
      </g>
      <g data-type="innerShadowGroup">
        <circle id="Elipse_6289-2" data-name="Elipse 6289" cx="97" cy="97" r="97" transform="translate(498.001 5028.765)" fill="#8c6df2"/>
        <g transform="matrix(1, 0, 0, 1, 180, 4794)" filter="url(#Elipse_6289)">
          <circle id="Elipse_6289-3" data-name="Elipse 6289" cx="97" cy="97" r="97" transform="translate(318 234.76)" fill="#fff"/>
        </g>
      </g>
      <g id="Grupo_155621" data-name="Grupo 155621" transform="translate(512.352 5034.765)">
        <g id="Grupo_155620" data-name="Grupo 155620" clip-path="url(#clip-path-5)">
          <path id="Trazado_204426" data-name="Trazado 204426" d="M99.04,76.478c-4.265,3.179-8.657,6.375-13.954,7.718a23.69,23.69,0,0,1-15.258-1.367c-2.389-1.062-5.4-2.513-5.979-5.255a3.4,3.4,0,0,1-.069-.4,3.218,3.218,0,0,1-.963-3.023,3.336,3.336,0,0,1,.494-1.186l9.084-14.306c1.16-1.82,2.243-4.2,3.787-5.881a7.816,7.816,0,0,1,1.032-.955c1.475-1.129,3.539-1.162,5.5-1.087,1.493-2.257,5.936-1.549,6.482,1.12a1.014,1.014,0,0,1,.043.222,25.392,25.392,0,0,0,8.307,16.094,3.192,3.192,0,0,1,.93,2.71.088.088,0,0,0,.043.016,3.49,3.49,0,0,1,.52,5.584" transform="translate(0 -1.695)" fill="#6b292c"/>
          <path id="Trazado_204427" data-name="Trazado 204427" d="M91.491,60.126c-4.051,1.491-8.64,2.191-12.427,4.028a20.164,20.164,0,0,0-7.557,6.276A22.43,22.43,0,0,1,66.876,75.4a1.682,1.682,0,0,1-1.714,0,5.917,5.917,0,0,1-.794-.7,3.371,3.371,0,0,1-1.424-.4l-.128-.073a3.362,3.362,0,0,1,.495-1.187l9.083-14.306c1.16-1.82,2.243-4.2,3.787-5.881a22.007,22.007,0,0,1,6.943-.264,19.258,19.258,0,0,0,6.073-.659,1.033,1.033,0,0,1,.042.222,25.669,25.669,0,0,0,2.252,7.965" transform="translate(0 -1.783)" fill="#441b20"/>
          <path id="Trazado_204428" data-name="Trazado 204428" d="M150.377,124.3a4.662,4.662,0,0,1-.964.593A3.693,3.693,0,0,1,145,127.16c-2.329-.4-4.947,1.474-7.046,2.133a14,14,0,0,1-6.5.444,3.472,3.472,0,0,1-2.575-2.3q-2.854-8.229-6.031-16.366a96.948,96.948,0,0,0-3.991,10.032q-.743,2.174-1.408,4.357a.03.03,0,0,1-.008.024c-.751,2.438-1.45,4.893-2.141,7.33a34.9,34.9,0,0,0-1.587,11.111c.026.4.06.807.111,1.211a15.029,15.029,0,0,0,3.608,8.451,1.482,1.482,0,0,1-.23,2.215,55.148,55.148,0,0,1-6.627,3.475H51.549a34.563,34.563,0,0,0,2.943-15.962,34.09,34.09,0,0,0-.5-4.061c-.23-1.269-.537-2.528-.886-3.772a73.211,73.211,0,0,0-2.917-8.2c-2.286-5.5-4.709-10.962-7.071-16.44-.239-.56-.469-1.12-.708-1.689A134.208,134.208,0,0,1,36.2,128.527c-7.719-1.73-15.361-4.052-23.14-5.576a79.7,79.7,0,0,1,2.857-12.923c.572-1.664,1.177-3.311,1.8-4.942.162-.428.332-.857.495-1.284A59.6,59.6,0,0,1,30.422,85.4a63.259,63.259,0,0,1,9.536-8.1,51.979,51.979,0,0,1,5.928-3.533c1.458-.733,2.968-1.408,4.52-2.01a36.331,36.331,0,0,1,9.86-2.306c.4-.042.793-.074,1.2-.1a47.154,47.154,0,0,0,6.832-.782,31.318,31.318,0,0,0,7.454,1.474c6.346.453,12.692-.988,18.568-3.03a.032.032,0,0,1,.017-.009,6.437,6.437,0,0,0,1.382.429,57.639,57.639,0,0,0,8.794.749c1.6.066,3.189.156,4.784.346.282.033.555.082.836.115.137.042.282.066.418.107.734.189,1.459.4,2.175.651a43.341,43.341,0,0,1,8.086,3.8c1,.577,1.961,1.186,2.9,1.8a46.371,46.371,0,0,1,14.772,16.086c5.911,10.369,8.53,21.966,11.89,33.217" transform="translate(0 -2.301)" fill="#5038a1"/>
          <path id="Trazado_204429" data-name="Trazado 204429" d="M121.514,97.29c-.188,2.15-.435,4.308-.733,6.457-.418,4.068-.973,8.129-1.621,12.173-.2,1.2-.392,2.4-.606,3.6q-.523,3.027-1.1,6.03a.03.03,0,0,1-.008.024c-.248,1.318-.512,2.644-.776,3.962-.879,4.39-1.988,8.763-2.773,13.177a11.126,11.126,0,0,0-.179,1.3,3.625,3.625,0,0,0,.111,1.211,5.255,5.255,0,0,0,.563,1.186,1.678,1.678,0,0,0,.231.56,6.588,6.588,0,0,0,.545.733c.009.009.009.025.017.042,1.058,2.652,2.047,5.337,3.3,7.907.418.914.87,1.82,1.288,2.751a1.311,1.311,0,0,0,.188.3c-.017.024-.034.041-.051.066-.384.469-.751.947-1.126,1.424H50.142a22.7,22.7,0,0,0,1-2.553c.008-.016.025-.033.034-.049a18.033,18.033,0,0,0,.938-2.3c.094-.305.179-.61.273-.914,0,0,.026-.1.051-.189.026-.132.1-.453.1-.453.06-.305.12-.6.18-.9.221-1.12.409-2.249.571-3.377a69.357,69.357,0,0,0,.657-7.272c.034-.947.051-1.895.042-2.842-.008-1.507-.068-3.015-.2-4.5q-.255-3.336-.836-6.655c-1.62-9.349-4.1-18.614-6.362-27.831q-.947-3.879-1.936-7.75-2.342-7.61-4.7-15.213a51.979,51.979,0,0,1,5.928-3.533c.29.956.571,1.9.844,2.858,1.433,4.941,2.763,9.916,4.034,14.9Q51.9,95.31,53.042,99q2.393,7.734,4.785,15.476c1.313,4.25,2.533,8.508,3.991,12.56,2.508,7.01,5.979,14.5,13.152,17.766,5.578,2.537,11.839,2.273,17.758.725.452-.182.887-.363,1.331-.56a27.339,27.339,0,0,0,10.337-8.879c6.363-8.747,8.154-19.842,9.8-30.244.171-1.071.333-2.15.478-3.229a150.262,150.262,0,0,0,.8-16.011c-.435-5.115-1.732-10.131-2.483-15.213-.093-.634-.187-1.268-.264-1.9a43.341,43.341,0,0,1,8.086,3.8c.059.486.119.98.17,1.466a126.388,126.388,0,0,1,.649,12.693,67.726,67.726,0,0,1-.12,9.842" transform="translate(0 -2.386)" fill="#fdb74d"/>
          <path id="Trazado_204430" data-name="Trazado 204430" d="M95.177,111.287q-1.895-3.965-3.791-7.93c-.227-.546-.439-1.085-.622-1.615-1.809-5.25-3.323-10.579-4.6-15.965,2.478-2.474,4.854-5.884,4.53-9.06-.357-3.486-6.466-5.384-9.6-5.315-2.717.059-5.925,3.575-6.739,5.938-1.268,3.684,3.441,7.158,5.842,9.36.033.031.067.051.1.077Q76.9,99.44,73.5,112.1a1.358,1.358,0,0,0,.18,1.127,1.275,1.275,0,0,0,.383,1.26c2.676,2.48,5.332,4.981,8.027,7.44,1.181,1.077,2.63,2.764,4.386,2.967,4.215.488,6.253-6.231,7.416-9.049a7.427,7.427,0,0,0,.543-2.533,1.412,1.412,0,0,0,.742-2.027M78.5,114.114c.033.2.065.4.108.594a1.306,1.306,0,0,0,.062.142,1.277,1.277,0,0,0-.015.176c-.308-.326-.6-.642-.878-.937.241.011.482.016.723.025" transform="translate(0 -2.451)" fill="#fdb74d"/>
          <path id="Trazado_204431" data-name="Trazado 204431" d="M104.516,68.187c-.88,1.038-1.732,2.084-2.577,3.146-3.5,4.728-6.96,9.6-9.109,14.776-.358.865-1.834,1.384-2.337.3-.195-.429-.4-.84-.606-1.26-2.242-3.715-5.083-7.059-7.5-10.658-3.157,3.863-6.815,7.355-9.272,11.72a1.314,1.314,0,0,1-2.209,0c-1.577-2.768-3.2-5.51-4.835-8.253-.538-.807-1.075-1.615-1.622-2.413q-2.1-3.04-4.187-6.087c.4-.042.794-.074,1.2-.1a46.975,46.975,0,0,0,6.831-.782,31.383,31.383,0,0,0,7.456,1.475c6.345.453,12.691-.989,18.568-3.031a.024.024,0,0,1,.016-.009,6.392,6.392,0,0,0,1.381.429,57.54,57.54,0,0,0,8.795.749" transform="translate(0 -2.301)" fill="#8c6df2"/>
          <path id="Trazado_204432" data-name="Trazado 204432" d="M146.906,204.312H17.381a11.834,11.834,0,0,1-12-11.588V118.71a11.834,11.834,0,0,1,12-11.588H146.906a11.834,11.834,0,0,1,12,11.588v74.014a11.834,11.834,0,0,1-12,11.588" transform="translate(0 -3.678)" fill="#12263f"/>
          <path id="Trazado_204433" data-name="Trazado 204433" d="M159.169,149.808c-.445.042-.89.07-1.335.12l.608-.555a.9.9,0,0,0-.7-1.537c-2.664.256-10.54.694-11.419,3.854a1.4,1.4,0,0,0,.35,1.628c-1.535,1.389-2.9,3.3-1.958,4.864a2.419,2.419,0,0,0,2.708,1.039,2.429,2.429,0,0,0,.017,2.055c.638,1.28,2.143,1.332,3.7.953a2.323,2.323,0,0,0,1.271,2.222c1.769,1.212,4.245,1.063,6.757.358Z" transform="translate(0 -5.075)" fill="#12263f"/>
          <path id="Trazado_204434" data-name="Trazado 204434" d="M164.052,155.228a3.7,3.7,0,0,0-.41-.152c.04-.057.077-.114.113-.172a1.239,1.239,0,0,0,.235-.443,2,2,0,0,0,.029-1.611,2.139,2.139,0,0,0-.1-.2.968.968,0,0,0-.062-.1,1.936,1.936,0,0,0-1.9-.66c.16-.131.328-.255.481-.392a1.152,1.152,0,0,0,.3-.46,1.568,1.568,0,0,0,.419-1.469,1.622,1.622,0,0,0-1.806-1.244,2.623,2.623,0,0,0,.157-.718,1.448,1.448,0,0,0-.024-.353.958.958,0,0,0-.683-1.584,44.09,44.09,0,0,0-9.351,1.658c-1.193.353-3.548.572-4.09,2.146a1.882,1.882,0,0,0-.069,1.053,1.24,1.24,0,0,0,.573,1.451,2.471,2.471,0,0,0,.531.224,5.214,5.214,0,0,0-.726.656,5.459,5.459,0,0,0-1.71,2.44,1.218,1.218,0,0,0,.134,1.107.944.944,0,0,0,.4.519,2.426,2.426,0,0,0,2.475-.113c.16-.011.323-.029.488-.056a2.512,2.512,0,0,0-.478,1.683c.1,1.819,1.612,1.689,3.445.851.021,0,.042,0,.063,0a1.938,1.938,0,0,0,.684,2.257c1.574,1.141,4.753-.576,6.376-1.172a10.366,10.366,0,0,0,4.939-3.358,1.238,1.238,0,0,0-.424-1.788" transform="translate(0 -5.001)" fill="#6b292c"/>
          <path id="Trazado_204435" data-name="Trazado 204435" d="M150.365,152.178l-.05-.157,10.309-3.071.05.158Z" transform="translate(0 -5.114)" fill="#441b20"/>
          <path id="Trazado_204436" data-name="Trazado 204436" d="M150.406,156.533l-.057-.155,10.927-3.763.057.155Z" transform="translate(0 -5.24)" fill="#441b20"/>
          <path id="Trazado_204437" data-name="Trazado 204437" d="M154.673,159.107l-.063-.153,8.529-3.295.063.153Z" transform="translate(0 -5.344)" fill="#441b20"/>
          <path id="Trazado_204438" data-name="Trazado 204438" d="M5.533,171.984c.445.042.89.07,1.335.12l-.608-.555a.9.9,0,0,1,.7-1.537c2.664.255,10.54.694,11.419,3.854a1.4,1.4,0,0,1-.35,1.628c1.535,1.389,2.905,3.3,1.958,4.864a2.419,2.419,0,0,1-2.708,1.039,2.429,2.429,0,0,1-.017,2.055c-.638,1.28-2.143,1.332-3.7.953a2.323,2.323,0,0,1-1.271,2.222c-1.769,1.212-4.244,1.063-6.757.358Z" transform="translate(0 -5.837)" fill="#12263f"/>
          <path id="Trazado_204439" data-name="Trazado 204439" d="M.65,177.4a3.7,3.7,0,0,1,.41-.152c-.04-.057-.078-.114-.113-.172a1.257,1.257,0,0,1-.236-.443,2,2,0,0,1-.028-1.611,1.92,1.92,0,0,1,.1-.2.972.972,0,0,1,.062-.1,1.936,1.936,0,0,1,1.9-.66c-.16-.13-.328-.255-.481-.392a1.152,1.152,0,0,1-.3-.46,1.568,1.568,0,0,1-.419-1.469,1.621,1.621,0,0,1,1.806-1.244,2.622,2.622,0,0,1-.157-.718,1.448,1.448,0,0,1,.024-.353.958.958,0,0,1,.683-1.584,44.09,44.09,0,0,1,9.351,1.658c1.193.353,3.548.572,4.09,2.146a1.882,1.882,0,0,1,.069,1.053,1.24,1.24,0,0,1-.573,1.451,2.47,2.47,0,0,1-.531.224,5.216,5.216,0,0,1,.726.656,5.459,5.459,0,0,1,1.71,2.44,1.219,1.219,0,0,1-.134,1.107.944.944,0,0,1-.4.519,2.426,2.426,0,0,1-2.475-.113c-.16-.011-.323-.029-.489-.056a2.507,2.507,0,0,1,.479,1.683c-.1,1.819-1.612,1.689-3.445.851-.021,0-.042,0-.063,0a1.938,1.938,0,0,1-.684,2.257c-1.574,1.141-4.753-.576-6.376-1.172a10.366,10.366,0,0,1-4.939-3.358A1.238,1.238,0,0,1,.65,177.4" transform="translate(0 -5.763)" fill="#6b292c"/>
          <path id="Trazado_204440" data-name="Trazado 204440" d="M14.338,174.354l.05-.157L4.079,171.126l-.05.158Z" transform="translate(0 -5.875)" fill="#441b20"/>
          <path id="Trazado_204441" data-name="Trazado 204441" d="M14.3,178.709l.057-.155L3.427,174.79l-.057.155Z" transform="translate(0 -6.001)" fill="#441b20"/>
          <path id="Trazado_204442" data-name="Trazado 204442" d="M10.029,181.283l.063-.153-8.529-3.295-.063.153Z" transform="translate(0 -6.106)" fill="#441b20"/>
          <path id="Trazado_204443" data-name="Trazado 204443" d="M103.994,34.427c-.074-1.685-1.859-2.532-3.862-2.475a10.676,10.676,0,0,0-2.455.366,1.771,1.771,0,0,0-1.324.057l-1.227.512a2.821,2.821,0,0,0-2.161,1.082,1.069,1.069,0,0,0-.152.267,1.032,1.032,0,0,0-.493,1.152,15.051,15.051,0,0,1,.319,4.34q-.028.316-.055.632c-.119,1.364,2.261,1.536,2.871.472,3.653-.682,8.682-3.141,8.539-6.4" transform="translate(0 -1.097)" fill="#441b20"/>
          <path id="Trazado_204444" data-name="Trazado 204444" d="M58.639,34.9c.2-1.68,2.044-2.458,4.04-2.324a10.578,10.578,0,0,1,2.425.46,1.758,1.758,0,0,1,1.317.108l1.188.558a2.7,2.7,0,0,1,2.077,1.163,1.042,1.042,0,0,1,.133.273,1,1,0,0,1,.406,1.169,15.209,15.209,0,0,0-.64,4.321q0,.316.008.633c.017,1.365-2.371,1.448-2.9.361-3.6-.821-8.437-3.47-8.053-6.722" transform="translate(0 -1.118)" fill="#441b20"/>
          <path id="Trazado_204445" data-name="Trazado 204445" d="M100.944,34.3c0,12.266-8.73,22.21-19.5,22.21s-19.5-9.944-19.5-22.21,8.73-22.21,19.5-22.21,19.5,9.944,19.5,22.21" transform="translate(0 -0.415)" fill="#6b292c"/>
          <path id="Trazado_204446" data-name="Trazado 204446" d="M103.767,21.771a3.409,3.409,0,0,0-1.726-3.721A4.548,4.548,0,0,0,99.164,14.2c-.006-2.981-1.436-5.943-4.249-7.081a5.685,5.685,0,0,0-5.131-1.582,7.191,7.191,0,0,0-2.625.945C87.129,3.455,85.9-.187,82.094.008a8.533,8.533,0,0,0-5,2.292,5.762,5.762,0,0,0-3.918,1.292c-1.572-1.1-3.789-1.179-6.424,1.066a6.059,6.059,0,0,0-1.909,5.788,8.969,8.969,0,0,0-3,.953c-5.649.663-11.354,6.805-6.179,12.479a5.886,5.886,0,0,0,.648.6,2.585,2.585,0,0,0-.755,2.343,1.42,1.42,0,0,0,.181.76,4.582,4.582,0,0,0,5.332,2.072,4.1,4.1,0,0,0,3.8-2.092,6.411,6.411,0,0,0,2.99-2.384,4.077,4.077,0,0,0,3.708-3.91,12.081,12.081,0,0,0,4.785-2.293,6.491,6.491,0,0,0,6.19,4.757,4.572,4.572,0,0,0,4.448-2.417,5.839,5.839,0,0,0,2.073-.1,10.885,10.885,0,0,0,6.491,2.144,5.91,5.91,0,0,0,1.51,2.662,2.463,2.463,0,0,0,.461,1.077c-.336,1.583.342,3.186,2.641,3.042a2.126,2.126,0,0,0,2.173-1.7,3.147,3.147,0,0,0,.9-1.539,3.163,3.163,0,0,0,.534-5.126" transform="translate(0 0)" fill="#441b20"/>
          <path id="Trazado_204447" data-name="Trazado 204447" d="M64.379,14.6a3.975,3.975,0,0,0-1.861.013,5.086,5.086,0,0,0-2.792,3.23,3.055,3.055,0,0,0,.131,2.261,6.61,6.61,0,0,0,1.127,1.665c.794.883,1.359,1.4,1.282,1.482-.058.067-.733-.3-1.666-1.13a6.068,6.068,0,0,1-1.373-1.742,3.559,3.559,0,0,1-.218-2.747,6.583,6.583,0,0,1,1.4-2.333,3.785,3.785,0,0,1,1.97-1.18,2.571,2.571,0,0,1,1.558.127c.339.154.466.32.44.354" transform="translate(0 -0.483)" fill="#230e12"/>
          <path id="Trazado_204448" data-name="Trazado 204448" d="M67.563,15.611a3.17,3.17,0,0,0,1.477.161,4.113,4.113,0,0,0,2.534-2.307,2.441,2.441,0,0,0,.119-1.8,5.25,5.25,0,0,0-.73-1.425c-.543-.773-.94-1.234-.871-1.294.053-.047.552.305,1.211,1.05A4.807,4.807,0,0,1,72.22,11.5a2.84,2.84,0,0,1-.1,2.2,5.328,5.328,0,0,1-1.343,1.723,3.059,3.059,0,0,1-1.679.755,2.056,2.056,0,0,1-1.224-.245c-.254-.154-.338-.3-.313-.322" transform="translate(0 -0.307)" fill="#230e12"/>
          <path id="Trazado_204449" data-name="Trazado 204449" d="M108.521,132.934a1.191,1.191,0,0,0-.442.07l-15.218,5.705-17.083-5.775-16.044,5.224a1.407,1.407,0,0,0-1.04,1.32V181.05a1.4,1.4,0,0,0,1.424,1.374,1.182,1.182,0,0,0,.441-.069l15.219-5.705,17.083,5.774,16.058-5.21a1.423,1.423,0,0,0,1.025-1.334V134.309a1.4,1.4,0,0,0-1.423-1.375m-15.66,43.992-17.083-5.787V138.433l17.083,5.787Z" transform="translate(0 -4.564)" fill="#b0c0d2"/>
        </g>
      </g>
      <g data-type="innerShadowGroup">
        <g transform="matrix(1, 0, 0, 1, 180, 4794)" filter="url(#Elipse_6291)">
          <circle id="Elipse_6291-3" data-name="Elipse 6291" cx="110" cy="110" r="110" transform="translate(715 221.76)" fill="#5038a1"/>
        </g>
        <g transform="matrix(1, 0, 0, 1, 180, 4794)" filter="url(#Elipse_6291-2)">
          <circle id="Elipse_6291-4" data-name="Elipse 6291" cx="110" cy="110" r="110" transform="translate(715 221.76)" fill="#fff"/>
        </g>
      </g>
      <g data-type="innerShadowGroup">
        <circle id="Elipse_6290-2" data-name="Elipse 6290" cx="97" cy="97" r="97" transform="translate(908.001 5028.765)" fill="#8c6df2"/>
        <g transform="matrix(1, 0, 0, 1, 180, 4794)" filter="url(#Elipse_6290)">
          <circle id="Elipse_6290-3" data-name="Elipse 6290" cx="97" cy="97" r="97" transform="translate(728 234.76)" fill="#fff"/>
        </g>
      </g>
      <g id="Grupo_155625" data-name="Grupo 155625" transform="translate(923.001 5026.631)">
        <g id="Grupo_155624" data-name="Grupo 155624" clip-path="url(#clip-path-6)">
          <path id="Trazado_204478" data-name="Trazado 204478" d="M101.462,66.831c-4.367,2.866-9.4,3.94-14.559,4.222-5.468.307-11.43.64-16.718-.972a1.628,1.628,0,0,1-.921-2.278v-.008a.746.746,0,0,1,.06-.12,1.929,1.929,0,0,1,.375-.528c3.838-3.787,5.467-8.845,6.346-14.057.136-.784.247-1.569.35-2.354.238-1.782.409-3.548.58-5.279a1.562,1.562,0,0,1,.776-1.262,1.672,1.672,0,0,1,1.791-1.348,39.447,39.447,0,0,1,9.715,1.646A3.919,3.919,0,0,1,92.105,46.8c.47,1.212.666,2.542,1.084,3.779a1.454,1.454,0,0,0,.068.179c.256.776.554,1.544.878,2.294a34.457,34.457,0,0,0,2.039,4.094c.06.1.128.214.2.316a36.722,36.722,0,0,0,5.322,6.943,1.726,1.726,0,0,1-.23,2.422" fill="#ff7871"/>
          <path id="Trazado_204479" data-name="Trazado 204479" d="M96.37,57.466a1.863,1.863,0,0,1-1.714,1.757,29.5,29.5,0,0,0-12.9,2.943c-3.625,1.765-6.218,5.04-9.612,6.985a1.6,1.6,0,0,1-2.073-.307,5.532,5.532,0,0,1-.742-1.168.714.714,0,0,1-.06-.111v-.009a2.309,2.309,0,0,1,.435-.742c3.838-4.35,5.467-10.158,6.346-16.146.119.026.239.043.35.068,1.492.282,2.934.563,4.358.794a77.646,77.646,0,0,0,9.57-.921,5.781,5.781,0,0,1,2.618.264c.1-.043.205-.077.316-.111.256.776.554,1.544.878,2.294a34.457,34.457,0,0,0,2.039,4.094c.06.1.128.214.2.316" fill="#d1514e"/>
          <path id="Trazado_204480" data-name="Trazado 204480" d="M112.08,128.97a8.917,8.917,0,0,1-.55,1.63c.21,3.04.09,6.24-1.11,8.57-1.45,2.79-4.21,3.03-7.05,3.13-10.53.35-21.02-2.33-31.51-.5a3.588,3.588,0,0,1-4.37-2.9c-4.18-3.29-5.77-10.87-6.82-15.42a58.936,58.936,0,0,1-1.24-17.79A41.645,41.645,0,0,1,56,88.37a6.435,6.435,0,0,1-.9-2.96,2.009,2.009,0,0,1-.38-2.52c2.69-4.85,6-10.14,10.49-13.09a13.271,13.271,0,0,1,7.41-2.34,14.2,14.2,0,0,1,1.7.1c.36.04.72.1,1.09.17.68.12,1.37.24,2.05.35.57.09,1.15.17,1.72.24,1.51.17,3,.29,4.49.31.57.02,1.13.03,1.71.01a40.066,40.066,0,0,0,6.42-.61c.56-.1,1.13-.22,1.7-.35.41-.08.81-.18,1.21-.29,1.31-.34,2.62-.74,3.93-1.03.57-.12,1.14-.22,1.7-.29a7.85,7.85,0,0,1,5.61,1.28,2.122,2.122,0,0,1,.39.33,2.21,2.21,0,0,1,.59,2.08c-.14.81-.3,1.61-.46,2.41.14.64.27,1.29.37,1.94a12.416,12.416,0,0,1,1.99,6.01,24.418,24.418,0,0,1,.08,3.42,97.979,97.979,0,0,1,2.14,11.31c.21,1.26.39,2.51.55,3.77.26,1.44.48,2.89.66,4.32,1.07,8.38,1.63,17.71-.18,26.03" fill="#fedc72"/>
          <path id="Trazado_204481" data-name="Trazado 204481" d="M90.166,78.558c.068-.1.135-.192.2-.3,1.163-1.854,4.629-5.707,2.5-7.934-2.414-2.521-9.272-.475-12.128.1a1.018,1.018,0,0,0-.7,1.23,12.7,12.7,0,0,0,4.336,7.44c.1.136.206.264.313.387a171.057,171.057,0,0,0-5.4,31.459.965.965,0,0,0,.495.863l.416.188a37.885,37.885,0,0,0,5.263,5.985,1.042,1.042,0,0,0,1.212.156l1.681-.808a3.65,3.65,0,0,0,1.086.173,3.19,3.19,0,0,0,3.171-2.219l1.489-.716a.965.965,0,0,0,.5-.863q-2-17.6-4.428-35.143" fill="#5038a1"/>
          <path id="Trazado_204482" data-name="Trazado 204482" d="M106.34,67.68q-4.995,4.41-9.69,9.2a2.061,2.061,0,0,1-2.83,0,34.021,34.021,0,0,1-6.42-6.72,56.152,56.152,0,0,1-7.62,6.29c-2.13,1.31-3.26.89-5.44-.29a56.708,56.708,0,0,1-9.13-6.36,13.271,13.271,0,0,1,7.41-2.34,14.2,14.2,0,0,1,1.7.1c.36.04.72.1,1.09.17.68.12,1.37.24,2.05.35.57.09,1.15.17,1.72.24,1.51.17,3,.29,4.49.31.57.02,1.13.03,1.71.01a40.066,40.066,0,0,0,6.42-.61c.56-.1,1.13-.22,1.7-.35.41-.08.81-.18,1.21-.29,1.31-.34,2.62-.74,3.93-1.03.57-.12,1.14-.22,1.7-.29a7.85,7.85,0,0,1,5.61,1.28,2.122,2.122,0,0,1,.39.33" fill="#fdb74d"/>
          <path id="Trazado_204483" data-name="Trazado 204483" d="M136.159,90.38A46.333,46.333,0,0,0,122.5,73.722,48,48,0,0,0,114.8,68.98a27.432,27.432,0,0,0-3.949-1.569c-.171-.06-.341-.111-.52-.162l-.393-.1c-.256-.042-.512-.093-.768-.127-1.324-.178-2.647-.259-3.971-.324a199.923,199.923,0,0,1,1.321,25.057c.025,8.431-.1,17.292-2.571,25.427a34.9,34.9,0,0,1-4.548,9.449,4.424,4.424,0,0,1-3.022,3.557c-4.989,1.982-10.248.649-15.441.815a3.713,3.713,0,0,1-4.007-3.86c-9.906-15.945-11.957-37.96-9.012-56.082a3.833,3.833,0,0,1,.75-1.777c.148-.611.306-1.22.481-1.823-1.408.2-2.833.306-4.2.414a31.813,31.813,0,0,0-5.118.793,30.169,30.169,0,0,0-5.109,1.7c-7.241,3.122-13.331,8.222-18.474,14.124a62.949,62.949,0,0,0-11.293,19.055c-.153.452-.307.895-.46,1.339-.572,1.68-1.135,3.386-1.664,5.109a92.535,92.535,0,0,0-2.644,13.382c7.2,1.578,14.261,3.983,21.4,5.783a151.925,151.925,0,0,0,5.74-20.052c.214.58.435,1.16.657,1.739,2.183,5.673,4.418,11.327,6.533,17.025a80.9,80.9,0,0,1,2.7,8.486,43.475,43.475,0,0,1,1.288,8.12A39.648,39.648,0,0,1,55.78,161h54.57a49.912,49.912,0,0,0,6.132-3.608,1.638,1.638,0,0,0,.213-2.286c-4.8-6.124-3.744-14.483-1.97-21.511,1.015-4.042,2.064-8.119,3.284-12.137a109.558,109.558,0,0,1,3.693-10.38q2.929,8.419,5.578,16.939a3.384,3.384,0,0,0,2.38,2.389,11.506,11.506,0,0,0,6-.47c1.945-.673,4.367-2.618,6.525-2.2a3.369,3.369,0,0,0,4.068-2.346,4.433,4.433,0,0,0,.9-.622c-3.113-11.643-5.535-23.66-10.994-34.39" fill="#fdb74d"/>
          <path id="Trazado_204484" data-name="Trazado 204484" d="M146.906,209.209H17.38a12.035,12.035,0,0,1-12-12V120.564a12.035,12.035,0,0,1,12-12H146.906a12.035,12.035,0,0,1,12,12v76.645a12.035,12.035,0,0,1-12,12" fill="#12263f"/>
          <path id="Trazado_204485" data-name="Trazado 204485" d="M159.169,129.144c-.445.043-.89.073-1.335.124l.608-.575a.936.936,0,0,0-.7-1.592c-2.664.265-10.54.719-11.419,3.991a1.487,1.487,0,0,0,.35,1.686c-1.535,1.438-2.9,3.414-1.958,5.037a2.381,2.381,0,0,0,2.708,1.076,2.6,2.6,0,0,0,.017,2.128c.638,1.326,2.143,1.379,3.7.987a2.427,2.427,0,0,0,1.271,2.3c1.769,1.255,4.245,1.1,6.757.371Z" fill="#12263f"/>
          <path id="Trazado_204486" data-name="Trazado 204486" d="M164.052,134.834a3.624,3.624,0,0,0-.41-.157c.04-.059.078-.118.113-.178a1.317,1.317,0,0,0,.236-.459,2.137,2.137,0,0,0,.028-1.668,2.013,2.013,0,0,0-.1-.2,1.014,1.014,0,0,0-.062-.106,1.9,1.9,0,0,0-1.9-.683c.16-.135.328-.264.481-.406a1.2,1.2,0,0,0,.3-.476,1.661,1.661,0,0,0,.419-1.521,1.625,1.625,0,0,0-1.806-1.288,2.8,2.8,0,0,0,.157-.744,1.552,1.552,0,0,0-.024-.366,1,1,0,0,0-.683-1.64,42.726,42.726,0,0,0-9.351,1.717c-1.193.366-3.548.592-4.09,2.222a2.015,2.015,0,0,0-.069,1.09,1.3,1.3,0,0,0,.573,1.5,2.446,2.446,0,0,0,.531.232,5.284,5.284,0,0,0-.726.679,5.656,5.656,0,0,0-1.71,2.527,1.3,1.3,0,0,0,.134,1.146.974.974,0,0,0,.4.537,2.355,2.355,0,0,0,2.475-.117c.16-.011.323-.03.489-.058a2.662,2.662,0,0,0-.479,1.743c.1,1.884,1.612,1.749,3.445.881.021,0,.042,0,.063,0a2.048,2.048,0,0,0,.685,2.337c1.573,1.182,4.752-.6,6.375-1.214a10.359,10.359,0,0,0,4.939-3.477,1.307,1.307,0,0,0-.424-1.852" fill="#ff7871"/>
          <path id="Trazado_204487" data-name="Trazado 204487" d="M150.365,131.559l-.05-.163,10.309-3.18.05.164Z" fill="#d1514e"/>
          <path id="Trazado_204488" data-name="Trazado 204488" d="M150.406,135.938l-.057-.161,10.927-3.9.057.161Z" fill="#d1514e"/>
          <path id="Trazado_204489" data-name="Trazado 204489" d="M154.673,138.5l-.063-.158,8.529-3.412.063.158Z" fill="#d1514e"/>
          <path id="Trazado_204490" data-name="Trazado 204490" d="M5.533,155.585c.445.043.89.073,1.335.124l-.608-.575a.936.936,0,0,1,.7-1.592c2.664.264,10.54.719,11.419,3.991a1.489,1.489,0,0,1-.35,1.687c1.535,1.437,2.905,3.413,1.958,5.036a2.381,2.381,0,0,1-2.708,1.076,2.6,2.6,0,0,1-.017,2.128c-.638,1.326-2.143,1.379-3.7.987a2.427,2.427,0,0,1-1.271,2.3c-1.769,1.255-4.245,1.1-6.757.371Z" fill="#12263f"/>
          <path id="Trazado_204491" data-name="Trazado 204491" d="M.65,161.275a3.7,3.7,0,0,1,.41-.157c-.039-.059-.077-.118-.113-.178a1.3,1.3,0,0,1-.235-.459,2.133,2.133,0,0,1-.029-1.668,2.013,2.013,0,0,1,.1-.2,1.012,1.012,0,0,1,.062-.106,1.9,1.9,0,0,1,1.9-.683c-.16-.136-.328-.264-.481-.406a1.2,1.2,0,0,1-.3-.476,1.661,1.661,0,0,1-.419-1.521,1.625,1.625,0,0,1,1.806-1.288,2.8,2.8,0,0,1-.157-.744,1.552,1.552,0,0,1,.024-.366,1,1,0,0,1,.683-1.64,42.715,42.715,0,0,1,9.351,1.717c1.193.366,3.548.592,4.09,2.222a2.015,2.015,0,0,1,.069,1.09,1.3,1.3,0,0,1-.573,1.5,2.425,2.425,0,0,1-.531.232,5.283,5.283,0,0,1,.726.679,5.656,5.656,0,0,1,1.71,2.527,1.3,1.3,0,0,1-.134,1.146.971.971,0,0,1-.4.537,2.355,2.355,0,0,1-2.475-.117c-.16-.011-.323-.03-.489-.058a2.662,2.662,0,0,1,.479,1.743c-.1,1.884-1.612,1.749-3.444.881-.022,0-.043,0-.064,0a2.047,2.047,0,0,1-.684,2.336c-1.574,1.183-4.753-.6-6.376-1.213a10.359,10.359,0,0,1-4.939-3.477,1.307,1.307,0,0,1,.424-1.852" fill="#ff7871"/>
          <path id="Trazado_204492" data-name="Trazado 204492" d="M14.338,158l.05-.163-10.309-3.18-.05.164Z" fill="#d1514e"/>
          <path id="Trazado_204493" data-name="Trazado 204493" d="M14.3,162.379l.057-.161-10.927-3.9-.057.161Z" fill="#d1514e"/>
          <path id="Trazado_204494" data-name="Trazado 204494" d="M10.029,164.936l.063-.158-8.529-3.412-.063.158Z" fill="#d1514e"/>
          <path id="Trazado_204495" data-name="Trazado 204495" d="M103.466,39.625a1.706,1.706,0,1,1-1.706-1.706,1.706,1.706,0,0,1,1.706,1.706" fill="#fff"/>
          <path id="Trazado_204496" data-name="Trazado 204496" d="M69.35,40.478a1.706,1.706,0,1,1-1.706-1.706,1.706,1.706,0,0,1,1.706,1.706" fill="#fff"/>
          <path id="Trazado_204497" data-name="Trazado 204497" d="M107.99,32.426c-.074-1.745-1.859-2.622-3.862-2.563a10.336,10.336,0,0,0-2.455.379,1.715,1.715,0,0,0-1.324.059l-1.227.53a2.79,2.79,0,0,0-2.161,1.12,1.118,1.118,0,0,0-.152.277,1.083,1.083,0,0,0-.493,1.193,16.125,16.125,0,0,1,.319,4.494q-.029.327-.055.654c-.119,1.412,2.261,1.591,2.871.489,3.653-.706,8.682-3.253,8.539-6.632" fill="#d1514e"/>
          <path id="Trazado_204498" data-name="Trazado 204498" d="M62.634,32.9c.2-1.74,2.044-2.545,4.04-2.407a10.255,10.255,0,0,1,2.425.476,1.708,1.708,0,0,1,1.317.112l1.188.578a2.686,2.686,0,0,1,2.077,1.2,1.1,1.1,0,0,1,.133.283,1.055,1.055,0,0,1,.406,1.211,16.269,16.269,0,0,0-.64,4.475q0,.327.008.655c.017,1.414-2.372,1.5-2.9.374-3.6-.849-8.437-3.593-8.053-6.961" fill="#d1514e"/>
          <path id="Trazado_204499" data-name="Trazado 204499" d="M104.94,33c0,12.7-8.73,23-19.5,23s-19.5-10.3-19.5-23,8.73-23,19.5-23,19.5,10.3,19.5,23" fill="#ff7871"/>
          <path id="Trazado_204500" data-name="Trazado 204500" d="M105.345,26.031c.017-.494.017-.988.01-1.483a2.184,2.184,0,0,0,.138-.232c1.439-3.061,2.912-6.75,1.09-10.018-1.132-2.03-3.052-2.861-4.933-3.78C98.254,4.553,92.624.253,85.143.008,80.2-.154,74.431,2.13,69.81,5.837a20.8,20.8,0,0,0-4.369,2.338C60.234,11.835,55.5,19.053,57.8,25.829c1.416,4.168,4.9,5.5,8.449,5.054-.135,1.35-.23,2.7-.256,4.065-.018.91-.1,1.938-.07,2.945A2.577,2.577,0,0,0,64.9,41.425a35.653,35.653,0,0,0,8.708,10.6,12.983,12.983,0,0,0,3.075,1.924c10.568,5.519,25.113-.729,28.677-14.255a2.47,2.47,0,0,0-.61-2.357,51.324,51.324,0,0,0-.505-9.208,2.519,2.519,0,0,0,1.1-2.1M72.167,28.5c3.988-2.909,6.681-5.936,11.655-7.174,5.722-1.424,14.29-1.592,16.612,5.4a2.578,2.578,0,0,0,1.552,1.664,49.025,49.025,0,0,1-.779,8.709,2.378,2.378,0,0,0-.257.334,2.456,2.456,0,0,0-.554.314c-6.965,5.318-20.794,7.255-29.02,2.392a16.567,16.567,0,0,1-1.086-2.369q-.589-2.313-1-4.668a19.768,19.768,0,0,1,.022-3.036A13.185,13.185,0,0,0,72.167,28.5" fill="#12263f"/>
          <path id="Trazado_204501" data-name="Trazado 204501" d="M83.378,131a29,29,0,1,0,29,29,29,29,0,0,0-29-29m0,14.5a3.625,3.625,0,1,1-3.625,3.625,3.626,3.626,0,0,1,3.625-3.625m4.531,29H78.846a2.718,2.718,0,0,1,0-5.437h1.813v-7.251h-.906a2.718,2.718,0,1,1,0-5.437h3.625a2.72,2.72,0,0,1,2.719,2.719v9.969h1.812a2.718,2.718,0,1,1,0,5.437" fill="#b0c0d2"/>
        </g>
      </g>
    </g>
  </g>
</svg>
