<svg xmlns="http://www.w3.org/2000/svg" xmlns:xlink="http://www.w3.org/1999/xlink" width="451.825" height="511.667" viewBox="0 0 451.825 511.667">
  <defs>
    <clipPath id="clip-path">
      <rect id="Rectángulo_46641" data-name="Rectángulo 46641" width="352" height="291" transform="translate(327.001 6680)" fill="none" stroke="#707070" stroke-width="1"/>
    </clipPath>
    <clipPath id="clip-path-2">
      <rect id="Rectángulo_46640" data-name="Rectángulo 46640" width="318.91" height="275.988" fill="none"/>
    </clipPath>
    <clipPath id="clip-path-4">
      <rect id="Rectángulo_46635" data-name="Rectángulo 46635" width="306.869" height="97.834" fill="#d2e1f1"/>
    </clipPath>
    <clipPath id="clip-path-5">
      <rect id="Rectángulo_46637" data-name="Rectángulo 46637" width="40.5" height="34.464" transform="translate(0 11.159) rotate(-15.993)" fill="none"/>
    </clipPath>
    <clipPath id="clip-path-7">
      <rect id="Rectángulo_46639" data-name="Rectángulo 46639" width="36.021" height="36.023" transform="translate(0 35.869) rotate(-84.729)" fill="none"/>
    </clipPath>
    <linearGradient id="linear-gradient" x1="0.605" y1="0.384" x2="0.912" y2="0.953" gradientUnits="objectBoundingBox">
      <stop offset="0" stop-color="#fdb74d" stop-opacity="0"/>
      <stop offset="0.13" stop-color="#fdb74d"/>
      <stop offset="1" stop-color="#fdb74d"/>
    </linearGradient>
  </defs>
  <g id="Grupo_156266" data-name="Grupo 156266" transform="translate(4156.998 4875)">
    <rect id="BG" width="451.826" height="511.667" transform="translate(-4156.998 -4875)" fill="#e8e8e8" opacity="0.949"/>
    <g id="Enmascarar_grupo_168" data-name="Enmascarar grupo 168" transform="translate(-4453.001 -11435)" clip-path="url(#clip-path)">
      <g id="Grupo_156265" data-name="Grupo 156265">
        <path id="Trazado_205638" data-name="Trazado 205638" d="M1.408,41.84A248.445,248.445,0,0,0,23.8,62.8,182.907,182.907,0,0,0,49.08,80.278,132.843,132.843,0,0,0,77.826,92.623a93.572,93.572,0,0,0,15.856,3.143c1.367.119,2.734.27,4.12.313.692.03,1.383.073,2.078.088l2.093.009c1.405.013,2.758-.046,4.147-.071,1.372-.084,2.757-.14,4.127-.274,11.018-.959,21.69-4.035,31.626-7.9,9.968-3.872,19.289-8.545,28.257-13.019,4.481-2.246,8.893-4.431,13.232-6.463,2.173-1.027,4.323-1.988,6.463-2.929,1.067-.45,2.133-.92,3.192-1.347l3.282-1.332c9.139-3.7,18.071-7.142,26.866-9.889,4.394-1.376,8.745-2.578,13.022-3.543,2.138-.483,4.258-.91,6.352-1.268s4.165-.627,6.2-.835a59.7,59.7,0,0,1,21.923,1.326,39.888,39.888,0,0,1,4.479,1.537c.713.288,1.4.608,2.083.931l1,.506c.3.171.6.329.9.509a31.334,31.334,0,0,1,6.494,5.044c.48.492.95.992,1.4,1.514l1.734,1.949c.6.672,1.135,1.374,1.707,2.046.551.685,1.053,1.39,1.585,2.07a52.434,52.434,0,0,1,5.067,8.484,46.975,46.975,0,0,1,3.165,8.717,47.468,47.468,0,0,1,1.421,9.044,68.024,68.024,0,0,1-1.731,19.407,101.82,101.82,0,0,1-7.183,20.446,109.665,109.665,0,0,1-5.275,9.938c-.954,1.6-1.942,3.157-2.933,4.626-.494.728-1,1.433-1.478,2.071-.239.317-.478.625-.692.875a4.236,4.236,0,0,1-.3.327c-.037.03-.09.091-.106.083l-.018,0s-.022.022.005-.036l.1-.237a42.7,42.7,0,0,0,73.962,42.69l.335-.643.214-.439.342-.735.585-1.318c.368-.849.7-1.647,1.019-2.441.639-1.582,1.222-3.116,1.788-4.638,1.117-3.038,2.128-6.033,3.064-9.037,1.868-6,3.425-12.037,4.741-18.166a177.856,177.856,0,0,0,4.056-38.054,134.618,134.618,0,0,0-5.961-39.9,117.582,117.582,0,0,0-7.972-19.24,109.348,109.348,0,0,0-11.281-17.348A112.789,112.789,0,0,0,333.154,24.64c-1.244-1.061-2.476-2.14-3.736-3.16-1.271-1-2.527-2.023-3.814-2.972L323.669,17.1c-.659-.476-1.243-.908-2.032-1.454-1.485-1.045-3.01-2.034-4.557-2.982a85.439,85.439,0,0,0-19.789-8.923c-.865-.27-1.741-.508-2.614-.75-.856-.221-1.7-.434-2.55-.636-1.7-.391-3.407-.747-5.114-1.035A90.758,90.758,0,0,0,276.824.148a98.41,98.41,0,0,0-19.536.881,118.682,118.682,0,0,0-17.832,4.017,180.981,180.981,0,0,0-31.034,13.036c-9.539,5-18.429,10.44-26.984,15.834L178.1,36.03c-1.145.725-2.25,1.468-3.371,2.2-2.2,1.484-4.381,2.976-6.489,4.481-4.241,3.006-8.3,6.036-12.309,8.979-8,5.9-15.719,11.568-23.674,16.363a94.488,94.488,0,0,1-24.788,10.958c-1.079.3-2.168.522-3.258.784l-1.644.318-.825.161c-.274.048-.543.075-.815.114l-1.632.22c-.547.063-1.1.1-1.651.154-1.1.123-2.221.144-3.34.2-1.121.036-2.251.033-3.384.029-1.135-.053-2.273-.041-3.415-.145l-1.716-.12c-.573-.044-1.146-.117-1.719-.176-1.148-.112-2.294-.286-3.443-.46-1.152-.15-2.294-.4-3.446-.6-1.148-.22-2.291-.487-3.44-.733-1.136-.3-2.28-.582-3.417-.9-1.13-.343-2.274-.645-3.4-1.02-2.262-.713-4.5-1.523-6.714-2.414-1.109-.441-2.217-.886-3.31-1.375l-1.645-.721-1.622-.774A121.4,121.4,0,0,1,29.256,56.106,119.116,119.116,0,0,1,9.1,35.316a5.053,5.053,0,1,0-7.717,6.5Z" transform="translate(361.166 6651.2) rotate(21)" fill="#fdb74d"/>
        <g id="Grupo_156264" data-name="Grupo 156264" transform="translate(331.334 6686.756)">
          <g id="Grupo_156263" data-name="Grupo 156263" transform="translate(-2)" clip-path="url(#clip-path-2)">
            <g id="Grupo_156256" data-name="Grupo 156256">
              <g id="Grupo_156255" data-name="Grupo 156255" clip-path="url(#clip-path-2)">
                <path id="Trazado_205639" data-name="Trazado 205639" d="M280.173,209.4H55.25a39.179,39.179,0,0,1-39.132-39.134c-2.242-25.574,3.606-45.538,17.409-58.7C45.453,100.194,60.993,96.57,71.9,96.037a85.3,85.3,0,0,1,85.168-82.871c41.767,0,77.5,30.983,84.06,71.649a52.749,52.749,0,0,1,45.1,40.317,42.35,42.35,0,0,1-6.056,84.264" transform="translate(-3.611 -3.038)" fill="#8c6df2" opacity="0.55"/>
                <g id="Grupo_156254" data-name="Grupo 156254" transform="translate(12.04 108.524)" opacity="0.43">
                  <g id="Grupo_156253" data-name="Grupo 156253">
                    <g id="Grupo_156252" data-name="Grupo 156252" clip-path="url(#clip-path-4)">
                      <path id="Trazado_205640" data-name="Trazado 205640" d="M308.21,164.851c-15.23,15.86-53.1,40.165-144.97,48.766C22.411,226.8,33.527,141.074,33.527,141.074c-13.8,13.161-19.652,33.126-17.409,58.7A39.18,39.18,0,0,0,55.25,238.908H280.173a42.329,42.329,0,0,0,28.038-74.057" transform="translate(-15.652 -141.074)" fill="#d2e1f1"/>
                    </g>
                  </g>
                </g>
                <path id="Trazado_205641" data-name="Trazado 205641" d="M61.654,171.585a4.153,4.153,0,1,0-4.154-4.153,4.161,4.161,0,0,0,4.154,4.153" transform="translate(-13.267 -37.673)" fill="#fff9d0" fill-rule="evenodd"/>
                <path id="Trazado_205642" data-name="Trazado 205642" d="M270.161,231.683a4.153,4.153,0,1,0-4.153-4.153,4.161,4.161,0,0,0,4.153,4.153" transform="translate(-61.376 -51.54)" fill="#fff9d0" fill-rule="evenodd"/>
                <path id="Trazado_205643" data-name="Trazado 205643" d="M384.272,201.937a1.789,1.789,0,1,0-1.789-1.789,1.792,1.792,0,0,0,1.789,1.789" transform="translate(-88.251 -45.768)" fill="#fff9d0" fill-rule="evenodd"/>
                <path id="Trazado_205644" data-name="Trazado 205644" d="M286.428,129.1a1.789,1.789,0,1,0-1.789-1.789,1.792,1.792,0,0,0,1.789,1.789" transform="translate(-65.675 -28.963)" fill="#fff9d0" fill-rule="evenodd"/>
                <path id="Trazado_205645" data-name="Trazado 205645" d="M220.188,38.19A1.789,1.789,0,1,0,218.4,36.4a1.792,1.792,0,0,0,1.789,1.789" transform="translate(-50.391 -7.986)" fill="#fff9d0" fill-rule="evenodd"/>
                <path id="Trazado_205646" data-name="Trazado 205646" d="M49.487,231.349a1.789,1.789,0,1,0-1.789-1.789,1.792,1.792,0,0,0,1.789,1.789" transform="translate(-11.005 -52.554)" fill="#fff9d0" fill-rule="evenodd"/>
                <path id="Trazado_205647" data-name="Trazado 205647" d="M152.832,162.9a1.789,1.789,0,1,0-1.789-1.789,1.792,1.792,0,0,0,1.789,1.789" transform="translate(-34.85 -36.761)" fill="#fff9d0" fill-rule="evenodd"/>
                <path id="Trazado_205648" data-name="Trazado 205648" d="M270.44,68.45a3.223,3.223,0,1,0-3.223-3.223,3.229,3.229,0,0,0,3.223,3.223" transform="translate(-61.655 -14.306)" fill="#fff9d0" fill-rule="evenodd"/>
                <path id="Trazado_205649" data-name="Trazado 205649" d="M188.045,21.065a52.005,52.005,0,0,1-.014,6.821,51.481,51.481,0,0,1-.8,6.774,51.483,51.483,0,0,1,.013-6.821,52.147,52.147,0,0,1,.8-6.774" transform="translate(-43.174 -4.86)" fill="#fff9cf"/>
                <path id="Trazado_205650" data-name="Trazado 205650" d="M178.954,30.14a52.024,52.024,0,0,1,6.776-.786,51.229,51.229,0,0,1,6.821,0,51.483,51.483,0,0,1-6.776.786,52.019,52.019,0,0,1-6.821,0" transform="translate(-41.29 -6.747)" fill="#fff9cf"/>
                <path id="Trazado_205651" data-name="Trazado 205651" d="M182.458,25.733a30.587,30.587,0,0,1,4.347,2.9,30.144,30.144,0,0,1,3.859,3.519,30.26,30.26,0,0,1-4.347-2.895,30.59,30.59,0,0,1-3.859-3.519" transform="translate(-42.099 -5.937)" fill="#fff9cf"/>
                <path id="Trazado_205652" data-name="Trazado 205652" d="M190.122,24.869A29.443,29.443,0,0,1,187.093,29a29.022,29.022,0,0,1-3.629,3.613,29.023,29.023,0,0,1,3.029-4.129,29.443,29.443,0,0,1,3.629-3.613" transform="translate(-42.331 -5.738)" fill="#fff9cf"/>
                <path id="Trazado_205653" data-name="Trazado 205653" d="M340.153,165.506a65.6,65.6,0,0,1-.017,8.6c-.095,1.428-.2,2.855-.367,4.279s-.353,2.846-.646,4.261c-.121-1.441-.145-2.876-.132-4.308s.072-2.862.148-4.292a65.6,65.6,0,0,1,1.013-8.54" transform="translate(-78.215 -38.187)" fill="#fff9cf"/>
                <path id="Trazado_205654" data-name="Trazado 205654" d="M328.691,176.948a65.61,65.61,0,0,1,8.543-.992c1.429-.074,2.859-.135,4.292-.138s2.867.017,4.308.142c-1.417.29-2.839.481-4.263.636s-2.851.265-4.279.355a65.606,65.606,0,0,1-8.6,0" transform="translate(-75.839 -40.566)" fill="#fff9cf"/>
                <path id="Trazado_205655" data-name="Trazado 205655" d="M333.108,171.39a38.513,38.513,0,0,1,5.48,3.65c.857.681,1.706,1.372,2.519,2.108a27.355,27.355,0,0,1,2.347,2.329,27.113,27.113,0,0,1-2.827-1.715c-.911-.611-1.786-1.268-2.654-1.935a38.45,38.45,0,0,1-4.866-4.436" transform="translate(-76.858 -39.545)" fill="#fff9cf"/>
                <path id="Trazado_205656" data-name="Trazado 205656" d="M342.771,170.3a37.042,37.042,0,0,1-3.819,5.207c-.706.808-1.422,1.607-2.181,2.368a26.225,26.225,0,0,1-2.394,2.187,26.123,26.123,0,0,1,1.8-2.695c.639-.865,1.323-1.692,2.015-2.511a37.058,37.058,0,0,1,4.576-4.556" transform="translate(-77.151 -39.294)" fill="#fff9cf"/>
                <path id="Trazado_205657" data-name="Trazado 205657" d="M118.045,145.486a64.806,64.806,0,0,1-.017,8.513c-.093,1.413-.2,2.826-.363,4.235s-.349,2.816-.64,4.218c-.12-1.426-.142-2.846-.13-4.265s.071-2.833.147-4.248a64.93,64.93,0,0,1,1-8.453" transform="translate(-26.971 -33.568)" fill="#fff9cf"/>
                <path id="Trazado_205658" data-name="Trazado 205658" d="M106.7,156.811a64.811,64.811,0,0,1,8.456-.981c1.415-.073,2.829-.133,4.248-.136s2.839.016,4.264.141c-1.4.287-2.81.476-4.219.628s-2.822.262-4.236.353a64.954,64.954,0,0,1-8.513-.005" transform="translate(-24.619 -35.923)" fill="#fff9cf"/>
                <path id="Trazado_205659" data-name="Trazado 205659" d="M111.072,151.31a38.128,38.128,0,0,1,5.425,3.613c.849.674,1.689,1.358,2.494,2.086a27.017,27.017,0,0,1,2.322,2.306,27.123,27.123,0,0,1-2.8-1.7c-.9-.6-1.769-1.255-2.627-1.915a38.178,38.178,0,0,1-4.816-4.392" transform="translate(-25.628 -34.912)" fill="#fff9cf"/>
                <path id="Trazado_205660" data-name="Trazado 205660" d="M120.636,150.233a36.722,36.722,0,0,1-3.779,5.153c-.7.8-1.408,1.591-2.159,2.345a26.1,26.1,0,0,1-2.369,2.164,25.886,25.886,0,0,1,1.785-2.667c.632-.856,1.309-1.675,1.995-2.486a36.663,36.663,0,0,1,4.529-4.509" transform="translate(-25.918 -34.663)" fill="#fff9cf"/>
                <path id="Trazado_205661" data-name="Trazado 205661" d="M24.67,267.261c-5.136-.7-12.8-2.115-17.859-5.829S-.7,251.7.175,248.846s5.093-2.549,8.808.214,6.933,7.983,11.191,11.544,9.552,5.461,10.9,6.411-1.264.951-6.4.246" transform="translate(0 -56.954)" fill="#5038a1" fill-rule="evenodd"/>
                <path id="Trazado_205662" data-name="Trazado 205662" d="M37.079,289.512c-3.431-1.305-6.692-2.618-9.187-1.739s-4.224,3.951-.793,5.256,12.023.846,14.518-.034-1.107-2.179-4.538-3.484" transform="translate(-5.809 -66.332)" fill="#5038a1" fill-rule="evenodd"/>
                <path id="Trazado_205663" data-name="Trazado 205663" d="M343.814,284.345c3.725,4.733,9.883,12.694,14.788,14.446s8.56-2.7,4.836-7.438-14.826-9.743-19.733-11.5-3.616-.246.109,4.487" transform="translate(-78.564 -64.409)" fill="#5038a1" fill-rule="evenodd"/>
                <path id="Trazado_205664" data-name="Trazado 205664" d="M327.769,308.933c.735,2.865,1.389,5.619,3.127,6.851s4.563.941,3.826-1.923-5.034-8.3-6.773-9.533-.918,1.741-.181,4.6" transform="translate(-75.43 -70.152)" fill="#5038a1" fill-rule="evenodd"/>
                <path id="Trazado_205665" data-name="Trazado 205665" d="M313.836,71.427c-.491-5.895-.611-16.254,1.833-22.471s7.451-8.293,9.907-7.311,2.362,5.024.467,10.176-5.589,11.417-7.553,16.33-2.2,8.473-2.751,9.537-1.412-.366-1.9-6.261" transform="translate(-72.346 -9.555)" fill="#5038a1" fill-rule="evenodd"/>
                <path id="Trazado_205666" data-name="Trazado 205666" d="M330.715,94.127c5.86-1.39,15.672-3.631,19.324-7.346s1.145-8.9-4.716-7.514S330.251,88.624,326.6,92.339s-1.743,3.177,4.117,1.788" transform="translate(-74.927 -18.236)" fill="#5038a1" fill-rule="evenodd"/>
                <path id="Trazado_205667" data-name="Trazado 205667" d="M296.936,252.356l-21.354,14.092,7.349,12.228s10.031-5.363,12.451-3.938,12.044,12.025,20.537,6.85Z" transform="translate(-63.585 -58.226)" fill="#f0efe6"/>
                <path id="Trazado_205668" data-name="Trazado 205668" d="M299.065,255.078c6.343,8.958,13.111,18.955,19.069,28.173a.42.42,0,0,1-.7.465q-2.42-3.5-4.789-7.028c-2.363-3.52-7.055-10.646-9.353-14.208q-2.309-3.571-4.565-7.179c-.133-.205.188-.438.335-.224" transform="translate(-68.919 -58.835)" fill="#5038a1"/>
                <path id="Trazado_205669" data-name="Trazado 205669" d="M302.353,264.433c-4.29,2.075-9.72.708-11.615-3.888a.216.216,0,0,1,.378-.205c2.429,3.913,6.8,4.867,11.029,3.552a.291.291,0,0,1,.208.541" transform="translate(-67.076 -60.044)" fill="#5038a1"/>
                <path id="Trazado_205670" data-name="Trazado 205670" d="M315.077,281.659a29.282,29.282,0,0,1-5.092,4.973.295.295,0,0,1-.405-.419,29.476,29.476,0,0,1,3.74-3.811c.452-.386.908-.767,1.4-1.115a.262.262,0,0,1,.36.372" transform="translate(-71.415 -64.891)" fill="#5038a1"/>
                <path id="Trazado_205671" data-name="Trazado 205671" d="M300.206,276.156a11.037,11.037,0,0,1-.726,3.872.375.375,0,0,1-.719-.156,10.34,10.34,0,0,1,.3-1.949c.112-.338.67-2.853,1.143-1.767" transform="translate(-68.933 -63.655)" fill="#ffa59f"/>
                <path id="Trazado_205672" data-name="Trazado 205672" d="M304.841,278.063a24.477,24.477,0,0,1-1.521,3.606.323.323,0,0,1-.6-.221,24.5,24.5,0,0,1,1.179-3.731.5.5,0,0,1,.94.346" transform="translate(-69.845 -64.006)" fill="#ffa59f"/>
                <path id="Trazado_205673" data-name="Trazado 205673" d="M308.651,280.946a12.378,12.378,0,0,1-2.543,3.232.245.245,0,0,1-.384-.279,12.348,12.348,0,0,1,2.284-3.418.4.4,0,0,1,.643.465" transform="translate(-70.536 -64.689)" fill="#ffa59f"/>
                <path id="Trazado_205674" data-name="Trazado 205674" d="M288.677,268.861c1.2,1.424,3.3-.345,2.092-1.692-1.067-1.46-3.232.222-2.092,1.692m-.287.232a2.018,2.018,0,0,1,3.137-2.535,2.018,2.018,0,0,1-3.137,2.535" transform="translate(-66.437 -61.339)" fill="#5038a1"/>
                <path id="Trazado_205675" data-name="Trazado 205675" d="M157.856,168.263,131.709,287.038a22.809,22.809,0,0,0,7.637,22.688c5.671,4.573,14.283,7.013,26.853.766l92.436-52.359-9.83-17.269-69.21,34.151s21.318-83.823,1.632-109.172Z" transform="translate(-30.261 -38.265)" fill="#5038a1"/>
                <path id="Trazado_205676" data-name="Trazado 205676" d="M306.14,256.089l-21.354,14.092,7.349,12.228s10.031-5.363,12.451-3.937,12.044,12.024,20.537,6.85Z" transform="translate(-65.709 -59.088)" fill="#f0efe6"/>
                <path id="Trazado_205677" data-name="Trazado 205677" d="M308.268,258.811c6.343,8.958,13.111,18.955,19.069,28.173a.42.42,0,0,1-.7.465q-2.42-3.5-4.789-7.028c-2.363-3.52-7.055-10.646-9.353-14.208q-2.309-3.571-4.565-7.179c-.133-.205.189-.439.335-.224" transform="translate(-71.042 -59.696)" fill="#5038a1"/>
                <path id="Trazado_205678" data-name="Trazado 205678" d="M311.557,268.167c-4.29,2.074-9.72.708-11.615-3.889a.215.215,0,0,1,.378-.2c2.429,3.912,6.8,4.866,11.029,3.552a.292.292,0,0,1,.208.542" transform="translate(-69.2 -60.905)" fill="#5038a1"/>
                <path id="Trazado_205679" data-name="Trazado 205679" d="M324.281,285.392a29.283,29.283,0,0,1-5.092,4.973.295.295,0,0,1-.405-.419,29.472,29.472,0,0,1,3.74-3.811c.452-.386.909-.767,1.4-1.115a.262.262,0,0,1,.36.372" transform="translate(-73.539 -65.752)" fill="#5038a1"/>
                <path id="Trazado_205680" data-name="Trazado 205680" d="M309.41,279.889a11.036,11.036,0,0,1-.726,3.872.375.375,0,0,1-.718-.156,10.337,10.337,0,0,1,.3-1.949c.112-.338.67-2.853,1.143-1.767" transform="translate(-71.057 -64.517)" fill="#5038a1"/>
                <path id="Trazado_205681" data-name="Trazado 205681" d="M314.045,281.8a24.57,24.57,0,0,1-1.522,3.606.323.323,0,0,1-.6-.221,24.5,24.5,0,0,1,1.179-3.731.5.5,0,0,1,.941.346" transform="translate(-71.968 -64.867)" fill="#5038a1"/>
                <path id="Trazado_205682" data-name="Trazado 205682" d="M317.854,284.68a12.342,12.342,0,0,1-2.542,3.23.244.244,0,0,1-.384-.278,12.331,12.331,0,0,1,2.284-3.418.4.4,0,0,1,.642.466" transform="translate(-72.659 -65.55)" fill="#5038a1"/>
                <path id="Trazado_205683" data-name="Trazado 205683" d="M297.88,272.594c1.2,1.424,3.3-.345,2.092-1.692-1.067-1.46-3.232.221-2.092,1.692m-.287.232a2.018,2.018,0,0,1,3.137-2.536,2.018,2.018,0,0,1-3.137,2.536" transform="translate(-68.56 -62.2)" fill="#5038a1"/>
                <path id="Trazado_205684" data-name="Trazado 205684" d="M168.458,167.41l-7.2,104.523A43.885,43.885,0,0,0,168.678,300c5.843,8.423,14.238,14.013,24.885,12.468,12.765-1.853,59.575-40.582,73.835-50.333l-8.28-18.114-53.824,26.912s11.528-43.551,12.938-56.412c1.972-17.986-14.491-50.719-14.491-50.719Z" transform="translate(-37.182 -37.794)" fill="#8c6df2"/>
                <path id="Trazado_205685" data-name="Trazado 205685" d="M232.832,100.462c-1.21-1.8-3.041-3.216-3.828-5.242-1.05-2.7.017-5.708.112-8.6a12.875,12.875,0,0,0-4.449-10.067c-4.043-3.446-10.067-4.228-13.484-8.3-3.176-3.78-3.3-9.514-6.68-13.109-2.563-2.724-6.494-3.655-10.22-3.979a44.546,44.546,0,0,0-5.684.289c-3.673.71-7.485,2.045-9.751,5.021-2.992,3.927-2.515,9.642-5.28,13.732-2.976,4.4-8.885,5.8-12.548,9.653a12.881,12.881,0,0,0-3.378,10.476c.4,2.869,1.77,5.75,1.006,8.545-.572,2.1-2.246,3.69-3.262,5.611-2.157,4.079-1.062,9.264,1.529,13.081s7.853,5.255,10.222,9.214c3.692,6.17,18.366,4.473,28.34,2.359,10.141,1.069,24.951,1.24,27.986-5.289,1.944-4.184,7.027-6.162,9.207-10.227s2.73-9.337.161-13.17" transform="translate(-35.588 -11.803)" fill="#001240"/>
                <path id="Trazado_205686" data-name="Trazado 205686" d="M126.8,92.89c5.929-9.74,9.776-29.037,9.776-29.037s3.275-4.716,5.621-4.946a1.03,1.03,0,0,0-.665-1.015,4.656,4.656,0,0,0-3.389.711s2.2-8.21,1.4-8.13-2.416,4.229-2.416,4.229,1.761-6.54,1-6.211c-.292.128,0,0-2.422,5.393,0,0,.59-5.288-.086-4.548-.849.929-1.981,4.729-1.981,4.729s.408-4.095-.109-3.465-3.194,11.087-3.194,11.087l-1.608,3.243h0c-15.855,26.224-12.358,31.63-11.146,32.605,2.178,3.349,11.3,12.31,44.818,6.216l11.651-16.379S143.829,89.016,126.8,92.89" transform="translate(-26.856 -11.185)" fill="#ffa59f"/>
                <path id="Trazado_205687" data-name="Trazado 205687" d="M247.585,14.649S248.592,9,250.628,7.808a1.031,1.031,0,0,0-1.029-.645,4.654,4.654,0,0,0-2.782,2.06S245.393.844,244.7,1.252s-.43,4.852-.43,4.852S243.136-.575,242.586.04c-.212.238,0,0,.05,5.911,0,0-1.67-5.051-1.976-4.1-.384,1.2.174,5.125.174,5.125s-1.339-3.89-1.545-3.1,1.726,11.407,1.726,11.407l-.107,3.619c-1.926,16.952-1.093,25.524.282,29.869-6.838,8.4-14.041,21.19-14.041,21.19l9.42,14.347s10.089-22.577,13.278-34.866c3.708-9.732-2.261-34.793-2.261-34.794" transform="translate(-52.41 0)" fill="#ffa59f"/>
                <path id="Trazado_205688" data-name="Trazado 205688" d="M222.351,102.525,210.246,86.677l-6.64,11.085-26.826-2.5-18.325,2.5-4.217,18.269,16.721.386L163.183,150l38.964-3.992,7.721-29.588Z" transform="translate(-35.588 -19.999)" fill="#fedc72"/>
                <path id="Trazado_205689" data-name="Trazado 205689" d="M209.859,69.956a1.723,1.723,0,0,0-1.175-.807,26.37,26.37,0,0,0,.21-4.078,9.738,9.738,0,0,0-.507-3.091,7.568,7.568,0,0,0-6.788-5.266c-4.517-.255-7.42,2.035-9.089,6.683a14.643,14.643,0,0,0-.762,4.843,1.684,1.684,0,0,0-.092,3.366l.388.049a12.3,12.3,0,0,0,2.171,5.487l-2.183,16.076c10.651,8.158,13.94.628,13.94.628l-.686-16.122a13.27,13.27,0,0,0,2.7-5.236l.328-.007a1.736,1.736,0,0,0,1.547-2.526" transform="translate(-43.857 -13.081)" fill="#ffa59f"/>
                <path id="Trazado_205690" data-name="Trazado 205690" d="M195.313,83.276c2.871,2.622,5.933,4.033,11.07.582,0,0-5.222,5.758-11.548,2.942Z" transform="translate(-44.954 -19.214)" fill="#ed7d7a"/>
                <path id="Trazado_205691" data-name="Trazado 205691" d="M201.957,56.788s3.572,10.253,10.052,10.253c0,0,.256-12.718-10.052-10.253" transform="translate(-46.598 -13.03)" fill="#001240"/>
                <path id="Trazado_205692" data-name="Trazado 205692" d="M199.364,56.883a15.846,15.846,0,0,1-8.632,10.6s-.745-10.747,8.632-10.6" transform="translate(-44.005 -13.124)" fill="#001240"/>
                <path id="Trazado_205693" data-name="Trazado 205693" d="M214.1,75.461c.088-.3.235-.542.276-.783a.458.458,0,0,0,0-.314.981.981,0,0,0-.249-.311.544.544,0,0,1,.458.173.624.624,0,0,1,.106.525,1.116,1.116,0,0,1-.592.71" transform="translate(-49.399 -17.086)" fill="#ed7d7a"/>
                <path id="Trazado_205694" data-name="Trazado 205694" d="M191.887,74.256a1.118,1.118,0,0,1-.586-.715.627.627,0,0,1,.112-.524.545.545,0,0,1,.459-.168,1,1,0,0,0-.252.308.462.462,0,0,0,0,.314c.039.242.185.484.269.786" transform="translate(-44.136 -16.808)" fill="#ed7d7a"/>
                <path id="Trazado_205695" data-name="Trazado 205695" d="M198.069,75.637c-.108.624-.965,1-1.914.831s-1.63-.8-1.522-1.427.965-1,1.914-.831,1.63.8,1.522,1.427" transform="translate(-44.905 -17.114)" fill="#ff9592"/>
                <path id="Trazado_205696" data-name="Trazado 205696" d="M198.74,72.224c-.019.37-.258.659-.532.644s-.481-.326-.461-.7.257-.659.532-.644.48.326.461.7" transform="translate(-45.626 -16.504)" fill="#222a46"/>
                <path id="Trazado_205697" data-name="Trazado 205697" d="M209.826,75.963c0,.633-.781,1.146-1.743,1.146s-1.744-.513-1.744-1.146.781-1.145,1.743-1.146,1.744.513,1.744,1.146" transform="translate(-47.609 -17.263)" fill="#ff9592"/>
                <path id="Trazado_205698" data-name="Trazado 205698" d="M208.033,72.713c-.019.37-.258.659-.532.644s-.481-.326-.461-.7.257-.659.532-.644.48.326.461.7" transform="translate(-47.77 -16.616)" fill="#222a46"/>
                <path id="Trazado_205699" data-name="Trazado 205699" d="M200.521,77.44a2.669,2.669,0,0,0,1.894,1.025,2.993,2.993,0,0,0,1.043-.26l.518-.261c.173-.1.338-.205.529-.3-.112.172-.249.324-.378.491a5.1,5.1,0,0,1-.476.408,2.409,2.409,0,0,1-1.233.421,1.89,1.89,0,0,1-1.236-.469,2.162,2.162,0,0,1-.662-1.06" transform="translate(-46.266 -17.868)" fill="#ed7d7a"/>
                <path id="Trazado_205700" data-name="Trazado 205700" d="M202.562,74.525a3.181,3.181,0,0,1,1.077-.889l-.027.538a1.868,1.868,0,0,1-.59-.962,2.544,2.544,0,0,1-.078-1.037l.51.847a2.24,2.24,0,0,0,.542.631l.4.268-.428.271a3.179,3.179,0,0,1-1.3.522.119.119,0,0,1-.134-.1.116.116,0,0,1,.022-.086" transform="translate(-46.732 -16.653)" fill="#ed7d7a"/>
                <path id="Trazado_205701" data-name="Trazado 205701" d="M82.025,225.7l9.681-34.236,25.435,24.172Z" transform="translate(-18.926 -44.176)" fill="#f2f0f0"/>
                <path id="Trazado_205702" data-name="Trazado 205702" d="M102.91,220.543l17.131-4.909L94.606,191.461l-.015.055Z" transform="translate(-21.825 -44.176)" fill="#f2f0f0"/>
              </g>
            </g>
            <g id="Grupo_156258" data-name="Grupo 156258" transform="translate(52.54 139.932)">
              <g id="Grupo_156257" data-name="Grupo 156257" transform="translate(0 0)" clip-path="url(#clip-path-5)">
                <path id="Trazado_205703" data-name="Trazado 205703" d="M118.616,214.531c-8.682-8.422-17.705-16.747-26.387-25.169a1.362,1.362,0,0,0-1.654-.254,1.409,1.409,0,0,0-.846.97c-3.332,11.865-6.322,23.633-9.653,35.5a1.519,1.519,0,0,0,1.875,1.82l36.039-10.329a1.52,1.52,0,0,0,.626-2.537M91.956,193.293c7.453,7.232,15.249,14.365,22.7,21.6l-30.945,8.868c2.86-10.187,5.379-20.277,8.24-30.465" transform="translate(-71.004 -183.525)" fill="#ec1b36"/>
                <path id="Trazado_205704" data-name="Trazado 205704" d="M99.353,219.312l-15.637,4.482c2.852-10.159,5.365-20.219,8.215-30.378l-1.239-4.323c-.038.017-.078.032-.115.052a1.408,1.408,0,0,0-.847.97c-3.332,11.865-6.321,23.633-9.653,35.5a1.519,1.519,0,0,0,1.875,1.82l18.232-5.225Z" transform="translate(-71.004 -183.561)" fill="#ec1b36"/>
                <path id="Trazado_205705" data-name="Trazado 205705" d="M101.063,215.306s1.054-.246.332-3.8c-.868-4.252-1.378-9.969-4.056-9.2s-.085,5.887,1.433,9.953c1.326,3.552,2.292,3.045,2.292,3.045" transform="translate(-74.731 -186.594)" fill="#383636"/>
                <path id="Trazado_205706" data-name="Trazado 205706" d="M102.495,220.464a1.809,1.809,0,1,0,2.237,1.24,1.809,1.809,0,0,0-2.237-1.24" transform="translate(-75.886 -190.783)" fill="#383636"/>
                <path id="Trazado_205707" data-name="Trazado 205707" d="M97.337,202.329c-2.679.768-.085,5.888,1.434,9.953,1.321,3.54,2.285,3.048,2.291,3.045Z" transform="translate(-74.731 -186.615)" fill="#383636"/>
                <path id="Trazado_205708" data-name="Trazado 205708" d="M102.495,220.464a1.809,1.809,0,1,0,2.237,1.24,1.809,1.809,0,0,0-2.237-1.24" transform="translate(-75.886 -190.783)" fill="#383636"/>
                <path id="Trazado_205709" data-name="Trazado 205709" d="M102.5,220.485h0a1.809,1.809,0,0,0,1,3.477Z" transform="translate(-75.886 -190.805)" fill="#383636"/>
              </g>
            </g>
            <g id="Grupo_156260" data-name="Grupo 156260">
              <g id="Grupo_156259" data-name="Grupo 156259" clip-path="url(#clip-path-2)">
                <path id="Trazado_205710" data-name="Trazado 205710" d="M258.875,160.744l43.658,13.879a1.8,1.8,0,0,1,1.172,2.265l-7.447,23.425a1.8,1.8,0,0,1-2.265,1.172l-43.658-13.879a1.8,1.8,0,0,1-1.172-2.263l7.447-23.426a1.8,1.8,0,0,1,2.265-1.172" transform="translate(-57.47 -37.069)" fill="#0c964e"/>
                <path id="Trazado_205711" data-name="Trazado 205711" d="M264.72,167.3l-6.073,19.1-5.2,1.91,13.851,4.4,5.2-1.91,6.073-19.1Z" transform="translate(-58.478 -38.602)" fill="#fff"/>
                <path id="Trazado_205712" data-name="Trazado 205712" d="M276.323,179.991a1.677,1.677,0,1,0-1.09-2.105,1.675,1.675,0,0,0,1.09,2.105" transform="translate(-63.487 -40.774)" fill="#0c964e"/>
                <path id="Trazado_205713" data-name="Trazado 205713" d="M276.23,180.094a1.834,1.834,0,1,1,2.3-1.192,1.834,1.834,0,0,1-2.3,1.192m1.016-3.2a1.52,1.52,0,1,0,.988,1.909,1.52,1.52,0,0,0-.988-1.909" transform="translate(-63.44 -40.727)" fill="#fff"/>
                <path id="Trazado_205714" data-name="Trazado 205714" d="M274.619,184.092l-2.739-.578-.675-3.457a.864.864,0,0,0-.4-.575l-.484-.29-2.556-1.532a.863.863,0,0,0-.721-.076l-3.439,1.169a.863.863,0,0,0,.555,1.633l3.061-1.041,1.15.689-6.156,4.763-4.062-1.518a.862.862,0,0,0-.6,1.615l4.512,1.685.042.015a.863.863,0,0,0,.788-.139l2.059-1.593,1.735,2.344-1.159,3.645a.862.862,0,1,0,1.643.522l1.292-4.063a.863.863,0,0,0-.128-.775l-1.35-1.825,2.916-2.359.4,2.055a.862.862,0,0,0,.585.657c.028.008.055.016.084.022l3.3.7a.863.863,0,1,0,.357-1.688" transform="translate(-59.295 -40.963)" fill="#0c964e"/>
                <path id="Trazado_205715" data-name="Trazado 205715" d="M265.989,192.034a1.02,1.02,0,0,1-.662-1.279l1.134-3.568-1.591-2.152-1.932,1.495a1,1,0,0,1-.982.148l-4.51-1.685a1.019,1.019,0,1,1,.713-1.91l3.979,1.487,5.9-4.569-.89-.533-2.992,1.018a1.019,1.019,0,0,1-.656-1.93l3.439-1.169a1.019,1.019,0,0,1,.852.088l3.041,1.822a1.018,1.018,0,0,1,.477.679l.655,3.356,2.636.557a1.019,1.019,0,0,1-.421,1.994l-3.3-.7a1.012,1.012,0,0,1-.791-.8l-.351-1.8-2.6,2.1,1.261,1.7a1.024,1.024,0,0,1,.152.915l-1.292,4.063a1.02,1.02,0,0,1-1.279.662m-1.059-7.442,1.877,2.538-1.182,3.72a.705.705,0,0,0,1.344.428l1.292-4.064a.707.707,0,0,0-.105-.633l-1.439-1.946,3.236-2.618.451,2.312a.7.7,0,0,0,.547.555l3.3.7a.706.706,0,0,0,.292-1.381l-2.84-.6-.694-3.559a.71.71,0,0,0-.33-.472l-3.042-1.821a.7.7,0,0,0-.589-.062l-3.438,1.168a.706.706,0,0,0,.455,1.337l3.129-1.065,1.409.845-6.406,4.957-4.143-1.549a.706.706,0,0,0-.493,1.322l4.544,1.7a.709.709,0,0,0,.645-.113Z" transform="translate(-59.248 -40.916)" fill="#fff"/>
                <path id="Trazado_205716" data-name="Trazado 205716" d="M305.2,193.466l-8.948-9.023-.913,2.872-9.747-3.1-1.742,5.479,9.747,3.1-.913,2.872Z" transform="translate(-65.492 -42.505)" fill="#fff"/>
              </g>
            </g>
            <g id="Grupo_156262" data-name="Grupo 156262" transform="translate(86.945 12.161)">
              <g id="Grupo_156261" data-name="Grupo 156261" transform="translate(0 0)" clip-path="url(#clip-path-7)">
                <path id="Trazado_205717" data-name="Trazado 205717" d="M119.244,16.144l30.2,2.786a2.848,2.848,0,0,1,2.576,3.1l-2.786,30.2a2.849,2.849,0,0,1-3.1,2.575l-30.2-2.786a2.849,2.849,0,0,1-2.575-3.1l2.786-30.2a2.849,2.849,0,0,1,3.1-2.575" transform="translate(-113.098 -15.883)" fill="#0083cb"/>
                <path id="Trazado_205718" data-name="Trazado 205718" d="M145.537,53.742l-27.843-2.569a2.624,2.624,0,0,1-2.37-2.852l2.569-27.843a2.625,2.625,0,0,1,2.852-2.37l27.843,2.569a2.625,2.625,0,0,1,2.37,2.852l-2.569,27.843a2.624,2.624,0,0,1-2.852,2.369m-24.878-34.7a1.684,1.684,0,0,0-1.83,1.522l-2.569,27.843a1.685,1.685,0,0,0,1.522,1.831l27.842,2.569a1.685,1.685,0,0,0,1.831-1.522l2.569-27.842a1.683,1.683,0,0,0-1.521-1.831Z" transform="translate(-113.551 -16.336)" fill="#fff"/>
                <path id="Trazado_205719" data-name="Trazado 205719" d="M133.222,54.017a8.079,8.079,0,0,1-2.794-15.307.825.825,0,1,1,.724,1.482,6.43,6.43,0,1,0,8.994,7.555.824.824,0,0,1,1.585.452,8.079,8.079,0,0,1-8.51,5.818" transform="translate(-115.991 -21.073)" fill="#fff"/>
                <path id="Trazado_205720" data-name="Trazado 205720" d="M138.607,42.415a2,2,0,0,1-2.36,1.459c-1.217-.112-2.163-.653-2.051-1.865l.816-8.85A2,2,0,0,1,137.37,31.7c1.219.112,2.138.947,2.053,1.865Z" transform="translate(-117.906 -19.472)" fill="#fff"/>
                <path id="Trazado_205721" data-name="Trazado 205721" d="M136.622,46.56a1.669,1.669,0,1,1,.246-3.329l6.794.5a1.669,1.669,0,1,1-.246,3.329Z" transform="translate(-118.111 -22.134)" fill="#fff"/>
                <path id="Trazado_205722" data-name="Trazado 205722" d="M150.149,54.229a1.044,1.044,0,0,1-1.359-.576l-3.175-7.866a1.043,1.043,0,0,1,1.935-.78l3.176,7.867a1.044,1.044,0,0,1-.577,1.356" transform="translate(-120.526 -22.396)" fill="#fff"/>
                <path id="Trazado_205723" data-name="Trazado 205723" d="M145.716,38.656a.974.974,0,0,1-1.058.881l-6.233-.575a.974.974,0,0,1,.178-1.939l6.233.575a.972.972,0,0,1,.879,1.057h0" transform="translate(-118.68 -20.702)" fill="#fff"/>
                <path id="Trazado_205724" data-name="Trazado 205724" d="M140.526,27.245a2.642,2.642,0,1,1-2.389-2.874,2.641,2.641,0,0,1,2.389,2.874" transform="translate(-118.152 -17.781)" fill="#fff"/>
                <path id="Trazado_205725" data-name="Trazado 205725" d="M153.793,54.976a.707.707,0,0,1-.447.895l-2.52.848a.707.707,0,0,1-.468-1.335l.017-.005,2.522-.848a.707.707,0,0,1,.9.445" transform="translate(-121.528 -24.734)" fill="#fff"/>
              </g>
            </g>
          </g>
        </g>
        <path id="Trazado_205726" data-name="Trazado 205726" d="M1.408,41.84A248.445,248.445,0,0,0,23.8,62.8,182.907,182.907,0,0,0,49.08,80.278,132.843,132.843,0,0,0,77.826,92.623a93.572,93.572,0,0,0,15.856,3.143c1.367.119,2.734.27,4.12.313.692.03,1.383.073,2.078.088l2.093.009c1.405.013,2.758-.046,4.147-.071,1.372-.084,2.757-.14,4.127-.274,11.018-.959,21.69-4.035,31.626-7.9,9.968-3.872,19.289-8.545,28.257-13.019,4.481-2.246,8.893-4.431,13.232-6.463,2.173-1.027,4.323-1.988,6.463-2.929,1.067-.45,2.133-.92,3.192-1.347l3.282-1.332c9.139-3.7,18.071-7.142,26.866-9.889,4.394-1.376,8.745-2.578,13.022-3.543,2.138-.483,4.258-.91,6.352-1.268s4.165-.627,6.2-.835a59.7,59.7,0,0,1,21.923,1.326,39.888,39.888,0,0,1,4.479,1.537c.713.288,1.4.608,2.083.931l1,.506c.3.171.6.329.9.509a31.334,31.334,0,0,1,6.494,5.044c.48.492.95.992,1.4,1.514l1.734,1.949c.6.672,1.135,1.374,1.707,2.046.551.685,1.053,1.39,1.585,2.07a52.434,52.434,0,0,1,5.067,8.484,46.975,46.975,0,0,1,3.165,8.717,47.468,47.468,0,0,1,1.421,9.044,68.024,68.024,0,0,1-1.731,19.407,101.82,101.82,0,0,1-7.183,20.446,109.665,109.665,0,0,1-5.275,9.938c-.954,1.6-1.942,3.157-2.933,4.626-.494.728-1,1.433-1.478,2.071-.239.317-.478.625-.692.875a4.236,4.236,0,0,1-.3.327c-.037.03-.09.091-.106.083l-.018,0s-.022.022.005-.036l.1-.237a42.7,42.7,0,0,0,73.962,42.69l.335-.643.214-.439.342-.735.585-1.318c.368-.849.7-1.647,1.019-2.441.639-1.582,1.222-3.116,1.788-4.638,1.117-3.038,2.128-6.033,3.064-9.037,1.868-6,3.425-12.037,4.741-18.166a177.856,177.856,0,0,0,4.056-38.054,134.618,134.618,0,0,0-5.961-39.9,117.582,117.582,0,0,0-7.972-19.24,109.348,109.348,0,0,0-11.281-17.348A112.789,112.789,0,0,0,333.154,24.64c-1.244-1.061-2.476-2.14-3.736-3.16-1.271-1-2.527-2.023-3.814-2.972L323.669,17.1c-.659-.476-1.243-.908-2.032-1.454-1.485-1.045-3.01-2.034-4.557-2.982a85.439,85.439,0,0,0-19.789-8.923c-.865-.27-1.741-.508-2.614-.75-.856-.221-1.7-.434-2.55-.636-1.7-.391-3.407-.747-5.114-1.035A90.758,90.758,0,0,0,276.824.148a98.41,98.41,0,0,0-19.536.881,118.682,118.682,0,0,0-17.832,4.017,180.981,180.981,0,0,0-31.034,13.036c-9.539,5-18.429,10.44-26.984,15.834L178.1,36.03c-1.145.725-2.25,1.468-3.371,2.2-2.2,1.484-4.381,2.976-6.489,4.481-4.241,3.006-8.3,6.036-12.309,8.979-8,5.9-15.719,11.568-23.674,16.363a94.488,94.488,0,0,1-24.788,10.958c-1.079.3-2.168.522-3.258.784l-1.644.318-.825.161c-.274.048-.543.075-.815.114l-1.632.22c-.547.063-1.1.1-1.651.154-1.1.123-2.221.144-3.34.2-1.121.036-2.251.033-3.384.029-1.135-.053-2.273-.041-3.415-.145l-1.716-.12c-.573-.044-1.146-.117-1.719-.176-1.148-.112-2.294-.286-3.443-.46-1.152-.15-2.294-.4-3.446-.6-1.148-.22-2.291-.487-3.44-.733-1.136-.3-2.28-.582-3.417-.9-1.13-.343-2.274-.645-3.4-1.02-2.262-.713-4.5-1.523-6.714-2.414-1.109-.441-2.217-.886-3.31-1.375l-1.645-.721-1.622-.774A121.4,121.4,0,0,1,29.256,56.106,119.116,119.116,0,0,1,9.1,35.316a5.053,5.053,0,1,0-7.717,6.5Z" transform="translate(361.166 6651.2) rotate(21)" fill="url(#linear-gradient)"/>
      </g>
    </g>
  </g>
</svg>
