<svg xmlns="http://www.w3.org/2000/svg" xmlns:xlink="http://www.w3.org/1999/xlink" width="190" height="330" viewBox="0 0 190 330">
  <defs>
    <clipPath id="clip-path">
      <rect id="Rectángulo_46366" data-name="Rectángulo 46366" width="190" height="330" transform="translate(285.001 9250)" fill="#fff" stroke="#707070" stroke-width="1"/>
    </clipPath>
    <clipPath id="clip-path-2">
      <path id="Trazado_204958" data-name="Trazado 204958" d="M40.58,90.378c-4.609,8.148-10.658,16.853-13.307,27.211C24.2,129.6,6.636,231.676,5.188,253.528c3.785.912,9.462.322,11.853.189C24.652,231.91,47.65,152.034,50.914,138.3c.5-2.111,3.764-1.647,3.51.507-1.853,15.689,2.868,73.608,2.868,116.638,1.985,1.011,10.614.287,12.907,0,2.494-26.91,16.295-129.966-3.684-162.988-8.169-1.126-15.058-2.118-23.046-2.118-.946,0-1.907.014-2.888.043" transform="translate(-5.188 -90.335)" fill="none"/>
    </clipPath>
  </defs>
  <g id="Enmascarar_grupo_155" data-name="Enmascarar grupo 155" transform="translate(-285.001 -9250)" clip-path="url(#clip-path)">
    <g id="Grupo_155483" data-name="Grupo 155483" transform="translate(285.485 9249.528)">
      <ellipse id="Elipse_4784" data-name="Elipse 4784" cx="94" cy="165" rx="94" ry="165" transform="translate(-0.485 0.471)" fill="#8c6df2" opacity="0.25"/>
    </g>
    <path id="Trazado_204967" data-name="Trazado 204967" d="M.911,112.762A162.151,162.151,0,0,1,15.4,98.915,118.313,118.313,0,0,1,31.757,87.37a85.035,85.035,0,0,1,18.6-8.155,59.451,59.451,0,0,1,10.26-2.076c.885-.078,1.769-.178,2.666-.207.448-.02.895-.048,1.345-.058l1.354-.006c.909-.009,1.785.03,2.683.047.888.056,1.784.093,2.67.181A73.469,73.469,0,0,1,91.8,82.316c6.45,2.558,12.481,5.645,18.283,8.6,2.9,1.484,5.754,2.927,8.562,4.269,1.406.678,2.8,1.314,4.182,1.935.69.3,1.38.607,2.065.89l2.123.88c5.914,2.443,11.693,4.718,17.383,6.533,2.843.909,5.658,1.7,8.426,2.341,1.384.319,2.755.6,4.11.838s2.7.414,4.011.551a37.858,37.858,0,0,0,14.186-.876,25.446,25.446,0,0,0,2.9-1.016c.461-.19.908-.4,1.348-.615l.648-.334c.194-.113.39-.217.581-.336a20.337,20.337,0,0,0,4.2-3.332c.311-.325.615-.655.9-1l1.122-1.287c.388-.444.734-.908,1.1-1.352s.681-.918,1.026-1.368a34.8,34.8,0,0,0,3.278-5.6,31.455,31.455,0,0,0,2.048-5.758,31.964,31.964,0,0,0,.919-5.975,45.848,45.848,0,0,0-1.12-12.821,68.21,68.21,0,0,0-4.648-13.507,72.974,72.974,0,0,0-3.413-6.565c-.618-1.055-1.257-2.086-1.9-3.056-.32-.481-.645-.946-.956-1.368-.155-.209-.31-.413-.448-.578a2.783,2.783,0,0,0-.191-.216c-.024-.02-.058-.06-.068-.055l-.012,0s-.014-.015,0,.024l.068.156A28.532,28.532,0,0,1,192.64,3.782a27.321,27.321,0,0,1,37.74,10.329l.217.425.138.29.222.486.378.871c.238.561.452,1.088.66,1.612.414,1.045.791,2.058,1.157,3.064.722,2.007,1.377,3.986,1.983,5.97,1.209,3.965,2.216,7.952,3.068,12a119.861,119.861,0,0,1,2.625,25.139,90.654,90.654,0,0,1-3.857,26.359,78.592,78.592,0,0,1-5.158,12.71,72.414,72.414,0,0,1-7.3,11.46,73.883,73.883,0,0,1-8.945,9.627c-.805.7-1.6,1.414-2.417,2.087s-1.635,1.337-2.468,1.964l-1.252.932c-.426.314-.8.6-1.315.961-.961.69-1.947,1.344-2.949,1.97a54.737,54.737,0,0,1-12.8,5.895c-.56.179-1.127.336-1.691.5s-1.1.287-1.65.42c-1.1.258-2.2.493-3.309.684a57.572,57.572,0,0,1-6.592.771,62.385,62.385,0,0,1-12.641-.582,75.453,75.453,0,0,1-11.538-2.654,115.805,115.805,0,0,1-20.08-8.612c-6.172-3.3-11.925-6.9-17.46-10.46l-2.159-1.4c-.741-.479-1.456-.97-2.181-1.455-1.426-.98-2.835-1.966-4.2-2.96-2.744-1.985-5.372-3.987-7.965-5.932-5.178-3.9-10.171-7.642-15.318-10.81A60.513,60.513,0,0,0,69.538,88.2c-.7-.2-1.4-.345-2.108-.518l-1.064-.21-.534-.106c-.177-.032-.351-.05-.527-.075l-1.056-.145c-.354-.042-.712-.066-1.068-.1-.713-.081-1.437-.1-2.161-.135-.725-.024-1.457-.021-2.19-.019-.734.035-1.471.027-2.21.1l-1.111.079c-.371.029-.741.078-1.112.116-.743.074-1.484.189-2.228.3-.745.1-1.484.265-2.229.4-.743.146-1.483.322-2.226.484-.735.2-1.475.385-2.211.6-.731.227-1.472.426-2.2.674-1.464.471-2.912,1.006-4.344,1.595-.718.291-1.435.586-2.141.908l-1.064.476-1.049.511A79.858,79.858,0,0,0,5.888,117.072a3.226,3.226,0,0,1-4.577.674,3.384,3.384,0,0,1-.66-4.672,3.306,3.306,0,0,1,.244-.3Z" transform="translate(394.178 9262.737) rotate(68)" fill="#fdb74d"/>
    <g id="Grupo_155774" data-name="Grupo 155774" transform="translate(298.001 9282.438)">
      <g id="Grupo_155769" data-name="Grupo 155769">
        <g id="Grupo_155776" data-name="Grupo 155776">
          <path id="Trazado_204938" data-name="Trazado 204938" d="M121.639,68.076S92.984,98.2,87.894,93.32l9.3-17.547c.039.466,20.1-15.256,20.1-15.256S121.41,50.189,123.01,50.2c1.569.01-1.733,5.888-1.172,6.645s10.367-11.73,11.487-10.217c.6.813-6.135,7.428-5.578,8.5.29.556,7.838-4.19,8.623-3.961,2.192.642-8.383,5.657-7.758,5.975s8.438-4.526,8.554-2.894c.07,1.01-7.183,4.535-7.063,5.226s4.154-1.981,5.469-1.47-5.422,3.855-5.865,4.417a27.574,27.574,0,0,1-8.069,5.658" transform="translate(-11.521 -6.095)" fill="#ffb264"/>
          <path id="Trazado_204939" data-name="Trazado 204939" d="M78,46.058s6.977,2.335,8.643,7.626,9.112,21.173,9.112,21.173L85.719,93.42S56.774,56.458,78,46.058" transform="translate(-9.205 -6.037)" fill="#ffb264"/>
          <path id="Trazado_204940" data-name="Trazado 204940" d="M76.991,44.047C84.5,42.891,88.657,51.64,95.357,67.794L78.21,81.553S53.626,47.641,76.991,44.047" transform="translate(-8.771 -5.76)" fill="#fedc72"/>
          <path id="Trazado_204941" data-name="Trazado 204941" d="M74.686,5.744C71.1,1.264,62.794-1.7,55.958,1.082l-.115.037A10.508,10.508,0,0,0,48.65,11.352,18.826,18.826,0,0,0,50.8,19.638c3.064,5.491,8.879,7.817,14.939,7.467a3.8,3.8,0,0,1,2.952.986l7.044-12.078c.848-1.682,1.044-7.658-1.044-10.268" transform="translate(-6.376 0)" fill="#12263f"/>
          <path id="Trazado_204942" data-name="Trazado 204942" d="M35.889,19.034a6.661,6.661,0,1,1,6.66,6.661,6.66,6.66,0,0,1-6.66-6.661" transform="translate(-4.704 -1.622)" fill="#12263f"/>
          <path id="Trazado_204943" data-name="Trazado 204943" d="M57.976,18.646c-.076.237-.932-1.6-1.167-1.686-.978-.355-3.167-1.372-4.4,1.079-1.25,2.478.7,4.82,2.158,5.432a6.759,6.759,0,0,1,1.985,1.515c1.832,3.563-.584,11.136-.842,14.031-.57,6.4-5.758-.619-5.758-.619S67.255,52.01,69.811,44.4c-2.088-3.656-3.39-15.162-1.555-14.475,2.405.9,7.464-2.131,8.08-13.081-2.807-8.139-6.314-9.4-6.351-10.037-.244,5.687-3.471,9.476-12.008,11.835" transform="translate(-6.547 -0.893)" fill="#ffb264"/>
          <path id="Trazado_204944" data-name="Trazado 204944" d="M53.753,20.938s2.7-2.7,3.1,2.355" transform="translate(-7.046 -2.65)" fill="#e68522"/>
          <path id="Trazado_204945" data-name="Trazado 204945" d="M69.472,33.052s-3.39-1.2-5.548-2.131,3.185,7.955,5.548,2.131" transform="translate(-8.313 -4.044)" fill="#e68522"/>
          <path id="Trazado_204946" data-name="Trazado 204946" d="M65.272,276.076l1.691,12s2.71,7.961,5.228,4.879a24.828,24.828,0,0,1,5.009-4.71l.826-12.479Z" transform="translate(-8.556 -36.147)" fill="#ffb264"/>
          <path id="Trazado_204947" data-name="Trazado 204947" d="M17.477,275.061l-3.735,11.974s-2.843,2.493-3.869,2.429c-1.866-.117-2.846-3.338-2.846-3.338L6.72,275.061Z" transform="translate(-0.881 -36.055)" fill="#ffb264"/>
          <path id="Trazado_204950" data-name="Trazado 204950" d="M40.58,90.378c-4.609,8.148-10.659,16.853-13.308,27.211C24.2,129.6,6.636,231.676,5.188,253.528c3.785.912,9.461.323,11.853.19C24.652,231.91,47.65,152.034,50.913,138.3c.5-2.112,3.765-1.648,3.51.507-1.853,15.689,2.868,73.607,2.868,116.637,1.985,1.011,10.614.288,12.906,0,2.494-26.91,16.3-129.966-3.683-162.988-9.136-1.26-16.671-2.35-25.935-2.074" transform="translate(-0.68 -11.841)" fill="#5038a1"/>
          <rect id="Rectángulo_46365" data-name="Rectángulo 46365" width="190" height="2.333" transform="translate(-13.001 260.794)" fill="#12263f"/>
          <path id="Trazado_204949" data-name="Trazado 204949" d="M6.009,287.3.3,296.866a1.864,1.864,0,0,0,.832,2.7c1.785,1.062,3.244,3.182,4.367,3.212,2.029.057,5.183-2.08,7.023-2.882,1.234-.538,2.2-1.326,2.047-2.358l-1.419-9.59c-.017-.119-.227-.162-.33-.069l-2.185,1.981c-.717.649-2.66.561-3.142-.216-.345-.554-1.153-2.343-1.153-2.343a.225.225,0,0,0-.33.008" transform="translate(0 -37.65)" fill="#5038a1"/>
          <path id="Trazado_204948" data-name="Trazado 204948" d="M78.092,289.758l10.053,8.149c.514.381.147,1.025-.588,1.031l-14.84.121a.868.868,0,0,1-.8-.4L70.8,296.36c-.323-.663-.967-.717-.908-.015l-.548,2.216c.03.349-3.518.254-3.55-.064a62.6,62.6,0,0,1,.569-10.205.74.74,0,0,1,.665-.514h0a1.008,1.008,0,0,1,.83.229c1,.969,4.2,3.885,5.911,3.295a12.554,12.554,0,0,0,3.087-1.512,1.054,1.054,0,0,1,1.233-.03" transform="translate(-8.618 -37.72)" fill="#5038a1"/>
        </g>
      </g>
      <g id="Grupo_155771" data-name="Grupo 155771" transform="translate(4.508 78.494)">
        <g id="Grupo_155770" data-name="Grupo 155770" clip-path="url(#clip-path-2)">
          <path id="Trazado_204951" data-name="Trazado 204951" d="M46.872,88.247c.049,4.186,2.123,7.92,4.226,11.417a60.36,60.36,0,0,0,6.852,9.449c5.061,5.6,11.721,9.8,19.4,10.276a19.389,19.389,0,0,0,11.867-2.953c.349-.229.023-.792-.329-.562-6.242,4.078-14.421,3.55-20.906.308-6.609-3.3-11.528-9.2-15.4-15.347-2.392-3.8-5-7.96-5.058-12.586a.326.326,0,0,0-.652,0" transform="translate(-10.652 -90.02)" fill="#8c6df2"/>
          <path id="Trazado_204952" data-name="Trazado 204952" d="M28.458,111.16c4.183,9.451,8.5,19.247,8.7,29.758a31.747,31.747,0,0,1-2.936,14.539,30.474,30.474,0,0,1-7.927,9.916,42.037,42.037,0,0,1-12.888,7.209c-.393.14-.223.77.173.628,8.205-2.929,15.966-8.144,20.365-15.837,5.115-8.946,4.536-19.811,1.757-29.406a136.608,136.608,0,0,0-6.682-17.136c-.169-.382-.732-.051-.563.329" transform="translate(-6.236 -92.999)" fill="#8c6df2"/>
          <path id="Trazado_204953" data-name="Trazado 204953" d="M84.45,139.773c-7.075,5.106-10.192,14.136-9.574,22.638.723,9.959,6.3,18.913,12.822,26.171,3.822,4.253,8.153,8.158,13.4,10.555.379.173.71-.389.329-.563a38.692,38.692,0,0,1-11.657-8.717,62.681,62.681,0,0,1-8.938-11.611c-4.629-7.9-6.9-17.253-4.16-26.2a22.376,22.376,0,0,1,8.107-11.706c.336-.243.011-.809-.329-.563" transform="translate(-14.313 -96.807)" fill="#8c6df2"/>
          <path id="Trazado_204954" data-name="Trazado 204954" d="M12.366,210.14a54.384,54.384,0,0,1,19.272,23.93c.157.383.788.215.628-.173A55.168,55.168,0,0,0,12.7,209.577c-.346-.239-.673.326-.329.563" transform="translate(-6.11 -105.958)" fill="#8c6df2"/>
          <path id="Trazado_204955" data-name="Trazado 204955" d="M5.211,222.013a75.6,75.6,0,0,1,19.757,38.451A73.892,73.892,0,0,1,26.2,272.95a.326.326,0,0,0,.652,0A76.2,76.2,0,0,0,13.6,231.271a74.843,74.843,0,0,0-7.925-9.719c-.291-.3-.752.158-.461.461" transform="translate(-5.179 -107.522)" fill="#8c6df2"/>
          <path id="Trazado_204956" data-name="Trazado 204956" d="M90.111,216.564c-15.619,10.067-26.15,27.242-28.654,45.6a61.325,61.325,0,0,0-.148,15.551c.05.411.7.416.652,0-2.179-18.285,4.278-37.17,16.717-50.675a60.709,60.709,0,0,1,11.763-9.911c.351-.227.024-.792-.329-.563" transform="translate(-12.489 -106.874)" fill="#8c6df2"/>
          <path id="Trazado_204957" data-name="Trazado 204957" d="M77.576,281.355c-1.055-2.591-2.1-5.333-2.012-8.177a10.7,10.7,0,0,1,3.456-7.135,49.8,49.8,0,0,1,13.258-9.015c.375-.187.046-.749-.328-.562a61.969,61.969,0,0,0-7.824,4.624,34.588,34.588,0,0,0-6.287,5.261,10.873,10.873,0,0,0-2.92,6.632c-.152,2.967.931,5.846,2.03,8.546.156.384.786.216.628-.173" transform="translate(-14.326 -112.106)" fill="#8c6df2"/>
        </g>
      </g>
      <g id="Grupo_155773" data-name="Grupo 155773">
        <g id="Grupo_155775" data-name="Grupo 155775">
          <path id="Trazado_204959" data-name="Trazado 204959" d="M66.082,42.536c.9.717,9.358,20.684,9.042,27.01-.32,6.373,3,18.528,3,18.528s-10.32,3.874-37.6-.421c-6.736-14.523-10.583-31.635-1.6-40.685,0,0,12.34-7.765,14.653-7.935,0,0,8.175,11.836,11.545,11.788,1.533-.022,1.137-6.021.964-8.283" transform="translate(-4.412 -5.116)" fill="#fedc72"/>
          <path id="Trazado_204960" data-name="Trazado 204960" d="M55.011,39.013,55.2,34.2l17.337,4.238-1.156,5.586s5.779,13.292-1.541,11.173S55.011,39.013,55.011,39.013" transform="translate(-7.211 -4.483)" fill="#fedc72"/>
          <path id="Trazado_204961" data-name="Trazado 204961" d="M41.815,56.285C43.5,64.933,47,73.156,49.408,81.616c.854,2.994,1.671,6,2.47,9.006-3.152-.318-6.78-.783-10.964-1.442-5.332-11.5-5.646-27.735-1.093-38.5l1.993,5.6" transform="translate(-4.803 -6.644)" fill="#39194b"/>
          <path id="Trazado_204962" data-name="Trazado 204962" d="M75.781,102.462s-37.61,7.426-39.68.685L33.438,82.153l16.436-4.792L51.8,92.348c-.193.426,28.709,3.38,28.709,3.38s5.852-.05,9.144,1.532c.174.083,6.646,4.912,8.668,7.8L86,105.944c-1.3-.027-10.221-3.483-10.221-3.483" transform="translate(-4.383 -10.14)" fill="#ffb264"/>
          <path id="Trazado_204963" data-name="Trazado 204963" d="M45.439,46.267s5.911,4.294,4.791,9.728-.416,18.5-.416,18.5l-17.4,4.481S21.833,45.017,45.439,46.267" transform="translate(-3.939 -6.06)" fill="#fedc72"/>
          <rect id="Rectángulo_46363" data-name="Rectángulo 46363" width="33.892" height="3.974" transform="translate(55.213 93.907)" fill="#5038a1"/>
          <path id="Trazado_204964" data-name="Trazado 204964" d="M63.542,108.073H85.687l-1.742,3.974h-20.4Z" transform="translate(-8.329 -14.166)" fill="#8c6df2"/>
          <path id="Trazado_204965" data-name="Trazado 204965" d="M143.244,107.089H89.827l12.894-36.839h53.417Z" transform="translate(-11.774 -9.208)" fill="#8c6df2"/>
          <path id="Trazado_204966" data-name="Trazado 204966" d="M130.588,92.134a3.354,3.354,0,1,0-3.353,3.354,3.354,3.354,0,0,0,3.353-3.354" transform="translate(-16.238 -11.637)" fill="#fff"/>
          <rect id="Rectángulo_46364" data-name="Rectángulo 46364" width="118.709" height="5.333" transform="translate(45.876 97.867)" fill="#12263f"/>
        </g>
      </g>
    </g>
  </g>
</svg>
