<svg xmlns="http://www.w3.org/2000/svg" xmlns:xlink="http://www.w3.org/1999/xlink" width="505" height="390" viewBox="0 0 505 390">
  <defs>
    <clipPath id="clip-path">
      <rect id="Rectángulo_46360" data-name="Rectángulo 46360" width="505" height="390" transform="translate(-3725.499 -2838.032)" fill="none" stroke="#707070" stroke-width="1"/>
    </clipPath>
    <clipPath id="clip-path-2">
      <rect id="Rectángulo_46359" data-name="Rectángulo 46359" width="650.99" height="751.751" fill="none"/>
    </clipPath>
    <clipPath id="clip-path-4">
      <rect id="Rectángulo_46300" data-name="Rectángulo 46300" width="488.164" height="71.7" fill="none"/>
    </clipPath>
    <clipPath id="clip-path-5">
      <rect id="Rectángulo_46301" data-name="Rectángulo 46301" width="376.002" height="150.708" fill="#727997"/>
    </clipPath>
    <clipPath id="clip-path-6">
      <path id="Rectángulo_46311" data-name="Rectángulo 46311" d="M5.563,0H132.177a5.566,5.566,0,0,1,5.566,5.566V233.157a5.564,5.564,0,0,1-5.564,5.564H5.564A5.564,5.564,0,0,1,0,233.157V5.563A5.563,5.563,0,0,1,5.563,0Z" fill="none"/>
    </clipPath>
    <clipPath id="clip-path-7">
      <rect id="Rectángulo_46310" data-name="Rectángulo 46310" width="487.602" height="605.486" fill="none"/>
    </clipPath>
    <clipPath id="clip-path-9">
      <rect id="Rectángulo_46312" data-name="Rectángulo 46312" width="17.994" height="17.352" fill="none"/>
    </clipPath>
    <clipPath id="clip-path-10">
      <rect id="Rectángulo_46313" data-name="Rectángulo 46313" width="113.941" height="164.735" fill="none"/>
    </clipPath>
    <clipPath id="clip-path-11">
      <path id="Trazado_204881" data-name="Trazado 204881" d="M250.551,251.892A13.753,13.753,0,0,0,236.6,265.349v51.3A13.752,13.752,0,0,0,250.551,330.1h99.215a13.75,13.75,0,0,0,13.947-13.455v-51.3a13.75,13.75,0,0,0-13.947-13.457Z" transform="translate(-236.597 -251.892)" fill="none"/>
    </clipPath>
    <clipPath id="clip-path-12">
      <rect id="Rectángulo_46326" data-name="Rectángulo 46326" width="487.599" height="605.488" fill="none"/>
    </clipPath>
    <clipPath id="clip-path-14">
      <rect id="Rectángulo_46330" data-name="Rectángulo 46330" width="20.927" height="19.258" fill="none"/>
    </clipPath>
    <clipPath id="clip-path-15">
      <rect id="Rectángulo_46329" data-name="Rectángulo 46329" width="13.312" height="12.839" fill="none"/>
    </clipPath>
    <clipPath id="clip-path-16">
      <path id="Trazado_204885" data-name="Trazado 204885" d="M119.343,242.035c0,18.98,15.953,34.368,35.634,34.368s35.64-15.388,35.64-34.368-15.955-34.368-35.64-34.368-35.634,15.387-35.634,34.368" transform="translate(-119.343 -207.667)" fill="none"/>
    </clipPath>
    <clipPath id="clip-path-17">
      <rect id="Rectángulo_46341" data-name="Rectángulo 46341" width="487.603" height="605.486" fill="none"/>
    </clipPath>
    <clipPath id="clip-path-19">
      <path id="Trazado_204894" data-name="Trazado 204894" d="M234.784,349.669c4.429,43.533,42.74,66.884,42.74,66.884s38.311-23.351,42.738-66.884c0,0-21.443-3.3-42.738-20.434-21.294,17.133-42.74,20.434-42.74,20.434" transform="translate(-234.784 -329.235)" fill="none"/>
    </clipPath>
    <clipPath id="clip-path-20">
      <rect id="Rectángulo_46355" data-name="Rectángulo 46355" width="487.601" height="605.487" fill="none"/>
    </clipPath>
    <clipPath id="clip-path-22">
      <rect id="Rectángulo_46361" data-name="Rectángulo 46361" width="85" height="162" transform="translate(180.001 9040)" fill="#fff" stroke="#707070" stroke-width="1"/>
    </clipPath>
  </defs>
  <g id="Grupo_155767" data-name="Grupo 155767" transform="translate(-180.001 -8812.001)">
    <path id="Trazado_116171" data-name="Trazado 116171" d="M245.228,29.814A170.008,170.008,0,0,1,230.42,44.749,121.159,121.159,0,0,1,213.7,57.2,84.663,84.663,0,0,1,194.687,66a57.983,57.983,0,0,1-10.487,2.24c-.9.084-1.808.192-2.725.223-.457.021-.914.052-1.375.063l-1.384.006c-.929.01-1.824-.033-2.742-.051-.907-.06-1.823-.1-2.729-.2a71.942,71.942,0,0,1-20.917-5.631c-6.592-2.759-12.757-6.089-18.688-9.277-2.963-1.6-5.881-3.158-8.751-4.605-1.437-.732-2.859-1.417-4.274-2.087-.705-.321-1.411-.655-2.111-.96l-2.17-.949c-6.044-2.635-11.952-5.089-17.768-7.047-2.906-.98-5.783-1.837-8.612-2.525-1.414-.344-2.816-.649-4.2-.9s-2.755-.446-4.1-.595a36.733,36.733,0,0,0-14.5.945,25.114,25.114,0,0,0-2.962,1.1c-.472.205-.928.433-1.378.663l-.662.36c-.2.122-.4.234-.594.363a21.01,21.01,0,0,0-4.3,3.595c-.318.351-.628.707-.923,1.079L55.193,43.2c-.4.479-.751.979-1.129,1.458s-.7.991-1.048,1.475a38.074,38.074,0,0,0-3.351,6.045,35.186,35.186,0,0,0-2.093,6.211,36.25,36.25,0,0,0-.939,6.444,52.1,52.1,0,0,0,1.145,13.829,76.375,76.375,0,0,0,4.751,14.569c1.041,2.415,2.225,4.8,3.489,7.081.631,1.138,1.285,2.25,1.94,3.3.327.519.659,1.021.978,1.476.158.226.316.445.457.623a2.955,2.955,0,0,0,.2.233c.025.021.06.065.07.059l.012,0s.015.016,0-.026L59.6,105.8c7.8,14.553,3.166,33.161-10.341,41.561s-30.779,3.411-38.575-11.142l-.221-.458-.141-.313-.226-.524-.387-.939c-.244-.6-.462-1.174-.674-1.739-.423-1.127-.808-2.22-1.182-3.3-.738-2.164-1.407-4.3-2.027-6.439-1.235-4.277-2.265-8.577-3.136-12.944A136.169,136.169,0,0,1,0,82.445,102.806,102.806,0,0,1,3.944,54.013,87.518,87.518,0,0,1,9.216,40.3a79.114,79.114,0,0,1,16.6-22.745c.823-.756,1.638-1.525,2.471-2.251.841-.711,1.671-1.442,2.523-2.118l1.28-1.005c.436-.339.822-.647,1.344-1.036.982-.745,1.99-1.45,3.014-2.125A54.62,54.62,0,0,1,49.539,2.663c.572-.193,1.152-.362,1.729-.535.566-.157,1.124-.309,1.687-.454,1.126-.278,2.253-.532,3.382-.738A55.894,55.894,0,0,1,63.075.106,60.464,60.464,0,0,1,76,.733,73.723,73.723,0,0,1,87.79,3.6a115.18,115.18,0,0,1,20.525,9.289c6.309,3.561,12.188,7.439,17.847,11.283l2.207,1.506c.757.517,1.488,1.046,2.229,1.57,1.457,1.057,2.9,2.121,4.292,3.193,2.805,2.142,5.491,4.3,8.141,6.4,5.293,4.2,10.4,8.243,15.657,11.66A60.33,60.33,0,0,0,175.082,56.3c.713.212,1.434.372,2.155.558l1.088.227.545.115c.181.034.359.053.539.081l1.079.157c.362.045.727.072,1.092.11.728.087,1.469.1,2.209.146.742.026,1.489.023,2.238.021.75-.038,1.5-.029,2.259-.1l1.135-.086c.379-.031.758-.084,1.137-.125.759-.08,1.517-.2,2.277-.328.762-.107,1.517-.286,2.279-.426.759-.157,1.515-.347,2.275-.522.752-.215,1.508-.415,2.26-.642.747-.244,1.5-.459,2.248-.727,1.5-.508,2.977-1.086,4.44-1.72.733-.314,1.467-.632,2.189-.98l1.088-.514,1.073-.551A79.752,79.752,0,0,0,226.81,39.979,82.393,82.393,0,0,0,240.14,25.164a3.187,3.187,0,0,1,4.678-.727,3.787,3.787,0,0,1,.675,5.04,3.532,3.532,0,0,1-.249.319Z" transform="translate(180.001 9050.557)" fill="#fdb74d"/>
    <g id="Enmascarar_grupo_153" data-name="Enmascarar grupo 153" transform="translate(3905.5 11650.033)" clip-path="url(#clip-path)">
      <g id="Grupo_155766" data-name="Grupo 155766" transform="translate(-3738.535 -3043.033)">
        <g id="Grupo_155765" data-name="Grupo 155765" clip-path="url(#clip-path-2)">
          <g id="Grupo_155724" data-name="Grupo 155724">
            <g id="Grupo_155723" data-name="Grupo 155723" clip-path="url(#clip-path-2)">
              <g id="Grupo_155719" data-name="Grupo 155719" transform="translate(18.886 514.435)" opacity="0.7">
                <g id="Grupo_155718" data-name="Grupo 155718">
                  <g id="Grupo_155717" data-name="Grupo 155717" clip-path="url(#clip-path-4)">
                    <path id="Trazado_204865" data-name="Trazado 204865" d="M502.876,451.389c0,19.8-109.28,35.85-244.082,35.85S14.712,471.188,14.712,451.389s109.28-35.85,244.082-35.85,244.082,16.051,244.082,35.85" transform="translate(-14.712 -415.539)" fill="#d2e1f1"/>
                  </g>
                </g>
              </g>
              <g id="Grupo_155722" data-name="Grupo 155722" transform="translate(75.017 404.303)">
                <g id="Grupo_155721" data-name="Grupo 155721">
                  <g id="Grupo_155720" data-name="Grupo 155720" clip-path="url(#clip-path-5)">
                    <path id="Trazado_204866" data-name="Trazado 204866" d="M380.785,328.795c-5.275-6.958-18.03,7.958-23.788,15.434l-.014.007c-5.49,3.626-10.808,7.468-15.971,11.474,2.861-6.946,20.661-23.639,12.2-28.484-4.28-2.451-8.283,2.279-10.955,10.461-2.2,6.72-1.879,15.456-1.7,18.371a264.781,264.781,0,0,0-20.215,17.454c2.008-6.907,19.2-25.133,10.3-29.484-4.442-2.174-8.105,2.8-10.213,11.139-1.774,7.032-.761,16.006-.4,18.644q-8.784,8.416-16.767,17.57c2.444-8.552,12.693-26.08,4-28.521-4.781-1.343-7.429,4.2-7.9,12.767-.341,6.253,1.65,13.562,2.751,17.065a278.677,278.677,0,0,0-19.674,25.764c1.332-8.314,11.119-27.678,1.968-29.557-4.868-1-7.086,4.713-6.906,13.29.141,6.579,2.938,14.139,4.232,17.313-1.992,2.98-3.953,5.982-5.836,9.034-2.2,3.568-4.368,7.208-6.466,10.9-.263-8.132,6.6-29.416-2.894-29.889-4.97-.25-6.227,5.734-4.647,14.175,1.23,6.549,5.3,13.674,7.075,16.551a199.3,199.3,0,0,0-13.37,28.271c-2.5-6.644.946-31.305-8.983-29.992-4.932.652-5.005,6.757-1.816,14.766,2.695,6.749,8.819,13.563,10.68,15.546q-1.188,3.22-2.209,6.471c-.562,1.8,2.28,2.8,2.84,1,.8-2.558,1.692-5.1,2.65-7.622,3.427-.682,11.575-2.581,17.39-6.095,7.537-4.561,11.276-9.488,7.737-12.864-6.73-6.42-18.331,12.6-24.765,18a206.3,206.3,0,0,1,12.706-26.377c2.823-.007,12.112-.245,19.062-2.856,8.289-3.125,12.914-7.287,10.094-11.245-5.662-7.936-22.159,10.992-28.972,13.78,1.852-3.287,3.756-6.529,5.682-9.718,2.09-3.464,4.28-6.87,6.528-10.237,2.514.385,12.018,1.665,19.5.1,8.692-1.819,13.942-5.229,11.8-9.564-4.358-8.831-24.261,7.971-31.175,9.264a269.743,269.743,0,0,1,19.781-26.059c1.321.313,11.7,2.717,19.936,1.6,8.811-1.2,14.307-4.231,12.5-8.707-3.789-9.4-26.13,7.214-32.406,7.069q8.729-10.141,18.464-19.4c3.089,1.278,11.092,4.311,18.1,4.623,8.883.391,14.864-1.6,13.95-6.326-1.78-9.185-23.51.743-31.565,1.242q9.46-8.96,19.82-16.982c2.906,1.435,10.8,5.062,17.86,5.83,8.841.959,14.949-.649,14.36-5.419-1.154-9.336-23.788-.657-31.729-.784q7.1-5.478,14.589-10.494c8.994-2.477,29.753-9.12,22.787-18.3" transform="translate(-6.186 -326.579)" fill="#727997"/>
                    <path id="Trazado_204867" data-name="Trazado 204867" d="M347.22,401.535c-7-15.633-39.991,2.667-56.493,14.53-26.1,18.763-31.429,41.748-31.429,41.748,39.984-3.359,96.956-36.1,87.923-56.278m-5.136,12.957a1.246,1.246,0,0,1-.315-.041,38.25,38.25,0,0,0-9.782-1.1c-3.58,0-7.154.317-10.51.646-4,2.123-8.114,4.509-12.265,7.11a53.915,53.915,0,0,1,21.4,1.717,1.063,1.063,0,0,1,.792,1.193,1.131,1.131,0,0,1-1.443.91,53.172,53.172,0,0,0-14.393-2.04,43.405,43.405,0,0,0-11.327,1.439l-.058.016c-4.236,2.8-8.647,5.9-13.42,9.431,8.775-2.626,17.053-3.491,24.308-2.519a1.148,1.148,0,0,1,1.013,1.226,1.025,1.025,0,0,1-1.045.969l-.167-.01c-8.669-1.164-19.138.464-29.782,4.6-4.289,3.272-8.141,6.334-11.7,9.3a86.077,86.077,0,0,1,21.98-3.51h0a1.067,1.067,0,0,1,1.126,1.055,1.125,1.125,0,0,1-1.117,1.14,81.485,81.485,0,0,0-26.439,5.12l-.031.021c-1.375,1.2-2.756,2.419-4.114,3.667a1.133,1.133,0,0,1-.766.3,1.176,1.176,0,0,1-1.077-.721,1.032,1.032,0,0,1,.273-1.175c1.6-1.471,3.293-2.972,5.166-4.592,5.322-4.987,9.564-12.427,11.924-20.933a1.071,1.071,0,0,1,1.06-.791,1.216,1.216,0,0,1,.945.443,1.052,1.052,0,0,1,.191.943,53.766,53.766,0,0,1-5.673,13.318c2.279-1.822,4.655-3.671,7.1-5.521a40.94,40.94,0,0,0,12.89-21.493,1.054,1.054,0,0,1,1.048-.817,1.223,1.223,0,0,1,.94.437,1.065,1.065,0,0,1,.213.935,45.135,45.135,0,0,1-6.381,14.507c3.747-2.691,7.249-5.108,10.623-7.331a31.654,31.654,0,0,0,7.837-15.959,1.166,1.166,0,0,1,1.186-.977,1.126,1.126,0,0,1,.842.354.987.987,0,0,1,.238.818,31.879,31.879,0,0,1-4.73,12.318c4.309-2.686,8.456-5.071,12.6-7.252a26.513,26.513,0,0,0,10.714-13.271,1.12,1.12,0,0,1,1.074-.742,1.189,1.189,0,0,1,.959.463,1.011,1.011,0,0,1,.132.954,27.661,27.661,0,0,1-5.117,8.766c3.89-1.788,7.655-3.324,11.434-4.665a1.072,1.072,0,0,1,1.43.813,1.118,1.118,0,0,1-.746,1.275,141.59,141.59,0,0,0-14.493,6.119c1.677-.113,3.517-.2,5.375-.2a40.5,40.5,0,0,1,10.38,1.177,1.048,1.048,0,0,1,.807,1.175,1.12,1.12,0,0,1-1.119.977" transform="translate(-1.452 -310.177)" fill="#727997"/>
                    <path id="Trazado_204868" data-name="Trazado 204868" d="M59.841,328.795c5.275-6.958,18.03,7.958,23.788,15.434l.014.007c5.49,3.626,10.808,7.468,15.971,11.474-2.861-6.946-20.661-23.639-12.2-28.484,4.28-2.451,8.281,2.279,10.954,10.461,2.2,6.72,1.879,15.456,1.7,18.371a264.784,264.784,0,0,1,20.215,17.454c-2.008-6.907-19.2-25.133-10.3-29.484,4.442-2.174,8.105,2.8,10.213,11.139,1.774,7.032.761,16.006.4,18.644q8.784,8.416,16.766,17.57c-2.444-8.552-12.693-26.08-4-28.521,4.781-1.343,7.429,4.2,7.9,12.767.341,6.253-1.648,13.562-2.751,17.065a278.68,278.68,0,0,1,19.674,25.764c-1.332-8.314-11.119-27.678-1.968-29.557,4.868-1,7.086,4.713,6.906,13.29-.141,6.579-2.938,14.139-4.232,17.313,1.992,2.98,3.953,5.982,5.836,9.034,2.2,3.568,4.368,7.208,6.466,10.9.263-8.132-6.6-29.416,2.893-29.889,4.971-.25,6.227,5.734,4.647,14.175-1.23,6.549-5.3,13.674-7.075,16.551a199.293,199.293,0,0,1,13.37,28.271c2.5-6.644-.946-31.305,8.983-29.992,4.932.652,5.005,6.757,1.818,14.766-2.7,6.749-8.82,13.563-10.682,15.546q1.188,3.22,2.209,6.471c.562,1.8-2.279,2.8-2.84,1-.8-2.558-1.692-5.1-2.648-7.622-3.429-.682-11.576-2.581-17.392-6.095-7.538-4.561-11.276-9.488-7.737-12.864,6.73-6.42,18.331,12.6,24.765,18A206.308,206.308,0,0,0,168.8,441.377c-2.823-.007-12.112-.245-19.062-2.856-8.289-3.125-12.914-7.287-10.094-11.245,5.662-7.936,22.159,10.992,28.972,13.78-1.852-3.287-3.755-6.529-5.68-9.718-2.092-3.464-4.28-6.87-6.528-10.237-2.515.385-12.019,1.665-19.5.1-8.692-1.819-13.942-5.229-11.8-9.564,4.358-8.831,24.261,7.971,31.175,9.264a269.735,269.735,0,0,0-19.781-26.059c-1.321.313-11.7,2.717-19.936,1.6-8.811-1.2-14.307-4.231-12.5-8.707,3.789-9.4,26.13,7.214,32.406,7.069q-8.729-10.141-18.464-19.4c-3.089,1.278-11.093,4.311-18.1,4.623-8.883.391-14.864-1.6-13.95-6.326,1.781-9.185,23.51.743,31.565,1.242q-9.46-8.96-19.82-16.982c-2.906,1.435-10.8,5.062-17.86,5.83-8.841.959-14.949-.649-14.36-5.419,1.154-9.336,23.788-.657,31.729-.784q-7.1-5.478-14.589-10.494c-8.994-2.477-29.753-9.12-22.787-18.3" transform="translate(-58.438 -326.579)" fill="#727997"/>
                    <path id="Trazado_204869" data-name="Trazado 204869" d="M170.125,457.813s-5.333-22.985-31.429-41.748C122.195,404.2,89.2,385.9,82.2,401.535c-9.033,20.181,47.939,52.919,87.922,56.278m-83.906-44.3a1.049,1.049,0,0,1,.807-1.175,40.5,40.5,0,0,1,10.38-1.177c1.858,0,3.7.084,5.375.2a141.588,141.588,0,0,0-14.493-6.119,1.118,1.118,0,0,1-.746-1.275,1.072,1.072,0,0,1,1.43-.813c3.779,1.341,7.546,2.877,11.434,4.665a27.661,27.661,0,0,1-5.117-8.766,1.011,1.011,0,0,1,.132-.954,1.192,1.192,0,0,1,.959-.463,1.12,1.12,0,0,1,1.074.742,26.513,26.513,0,0,0,10.714,13.271c4.149,2.181,8.3,4.566,12.6,7.252a31.878,31.878,0,0,1-4.73-12.318.987.987,0,0,1,.237-.818,1.128,1.128,0,0,1,.842-.354,1.165,1.165,0,0,1,1.186.977,31.645,31.645,0,0,0,7.838,15.959c3.374,2.223,6.874,4.64,10.621,7.331a45.134,45.134,0,0,1-6.381-14.507,1.065,1.065,0,0,1,.213-.935,1.223,1.223,0,0,1,.94-.437,1.054,1.054,0,0,1,1.048.817,40.94,40.94,0,0,0,12.89,21.493c2.443,1.851,4.819,3.7,7.1,5.521a53.767,53.767,0,0,1-5.673-13.318,1.052,1.052,0,0,1,.191-.943,1.216,1.216,0,0,1,.945-.443,1.071,1.071,0,0,1,1.06.791c2.361,8.506,6.6,15.947,11.924,20.933,1.873,1.619,3.562,3.121,5.166,4.592a1.028,1.028,0,0,1,.273,1.175,1.176,1.176,0,0,1-1.077.721,1.133,1.133,0,0,1-.766-.3c-1.357-1.248-2.739-2.47-4.114-3.667l-.031-.02a81.447,81.447,0,0,0-26.439-5.122,1.125,1.125,0,0,1-1.117-1.14,1.068,1.068,0,0,1,1.126-1.055h0a86.076,86.076,0,0,1,21.98,3.51c-3.557-2.964-7.41-6.025-11.7-9.3-10.646-4.137-21.114-5.765-29.782-4.6l-.167.01a1.025,1.025,0,0,1-1.046-.969,1.148,1.148,0,0,1,1.013-1.226c7.256-.972,15.533-.106,24.308,2.519-4.773-3.53-9.184-6.628-13.42-9.431l-.058-.016a43.4,43.4,0,0,0-11.327-1.439,53.156,53.156,0,0,0-14.392,2.04,1.131,1.131,0,0,1-1.443-.91,1.061,1.061,0,0,1,.791-1.193,53.922,53.922,0,0,1,21.406-1.717c-4.152-2.6-8.266-4.987-12.266-7.11-3.356-.329-6.929-.646-10.51-.646a38.251,38.251,0,0,0-9.782,1.1,1.245,1.245,0,0,1-.315.041,1.121,1.121,0,0,1-1.119-.977" transform="translate(-51.967 -310.177)" fill="#727997"/>
                  </g>
                </g>
              </g>
              <path id="Rectángulo_46302" data-name="Rectángulo 46302" d="M6.338,0H150.62a6.339,6.339,0,0,1,6.339,6.339V278.458a6.339,6.339,0,0,1-6.339,6.339H6.34A6.34,6.34,0,0,1,0,278.457V6.338A6.338,6.338,0,0,1,6.338,0Z" transform="translate(187.175 272.476)" fill="#12263f"/>
              <path id="Rectángulo_46303" data-name="Rectángulo 46303" d="M5.566,0H132.179a5.564,5.564,0,0,1,5.564,5.564V233.157a5.564,5.564,0,0,1-5.564,5.564H5.564A5.564,5.564,0,0,1,0,233.157V5.566A5.566,5.566,0,0,1,5.566,0Z" transform="translate(196.782 282.06)" fill="#8c6df2"/>
            </g>
          </g>
          <g id="Grupo_155729" data-name="Grupo 155729" transform="translate(196.782 282.06)">
            <g id="Grupo_155728" data-name="Grupo 155728" clip-path="url(#clip-path-6)">
              <g id="Grupo_155727" data-name="Grupo 155727" transform="translate(-161.988 -223.21)" opacity="0.3">
                <g id="Grupo_155726" data-name="Grupo 155726" transform="translate(0 0)">
                  <g id="Grupo_155725" data-name="Grupo 155725" clip-path="url(#clip-path-7)">
                    <path id="Trazado_204917" data-name="Trazado 204917" d="M0,0,573.262,10.392l.455,25.122L.455,25.122Z" transform="translate(20.116 398.01) rotate(-45)" fill="#d2e1f1"/>
                    <path id="Trazado_204918" data-name="Trazado 204918" d="M0,0,573.263,10.392l.122,6.717L.122,6.717Z" transform="translate(0 491.406) rotate(-45)" fill="#d2e1f1"/>
                    <path id="Trazado_204919" data-name="Trazado 204919" d="M0,0,573.264,10.392l.387,21.347L.387,21.347Z" transform="translate(30.481 487.449) rotate(-45)" fill="#d2e1f1"/>
                    <path id="Trazado_204920" data-name="Trazado 204920" d="M0,0,573.262,10.392l.455,25.123L.455,25.123Z" transform="translate(37.556 563.362) rotate(-45)" fill="#d2e1f1"/>
                    <path id="Trazado_204921" data-name="Trazado 204921" d="M0,0,573.263,10.392l.122,6.716L.122,6.716Z" transform="matrix(0.707, -0.707, 0.707, 0.707, 70.059, 600.823)" fill="#d2e1f1"/>
                  </g>
                </g>
              </g>
            </g>
          </g>
          <g id="Grupo_155737" data-name="Grupo 155737">
            <g id="Grupo_155736" data-name="Grupo 155736" clip-path="url(#clip-path-2)">
              <path id="Trazado_204870" data-name="Trazado 204870" d="M241.857,228.888a5.578,5.578,0,0,1-5.678,5.474H190.345a5.478,5.478,0,1,1,0-10.949h45.834a5.578,5.578,0,0,1,5.678,5.474" transform="translate(52.392 53.171)" fill="#12263f"/>
              <path id="Trazado_204871" data-name="Trazado 204871" d="M222.2,437.656A12.5,12.5,0,1,1,209.7,425.607,12.277,12.277,0,0,1,222.2,437.656" transform="translate(55.95 101.292)" fill="#727997"/>
              <g id="Grupo_155732" data-name="Grupo 155732" transform="translate(256.657 530.274)" opacity="0.2">
                <g id="Grupo_155731" data-name="Grupo 155731">
                  <g id="Grupo_155730" data-name="Grupo 155730" clip-path="url(#clip-path-9)">
                    <path id="Trazado_204872" data-name="Trazado 204872" d="M217.928,437.008a9,9,0,1,1-9-8.676,8.844,8.844,0,0,1,9,8.676" transform="translate(-199.934 -428.333)" fill="#12263f"/>
                  </g>
                </g>
              </g>
              <g id="Grupo_155735" data-name="Grupo 155735" transform="translate(209.265 318.491)" opacity="0.7">
                <g id="Grupo_155734" data-name="Grupo 155734">
                  <g id="Grupo_155733" data-name="Grupo 155733" clip-path="url(#clip-path-10)">
                    <path id="Trazado_204873" data-name="Trazado 204873" d="M265.721,308.567H247.8a29.3,29.3,0,0,0-53.669,0H176.2a10.312,10.312,0,0,0-10.465,10.088v85.216A10.314,10.314,0,0,0,176.2,413.963h89.523a10.312,10.312,0,0,0,10.465-10.092V318.655a10.31,10.31,0,0,0-10.465-10.088" transform="translate(-162.245 -249.228)" fill="#5038a1"/>
                    <path id="Trazado_204874" data-name="Trazado 204874" d="M212.646,292.138c9.725,0,17.611-7.6,17.611-16.987s-7.886-16.983-17.611-16.983-17.609,7.605-17.609,16.983,7.883,16.987,17.609,16.987" transform="translate(-153.931 -257.049)" fill="#5038a1"/>
                    <path id="Trazado_204875" data-name="Trazado 204875" d="M263,307.661H245.076a29.3,29.3,0,0,0-53.668,0H173.481a10.314,10.314,0,0,0-10.466,10.09v85.216a10.315,10.315,0,0,0,10.466,10.092H263a10.314,10.314,0,0,0,10.465-10.092V317.75A10.313,10.313,0,0,0,263,307.661" transform="translate(-163.016 -249.444)" fill="#d2e1f1"/>
                    <path id="Trazado_204876" data-name="Trazado 204876" d="M209.929,291.233c9.727,0,17.613-7.606,17.613-16.987s-7.886-16.983-17.613-16.983-17.61,7.6-17.61,16.983,7.883,16.987,17.61,16.987" transform="translate(-154.702 -257.264)" fill="#d2e1f1"/>
                  </g>
                </g>
              </g>
              <rect id="Rectángulo_46314" data-name="Rectángulo 46314" width="88.94" height="17.379" transform="translate(220.023 395.207)" fill="#5038a1"/>
              <rect id="Rectángulo_46315" data-name="Rectángulo 46315" width="50.682" height="5.045" transform="translate(243.801 401.375)" fill="#d2e1f1"/>
              <path id="Trazado_204877" data-name="Trazado 204877" d="M183.362,324.828a3.128,3.128,0,1,1-3.126-3.015,3.072,3.072,0,0,1,3.126,3.015" transform="translate(50.248 76.59)" fill="#d2e1f1"/>
              <path id="Trazado_204878" data-name="Trazado 204878" d="M185.634,331.411a5.185,5.185,0,0,0-9.973,0Z" transform="translate(49.837 77.978)" fill="#d2e1f1"/>
              <rect id="Rectángulo_46316" data-name="Rectángulo 46316" width="88.94" height="17.379" transform="translate(220.023 422.117)" fill="#5038a1"/>
              <rect id="Rectángulo_46317" data-name="Rectángulo 46317" width="50.682" height="5.046" transform="translate(243.801 428.284)" fill="#d2e1f1"/>
              <path id="Trazado_204879" data-name="Trazado 204879" d="M184.707,348.157l.014-.74a4.136,4.136,0,0,0-4.175-4.052h-.031a4.135,4.135,0,0,0-4.173,4.052l.012.739a1.857,1.857,0,0,0-.282.976v3.739a1.99,1.99,0,0,0,2.017,1.947h4.885a1.989,1.989,0,0,0,2.017-1.947v-3.739a1.873,1.873,0,0,0-.282-.974m-3.257,4.706h-1.838l.439-1.348a1.232,1.232,0,0,1-.8-1.139,1.279,1.279,0,0,1,2.556,0,1.23,1.23,0,0,1-.8,1.139Zm-3.362-5.677a2.044,2.044,0,0,0-.9.214,3.341,3.341,0,0,1,6.678,0,2.042,2.042,0,0,0-.9-.215Z" transform="translate(49.953 81.719)" fill="#d2e1f1"/>
              <rect id="Rectángulo_46318" data-name="Rectángulo 46318" width="62.603" height="16.861" transform="translate(233.191 451.25)" fill="#fedc72"/>
              <rect id="Rectángulo_46319" data-name="Rectángulo 46319" width="44.181" height="4.399" transform="translate(242.403 457.482)" fill="#d2e1f1"/>
              <path id="Trazado_204880" data-name="Trazado 204880" d="M363.713,316.646A13.749,13.749,0,0,1,349.766,330.1H250.551A13.75,13.75,0,0,1,236.6,316.646v-51.3a13.75,13.75,0,0,1,13.953-13.456h99.215a13.749,13.749,0,0,1,13.947,13.456Z" transform="translate(67.125 59.949)" fill="#fedc72"/>
            </g>
          </g>
          <g id="Grupo_155742" data-name="Grupo 155742" transform="translate(303.722 311.841)">
            <g id="Grupo_155741" data-name="Grupo 155741" clip-path="url(#clip-path-11)">
              <g id="Grupo_155740" data-name="Grupo 155740" transform="translate(-140.33 -266.144)" opacity="0.1">
                <g id="Grupo_155739" data-name="Grupo 155739" transform="translate(0 0)">
                  <g id="Grupo_155738" data-name="Grupo 155738" clip-path="url(#clip-path-12)">
                    <path id="Trazado_204922" data-name="Trazado 204922" d="M0,0,573.262,10.392l.455,25.124L.455,25.124Z" transform="translate(20.114 398.01) rotate(-45)" fill="#d2e1f1"/>
                    <path id="Trazado_204923" data-name="Trazado 204923" d="M0,0,573.263,10.392l.122,6.716L.122,6.716Z" transform="translate(0 491.406) rotate(-45)" fill="#d2e1f1"/>
                    <path id="Trazado_204924" data-name="Trazado 204924" d="M0,0,573.263,10.392l.387,21.345L.387,21.345Z" transform="translate(30.479 487.448) rotate(-45)" fill="#d2e1f1"/>
                    <path id="Trazado_204925" data-name="Trazado 204925" d="M0,0,573.261,10.392l.455,25.123L.455,25.123Z" transform="translate(37.556 563.363) rotate(-45)" fill="#d2e1f1"/>
                    <path id="Trazado_204926" data-name="Trazado 204926" d="M0,0,573.261,10.392l.122,6.717L.122,6.717Z" transform="translate(70.06 600.824) rotate(-45)" fill="#d2e1f1"/>
                  </g>
                </g>
              </g>
            </g>
          </g>
          <g id="Grupo_155750" data-name="Grupo 155750">
            <g id="Grupo_155749" data-name="Grupo 155749" clip-path="url(#clip-path-2)">
              <path id="Trazado_204882" data-name="Trazado 204882" d="M281.433,272.83a11.16,11.16,0,0,1-11.357,10.952h-9.632a10.959,10.959,0,1,1,0-21.9h9.632a11.159,11.159,0,0,1,11.357,10.951" transform="translate(70.669 62.326)" fill="#fdb74d"/>
              <g id="Grupo_155748" data-name="Grupo 155748" transform="translate(393.876 325.325)" opacity="0.5">
                <g id="Grupo_155747" data-name="Grupo 155747">
                  <g id="Grupo_155746" data-name="Grupo 155746" clip-path="url(#clip-path-14)">
                    <rect id="Rectángulo_46327" data-name="Rectángulo 46327" width="13.315" height="12.839" fill="#fdb74d"/>
                    <g id="Grupo_155745" data-name="Grupo 155745" transform="translate(7.615 6.419)" opacity="0.6">
                      <g id="Grupo_155744" data-name="Grupo 155744">
                        <g id="Grupo_155743" data-name="Grupo 155743" clip-path="url(#clip-path-15)">
                          <rect id="Rectángulo_46328" data-name="Rectángulo 46328" width="13.312" height="12.839" fill="#fdb74d"/>
                        </g>
                      </g>
                    </g>
                  </g>
                </g>
              </g>
              <rect id="Rectángulo_46331" data-name="Rectángulo 46331" width="95.046" height="3.567" transform="translate(319.758 355.061)" fill="#fdb74d"/>
              <rect id="Rectángulo_46332" data-name="Rectángulo 46332" width="38.329" height="3.565" transform="translate(319.758 367.395)" fill="#fdb74d"/>
              <rect id="Rectángulo_46333" data-name="Rectángulo 46333" width="23.215" height="3.568" transform="translate(319.758 374.122)" fill="#fdb74d"/>
              <rect id="Rectángulo_46334" data-name="Rectángulo 46334" width="14.122" height="3.568" transform="translate(352.102 374.122)" fill="#fdb74d"/>
              <path id="Trazado_204883" data-name="Trazado 204883" d="M198.11,243.172c0,22.25-18.7,40.287-41.774,40.287s-41.774-18.036-41.774-40.287,18.7-40.287,41.774-40.287,41.774,18.036,41.774,40.287" transform="translate(32.502 48.286)" fill="#fdb74d"/>
              <path id="Trazado_204884" data-name="Trazado 204884" d="M190.616,242.034c0,18.981-15.955,34.369-35.638,34.369s-35.634-15.388-35.634-34.369,15.951-34.367,35.634-34.367,35.638,15.387,35.638,34.367" transform="translate(33.859 49.424)" fill="#fedc72"/>
            </g>
          </g>
          <g id="Grupo_155755" data-name="Grupo 155755" transform="translate(153.202 257.091)">
            <g id="Grupo_155754" data-name="Grupo 155754" clip-path="url(#clip-path-16)">
              <g id="Grupo_155753" data-name="Grupo 155753" transform="translate(-153.202 -257.091)" opacity="0.1">
                <g id="Grupo_155752" data-name="Grupo 155752">
                  <g id="Grupo_155751" data-name="Grupo 155751" clip-path="url(#clip-path-17)">
                    <path id="Trazado_204927" data-name="Trazado 204927" d="M0,0,573.262,10.392l.455,25.123L.455,25.123Z" transform="translate(20.114 398.008) rotate(-45)" fill="#d2e1f1"/>
                    <path id="Trazado_204928" data-name="Trazado 204928" d="M0,0,573.262,10.392l.122,6.717L.122,6.717Z" transform="translate(0 491.404) rotate(-45)" fill="#d2e1f1"/>
                    <path id="Trazado_204929" data-name="Trazado 204929" d="M0,0,573.263,10.392l.387,21.346L.387,21.346Z" transform="translate(30.48 487.448) rotate(-45)" fill="#d2e1f1"/>
                    <path id="Trazado_204930" data-name="Trazado 204930" d="M0,0,573.262,10.392l.455,25.123L.455,25.123Z" transform="translate(37.557 563.364) rotate(-45)" fill="#d2e1f1"/>
                    <path id="Trazado_204931" data-name="Trazado 204931" d="M0,0,573.262,10.392l.122,6.717L.122,6.717Z" transform="matrix(0.707, -0.707, 0.707, 0.707, 70.059, 600.822)" fill="#d2e1f1"/>
                  </g>
                </g>
              </g>
            </g>
          </g>
          <g id="Grupo_155757" data-name="Grupo 155757">
            <g id="Grupo_155756" data-name="Grupo 155756" clip-path="url(#clip-path-2)">
              <path id="Trazado_204886" data-name="Trazado 204886" d="M155.458,248.851a4.68,4.68,0,0,0-1.421-3.491,12.928,12.928,0,0,0-4.752-2.524,22.04,22.04,0,0,1-8.108-4.287,8.86,8.86,0,0,1-2.7-6.83,9.243,9.243,0,0,1,2.585-6.745,11.211,11.211,0,0,1,7.018-3.138V216.45h4.1v5.434a10.511,10.511,0,0,1,6.852,3.621A11.957,11.957,0,0,1,161.5,233.4h-6.2a7.751,7.751,0,0,0-1.435-4.927,4.759,4.759,0,0,0-3.947-1.819,5.208,5.208,0,0,0-3.918,1.353,5.005,5.005,0,0,0-1.308,3.636,4.645,4.645,0,0,0,1.371,3.475A13.569,13.569,0,0,0,151,237.67a22.7,22.7,0,0,1,8.045,4.349,8.828,8.828,0,0,1,2.639,6.769,8.946,8.946,0,0,1-2.692,6.818,12.121,12.121,0,0,1-7.352,3.015v4.817h-4.072v-4.792a12.682,12.682,0,0,1-7.544-3.2q-2.96-2.73-2.855-8.042l.049-.124h6.045q0,3.523,1.783,5.035a7.588,7.588,0,0,0,8.85.176,4.541,4.541,0,0,0,1.562-3.641" transform="translate(38.915 51.514)" fill="#fdb74d"/>
              <path id="Trazado_204887" data-name="Trazado 204887" d="M122.78,190.016H97.886v39.971s.8,12.516,24.894,21c24.091-8.479,24.894-21,24.894-21V190.016Z" transform="translate(27.771 45.223)" fill="#12263f"/>
              <path id="Trazado_204888" data-name="Trazado 204888" d="M101.934,194.282v32.572s.635,9.905,19.7,16.613c19.059-6.707,19.7-16.613,19.7-16.613V194.282Z" transform="translate(28.92 46.238)" fill="#8c6df2"/>
              <path id="Trazado_204889" data-name="Trazado 204889" d="M132.434,202.6q-7.381,7.179-14.766,14.356l-7.11-5.8c-2.917-2.376-7.154,1.669-4.216,4.064q4.7,3.833,9.4,7.666a3.114,3.114,0,0,0,4.214,0q8.342-8.113,16.691-16.224c2.709-2.634-1.506-6.7-4.217-4.066" transform="translate(29.888 48.016)" fill="#d2e1f1"/>
              <path id="Trazado_204890" data-name="Trazado 204890" d="M288.764,172.092c11.695,0,9.544,13.015,9.544,13.015V206.95H241.265V185.107c0-12.306-8.867-13.015-8.867-13.015Z" transform="translate(65.933 40.957)" fill="#b0c0d2"/>
              <path id="Trazado_204891" data-name="Trazado 204891" d="M195.974,172.092c-19.936,0-16.271,22.189-16.271,22.189v37.238h97.245V194.281c0-20.978,15.116-22.189,15.116-22.189Z" transform="translate(50.908 40.957)" fill="#d2e1f1"/>
              <rect id="Rectángulo_46342" data-name="Rectángulo 46342" width="62.759" height="3.974" transform="translate(248.398 225.128)" fill="#12263f"/>
              <rect id="Rectángulo_46343" data-name="Rectángulo 46343" width="45.852" height="3.974" transform="translate(239.739 239.398)" fill="#12263f"/>
              <rect id="Rectángulo_46344" data-name="Rectángulo 46344" width="14.79" height="3.974" transform="translate(305.376 239.398)" fill="#12263f"/>
              <rect id="Rectángulo_46345" data-name="Rectángulo 46345" width="45.852" height="3.975" transform="translate(239.739 250.611)" fill="#12263f"/>
              <rect id="Rectángulo_46346" data-name="Rectángulo 46346" width="14.79" height="3.975" transform="translate(305.376 250.611)" fill="#12263f"/>
              <rect id="Rectángulo_46347" data-name="Rectángulo 46347" width="45.852" height="3.974" transform="translate(239.739 260.703)" fill="#12263f"/>
              <rect id="Rectángulo_46348" data-name="Rectángulo 46348" width="14.79" height="3.974" transform="translate(305.376 260.703)" fill="#12263f"/>
              <path id="Trazado_204892" data-name="Trazado 204892" d="M279.066,323.478c-24.773,19.927-49.717,23.768-49.717,23.768,5.149,50.644,49.717,77.807,49.717,77.807s44.566-27.163,49.717-77.807c0,0-24.946-3.841-49.717-23.768" transform="translate(65.068 76.986)" fill="#fdb74d"/>
              <path id="Trazado_204893" data-name="Trazado 204893" d="M277.524,329.235c-21.3,17.133-42.74,20.434-42.74,20.434,4.429,43.533,42.74,66.884,42.74,66.884s38.311-23.351,42.738-66.884c0,0-21.443-3.3-42.738-20.434" transform="translate(66.61 78.356)" fill="#fedc72"/>
            </g>
          </g>
          <g id="Grupo_155762" data-name="Grupo 155762" transform="translate(301.394 407.591)">
            <g id="Grupo_155761" data-name="Grupo 155761" clip-path="url(#clip-path-19)">
              <g id="Grupo_155760" data-name="Grupo 155760" transform="translate(-154.331 -261.327)" opacity="0.1">
                <g id="Grupo_155759" data-name="Grupo 155759" transform="translate(0 0)">
                  <g id="Grupo_155758" data-name="Grupo 155758" clip-path="url(#clip-path-20)">
                    <path id="Trazado_204932" data-name="Trazado 204932" d="M0,0,573.262,10.392l.455,25.122L.455,25.122Z" transform="translate(20.116 398.01) rotate(-45)" fill="#d2e1f1"/>
                    <path id="Trazado_204933" data-name="Trazado 204933" d="M0,0,573.263,10.392l.122,6.718L.122,6.718Z" transform="translate(0 491.405) rotate(-45)" fill="#d2e1f1"/>
                    <path id="Trazado_204934" data-name="Trazado 204934" d="M0,0,573.263,10.392l.387,21.345L.387,21.345Z" transform="translate(30.481 487.448) rotate(-45)" fill="#d2e1f1"/>
                    <path id="Trazado_204935" data-name="Trazado 204935" d="M0,0,573.261,10.392l.455,25.121L.455,25.121Z" transform="translate(37.558 563.363) rotate(-45)" fill="#d2e1f1"/>
                    <path id="Trazado_204936" data-name="Trazado 204936" d="M0,0,573.263,10.392l.122,6.717L.122,6.717Z" transform="translate(70.061 600.824) rotate(-45)" fill="#d2e1f1"/>
                  </g>
                </g>
              </g>
            </g>
          </g>
          <g id="Grupo_155764" data-name="Grupo 155764">
            <g id="Grupo_155763" data-name="Grupo 155763" clip-path="url(#clip-path-2)">
              <path id="Trazado_204895" data-name="Trazado 204895" d="M299.885,367.52c0,13.874-11.664,25.123-26.05,25.123s-26.052-11.248-26.052-25.123S259.449,342.4,273.835,342.4s26.05,11.247,26.05,25.124" transform="translate(70.298 81.488)" fill="#12263f"/>
              <path id="Trazado_204896" data-name="Trazado 204896" d="M279.845,363.073l.03-1.689a9.422,9.422,0,0,0-9.516-9.237v0l-.032,0-.032,0v0a9.424,9.424,0,0,0-9.519,9.237l.031,1.684a4.258,4.258,0,0,0-.65,2.23v8.519a4.536,4.536,0,0,0,4.6,4.437H275.89a4.538,4.538,0,0,0,4.6-4.437V365.3a4.237,4.237,0,0,0-.647-2.225M272.42,373.8h-4.193l1.008-3.068a2.809,2.809,0,0,1-1.823-2.6,2.914,2.914,0,0,1,5.824,0,2.808,2.808,0,0,1-1.82,2.6Zm-7.661-12.938a4.664,4.664,0,0,0-2.046.488,7.618,7.618,0,0,1,15.226,0,4.657,4.657,0,0,0-2.049-.491Z" transform="translate(73.809 83.809)" fill="#d2e1f1"/>
              <path id="Trazado_204897" data-name="Trazado 204897" d="M323.573,232.387v-6.8h-3.852a19.084,19.084,0,0,0-3.352-7.812l2.723-2.625-4.987-4.81-2.721,2.623a20.6,20.6,0,0,0-8.1-3.23v-3.715H296.23v3.715a20.6,20.6,0,0,0-8.1,3.23l-2.719-2.622-4.987,4.808,2.721,2.623a19.1,19.1,0,0,0-3.351,7.813h-3.852v6.8h3.852a19.09,19.09,0,0,0,3.351,7.812l-2.721,2.623,4.986,4.81,2.72-2.623a20.574,20.574,0,0,0,8.1,3.23v3.715h7.051v-3.715a20.541,20.541,0,0,0,8.1-3.231l2.721,2.625,4.987-4.81L316.37,240.2a19.072,19.072,0,0,0,3.351-7.812Zm-23.818,9.45a12.859,12.859,0,1,1,13.327-12.85,13.093,13.093,0,0,1-13.327,12.85" transform="translate(78.287 49.031)" fill="#12263f"/>
              <path id="Trazado_204898" data-name="Trazado 204898" d="M343.71,209.78v-4.114h-2.33a11.572,11.572,0,0,0-2.028-4.723L341,199.356l-3.014-2.909-1.647,1.587a12.439,12.439,0,0,0-4.9-1.954v-2.248h-4.266v2.248a12.426,12.426,0,0,0-4.9,1.954l-1.646-1.587-3.015,2.909,1.646,1.586a11.581,11.581,0,0,0-2.027,4.724H314.9v4.114h2.33a11.566,11.566,0,0,0,2.027,4.724l-1.646,1.587L320.627,219l1.647-1.586a12.437,12.437,0,0,0,4.9,1.954v2.247h4.266v-2.248a12.43,12.43,0,0,0,4.9-1.952L337.983,219,341,216.091l-1.647-1.587a11.559,11.559,0,0,0,2.028-4.724ZM329.3,212.6a4.882,4.882,0,1,1,5.062-4.878A4.97,4.97,0,0,1,329.3,212.6" transform="translate(89.34 46.131)" fill="#b0c0d2"/>
              <path id="Trazado_204899" data-name="Trazado 204899" d="M151.389,313.477v-7.37h-4.173a20.693,20.693,0,0,0-3.632-8.463l2.949-2.842-5.4-5.211-2.95,2.842a22.3,22.3,0,0,0-8.774-3.5v-4.026h-7.641v4.026a22.29,22.29,0,0,0-8.774,3.5l-2.947-2.842-5.4,5.211,2.947,2.842a20.762,20.762,0,0,0-3.632,8.463H99.786v7.37h4.172a20.74,20.74,0,0,0,3.632,8.463l-2.947,2.842,5.4,5.211,2.95-2.841a22.282,22.282,0,0,0,8.774,3.5v4.023h7.641v-4.023a22.274,22.274,0,0,0,8.774-3.5l2.95,2.841,5.4-5.211-2.951-2.842a20.62,20.62,0,0,0,3.632-8.463Zm-25.806,14.055c-10.157,0-18.389-7.942-18.389-17.739s8.232-17.741,18.389-17.741,18.4,7.942,18.4,17.741-8.235,17.739-18.4,17.739" transform="translate(28.31 67.807)" fill="#b0c0d2"/>
              <path id="Trazado_204900" data-name="Trazado 204900" d="M112.807,273.542v-4.113h-2.33a11.549,11.549,0,0,0-2.028-4.724l1.646-1.587-3.012-2.908-1.647,1.586a12.458,12.458,0,0,0-4.9-1.952V257.6H96.272v2.248a12.43,12.43,0,0,0-4.9,1.952l-1.646-1.586-3.014,2.908,1.646,1.586a11.589,11.589,0,0,0-2.028,4.725H84v4.113H86.33a11.581,11.581,0,0,0,2.028,4.725l-1.646,1.585,3.013,2.909,1.647-1.586a12.424,12.424,0,0,0,4.9,1.954v2.247h4.266v-2.247a12.46,12.46,0,0,0,4.9-1.954l1.647,1.586,3.013-2.908-1.647-1.586a11.512,11.512,0,0,0,2.028-4.725Zm-14.4,2.824a4.883,4.883,0,1,1,5.06-4.879,4.97,4.97,0,0,1-5.06,4.879" transform="translate(23.832 61.306)" fill="#12263f"/>
              <path id="Trazado_204901" data-name="Trazado 204901" d="M154.524,344.749s-11.458,0-18.453,9.618c-6.245,8.585-5.549,16.017-6.227,21.067-.983,7.361-4.606,14.2-.737,19.871s-10.293,14.1.264,18.737,42.985,2.766,47.524-1.326c7.878-7.1,3.5-13.348,2.578-21.844-.458-4.213-2.911-8.693-1.349-14.492s.9-31.631-23.6-31.631" transform="translate(35.571 82.048)" fill="#5038a1"/>
              <path id="Trazado_204902" data-name="Trazado 204902" d="M146.487,380.249s-1,6.918-6.34,9.973c0,0,8.842,6.6,17.185.963A58.346,58.346,0,0,1,155,380.249Z" transform="translate(39.761 90.497)" fill="#ffb89f"/>
              <path id="Trazado_204903" data-name="Trazado 204903" d="M168.822,370.633c0,11.676-7.557,21.135-16.869,21.135s-16.868-9.46-16.868-21.135,7.551-21.134,16.868-21.134,16.869,9.461,16.869,21.134" transform="translate(38.325 83.179)" fill="#ffb89f"/>
              <path id="Trazado_204904" data-name="Trazado 204904" d="M137.621,370.166a1.96,1.96,0,1,1-1.9-2.459,2.229,2.229,0,0,1,1.9,2.459" transform="translate(37.968 87.512)" fill="#ffb89f"/>
              <path id="Trazado_204905" data-name="Trazado 204905" d="M163.486,370.166a1.96,1.96,0,1,1-1.9-2.459,2.229,2.229,0,0,1,1.9,2.459" transform="translate(45.307 87.512)" fill="#ffb89f"/>
              <path id="Trazado_204906" data-name="Trazado 204906" d="M146.083,388.3s9.058,5.2,17.186,1.011c0,0,15.57,1.232,18.176,2.953,5.316,3.5,10.627,19.559,10.627,19.559l-12.33,4.608-2.86-9.424s1.139,14.413-5.5,16.719c0,0-1.343,9.17,3.972,25.687,0,0-21.61,8.1-42.76,0,0,0,4.082-8.214,5.412-24.918,0,0-7.212-8.452-4.366-17.281l-2.466,9.406-11.953-5.758s5.881-18.217,10.628-19.752,16.238-2.81,16.238-2.81" transform="translate(33.823 92.414)" fill="#fedc72"/>
              <path id="Trazado_204907" data-name="Trazado 204907" d="M130.748,452.835c6.086-2.622,33.954-14.408,53.477-19.007,22.023-5.192,32.023,1.012,25.467,10.056-6.376,8.79-53.828,17.1-78.4,16.556v.007c-5.5.78-9.5,3.371-16.055,4.322s-9.507.708-9.425-5.66,11.616-5.931,15.306-5.394,9.624-.879,9.633-.88" transform="translate(30.019 102.799)" fill="#ffb89f"/>
              <path id="Trazado_204908" data-name="Trazado 204908" d="M116.447,449.359s-15.756-.352-16.6,6.824,15.449,5.29,17.844,4.318c0,0-13.743-3.09-1.241-11.142" transform="translate(28.318 106.944)" fill="#12263f"/>
              <path id="Trazado_204909" data-name="Trazado 204909" d="M122.415,453.956l1.318,7.525s24.063-.3,44.964-3.762,41.9-10.019,40.072-19.727-11.887-9.161-26.651-5.6-59.7,21.563-59.7,21.563" transform="translate(34.73 102.344)" fill="#5038a1"/>
              <path id="Trazado_204910" data-name="Trazado 204910" d="M185.32,452.835c-6.086-2.622-33.953-14.408-53.475-19.007-22.023-5.192-32.023,1.012-25.469,10.056,6.376,8.79,53.828,17.1,78.405,16.556v.007c5.494.78,9.5,3.371,16.053,4.322s9.508.708,9.426-5.66-11.616-5.931-15.3-5.394-9.624-.879-9.634-.88" transform="translate(29.617 102.799)" fill="#ffb89f"/>
              <path id="Trazado_204911" data-name="Trazado 204911" d="M180.175,449.359s15.752-.352,16.6,6.824-15.448,5.29-17.844,4.318c0,0,13.745-3.09,1.245-11.142" transform="translate(50.764 106.944)" fill="#12263f"/>
              <path id="Trazado_204912" data-name="Trazado 204912" d="M189.366,453.956l-1.318,7.525s-24.064-.3-44.964-3.762-41.9-10.019-40.075-19.727,11.888-9.161,26.654-5.6,59.7,21.563,59.7,21.563" transform="translate(29.193 102.344)" fill="#8c6df2"/>
              <path id="Rectángulo_46356" data-name="Rectángulo 46356" d="M2.05,0h8.159a2.048,2.048,0,0,1,2.048,2.048V19.784a2.051,2.051,0,0,1-2.051,2.051H2.05A2.05,2.05,0,0,1,0,19.785V2.05A2.05,2.05,0,0,1,2.05,0Z" transform="translate(182.372 494.972)" fill="#d5e6f0"/>
              <path id="Rectángulo_46357" data-name="Rectángulo 46357" d="M2.048,0h8.161a2.048,2.048,0,0,1,2.048,2.048V19.782a2.05,2.05,0,0,1-2.05,2.05H2.05A2.05,2.05,0,0,1,0,19.782V2.048A2.048,2.048,0,0,1,2.048,0Z" transform="translate(182.372 496.666)" fill="#12263f"/>
              <path id="Trazado_204913" data-name="Trazado 204913" d="M148.475,405.854a1.339,1.339,0,1,1-1.339-1.29,1.315,1.315,0,0,1,1.339,1.29" transform="translate(41.364 96.284)" fill="#d5e6f0"/>
              <path id="Trazado_204914" data-name="Trazado 204914" d="M155.634,411.985c-.6-.348-1.487.9-2.926,1.941a8.943,8.943,0,0,1-3.775,1.249v-3.19c0-.069-4.349,4.914-4.349,4.914s-12.942,11.036-15.055,9.233,0-16.041,0-16.041l-8.413-3.86c-8.078,22.394,1.035,32.818,4.342,32.8,7.788-.045,21.012-15.419,21.012-15.419a15.648,15.648,0,0,0,5.951-1.794c2.589-1.543,3.813-9.484,3.214-9.831" transform="translate(33.439 96.681)" fill="#ffb89f"/>
              <path id="Trazado_204915" data-name="Trazado 204915" d="M146.745,411.784c.6-.348,1.489.9,2.926,1.941a8.946,8.946,0,0,0,3.777,1.249v-3.19c0-.069,4.349,4.914,4.349,4.914s12.942,11.036,15.054,9.233.06-15.622.06-15.622l9.066-3.23c8.081,22.4-1.747,31.769-5.054,31.75-7.788-.045-21.012-15.419-21.012-15.419a15.648,15.648,0,0,1-5.951-1.794c-2.589-1.543-3.811-9.484-3.214-9.831" transform="translate(41.591 96.882)" fill="#ffb89f"/>
              <path id="Trazado_204916" data-name="Trazado 204916" d="M135.7,372.815s14.2-3.161,21.008-10.164c0,0,5.8,7.221,12.2,10.164l1.542,1.036s5.354-27.608-17.374-27.608-18.913,27.608-18.913,27.608Z" transform="translate(37.994 82.404)" fill="#5038a1"/>
            </g>
          </g>
        </g>
      </g>
    </g>
    <g id="Enmascarar_grupo_154" data-name="Enmascarar grupo 154" clip-path="url(#clip-path-22)">
      <path id="Trazado_204937" data-name="Trazado 204937" d="M245.228,29.814A170.008,170.008,0,0,1,230.42,44.749,121.159,121.159,0,0,1,213.7,57.2,84.663,84.663,0,0,1,194.687,66a57.983,57.983,0,0,1-10.487,2.24c-.9.084-1.808.192-2.725.223-.457.021-.914.052-1.375.063l-1.384.006c-.929.01-1.824-.033-2.742-.051-.907-.06-1.823-.1-2.729-.2a71.942,71.942,0,0,1-20.917-5.631c-6.592-2.759-12.757-6.089-18.688-9.277-2.963-1.6-5.881-3.158-8.751-4.605-1.437-.732-2.859-1.417-4.274-2.087-.705-.321-1.411-.655-2.111-.96l-2.17-.949c-6.044-2.635-11.952-5.089-17.768-7.047-2.906-.98-5.783-1.837-8.612-2.525-1.414-.344-2.816-.649-4.2-.9s-2.755-.446-4.1-.595a36.733,36.733,0,0,0-14.5.945,25.114,25.114,0,0,0-2.962,1.1c-.472.205-.928.433-1.378.663l-.662.36c-.2.122-.4.234-.594.363a21.01,21.01,0,0,0-4.3,3.595c-.318.351-.628.707-.923,1.079L55.193,43.2c-.4.479-.751.979-1.129,1.458s-.7.991-1.048,1.475a38.074,38.074,0,0,0-3.351,6.045,35.186,35.186,0,0,0-2.093,6.211,36.25,36.25,0,0,0-.939,6.444,52.1,52.1,0,0,0,1.145,13.829,76.375,76.375,0,0,0,4.751,14.569c1.041,2.415,2.225,4.8,3.489,7.081.631,1.138,1.285,2.25,1.94,3.3.327.519.659,1.021.978,1.476.158.226.316.445.457.623a2.955,2.955,0,0,0,.2.233c.025.021.06.065.07.059l.012,0s.015.016,0-.026L59.6,105.8c7.8,14.553,3.166,33.161-10.341,41.561s-30.779,3.411-38.575-11.142l-.221-.458-.141-.313-.226-.524-.387-.939c-.244-.6-.462-1.174-.674-1.739-.423-1.127-.808-2.22-1.182-3.3-.738-2.164-1.407-4.3-2.027-6.439-1.235-4.277-2.265-8.577-3.136-12.944A136.169,136.169,0,0,1,0,82.445,102.806,102.806,0,0,1,3.944,54.013,87.518,87.518,0,0,1,9.216,40.3a79.114,79.114,0,0,1,16.6-22.745c.823-.756,1.638-1.525,2.471-2.251.841-.711,1.671-1.442,2.523-2.118l1.28-1.005c.436-.339.822-.647,1.344-1.036.982-.745,1.99-1.45,3.014-2.125A54.62,54.62,0,0,1,49.539,2.663c.572-.193,1.152-.362,1.729-.535.566-.157,1.124-.309,1.687-.454,1.126-.278,2.253-.532,3.382-.738A55.894,55.894,0,0,1,63.075.106,60.464,60.464,0,0,1,76,.733,73.723,73.723,0,0,1,87.79,3.6a115.18,115.18,0,0,1,20.525,9.289c6.309,3.561,12.188,7.439,17.847,11.283l2.207,1.506c.757.517,1.488,1.046,2.229,1.57,1.457,1.057,2.9,2.121,4.292,3.193,2.805,2.142,5.491,4.3,8.141,6.4,5.293,4.2,10.4,8.243,15.657,11.66A60.33,60.33,0,0,0,175.082,56.3c.713.212,1.434.372,2.155.558l1.088.227.545.115c.181.034.359.053.539.081l1.079.157c.362.045.727.072,1.092.11.728.087,1.469.1,2.209.146.742.026,1.489.023,2.238.021.75-.038,1.5-.029,2.259-.1l1.135-.086c.379-.031.758-.084,1.137-.125.759-.08,1.517-.2,2.277-.328.762-.107,1.517-.286,2.279-.426.759-.157,1.515-.347,2.275-.522.752-.215,1.508-.415,2.26-.642.747-.244,1.5-.459,2.248-.727,1.5-.508,2.977-1.086,4.44-1.72.733-.314,1.467-.632,2.189-.98l1.088-.514,1.073-.551A79.752,79.752,0,0,0,226.81,39.979,82.393,82.393,0,0,0,240.14,25.164a3.187,3.187,0,0,1,4.678-.727,3.787,3.787,0,0,1,.675,5.04,3.532,3.532,0,0,1-.249.319Z" transform="translate(180.001 9050.557)" fill="#fdb74d"/>
    </g>
  </g>
</svg>
