<svg xmlns="http://www.w3.org/2000/svg" xmlns:xlink="http://www.w3.org/1999/xlink" width="190" height="90" viewBox="0 0 190 90">
  <defs>
    <linearGradient id="linear-gradient" x1="0.5" x2="0.5" y2="1" gradientUnits="objectBoundingBox">
      <stop offset="0" stop-color="#fedc72"/>
      <stop offset="1" stop-color="#fdb74d"/>
    </linearGradient>
  </defs>
  <g id="Grupo_156227" data-name="Grupo 156227" transform="translate(-180 -8843.5)">
    <ellipse id="Elipse_6232" data-name="Elipse 6232" cx="95" cy="45" rx="95" ry="45" transform="translate(180 8843.5)" fill="url(#linear-gradient)"/>
    <circle id="Elipse_6233" data-name="Elipse 6233" cx="4.038" cy="4.038" r="4.038" transform="translate(218.899 8861.807)" fill="#fff"/>
    <circle id="Elipse_6234" data-name="Elipse 6234" cx="4.038" cy="4.038" r="4.038" transform="translate(214.862 8908.617)" fill="#fff"/>
    <circle id="Elipse_6235" data-name="Elipse 6235" cx="4.038" cy="4.038" r="4.038" transform="translate(330.938 8904.203)" fill="#fff"/>
    <circle id="Elipse_6236" data-name="Elipse 6236" cx="4.038" cy="4.038" r="4.038" transform="translate(347.938 8885.732)" fill="#fff"/>
    <circle id="Elipse_6237" data-name="Elipse 6237" cx="7.038" cy="7.038" r="7.038" transform="translate(193.938 8879.732)" fill="#fff"/>
    <circle id="Elipse_6238" data-name="Elipse 6238" cx="7.038" cy="7.038" r="7.038" transform="translate(327.938 8867.307)" fill="#fff"/>
    <g id="Grupo_155716" data-name="Grupo 155716" transform="translate(236.8 8854.215)">
      <path id="Trazado_204863" data-name="Trazado 204863" d="M73.7,35.556c0-5-5.785-9.2-14.989-11.834,2.367-9.2,1.578-16.3-2.63-18.934A7.279,7.279,0,0,0,52.664,4c-3.944,0-9.2,2.893-14.463,7.889C32.941,6.893,27.945,4,23.737,4a7.279,7.279,0,0,0-3.419.789c-3.945,2.63-4.733,9.73-2.63,18.934C8.748,26.352,2.7,30.823,2.7,35.556c0,5,5.785,9.2,14.989,11.834-2.1,9.2-1.315,16.567,2.893,18.934A7.279,7.279,0,0,0,24,67.112c3.944,0,9.2-2.893,14.463-7.889,5.259,5,10.256,7.889,14.463,7.889a7.279,7.279,0,0,0,3.419-.789c4.207-2.367,5-9.73,2.893-18.934C67.916,44.76,73.7,40.289,73.7,35.556ZM52.664,7.419c.789,0,1.315,0,1.578.526,2.1,1.052,2.893,5.259,2.1,10.782-.263,1.315-.526,2.893-.789,4.207a83.458,83.458,0,0,0-9.2-1.578,52.237,52.237,0,0,0-5.785-7.1C45.3,9.785,49.771,7.419,52.664,7.419ZM47.93,41.078a36.118,36.118,0,0,1-3.419,5.259A50.67,50.67,0,0,1,38.2,46.6a50.67,50.67,0,0,1-6.311-.263c-1.052-1.578-2.1-3.419-3.419-5.259a55.644,55.644,0,0,1-2.893-5.522,55.644,55.644,0,0,1,2.893-5.522c1.052-1.841,2.367-3.682,3.419-5.522a50.67,50.67,0,0,1,6.311-.263,50.67,50.67,0,0,1,6.311.263,50.709,50.709,0,0,1,3.419,5.522,55.644,55.644,0,0,1,2.893,5.522A55.643,55.643,0,0,1,47.93,41.078ZM52.664,39.5c.789,1.841,1.315,3.682,1.841,5.259a40.826,40.826,0,0,1-5.522,1.052c.526-1.052,1.315-2.1,1.841-3.156A12.433,12.433,0,0,0,52.664,39.5ZM38.2,54.49a30.27,30.27,0,0,1-3.682-4.47h7.363A30.27,30.27,0,0,1,38.2,54.49ZM27.419,46.075A40.826,40.826,0,0,1,21.9,45.023c.526-1.841,1.315-3.682,1.841-5.259a19.614,19.614,0,0,0,1.841,3.156,19.614,19.614,0,0,1,1.841,3.156ZM23.737,31.612c-.789-1.841-1.315-3.682-2.1-5.522a37.723,37.723,0,0,1,5.785-1.052c-.789,1.052-1.315,2.1-2.1,3.156A8.15,8.15,0,0,1,23.737,31.612ZM38.2,16.622c1.315,1.315,2.367,2.893,3.682,4.207H34.519A52.657,52.657,0,0,0,38.2,16.622ZM50.823,28.193c-.789-1.052-1.315-2.1-2.1-3.156A37.723,37.723,0,0,1,54.5,26.089a47.41,47.41,0,0,1-2.1,5.522A12.827,12.827,0,0,0,50.823,28.193Zm-30.5-9.73c-.789-5.522,0-9.467,2.1-10.782A3.738,3.738,0,0,1,24,7.156c2.893,0,7.1,2.367,11.834,6.837a84.131,84.131,0,0,0-5.785,7.1,51.742,51.742,0,0,0-9.2,1.578A23.016,23.016,0,0,1,20.319,18.463ZM14.534,42.656c-5-2.1-8.415-5-8.415-7.1,0-2.367,3.156-5,8.152-7.1a19.707,19.707,0,0,1,4.207-1.315A39.623,39.623,0,0,0,21.9,35.819a67.277,67.277,0,0,0-3.156,8.415c-1.578-.526-2.893-1.052-4.207-1.578ZM22.16,63.43c-2.1-1.052-2.893-5.259-2.1-10.782.263-1.315.526-2.893.789-4.47,2.893.526,5.785,1.052,8.941,1.315a84.132,84.132,0,0,0,5.785,7.1c-4.733,4.47-8.941,6.837-11.834,6.837-.526.263-1.052,0-1.578,0ZM56.345,52.649c.789,5.522,0,9.467-2.1,10.782a3.738,3.738,0,0,1-1.578.526c-2.893,0-7.1-2.367-11.834-6.837a52.237,52.237,0,0,0,5.785-7.1A80.788,80.788,0,0,0,55.556,48.7q.394,1.578.789,3.944Zm5.785-9.993a19.707,19.707,0,0,1-4.207,1.315,67.276,67.276,0,0,0-3.156-8.415c1.315-2.893,2.367-5.785,3.419-8.678,1.315.526,2.893.789,4.207,1.315,5,2.1,8.152,4.733,8.152,7.1-.263,2.367-3.419,5.259-8.415,7.363Z" transform="translate(0 0)" fill="#5038a1"/>
      <path id="Trazado_204864" data-name="Trazado 204864" d="M20.374,26.648A6.574,6.574,0,1,0,13.8,20.074,6.51,6.51,0,0,0,20.374,26.648Z" transform="translate(18.089 15.482)" fill="#8c6df2"/>
    </g>
  </g>
</svg>
