<svg xmlns="http://www.w3.org/2000/svg" xmlns:xlink="http://www.w3.org/1999/xlink" width="190" height="166" viewBox="0 0 190 166">
  <defs>
    <clipPath id="clip-path">
      <ellipse id="Elipse_6324" data-name="Elipse 6324" cx="95" cy="83" rx="95" ry="83" transform="translate(1125 9414)" fill="#8c6df2"/>
    </clipPath>
    <clipPath id="clip-path-2">
      <rect id="Rectángulo_46367" data-name="Rectángulo 46367" width="117.961" height="319.301" fill="none"/>
    </clipPath>
    <clipPath id="clip-path-3">
      <path id="Trazado_204978" data-name="Trazado 204978" d="M44.065,114.512s-4.675,3.428-9.348,21.19c-5.7,21.644-14.229,77.962-17.033,159.14l21.271.639,17.421-123.9a1.587,1.587,0,0,1,3.111.51L65.2,296.871l20.96-.814s6.305-135.745.777-156.933c-5.21-19.972-9.985-27.787-9.985-27.787Z" fill="none"/>
    </clipPath>
  </defs>
  <g id="Enmascarar_grupo_156" data-name="Enmascarar grupo 156" transform="translate(-1125 -9414)" clip-path="url(#clip-path)">
    <path id="Trazado_205001" data-name="Trazado 205001" d="M.635,78.568A112.981,112.981,0,0,1,10.729,68.92a82.436,82.436,0,0,1,11.4-8.044,59.249,59.249,0,0,1,12.96-5.682,41.423,41.423,0,0,1,7.148-1.447c.616-.055,1.232-.124,1.857-.144.312-.014.623-.033.937-.041l.944,0c.634-.006,1.243.021,1.869.033.618.039,1.243.064,1.86.126a51.19,51.19,0,0,1,14.258,3.637c4.494,1.782,8.7,3.933,12.739,5.992,2.02,1.034,4.009,2.04,5.966,2.975.98.473,1.949.915,2.914,1.348.481.207.962.423,1.439.62L88.5,68.9c4.12,1.7,8.147,3.287,12.112,4.552,1.981.633,3.942,1.187,5.871,1.631.964.222,1.919.419,2.864.584s1.878.288,2.794.384a26.378,26.378,0,0,0,9.884-.611,17.729,17.729,0,0,0,2.019-.708c.322-.132.633-.28.939-.428l.451-.233c.135-.079.272-.151.4-.234a14.17,14.17,0,0,0,2.928-2.322c.216-.227.428-.456.629-.7l.782-.9c.27-.309.512-.632.77-.942s.475-.64.715-.953a24.246,24.246,0,0,0,2.284-3.9,21.915,21.915,0,0,0,1.427-4.012,22.271,22.271,0,0,0,.64-4.163,31.945,31.945,0,0,0-.781-8.933,47.526,47.526,0,0,0-3.238-9.411,50.842,50.842,0,0,0-2.378-4.574c-.43-.735-.876-1.453-1.322-2.129-.223-.335-.449-.659-.666-.953-.108-.146-.216-.288-.312-.4a1.941,1.941,0,0,0-.133-.15c-.017-.014-.041-.042-.048-.038l-.008,0s-.01-.01,0,.017l.047.109a19.88,19.88,0,0,1,7.049-26.847,19.036,19.036,0,0,1,26.3,7.2l.151.3.1.2.154.338.264.607c.166.391.315.758.46,1.123.288.728.551,1.434.806,2.135.5,1.4.959,2.777,1.381,4.16.842,2.763,1.544,5.54,2.137,8.361A83.516,83.516,0,0,1,167.8,44.57a63.165,63.165,0,0,1-2.687,18.366,54.76,54.76,0,0,1-3.594,8.856,50.455,50.455,0,0,1-5.086,7.985,51.48,51.48,0,0,1-6.233,6.708c-.561.488-1.116.985-1.684,1.454s-1.139.931-1.72,1.368l-.872.649c-.3.219-.56.418-.916.669-.67.481-1.357.936-2.055,1.373a38.139,38.139,0,0,1-8.921,4.107c-.39.124-.785.234-1.178.345s-.766.2-1.15.293c-.768.18-1.536.344-2.306.476a40.111,40.111,0,0,1-4.593.537A43.469,43.469,0,0,1,116,97.353a52.574,52.574,0,0,1-8.039-1.849,80.689,80.689,0,0,1-13.991-6c-4.3-2.3-8.309-4.805-12.166-7.288l-1.5-.973c-.516-.334-1.014-.676-1.52-1.014-.993-.683-1.975-1.37-2.926-2.063-1.912-1.383-3.743-2.778-5.55-4.133-3.608-2.714-7.087-5.324-10.673-7.532a42.163,42.163,0,0,0-11.175-5.044c-.486-.137-.977-.24-1.469-.361l-.741-.146-.372-.074c-.123-.022-.245-.035-.367-.052l-.736-.1c-.247-.029-.5-.046-.744-.071-.5-.056-1-.066-1.506-.094s-1.015-.015-1.526-.013c-.512.024-1.025.019-1.54.067l-.774.055c-.258.02-.516.054-.775.081-.518.052-1.034.132-1.552.212s-1.034.185-1.553.275-1.033.224-1.551.337c-.512.139-1.028.268-1.541.415s-1.025.3-1.533.47c-1.02.328-2.029.7-3.027,1.111-.5.2-1,.408-1.492.633l-.742.332-.731.356A55.642,55.642,0,0,0,4.1,81.571a2.248,2.248,0,0,1-3.189.47,2.358,2.358,0,0,1-.46-3.255,2.3,2.3,0,0,1,.17-.206Z" transform="translate(1143.666 9420.418) rotate(11)" fill="#fdb74d"/>
    <g id="Grupo_155783" data-name="Grupo 155783" transform="translate(1161.02 9424)">
      <path id="Trazado_204968" data-name="Trazado 204968" d="M34.541,292.027l-1.563,19.226L5.316,317.131l14.267-14.206,3.444-12.049Z" fill="#ffa47e"/>
      <path id="Trazado_204969" data-name="Trazado 204969" d="M0,318.483l37.036.384L34.541,301.43l-7.292,7.1-7.676-7.293Z" fill="#5038a1"/>
      <line id="Línea_234" data-name="Línea 234" x2="3.412" y2="2.188" transform="translate(15.907 303.437)" fill="none" stroke="#fff" stroke-miterlimit="10" stroke-width="0.527"/>
      <line id="Línea_235" data-name="Línea 235" x2="3.412" y2="2.188" transform="translate(12.862 304.872)" fill="none" stroke="#fff" stroke-miterlimit="10" stroke-width="0.527"/>
      <path id="Trazado_204970" data-name="Trazado 204970" d="M67.723,295.716l-2.556,16.319,28.718,6.4L78.517,303.938l.972-8.869Z" fill="#ffa47e"/>
      <path id="Trazado_204971" data-name="Trazado 204971" d="M71.384,310.64l-5.107-6.977-2.551,15.254,33.2.384-17.1-16.337Z" fill="#5038a1"/>
      <line id="Línea_236" data-name="Línea 236" x1="3.511" y2="2.026" transform="translate(79.63 305.041)" fill="none" stroke="#fff" stroke-miterlimit="10" stroke-width="0.527"/>
      <line id="Línea_237" data-name="Línea 237" x1="3.511" y2="2.026" transform="translate(82.605 306.616)" fill="none" stroke="#fff" stroke-miterlimit="10" stroke-width="0.527"/>
      <g id="Grupo_155778" data-name="Grupo 155778">
        <g id="Grupo_155777" data-name="Grupo 155777" clip-path="url(#clip-path-2)">
          <path id="Trazado_204972" data-name="Trazado 204972" d="M76.953,111.337l-32.888,3.176s-4.674,3.428-9.348,21.19c-5.7,21.643-14.228,77.961-17.032,159.139l21.27.639,17.421-123.9a1.588,1.588,0,0,1,3.112.51L65.2,296.871l20.96-.814s6.305-135.745.778-156.934c-5.21-19.971-9.986-27.786-9.986-27.786" fill="#5038a1"/>
        </g>
      </g>
      <g id="Grupo_155780" data-name="Grupo 155780">
        <g id="Grupo_155779" data-name="Grupo 155779" clip-path="url(#clip-path-3)">
          <path id="Trazado_204973" data-name="Trazado 204973" d="M23.194,133.146c2.649,6.323,5.63,13.353,11.955,16.812a14.016,14.016,0,0,0,8.869,1.749c3.192-.52,5.514-2.581,7.825-4.68,2.387-2.168,5.053-4.255,8.482-3.726,2.655.41,4.948,2.112,7.035,3.7,4.446,3.376,9.119,7.229,15.013,4.97,3.671-1.407,6.45-4.281,9.9-6.063,3.271-1.69,7.942-2.708,10.694.422.313.356.83-.165.519-.519-4.331-4.927-11.412-.875-15.561,2.052-2.955,2.085-6.244,4.406-10.05,4.07-2.787-.247-5.232-1.865-7.422-3.485-3.865-2.863-8.317-7.231-13.587-5.619-2.805.858-4.847,3.114-6.99,4.988-2.844,2.487-6.052,3.788-9.864,3.12-8.927-1.564-12.981-10.51-16.112-17.982-.18-.43-.891-.241-.708.195" fill="#8c6df2"/>
          <path id="Trazado_204974" data-name="Trazado 204974" d="M16.7,162.277c4.255,6.808,9.071,14.594,16.807,17.841,6.978,2.929,12.2-2.306,17.587-5.936,3.06-2.062,6.494-3.54,10.237-2.633,3.934.953,7.077,3.885,9.9,6.627,2.349,2.282,5.124,6.113,8.776,5.976,3.695-.138,6.045-3.817,8.9-5.649,9.464-6.078,20.525.686,28.513,5.986.4.262.763-.374.371-.634-6.975-4.628-14.783-9.576-23.552-8.125a15.278,15.278,0,0,0-5.371,1.932A33.638,33.638,0,0,0,84.6,181.1c-1.542,1.311-3.421,2.646-5.564,2.247-2.209-.412-3.865-2.329-5.391-3.833-4.745-4.676-10.569-10.739-17.923-8.5-6.237,1.9-10.436,8.672-17.131,9.262-4.944.435-9.555-3.295-12.764-6.656a71.208,71.208,0,0,1-8.487-11.713c-.25-.4-.885-.031-.634.371" fill="#8c6df2"/>
          <path id="Trazado_204975" data-name="Trazado 204975" d="M15.592,192.683A85.288,85.288,0,0,0,29.6,210.859c2.013,1.983,4.684,5.473,7.844,3.862,3.2-1.629,5.18-5.052,7.579-7.582,2.6-2.738,6.59-5.109,10.287-3,2.563,1.463,4.082,4.255,6,6.4a10.608,10.608,0,0,0,7.8,3.767c3.6.1,7.02-1.228,10.224-2.734,3.807-1.789,7.887-4.12,12.239-3.872,3.66.208,7.8,2.412,8.263,6.386.055.464.79.47.735,0-.729-6.214-8.106-7.948-13.238-6.619-3.805.985-7.178,3.082-10.795,4.549-3.576,1.451-7.97,2.4-11.584.557-5.028-2.564-6.893-10.811-13.618-9.936-3.435.447-6.075,3.016-8.211,5.536a48.077,48.077,0,0,1-3.709,4.165,8.34,8.34,0,0,1-2.793,1.954c-1.32.443-2.4-.195-3.39-1.032a79.156,79.156,0,0,1-17.013-20.944.367.367,0,0,0-.634.371" fill="#8c6df2"/>
          <path id="Trazado_204976" data-name="Trazado 204976" d="M12.549,224.982c4.767,6.407,6.5,15.163,13.443,19.808,2.761,1.847,6.263,2.992,9.566,2.082,3.529-.972,5.487-4.129,8.192-6.316,3.65-2.95,8.516-2.333,12.312.024a26.536,26.536,0,0,1,5.088,4.336c1.361,1.426,2.586,3.212,4.21,4.349,2.566,1.8,4.759-.07,6.021-2.356.778-1.41,1.336-2.96,2.245-4.3a8.559,8.559,0,0,1,4.283-3.184c9.008-3.2,17.142,4.428,25.862,5.173.47.04.468-.7,0-.735-7.925-.677-14.581-6.559-22.741-5.832a10.738,10.738,0,0,0-7.627,3.646,21.2,21.2,0,0,0-2.15,3.882c-.653,1.312-1.46,3.089-2.966,3.589-2.14.711-3.792-1.67-5.022-3.028a45.593,45.593,0,0,0-4.367-4.369c-2.8-2.354-6.271-4.128-10.018-3.947s-6.094,2.56-8.586,5.058a11.474,11.474,0,0,1-4.932,3.3,9.527,9.527,0,0,1-5.475-.257c-9.488-3.1-11.382-14.143-16.7-21.3-.279-.375-.917-.009-.634.371" fill="#8c6df2"/>
          <path id="Trazado_204977" data-name="Trazado 204977" d="M7.844,254.177c3.191,7.43,7.792,14.85,15.336,18.464a19.252,19.252,0,0,0,10.684,1.915c4.071-.522,7.576-2.717,11.114-4.632,3.88-2.1,7.881-3.506,12.356-3.061a18.034,18.034,0,0,1,6.672,2.01c1.814.969,3.4,2.33,5.276,3.186a5.568,5.568,0,0,0,4.668.289c1.512-.681,2.466-2.1,3.481-3.341a16.043,16.043,0,0,1,9.831-5.644c4.694-.774,8.775.885,12.806,3.123,3.6,2,7.276,4.2,11.533,4.058.471-.016.473-.75,0-.735-7.627.257-13.108-6.828-20.646-7.354a17.019,17.019,0,0,0-9.74,2.329,15.878,15.878,0,0,0-3.955,3.286c-1.22,1.417-2.283,3.3-4.208,3.826-2.242.617-4.47-.978-6.24-2.144a22.913,22.913,0,0,0-5.163-2.7,18.862,18.862,0,0,0-11.142-.335c-3.875,1.093-7.2,3.453-10.789,5.195A17.651,17.651,0,0,1,27.4,273.4c-9.55-2.414-15.258-11.067-18.922-19.6-.186-.433-.819-.059-.634.371" fill="#8c6df2"/>
        </g>
      </g>
      <g id="Grupo_155782" data-name="Grupo 155782">
        <g id="Grupo_155781" data-name="Grupo 155781" clip-path="url(#clip-path-2)">
          <path id="Trazado_204979" data-name="Trazado 204979" d="M40.682,295.1l1.1-7.055-25.616-.869-.434,8.692Z" fill="#8c6df2"/>
          <path id="Trazado_204980" data-name="Trazado 204980" d="M64.362,296.724c.427-.431-.868-8.249-.868-8.249l24.313-.868-.111,9.025Z" fill="#8c6df2"/>
          <path id="Trazado_204981" data-name="Trazado 204981" d="M7.6,66.918s15.61,46.1,23.393,43.841l-.118-22.824c-.288.454-13.291-25.37-13.291-25.37s-3.918-6.482-5.677-7.5a2.194,2.194,0,0,0-2.446,1.729l-1.967,9.5" fill="#ffa47e"/>
          <line id="Línea_238" data-name="Línea 238" y1="19.801" x2="4.018" transform="translate(12.479 45.732)" fill="none" stroke="#fff" stroke-linecap="round" stroke-miterlimit="10" stroke-width="3.045"/>
          <path id="Trazado_204982" data-name="Trazado 204982" d="M17.266,62.359s-.047-6.59-.97-6.715-5.292.2-5.712,1.7,3.28,1.421,3.28,1.421-1.737,3.075-.245,4.073,3.647-.482,3.647-.482" fill="#ffa47e"/>
          <path id="Trazado_204983" data-name="Trazado 204983" d="M58.707,48.08s-13.179,7.971-17.7,12.471-9.427,27.341-9.427,27.341L20.62,63.8,6.076,73.673S23.1,111.756,30.5,111.988s44.285-42,28.209-63.908" fill="#fdb74d"/>
          <path id="Trazado_204984" data-name="Trazado 204984" d="M40.278,23.853c-.22,6.74,1.987,13.787,7.765,17.787,5.445,3.77,13.075,2.871,18.05-1.363,8.145-6.932,5.67-22.836-3.36-26.518-1.241-.507-4.7-.857-5.223-1.835-7.072-1.2-14.746,2.023-16.39,7.4-.2.658-.62,1.678-1.068,2.827a5,5,0,0,1,.226,1.7" fill="#12263f"/>
          <path id="Trazado_204985" data-name="Trazado 204985" d="M60.456,29.073a.5.5,0,0,0,.647.329c1.13-.394,3.659-1.533,5.046,1.3,1.4,2.865-.872,5.529-2.556,6.213-.486.2-1.594.692-1.8,1.172-.647,1.478-.288,4.1-.031,7.429a9.183,9.183,0,0,0,6.933,8.618s-16.414,14-19.247,5.224c1.114-1.872.443-15.973-1.674-15.21-2.777,1-8.263-.241-8.821-12.835-.516-11.666,7.514-13.583,9.61-13.912,1.768-.278,7.68-1.9,11.9,11.671" fill="#ffa47e"/>
          <path id="Trazado_204986" data-name="Trazado 204986" d="M42.733,18.24S58.526,28.864,60.827,29.405c0,0,1.381-20.067-18.094-11.165" fill="#12263f"/>
          <path id="Trazado_204987" data-name="Trazado 204987" d="M65.157,32s-3.069-3.141-3.6,2.663" fill="#e07b51"/>
          <path id="Trazado_204988" data-name="Trazado 204988" d="M48.4,44.124s3.913-1.331,6.406-2.373-3.77,9.1-6.406,2.373" fill="#e07b51"/>
          <path id="Trazado_204989" data-name="Trazado 204989" d="M63.167,53.28s2.749-.759,2.288-.181a11.382,11.382,0,0,1-2.421,1.849Z" fill="#c20600"/>
          <path id="Trazado_204990" data-name="Trazado 204990" d="M48.732,53.485c.3.745-12.075,23.942-11.8,31.217.279,7.329,5.134,30.846,4.732,31.943,0,0,11.259,5.766,42.667,1.205,3.04-27.353,3.888-50.545-6.295-59.155,0,0-11.021-7.913-13.676-8.141,0,0-11.664,14.424-15.63,2.931" fill="#fdb74d"/>
          <path id="Trazado_204991" data-name="Trazado 204991" d="M76.372,55.736c-4.587-2.273-10.453-5.049-12.01-5.182a33.561,33.561,0,0,1-4.67,4.587,5.154,5.154,0,0,1-.052,1.924c-4.308,20.4-7.591,48.924-5.047,69.685,6.485.274,26.215,2.608,37.447.976-1.43-20.489-.579-43.342-4.008-57.5a22,22,0,0,0-11.66-14.486" fill="#8c6df2"/>
          <path id="Trazado_204992" data-name="Trazado 204992" d="M49.058,128.052c-2.353-20.838-2.255-50.858,1.891-71.42-.444-.631-.961-3.351-1.3-4.341.3.744-12.988,25.136-12.711,32.41.279,7.329-4.081,41.928-4.484,43.025,0,0,12.135-.507,16.607.326" fill="#8c6df2"/>
          <path id="Trazado_204993" data-name="Trazado 204993" d="M38.5,90.6a6.816,6.816,0,0,0-.57-2.192,2.313,2.313,0,0,0-1.739-1.317,2.744,2.744,0,0,0-2.378,1.563,6.225,6.225,0,0,0-.579,1.277c-.039.119-.062.275.041.345a.315.315,0,0,0,.215.025c1.542-.181,3.08.6,4.619.4" fill="#35445c"/>
          <path id="Trazado_204994" data-name="Trazado 204994" d="M33,91.413l5.538.066a.652.652,0,0,0,.016-1.3l-5.538-.066a.652.652,0,1,0-.016,1.3" fill="#adbede"/>
          <path id="Trazado_204995" data-name="Trazado 204995" d="M33.513,98.544,25.139,71.137a5.425,5.425,0,0,0-2.957-3.385L4.459,59.843a.674.674,0,0,0-.9.844l8.471,26.854a5.43,5.43,0,0,0,2.8,3.272L32.6,99.374a.673.673,0,0,0,.914-.83" fill="#8c6df2"/>
          <path id="Trazado_204996" data-name="Trazado 204996" d="M32.359,100.266,23.985,72.859a5.425,5.425,0,0,0-2.957-3.385L3.305,61.565a.675.675,0,0,0-.895.845l8.471,26.853a5.427,5.427,0,0,0,2.8,3.272L31.445,101.1a.673.673,0,0,0,.914-.83" fill="#5038a1"/>
          <path id="Trazado_204997" data-name="Trazado 204997" d="M32.288,95.164S60,127.573,66.132,122.279l-9.615-20.7c-.072.533-22.65-17.528-22.65-17.528S18.475,77.808,18.086,79.8c-.27,1.386,9.221,2.485,8.321,2.474-.1,0-8.369-1.5-9.178-.707-1.2,1.167,8.485,3.05,8.366,3.7,0,0-9.672.064-9.975,1.031s9.651,1.682,9.454,1.97-8.291-.685-7.113.051c1.3.814,14.327,6.838,14.327,6.838" fill="#ffa47e"/>
          <path id="Trazado_204998" data-name="Trazado 204998" d="M28.347,82.663s-3.671-7.442-2.032-6.549S36.351,86.276,36.351,86.276" fill="#ffa47e"/>
          <path id="Trazado_204999" data-name="Trazado 204999" d="M81.557,61.842a5.433,5.433,0,0,0-9.3.56c-2.1,3.983-3.766,11.175-4.966,14.386-2.232,5.973-11.736,23.752-11.736,23.752L36.725,85.729l-5.484,12.78s27.521,28.531,34.341,25.66c6.079-2.558,27.9-44.367,15.975-62.327" fill="#fedc72"/>
          <path id="Trazado_205000" data-name="Trazado 205000" d="M69.655,8.223a8.223,8.223,0,1,0-8.223,8.223,8.223,8.223,0,0,0,8.223-8.223" fill="#12263f"/>
        </g>
      </g>
    </g>
  </g>
</svg>
