<svg xmlns="http://www.w3.org/2000/svg" xmlns:xlink="http://www.w3.org/1999/xlink" width="196.955" height="191.308" viewBox="0 0 196.955 191.308">
  <defs>
    <clipPath id="clip-path">
      <rect id="Rectángulo_46429" data-name="Rectángulo 46429" width="180" height="149.188" fill="none"/>
    </clipPath>
    <clipPath id="clip-path-3">
      <rect id="Rectángulo_46396" data-name="Rectángulo 46396" width="57.595" height="85.48" fill="none"/>
    </clipPath>
    <clipPath id="clip-path-4">
      <rect id="Rectángulo_46386" data-name="Rectángulo 46386" width="36.929" height="78.219" transform="translate(0 10.473) rotate(-16.475)" fill="none"/>
    </clipPath>
    <clipPath id="clip-path-5">
      <rect id="Rectángulo_46385" data-name="Rectángulo 46385" width="12.327" height="19.982" fill="none"/>
    </clipPath>
    <clipPath id="clip-path-6">
      <rect id="Rectángulo_46384" data-name="Rectángulo 46384" width="7.334" height="18.668" transform="matrix(0.959, -0.284, 0.284, 0.959, 0, 2.08)" fill="none"/>
    </clipPath>
    <clipPath id="clip-path-7">
      <path id="Trazado_205067" data-name="Trazado 205067" d="M178.607,129.64,165.121,135.7,185.5,179a3.69,3.69,0,0,0,3.954,2.067,45.669,45.669,0,0,0,5.144-1.181l.267-.079a37.177,37.177,0,0,0,14.782-8.2,3.789,3.789,0,0,0,.893-4.237l-18.444-43.79Z" transform="translate(-165.121 -123.58)" fill="none"/>
    </clipPath>
    <clipPath id="clip-path-9">
      <rect id="Rectángulo_46388" data-name="Rectángulo 46388" width="29.849" height="14.205" fill="none"/>
    </clipPath>
    <clipPath id="clip-path-10">
      <rect id="Rectángulo_46387" data-name="Rectángulo 46387" width="29.309" height="6.145" transform="translate(0 8.312) rotate(-16.475)" fill="none"/>
    </clipPath>
    <clipPath id="clip-path-11">
      <rect id="Rectángulo_46390" data-name="Rectángulo 46390" width="11.044" height="5.256" fill="none"/>
    </clipPath>
    <clipPath id="clip-path-12">
      <rect id="Rectángulo_46389" data-name="Rectángulo 46389" width="10.844" height="2.274" transform="translate(0 3.076) rotate(-16.476)" fill="none"/>
    </clipPath>
    <clipPath id="clip-path-13">
      <rect id="Rectángulo_46392" data-name="Rectángulo 46392" width="43.451" height="60.719" fill="none"/>
    </clipPath>
    <clipPath id="clip-path-14">
      <rect id="Rectángulo_46391" data-name="Rectángulo 46391" width="29.134" height="54.702" transform="translate(0 8.262) rotate(-16.475)" fill="none"/>
    </clipPath>
    <clipPath id="clip-path-15">
      <rect id="Rectángulo_46394" data-name="Rectángulo 46394" width="12" height="26.126" fill="none"/>
    </clipPath>
    <clipPath id="clip-path-16">
      <rect id="Rectángulo_46393" data-name="Rectángulo 46393" width="4.884" height="25.801" transform="translate(0 1.385) rotate(-16.475)" fill="none"/>
    </clipPath>
    <clipPath id="clip-path-17">
      <rect id="Rectángulo_46398" data-name="Rectángulo 46398" width="12.328" height="19.982" fill="none"/>
    </clipPath>
    <clipPath id="clip-path-18">
      <rect id="Rectángulo_46397" data-name="Rectángulo 46397" width="7.334" height="18.669" transform="matrix(0.959, -0.284, 0.284, 0.959, 0, 2.08)" fill="none"/>
    </clipPath>
    <clipPath id="clip-path-19">
      <path id="Trazado_205085" data-name="Trazado 205085" d="M172.961,128.181l-13.486,6.06,20.376,43.3a3.689,3.689,0,0,0,3.954,2.067c10.735-1.829,17.255-6.708,20.193-9.459a3.79,3.79,0,0,0,.893-4.237l-18.443-43.79Z" transform="translate(-159.475 -122.121)" fill="none"/>
    </clipPath>
    <clipPath id="clip-path-20">
      <path id="Trazado_205095" data-name="Trazado 205095" d="M278.533,84.345a3.148,3.148,0,0,0,1.7,3.4,33.148,33.148,0,0,0,18.7,3.533,3.234,3.234,0,0,0,2.733-2.487l8.077-34.569L297.387,51.69l-12.358-2.538Z" transform="translate(-278.48 -49.152)" fill="none"/>
    </clipPath>
    <clipPath id="clip-path-22">
      <rect id="Rectángulo_46401" data-name="Rectángulo 46401" width="9.151" height="2.381" fill="none"/>
    </clipPath>
    <clipPath id="clip-path-23">
      <rect id="Rectángulo_46400" data-name="Rectángulo 46400" width="9.15" height="2.381" fill="none"/>
    </clipPath>
    <clipPath id="clip-path-24">
      <rect id="Rectángulo_46403" data-name="Rectángulo 46403" width="6.692" height="15.309" fill="none"/>
    </clipPath>
    <clipPath id="clip-path-26">
      <rect id="Rectángulo_46405" data-name="Rectángulo 46405" width="21.994" height="26.453" fill="none"/>
    </clipPath>
    <clipPath id="clip-path-27">
      <rect id="Rectángulo_46404" data-name="Rectángulo 46404" width="19.15" height="24.279" transform="matrix(0.992, -0.123, 0.123, 0.992, 0, 2.359)" fill="none"/>
    </clipPath>
    <clipPath id="clip-path-28">
      <rect id="Rectángulo_46407" data-name="Rectángulo 46407" width="11.581" height="10.787" fill="none"/>
    </clipPath>
    <clipPath id="clip-path-29">
      <rect id="Rectángulo_46406" data-name="Rectángulo 46406" width="10.482" height="9.569" transform="matrix(0.992, -0.123, 0.123, 0.992, 0, 1.291)" fill="none"/>
    </clipPath>
    <clipPath id="clip-path-30">
      <rect id="Rectángulo_46413" data-name="Rectángulo 46413" width="49.724" height="43.461" fill="none"/>
    </clipPath>
    <clipPath id="clip-path-31">
      <rect id="Rectángulo_46412" data-name="Rectángulo 46412" width="31.589" height="41.703" transform="translate(0 29.863) rotate(-70.968)" fill="none"/>
    </clipPath>
    <clipPath id="clip-path-32">
      <rect id="Rectángulo_46418" data-name="Rectángulo 46418" width="70.465" height="82.942" fill="none"/>
    </clipPath>
    <clipPath id="clip-path-33">
      <path id="Trazado_205110" data-name="Trazado 205110" d="M332.291,310.95a3.306,3.306,0,0,0,.343,4.184l4.395,4.522a10.61,10.61,0,0,0,4.045,2.589l.239.084.125.043a51.658,51.658,0,0,0,6.479,1.724,86.079,86.079,0,0,0,13.846,1.539,10.477,10.477,0,0,0,5.036-1.114l4.121-2.071a4.586,4.586,0,0,0,2.412-5.169l-4.454-18.86-24.7-4.577Z" transform="translate(-331.702 -293.845)" fill="none"/>
    </clipPath>
    <clipPath id="clip-path-35">
      <path id="Trazado_205112" data-name="Trazado 205112" d="M332.291,322.133a3.306,3.306,0,0,0,.343,4.184l4.395,4.522a10.61,10.61,0,0,0,4.045,2.589l.239.084.125.043a51.653,51.653,0,0,0,6.479,1.724c5.291,1.071,17.32,1.211,18.882.425l4.121-2.071a4.586,4.586,0,0,0,2.412-5.169l-3.453-14.621a42.518,42.518,0,0,0-10.092.876c-5.618.928-11.161,1.856-15.055-.807a21.19,21.19,0,0,0-4.942-2.572Z" transform="translate(-331.702 -311.341)" fill="none"/>
    </clipPath>
    <clipPath id="clip-path-36">
      <rect id="Rectángulo_46425" data-name="Rectángulo 46425" width="41.751" height="24.503" fill="none"/>
    </clipPath>
    <clipPath id="clip-path-37">
      <rect id="Rectángulo_46424" data-name="Rectángulo 46424" width="12.128" height="39.982" transform="translate(0 11.465) rotate(-70.968)" fill="none"/>
    </clipPath>
    <clipPath id="clip-path-38">
      <rect id="Rectángulo_46427" data-name="Rectángulo 46427" width="50.778" height="31.58" fill="none"/>
    </clipPath>
    <clipPath id="clip-path-39">
      <rect id="Rectángulo_46426" data-name="Rectángulo 46426" width="16.887" height="47.889" transform="translate(0 15.964) rotate(-70.968)" fill="none"/>
    </clipPath>
  </defs>
  <g id="Grupo_155601" data-name="Grupo 155601" transform="translate(-281.834 -1838.528)">
    <path id="Trazado_1035" data-name="Trazado 1035" d="M660.979,507.8c5.025-45.032-39.349-60.677-70.808-49.147-31.713,11.624-39.066-7.645-83.66-2.139-45.154,5.574-22.229,75.31-22.229,75.31s7.185,60.639,15.7,88.591c8.466,27.8,89.5,17.742,109.216,16.913,19.6-.825,36.631.767,53.684-29.757C679.9,577.1,655.97,552.678,660.979,507.8Z" transform="matrix(0.999, -0.035, 0.035, 0.999, -212.217, 1407.156)" fill="#f4f7fa"/>
    <g id="Grupo_155917" data-name="Grupo 155917" transform="translate(290.311 1859.589)">
      <g id="Grupo_155916" data-name="Grupo 155916" clip-path="url(#clip-path)">
        <g id="Grupo_155861" data-name="Grupo 155861">
          <g id="Grupo_155860" data-name="Grupo 155860" clip-path="url(#clip-path)">
            <g id="Grupo_155854" data-name="Grupo 155854" transform="translate(51.786 19.882)" opacity="0.2" style="mix-blend-mode: multiply;isolation: isolate">
              <g id="Grupo_155853" data-name="Grupo 155853">
                <g id="Grupo_155852" data-name="Grupo 155852" clip-path="url(#clip-path-3)">
                  <g id="Grupo_155827" data-name="Grupo 155827" transform="translate(0 0)">
                    <g id="Grupo_155826" data-name="Grupo 155826" clip-path="url(#clip-path-4)">
                      <path id="Trazado_205056" data-name="Trazado 205056" d="M180.594,94.045s2.135-4.222,1.231-7.361c-1.736-6.028-8.441-11.93-6.2-14.882,0,0-7.384,4.129-4.855,13.366,1.839,6.713,8.229,9.5,9.824,8.877" transform="translate(-160.595 -65.774)" fill="#6f1472"/>
                      <g id="Grupo_155825" data-name="Grupo 155825" transform="translate(9.885 9.724)" style="mix-blend-mode: multiply;isolation: isolate">
                        <g id="Grupo_155824" data-name="Grupo 155824">
                          <g id="Grupo_155823" data-name="Grupo 155823" clip-path="url(#clip-path-5)">
                            <g id="Grupo_155822" data-name="Grupo 155822" transform="translate(0 0)">
                              <g id="Grupo_155821" data-name="Grupo 155821" clip-path="url(#clip-path-6)">
                                <path id="Trazado_205057" data-name="Trazado 205057" d="M185.126,102.291s1.539-3.044.887-5.306c-1.251-4.345-8.742-10.186-7.127-12.313a15.422,15.422,0,0,0-.842,11.22c1.325,4.839,5.932,6.847,7.082,6.4" transform="translate(-175.059 -83.724)" fill="#6f1472"/>
                              </g>
                            </g>
                          </g>
                        </g>
                      </g>
                    </g>
                  </g>
                  <g id="Grupo_155829" data-name="Grupo 155829" transform="translate(7.799 24.712)">
                    <g id="Grupo_155828" data-name="Grupo 155828" clip-path="url(#clip-path-7)">
                      <path id="Trazado_205058" data-name="Trazado 205058" d="M178.607,129.64l13.486-6.06,18.443,43.789a3.79,3.79,0,0,1-.893,4.237c-2.937,2.751-9.458,7.63-20.193,9.459A3.689,3.689,0,0,1,185.5,179l-20.376-43.3Z" transform="translate(-165.121 -123.58)" fill="#6f1472"/>
                      <path id="Trazado_205059" data-name="Trazado 205059" d="M189.021,191.294c4.926,4.108,25.034-5.251,28.442-12.456" transform="translate(-180.397 -158.898)" fill="none" stroke="#6f1472" stroke-miterlimit="10" stroke-width="4.097"/>
                      <path id="Trazado_205060" data-name="Trazado 205060" d="M193.148,200.477c5.046,3.706,24.3-4.573,28.442-12.456" transform="translate(-183.034 -164.767)" fill="none" stroke="#6f1472" stroke-miterlimit="10" stroke-width="3.746"/>
                      <path id="Trazado_205061" data-name="Trazado 205061" d="M197.274,209.659c5.167,3.305,23.559-3.894,28.442-12.456" transform="translate(-185.671 -170.636)" fill="none" stroke="#6f1472" stroke-miterlimit="10" stroke-width="3.395"/>
                      <path id="Trazado_205062" data-name="Trazado 205062" d="M201.4,218.842c5.287,2.9,22.822-3.215,28.442-12.456" transform="translate(-188.309 -176.505)" fill="none" stroke="#6f1472" stroke-miterlimit="10" stroke-width="3.044"/>
                      <path id="Trazado_205063" data-name="Trazado 205063" d="M205.526,228.026c5.408,2.5,22.085-2.537,28.442-12.456" transform="translate(-190.946 -182.375)" fill="none" stroke="#6f1472" stroke-miterlimit="10" stroke-width="2.692"/>
                      <path id="Trazado_205064" data-name="Trazado 205064" d="M209.653,237.208c5.529,2.1,21.348-1.858,28.442-12.456" transform="translate(-193.583 -188.244)" fill="none" stroke="#6f1472" stroke-miterlimit="10" stroke-width="2.341"/>
                      <path id="Trazado_205065" data-name="Trazado 205065" d="M213.779,246.392c5.649,1.7,20.611-1.18,28.442-12.456" transform="translate(-196.221 -194.113)" fill="none" stroke="#6f1472" stroke-miterlimit="10" stroke-width="1.99"/>
                      <path id="Trazado_205066" data-name="Trazado 205066" d="M217.9,255.575c5.77,1.3,19.874-.5,28.442-12.456" transform="translate(-198.858 -199.983)" fill="none" stroke="#6f1472" stroke-miterlimit="10" stroke-width="1.639"/>
                    </g>
                  </g>
                  <g id="Grupo_155851" data-name="Grupo 155851" transform="translate(0 0)">
                    <g id="Grupo_155850" data-name="Grupo 155850" clip-path="url(#clip-path-4)">
                      <path id="Trazado_205068" data-name="Trazado 205068" d="M192.03,122.918c.536,1.192-5.069,4.871-12.517,8.218s-13.92,5.094-14.455,3.9,5.069-4.871,12.517-8.217,13.92-5.094,14.455-3.9" transform="translate(-157.259 -98.205)" fill="#6f1472"/>
                      <g id="Grupo_155834" data-name="Grupo 155834" transform="translate(6.361 23.67)" opacity="0.45" style="mix-blend-mode: multiply;isolation: isolate">
                        <g id="Grupo_155833" data-name="Grupo 155833">
                          <g id="Grupo_155832" data-name="Grupo 155832" clip-path="url(#clip-path-9)">
                            <g id="Grupo_155831" data-name="Grupo 155831" transform="translate(0 0)">
                              <g id="Grupo_155830" data-name="Grupo 155830" clip-path="url(#clip-path-10)">
                                <path id="Trazado_205069" data-name="Trazado 205069" d="M192.03,122.918c.536,1.192-5.069,4.871-12.517,8.218s-13.92,5.094-14.455,3.9,5.069-4.871,12.517-8.217,13.92-5.094,14.455-3.9" transform="translate(-163.62 -121.875)" fill="#6f1472"/>
                              </g>
                            </g>
                          </g>
                        </g>
                      </g>
                      <g id="Grupo_155839" data-name="Grupo 155839" transform="translate(15.764 28.145)" opacity="0.45" style="mix-blend-mode: multiply;isolation: isolate">
                        <g id="Grupo_155838" data-name="Grupo 155838">
                          <g id="Grupo_155837" data-name="Grupo 155837" clip-path="url(#clip-path-11)">
                            <g id="Grupo_155836" data-name="Grupo 155836" transform="translate(0 0)">
                              <g id="Grupo_155835" data-name="Grupo 155835" clip-path="url(#clip-path-12)">
                                <path id="Trazado_205070" data-name="Trazado 205070" d="M198.623,133.915c.2.441-1.875,1.8-4.631,3.041s-5.15,1.884-5.349,1.443,1.875-1.8,4.631-3.04,5.15-1.884,5.349-1.444" transform="translate(-188.111 -133.529)" fill="#6f1472"/>
                              </g>
                            </g>
                          </g>
                        </g>
                      </g>
                      <g id="Grupo_155844" data-name="Grupo 155844" transform="translate(11.908 23.212)" opacity="0.45" style="mix-blend-mode: multiply;isolation: isolate">
                        <g id="Grupo_155843" data-name="Grupo 155843">
                          <g id="Grupo_155842" data-name="Grupo 155842" clip-path="url(#clip-path-13)">
                            <g id="Grupo_155841" data-name="Grupo 155841" transform="translate(0 0)">
                              <g id="Grupo_155840" data-name="Grupo 155840" clip-path="url(#clip-path-14)">
                                <path id="Trazado_205071" data-name="Trazado 205071" d="M207.584,168.261,212.637,179a3.688,3.688,0,0,0,3.954,2.067c10.735-1.829,17.255-6.707,20.193-9.459a3.789,3.789,0,0,0,.892-4.237l-18.443-43.789s12.216,29.918-11.649,44.68" transform="translate(-196.37 -122.08)" fill="#6f1472"/>
                              </g>
                            </g>
                          </g>
                        </g>
                      </g>
                      <g id="Grupo_155849" data-name="Grupo 155849" transform="translate(11.593 38.222)" style="mix-blend-mode: screen;isolation: isolate">
                        <g id="Grupo_155848" data-name="Grupo 155848">
                          <g id="Grupo_155847" data-name="Grupo 155847" clip-path="url(#clip-path-15)">
                            <g id="Grupo_155846" data-name="Grupo 155846" transform="translate(0 0)">
                              <g id="Grupo_155845" data-name="Grupo 155845" clip-path="url(#clip-path-16)">
                                <path id="Trazado_205072" data-name="Trazado 205072" d="M177.045,165.874,188.4,187.186l-8.1-22.75a1.785,1.785,0,1,0-3.258,1.438" transform="translate(-176.402 -162.444)" fill="#6f1472"/>
                              </g>
                            </g>
                          </g>
                        </g>
                      </g>
                      <path id="Trazado_205073" data-name="Trazado 205073" d="M190.506,113.275c-.764-1.18-1.478-2.392-2.171-3.615s-1.345-2.469-1.98-3.725c-.612-1.266-1.211-2.542-1.714-3.859a20.4,20.4,0,0,1-.661-2.009,4.817,4.817,0,0,1-.186-2.093,5.034,5.034,0,0,0,.325,2.053,20.914,20.914,0,0,0,.733,1.965c.543,1.29,1.137,2.56,1.768,3.812.611,1.262,1.265,2.5,1.914,3.747Z" transform="translate(-169.22 -82.502)" fill="#6f1472"/>
                    </g>
                  </g>
                </g>
              </g>
            </g>
            <path id="Trazado_205074" data-name="Trazado 205074" d="M174.949,92.586s2.135-4.222,1.231-7.361c-1.736-6.028-8.441-11.93-6.2-14.882,0,0-7.384,4.129-4.855,13.366,1.839,6.713,8.229,9.5,9.824,8.877" transform="translate(-105.201 -44.959)" fill="#fedc72"/>
            <g id="Grupo_155859" data-name="Grupo 155859" transform="translate(59.633 29.08)" style="mix-blend-mode: multiply;isolation: isolate">
              <g id="Grupo_155858" data-name="Grupo 155858">
                <g id="Grupo_155857" data-name="Grupo 155857" clip-path="url(#clip-path-17)">
                  <g id="Grupo_155856" data-name="Grupo 155856" transform="translate(0 0)">
                    <g id="Grupo_155855" data-name="Grupo 155855" clip-path="url(#clip-path-18)">
                      <path id="Trazado_205075" data-name="Trazado 205075" d="M179.48,100.832s1.539-3.044.887-5.306c-1.251-4.345-8.742-10.186-7.127-12.313a15.422,15.422,0,0,0-.842,11.22c1.325,4.839,5.932,6.847,7.082,6.4" transform="translate(-169.413 -82.265)" fill="#fedc72"/>
                    </g>
                  </g>
                </g>
              </g>
            </g>
          </g>
        </g>
        <g id="Grupo_155863" data-name="Grupo 155863" transform="translate(57.547 44.068)">
          <g id="Grupo_155862" data-name="Grupo 155862" clip-path="url(#clip-path-19)">
            <path id="Trazado_205076" data-name="Trazado 205076" d="M172.961,128.181l13.486-6.06,18.443,43.789a3.79,3.79,0,0,1-.893,4.237c-2.937,2.751-9.458,7.63-20.193,9.459a3.689,3.689,0,0,1-3.954-2.067l-20.376-43.3Z" transform="translate(-159.475 -122.121)" fill="#8c6df2"/>
            <path id="Trazado_205077" data-name="Trazado 205077" d="M187.023,191.84q-.34,0-.662-.018a6.092,6.092,0,0,1-3.625-1.218l1.281-1.536c1.087.907,3.424,1.023,6.582.327a43.508,43.508,0,0,0,12.236-5.113c4.1-2.475,7.047-5.146,8.08-7.33l1.808.855c-1.639,3.464-6.251,6.616-8.854,8.187a45.605,45.605,0,0,1-12.839,5.353A18.883,18.883,0,0,1,187.023,191.84Z" transform="translate(-174.751 -157.439)" fill="#ffebe9"/>
            <path id="Trazado_205078" data-name="Trazado 205078" d="M191.154,200.927a7.172,7.172,0,0,1-4.244-1.1l1.184-1.612c1.2.884,3.8.952,7.122.187a42.235,42.235,0,0,0,11.743-4.908c3.979-2.4,6.856-5.028,8.1-7.394l1.77.931c-1.412,2.684-4.55,5.588-8.837,8.176a44.311,44.311,0,0,1-12.327,5.144A20.67,20.67,0,0,1,191.154,200.927Z" transform="translate(-177.388 -163.308)" fill="#ffebe9"/>
            <path id="Trazado_205079" data-name="Trazado 205079" d="M195.269,210.024a7.8,7.8,0,0,1-4.18-.981l1.078-1.685c1.39.889,4.267.887,7.892-.007a41.441,41.441,0,0,0,11.137-4.717c3.75-2.286,6.594-4.909,8.006-7.385l1.737.991c-2.021,3.544-5.848,6.362-8.7,8.1a43.524,43.524,0,0,1-11.7,4.951A22.792,22.792,0,0,1,195.269,210.024Z" transform="translate(-180.025 -169.177)" fill="#ffebe9"/>
            <path id="Trazado_205080" data-name="Trazado 205080" d="M199.424,219.11a8.72,8.72,0,0,1-4.15-.849l.963-1.753a9.412,9.412,0,0,0,5.279.462,32.659,32.659,0,0,0,7.962-2.187c6.273-2.534,11.457-6.413,13.866-10.375l1.709,1.039a23.294,23.294,0,0,1-6.338,6.543,40.385,40.385,0,0,1-8.487,4.647,34.671,34.671,0,0,1-8.462,2.317A18.919,18.919,0,0,1,199.424,219.11Z" transform="translate(-182.663 -175.047)" fill="#ffebe9"/>
            <path id="Trazado_205081" data-name="Trazado 205081" d="M203.546,228.2a9.887,9.887,0,0,1-4.085-.727l.84-1.815a10.706,10.706,0,0,0,5.3.418,32.072,32.072,0,0,0,7.785-2.013c6.234-2.417,11.372-6.242,14.1-10.493l1.684,1.079a25.265,25.265,0,0,1-6.624,6.755,38.437,38.437,0,0,1-8.434,4.524,34.088,34.088,0,0,1-8.282,2.135A20.246,20.246,0,0,1,203.546,228.2Z" transform="translate(-185.3 -180.916)" fill="#ffebe9"/>
            <path id="Trazado_205082" data-name="Trazado 205082" d="M207.678,237.293a11.565,11.565,0,0,1-4.026-.609l.71-1.87c2.205.838,7.059.709,12.931-1.469,3.589-1.331,10.222-4.479,14.325-10.608l1.662,1.113c-4.417,6.6-11.476,9.956-15.292,11.371A30.917,30.917,0,0,1,207.678,237.293Z" transform="translate(-187.937 -186.785)" fill="#ffebe9"/>
            <path id="Trazado_205083" data-name="Trazado 205083" d="M211.8,246.386a13.993,13.993,0,0,1-3.957-.5l.576-1.915c2.411.725,7.3.59,12.782-1.348a29.557,29.557,0,0,0,14.551-10.721l1.643,1.141a29.2,29.2,0,0,1-7.2,7.189,34.18,34.18,0,0,1-8.329,4.277A31.376,31.376,0,0,1,211.8,246.386Z" transform="translate(-190.575 -192.654)" fill="#ffebe9"/>
            <path id="Trazado_205084" data-name="Trazado 205084" d="M216,255.475a18.422,18.422,0,0,1-3.958-.384l.439-1.951a25.571,25.571,0,0,0,12.634-1.231,29.659,29.659,0,0,0,14.775-10.832l1.626,1.165a31.648,31.648,0,0,1-15.765,11.563A31.116,31.116,0,0,1,216,255.475Z" transform="translate(-193.212 -198.524)" fill="#ffebe9"/>
          </g>
        </g>
        <g id="Grupo_155866" data-name="Grupo 155866" transform="translate(100.491 17.737)">
          <g id="Grupo_155865" data-name="Grupo 155865" clip-path="url(#clip-path-20)">
            <path id="Trazado_205086" data-name="Trazado 205086" d="M295.588,51.69l12.358,2.537-9.092,39.512a3.233,3.233,0,0,1-2.733,2.487,33.149,33.149,0,0,1-18.7-3.532,3.148,3.148,0,0,1-1.705-3.4l7.51-40.137Z" transform="translate(-276.681 -49.152)" fill="#5038a1"/>
            <path id="Trazado_205087" data-name="Trazado 205087" d="M303.841,107.853c-1.049,0-2.013-.051-2.783-.111a39.069,39.069,0,0,1-11.616-2.663c-3.166-1.352-5.008-2.943-5.474-4.729l1.935-.505c.289,1.108,1.865,2.345,4.324,3.394a36.97,36.97,0,0,0,10.986,2.509c4.047.314,7.387-.073,9.163-1.063l.974,1.747C309.315,107.566,306.336,107.853,303.841,107.853Z" transform="translate(-282.606 -81.714)" fill="#ffebe9"/>
            <path id="Trazado_205088" data-name="Trazado 205088" d="M301.972,116.287c-.841,0-1.715-.035-2.619-.1a37.963,37.963,0,0,1-11.156-2.554c-2.286-.95-5.166-2.553-5.9-4.8l1.9-.623c.384,1.171,2.122,2.473,4.769,3.572,5.792,2.406,15.331,3.535,19.758,1.306l.9,1.786A17.573,17.573,0,0,1,301.972,116.287Z" transform="translate(-281.526 -87.097)" fill="#ffebe9"/>
            <path id="Trazado_205089" data-name="Trazado 205089" d="M300.139,124.723c-.845,0-1.647-.036-2.371-.088a37.292,37.292,0,0,1-10.622-2.376c-2.463-.98-5.593-2.633-6.519-4.943l1.856-.744c.5,1.251,2.521,2.683,5.4,3.829a35.21,35.21,0,0,0,10.028,2.239,19.465,19.465,0,0,0,9.149-1.143l.838,1.816A19.029,19.029,0,0,1,300.139,124.723Z" transform="translate(-280.445 -92.481)" fill="#ffebe9"/>
            <path id="Trazado_205090" data-name="Trazado 205090" d="M298.261,133.158a34.757,34.757,0,0,1-8.013-.989,29.735,29.735,0,0,1-7.06-2.6,9.468,9.468,0,0,1-4.224-3.766l1.8-.867c.927,1.927,5.019,4.1,9.951,5.291,5.583,1.345,11.071,1.227,14.681-.317l.786,1.839a20.02,20.02,0,0,1-7.7,1.41Z" transform="translate(-279.365 -97.864)" fill="#ffebe9"/>
            <path id="Trazado_205091" data-name="Trazado 205091" d="M296.381,141.593a32.992,32.992,0,0,1-8.05-1.048,29.233,29.233,0,0,1-6.845-2.64,10.726,10.726,0,0,1-4.182-3.623l1.739-.989c1.1,1.936,5.125,4.121,9.784,5.314,5.5,1.407,10.929,1.3,14.9-.287l.743,1.857a21.7,21.7,0,0,1-8,1.415Z" transform="translate(-278.284 -103.247)" fill="#ffebe9"/>
            <path id="Trazado_205092" data-name="Trazado 205092" d="M294.521,150.029a31.476,31.476,0,0,1-8.105-1.108c-4.943-1.343-9.168-3.759-10.764-6.156l1.665-1.108a10.509,10.509,0,0,0,3.462,2.851,26.74,26.74,0,0,0,6.161,2.483c3.135.852,9.267,1.951,15.118-.255l.706,1.871A23.347,23.347,0,0,1,294.521,150.029Z" transform="translate(-277.204 -108.63)" fill="#ffebe9"/>
            <path id="Trazado_205093" data-name="Trazado 205093" d="M292.6,158.466h-.161A29.315,29.315,0,0,1,284.5,157.3c-4.547-1.311-8.666-3.686-10.5-6.052l1.582-1.224c1.3,1.681,4.731,3.988,9.468,5.354a25.078,25.078,0,0,0,15.331-.223l.673,1.883A25.029,25.029,0,0,1,292.6,158.466Z" transform="translate(-276.124 -114.014)" fill="#ffebe9"/>
            <path id="Trazado_205094" data-name="Trazado 205094" d="M290.714,166.9a27.9,27.9,0,0,1-8.134-1.227,23.429,23.429,0,0,1-10.222-5.95l1.491-1.333a21.668,21.668,0,0,0,9.317,5.37,25.162,25.162,0,0,0,15.541-.19l.645,1.893A26.656,26.656,0,0,1,290.714,166.9Z" transform="translate(-275.043 -119.397)" fill="#ffebe9"/>
          </g>
        </g>
        <g id="Grupo_155915" data-name="Grupo 155915">
          <g id="Grupo_155914" data-name="Grupo 155914" clip-path="url(#clip-path)">
            <path id="Trazado_205096" data-name="Trazado 205096" d="M321.332,53.023c-.224,1.092-5.939.842-12.764-.56s-12.177-3.423-11.952-4.515,5.939-.842,12.764.56,12.177,3.423,11.952,4.515" transform="translate(-189.576 -30.211)" fill="#5038a1"/>
            <g id="Grupo_155871" data-name="Grupo 155871" transform="translate(114.823 19.084)" opacity="0.45" style="mix-blend-mode: multiply;isolation: isolate">
              <g id="Grupo_155870" data-name="Grupo 155870">
                <g id="Grupo_155869" data-name="Grupo 155869" clip-path="url(#clip-path-22)">
                  <g id="Grupo_155868" data-name="Grupo 155868" transform="translate(0 0)">
                    <g id="Grupo_155867" data-name="Grupo 155867" clip-path="url(#clip-path-23)">
                      <path id="Trazado_205097" data-name="Trazado 205097" d="M327.344,55.015c-.083.4-2.2.311-4.723-.207s-4.505-1.267-4.423-1.671,2.2-.311,4.723.207,4.505,1.267,4.423,1.671" transform="translate(-318.196 -52.885)" fill="#c2bc32"/>
                    </g>
                  </g>
                </g>
              </g>
            </g>
            <path id="Trazado_205098" data-name="Trazado 205098" d="M326.423,17.9s3.585-1.857,4.526-4.48c1.808-5.038.113-12.47,3.137-13.394a9.838,9.838,0,0,0-10.031,6.827c-2.078,5.564.954,10.681,2.368,11.047" transform="translate(-206.667 0)" fill="#fedc72"/>
            <g id="Grupo_155878" data-name="Grupo 155878" transform="translate(117.497 2.583)" style="mix-blend-mode: multiply;isolation: isolate">
              <g id="Grupo_155877" data-name="Grupo 155877">
                <g id="Grupo_155876" data-name="Grupo 155876" clip-path="url(#clip-path-24)">
                  <g id="Grupo_155875" data-name="Grupo 155875" transform="translate(0 0)">
                    <g id="Grupo_155874" data-name="Grupo 155874" clip-path="url(#clip-path-24)">
                      <path id="Trazado_205099" data-name="Trazado 205099" d="M327.824,22.466s2.584-1.338,3.263-3.229c1.3-3.632-.966-11.413,1.213-12.08a13.159,13.159,0,0,0-6.183,7.345c-1.5,4.011.688,7.7,1.707,7.964" transform="translate(-325.608 -7.157)" fill="#fedc72"/>
                    </g>
                  </g>
                </g>
              </g>
            </g>
            <path id="Trazado_205100" data-name="Trazado 205100" d="M330.875,31.494c.06-1.2.171-2.393.3-3.585s.3-2.38.489-3.566c.208-1.182.431-2.364.739-3.527a17.491,17.491,0,0,1,.545-1.72,4.11,4.11,0,0,1,.916-1.542,4.3,4.3,0,0,0-.8,1.584,17.822,17.822,0,0,0-.473,1.726c-.268,1.164-.491,2.339-.68,3.521-.207,1.179-.374,2.364-.546,3.549Z" transform="translate(-211.477 -11.22)" fill="#161502"/>
            <path id="Trazado_205101" data-name="Trazado 205101" d="M43.293,134.574s-12.863-10.529-7.367-17.526,10.242-14.691.311-14.089-18.716.495-14.188-6.272S30.907,82.323,19.3,85.076-.013,66.439,20.316,52.423c0,0-19.174,4.107-20.261,25.388S14.538,85.328,14.67,91.428s-10.048,18.587-.433,18.5,19.2-5.864,17.472-.2-3.358,20.944,11.583,24.848" transform="translate(0 -33.506)" fill="#8c6df2" opacity="0.6"/>
            <path id="Trazado_205102" data-name="Trazado 205102" d="M59.156,240.463l1.411,5.043a6.981,6.981,0,0,0,6.417,5.11c8.113.334,23.872,3.326,29.316,20.9,0,0-36.545,21.364-66.863,15.411,0,0-5.735-19.269,15.975-30.816a7.013,7.013,0,0,0,3.682-7.013l-.72-6.079Z" transform="translate(-18.376 -153.691)" fill="#8c6df2"/>
            <path id="Trazado_205103" data-name="Trazado 205103" d="M39.761,326.558l-9.111,9.606a28.358,28.358,0,0,0,17.933,12.831,68.608,68.608,0,0,0,39.712-9.851s9.7-13.733,8.524-20-57.058,7.417-57.058,7.417" transform="translate(-19.59 -202.927)" fill="#8c6df2"/>
            <path id="Trazado_205104" data-name="Trazado 205104" d="M27.873,339.781c.031.139.059.257.083.352a.457.457,0,0,0,.36.339c29.326,5.591,64.2-13.56,67.915-15.663a.455.455,0,0,0,.209-.541l0-.009a.457.457,0,0,0-.647-.262c-9,4.78-40.4,20.013-67.916,15.784" transform="translate(-17.815 -207.047)" fill="#fdb74d"/>
            <g id="Grupo_155883" data-name="Grupo 155883" transform="translate(10.92 103.799)" opacity="0.36" style="mix-blend-mode: screen;isolation: isolate">
              <g id="Grupo_155882" data-name="Grupo 155882">
                <g id="Grupo_155881" data-name="Grupo 155881" clip-path="url(#clip-path-26)">
                  <g id="Grupo_155880" data-name="Grupo 155880" transform="translate(0 0)">
                    <g id="Grupo_155879" data-name="Grupo 155879" clip-path="url(#clip-path-27)">
                      <path id="Trazado_205105" data-name="Trazado 205105" d="M53.94,287.648s-18.208,7.973-16.211,24.86a1.619,1.619,0,1,0,3.208-.439c-.617-4.186-.608-14.994,13-24.421" transform="translate(-34.936 -287.648)" fill="#fedc72"/>
                    </g>
                  </g>
                </g>
              </g>
            </g>
            <g id="Grupo_155888" data-name="Grupo 155888" transform="translate(17.947 135.131)" opacity="0.36" style="mix-blend-mode: screen;isolation: isolate">
              <g id="Grupo_155887" data-name="Grupo 155887">
                <g id="Grupo_155886" data-name="Grupo 155886" clip-path="url(#clip-path-28)">
                  <g id="Grupo_155885" data-name="Grupo 155885" transform="translate(0 0)">
                    <g id="Grupo_155884" data-name="Grupo 155884" clip-path="url(#clip-path-29)">
                      <path id="Trazado_205106" data-name="Trazado 205106" d="M49.735,378.05s4.574,6.362,11.581,8.2c0,0-8.742-3.622-9.824-8.183Z" transform="translate(-49.735 -376.759)" fill="#fedc72"/>
                    </g>
                  </g>
                </g>
              </g>
            </g>
            <path id="Trazado_205107" data-name="Trazado 205107" d="M48.479,84.813s-10.235,8.558-2.322,12.376,19.152-2.35,14.483,7.516-6.786,13.872.439,14.787a6.552,6.552,0,0,1-1.18-4.976c2.2-11.034,9.962-11.559,7.658-17.583s-19.524-1.066-20.409-4.8,1.33-7.323,1.33-7.323" transform="translate(-27.582 -54.208)" fill="#f3f9ff"/>
            <rect id="Rectángulo_46408" data-name="Rectángulo 46408" width="2.608" height="59.666" transform="translate(128.445 72.884) rotate(-7.472)" fill="#fdb74d"/>
            <rect id="Rectángulo_46409" data-name="Rectángulo 46409" width="59.667" height="2.608" transform="translate(137.745 124.879) rotate(-84.913)" fill="#fdb74d"/>
            <rect id="Rectángulo_46410" data-name="Rectángulo 46410" width="59.667" height="2.608" transform="matrix(0.47, -0.882, 0.882, 0.47, 137.612, 130.225)" fill="#fdb74d"/>
            <rect id="Rectángulo_46411" data-name="Rectángulo 46411" width="59.666" height="2.609" transform="translate(147.393 130.531) rotate(-68.827)" fill="#fdb74d"/>
            <path id="Trazado_205108" data-name="Trazado 205108" d="M366.068,321.663l-4.121,2.071a13.715,13.715,0,0,1-6.607,1.46c-4.916-.161-13.966-.846-21.671-3.575a13.816,13.816,0,0,1-5.295-3.391l-4.393-4.521a6.561,6.561,0,0,1-.683-8.318l13.088-18.834,28.86,5.348,4.943,20.93a7.861,7.861,0,0,1-4.12,8.831" transform="translate(-205.884 -183.15)" fill="#e8e8e8"/>
            <g id="Grupo_155893" data-name="Grupo 155893" transform="translate(117.619 100.626)" opacity="0.6">
              <g id="Grupo_155892" data-name="Grupo 155892">
                <g id="Grupo_155891" data-name="Grupo 155891" clip-path="url(#clip-path-30)">
                  <g id="Grupo_155890" data-name="Grupo 155890" transform="translate(0 0)">
                    <g id="Grupo_155889" data-name="Grupo 155889" clip-path="url(#clip-path-31)">
                      <path id="Trazado_205109" data-name="Trazado 205109" d="M347.916,324.1a50.787,50.787,0,0,1-6.842-1.85,10.6,10.6,0,0,1-4.045-2.59l-4.394-4.521a3.306,3.306,0,0,1-.344-4.184l11.887-17.106,5.479,1.015,19.221,3.562,4.454,18.86a4.586,4.586,0,0,1-2.412,5.168l-4.12,2.071a10.481,10.481,0,0,1-5.037,1.114,86.125,86.125,0,0,1-13.846-1.539" transform="translate(-329.625 -288.435)" fill="#b0c0d2"/>
                    </g>
                  </g>
                </g>
              </g>
            </g>
            <g id="Grupo_155898" data-name="Grupo 155898" transform="translate(109.535 61.145)" opacity="0.49">
              <g id="Grupo_155897" data-name="Grupo 155897">
                <g id="Grupo_155896" data-name="Grupo 155896" clip-path="url(#clip-path-32)">
                  <g id="Grupo_155895" data-name="Grupo 155895" transform="translate(10.162 44.89)">
                    <g id="Grupo_155894" data-name="Grupo 155894" clip-path="url(#clip-path-33)">
                      <rect id="Rectángulo_46414" data-name="Rectángulo 46414" width="2.608" height="59.666" transform="translate(8.748 -33.152) rotate(-7.472)" fill="#fdb74d"/>
                      <rect id="Rectángulo_46415" data-name="Rectángulo 46415" width="59.667" height="2.608" transform="matrix(0.47, -0.882, 0.882, 0.47, 17.916, 24.189)" fill="#fdb74d"/>
                      <rect id="Rectángulo_46416" data-name="Rectángulo 46416" width="59.666" height="2.609" transform="translate(27.697 24.496) rotate(-68.827)" fill="#fdb74d"/>
                      <rect id="Rectángulo_46417" data-name="Rectángulo 46417" width="59.667" height="2.608" transform="translate(18.049 18.843) rotate(-84.913)" fill="#fdb74d"/>
                    </g>
                  </g>
                </g>
              </g>
            </g>
            <path id="Trazado_205111" data-name="Trazado 205111" d="M369.878,313.844c-8.267-.7-18.857,4.372-25.146.07a21.156,21.156,0,0,0-4.942-2.572l-7.5,10.792a3.306,3.306,0,0,0,.344,4.184l4.394,4.521a10.6,10.6,0,0,0,4.045,2.589,50.77,50.77,0,0,0,6.842,1.851,86.167,86.167,0,0,0,13.847,1.539A10.48,10.48,0,0,0,366.8,335.7l4.121-2.071a4.586,4.586,0,0,0,2.412-5.168Z" transform="translate(-212.006 -198.993)" fill="#fedc72"/>
            <g id="Grupo_155903" data-name="Grupo 155903" transform="translate(109.535 61.145)" opacity="0.55">
              <g id="Grupo_155902" data-name="Grupo 155902">
                <g id="Grupo_155901" data-name="Grupo 155901" clip-path="url(#clip-path-32)">
                  <g id="Grupo_155900" data-name="Grupo 155900" transform="translate(10.162 51.204)">
                    <g id="Grupo_155899" data-name="Grupo 155899" clip-path="url(#clip-path-35)">
                      <rect id="Rectángulo_46419" data-name="Rectángulo 46419" width="2.608" height="59.666" transform="translate(8.748 -39.465) rotate(-7.472)" fill="#fdb74d"/>
                      <rect id="Rectángulo_46420" data-name="Rectángulo 46420" width="59.667" height="2.608" transform="translate(18.049 12.529) rotate(-84.913)" fill="#fdb74d"/>
                      <rect id="Rectángulo_46421" data-name="Rectángulo 46421" width="59.667" height="2.608" transform="matrix(0.47, -0.882, 0.882, 0.47, 17.916, 17.876)" fill="#fdb74d"/>
                      <rect id="Rectángulo_46422" data-name="Rectángulo 46422" width="59.666" height="2.609" transform="translate(27.697 18.182) rotate(-68.827)" fill="#fdb74d"/>
                    </g>
                  </g>
                </g>
              </g>
            </g>
            <path id="Trazado_205113" data-name="Trazado 205113" d="M351.631,270.717c4.7,1.407,15.128,4.3,31.957,5.245a3.153,3.153,0,0,1,3.082,2.854,6.364,6.364,0,0,1-.077,1.327,4.871,4.871,0,0,1-4.231,3.806c-4.183.644-20.285.267-32.716-5.17-2.29-1-3.686-3.277-2.934-5.459.014-.041.029-.083.045-.125a4.141,4.141,0,0,1,4.874-2.478" transform="translate(-221.469 -172.931)" fill="#e8e8e8"/>
            <g id="Grupo_155908" data-name="Grupo 155908" transform="translate(123.86 92.935)" opacity="0.6">
              <g id="Grupo_155907" data-name="Grupo 155907">
                <g id="Grupo_155906" data-name="Grupo 155906" clip-path="url(#clip-path-36)">
                  <g id="Grupo_155905" data-name="Grupo 155905" transform="translate(0 0)">
                    <g id="Grupo_155904" data-name="Grupo 155904" clip-path="url(#clip-path-37)">
                      <path id="Trazado_205114" data-name="Trazado 205114" d="M386.655,282.819a5.062,5.062,0,0,1-3.953,2.874c-4.183.644-15.4,1.336-32.716-5.17a4.732,4.732,0,0,1-3.093-3.607,3.163,3.163,0,0,0-.146.336c-.016.042-.03.084-.044.125a4.441,4.441,0,0,0,2.934,5.459c17.316,6.506,28.533,5.814,32.716,5.17a4.871,4.871,0,0,0,4.231-3.806,6.418,6.418,0,0,0,.077-1.327c0-.018,0-.036-.005-.054" transform="translate(-345.318 -269.924)" fill="#d2e1f1"/>
                    </g>
                  </g>
                </g>
              </g>
            </g>
            <path id="Trazado_205115" data-name="Trazado 205115" d="M362.163,276.8a62.865,62.865,0,0,0,15.856,3.411s-10.371,2.149-15.856-3.411" transform="translate(-231.475 -176.918)" fill="#fff"/>
            <path id="Trazado_205116" data-name="Trazado 205116" d="M353,304.961,346.7,315.175l8.183-8.774a1.194,1.194,0,1,0-1.89-1.441" transform="translate(-221.595 -194.551)" fill="#fff"/>
            <g id="Grupo_155913" data-name="Grupo 155913" transform="translate(113.586 117.607)" opacity="0.52" style="mix-blend-mode: multiply;isolation: isolate">
              <g id="Grupo_155912" data-name="Grupo 155912">
                <g id="Grupo_155911" data-name="Grupo 155911" clip-path="url(#clip-path-38)">
                  <g id="Grupo_155910" data-name="Grupo 155910" transform="translate(0 0)">
                    <g id="Grupo_155909" data-name="Grupo 155909" clip-path="url(#clip-path-39)">
                      <path id="Trazado_205117" data-name="Trazado 205117" d="M322.135,348.792a6.552,6.552,0,0,0,1.852,4.693l4.394,4.521a13.8,13.8,0,0,0,5.3,3.391c7.7,2.729,16.755,3.414,21.671,3.575a13.715,13.715,0,0,0,6.607-1.46l4.12-2.071a7.854,7.854,0,0,0,4.135-5.305c-1.772.944-17.865,8.577-48.073-7.344" transform="translate(-319.476 -340.536)" fill="#afafaf"/>
                    </g>
                  </g>
                </g>
              </g>
            </g>
          </g>
        </g>
      </g>
    </g>
  </g>
</svg>
