<svg xmlns="http://www.w3.org/2000/svg" xmlns:xlink="http://www.w3.org/1999/xlink" width="196.955" height="191.308" viewBox="0 0 196.955 191.308">
  <defs>
    <clipPath id="clip-path">
      <rect id="Rectángulo_46573" data-name="Rectángulo 46573" width="145.501" height="187.692" fill="none"/>
    </clipPath>
  </defs>
  <g id="Grupo_155605" data-name="Grupo 155605" transform="translate(-281.834 -1838.528)">
    <path id="Trazado_1035" data-name="Trazado 1035" d="M660.979,507.8c5.025-45.032-39.349-60.677-70.808-49.147-31.713,11.624-39.066-7.645-83.66-2.139-45.154,5.574-22.229,75.31-22.229,75.31s7.185,60.639,15.7,88.591c8.466,27.8,89.5,17.742,109.216,16.913,19.6-.825,36.631.767,53.684-29.757C679.9,577.1,655.97,552.678,660.979,507.8Z" transform="matrix(0.999, -0.035, 0.035, 0.999, -212.217, 1407.156)" fill="#f4f7fa"/>
    <g id="Grupo_156083" data-name="Grupo 156083" transform="translate(307.561 1840.337)">
      <rect id="Rectángulo_46492" data-name="Rectángulo 46492" width="85.687" height="126.967" transform="translate(2.031 40.329)" fill="#b0c0d2"/>
      <rect id="Rectángulo_46493" data-name="Rectángulo 46493" width="11.421" height="14.642" transform="translate(6.071 65.977)" fill="#dee4f0"/>
      <rect id="Rectángulo_46494" data-name="Rectángulo 46494" width="11.013" height="14.642" transform="translate(8.878 65.977)" fill="#727997"/>
      <g id="Grupo_156082" data-name="Grupo 156082" transform="translate(0 -0.001)">
        <g id="Grupo_156081" data-name="Grupo 156081" transform="translate(0 0)" clip-path="url(#clip-path)">
          <path id="Trazado_205210" data-name="Trazado 205210" d="M118.737,688.674c0-2.059-1.306-3.728-2.917-3.728s-2.917,1.669-2.917,3.728,1.306,3.728,2.917,3.728,2.917-1.669,2.917-3.728" transform="translate(-101.435 -615.375)" fill="#dee4f0"/>
          <rect id="Rectángulo_46495" data-name="Rectángulo 46495" width="5.834" height="0.836" transform="translate(11.468 67.623)" fill="#dee4f0"/>
          <rect id="Rectángulo_46496" data-name="Rectángulo 46496" width="5.834" height="0.836" transform="translate(11.468 78.138)" fill="#dee4f0"/>
          <rect id="Rectángulo_46497" data-name="Rectángulo 46497" width="9.425" height="11.452" transform="translate(6.068 90.349)" fill="#fdb74d"/>
          <rect id="Rectángulo_46498" data-name="Rectángulo 46498" width="8.614" height="11.452" transform="translate(8.392 90.349)" fill="#fedc72"/>
          <rect id="Rectángulo_46499" data-name="Rectángulo 46499" width="4.563" height="0.801" transform="translate(10.417 91.562)" fill="#8c6df2"/>
          <rect id="Rectángulo_46500" data-name="Rectángulo 46500" width="4.563" height="0.801" transform="translate(10.417 93.342)" fill="#8c6df2"/>
          <path id="Trazado_205211" data-name="Trazado 205211" d="M107.591,941.574c0-1.569-.995-2.84-2.222-2.84s-2.222,1.272-2.222,2.84.995,2.84,2.222,2.84,2.222-1.272,2.222-2.84" transform="translate(-92.669 -843.386)" fill="#8c6df2"/>
          <rect id="Rectángulo_46501" data-name="Rectángulo 46501" width="9.425" height="11.452" transform="translate(19.389 90.349)" fill="#5038a1"/>
          <rect id="Rectángulo_46502" data-name="Rectángulo 46502" width="8.614" height="11.452" transform="translate(21.713 90.349)" fill="#8c6df2"/>
          <rect id="Rectángulo_46503" data-name="Rectángulo 46503" width="4.563" height="0.801" transform="translate(23.739 91.562)" fill="#fedc72"/>
          <rect id="Rectángulo_46504" data-name="Rectángulo 46504" width="4.563" height="0.801" transform="translate(23.739 93.342)" fill="#fedc72"/>
          <path id="Trazado_205212" data-name="Trazado 205212" d="M238.742,941.574c0-1.569-.995-2.84-2.222-2.84s-2.222,1.272-2.222,2.84.995,2.84,2.222,2.84,2.222-1.272,2.222-2.84" transform="translate(-210.499 -843.386)" fill="#fedc72"/>
          <rect id="Rectángulo_46505" data-name="Rectángulo 46505" width="9.425" height="11.452" transform="translate(32.71 90.349)" fill="#5038a1"/>
          <rect id="Rectángulo_46506" data-name="Rectángulo 46506" width="8.614" height="11.452" transform="translate(35.034 90.349)" fill="#8c6df2"/>
          <rect id="Rectángulo_46507" data-name="Rectángulo 46507" width="4.563" height="0.801" transform="translate(37.06 91.562)" fill="#fedc72"/>
          <rect id="Rectángulo_46508" data-name="Rectángulo 46508" width="4.563" height="0.801" transform="translate(37.06 93.342)" fill="#fedc72"/>
          <path id="Trazado_205213" data-name="Trazado 205213" d="M369.894,941.574c0-1.569-.995-2.84-2.222-2.84s-2.222,1.272-2.222,2.84.995,2.84,2.222,2.84,2.222-1.272,2.222-2.84" transform="translate(-328.33 -843.386)" fill="#fedc72"/>
          <rect id="Rectángulo_46509" data-name="Rectángulo 46509" width="9.425" height="11.452" transform="translate(46.031 90.349)" fill="#fdb74d"/>
          <rect id="Rectángulo_46510" data-name="Rectángulo 46510" width="8.614" height="11.452" transform="translate(48.355 90.349)" fill="#fedc72"/>
          <rect id="Rectángulo_46511" data-name="Rectángulo 46511" width="4.563" height="0.801" transform="translate(50.381 91.562)" fill="#8c6df2"/>
          <rect id="Rectángulo_46512" data-name="Rectángulo 46512" width="4.563" height="0.801" transform="translate(50.381 93.342)" fill="#8c6df2"/>
          <path id="Trazado_205214" data-name="Trazado 205214" d="M501.045,941.574c0-1.569-.995-2.84-2.222-2.84s-2.222,1.272-2.222,2.84.995,2.84,2.222,2.84,2.222-1.272,2.222-2.84" transform="translate(-446.16 -843.386)" fill="#8c6df2"/>
          <rect id="Rectángulo_46513" data-name="Rectángulo 46513" width="9.425" height="11.452" transform="translate(59.352 90.349)" fill="#fdb74d"/>
          <rect id="Rectángulo_46514" data-name="Rectángulo 46514" width="8.614" height="11.452" transform="translate(61.676 90.349)" fill="#fedc72"/>
          <rect id="Rectángulo_46515" data-name="Rectángulo 46515" width="4.563" height="0.801" transform="translate(63.702 91.562)" fill="#8c6df2"/>
          <rect id="Rectángulo_46516" data-name="Rectángulo 46516" width="4.563" height="0.801" transform="translate(63.702 93.342)" fill="#8c6df2"/>
          <path id="Trazado_205215" data-name="Trazado 205215" d="M632.2,941.574c0-1.569-.995-2.84-2.222-2.84s-2.222,1.272-2.222,2.84.995,2.84,2.222,2.84,2.222-1.272,2.222-2.84" transform="translate(-563.99 -843.386)" fill="#8c6df2"/>
          <rect id="Rectángulo_46517" data-name="Rectángulo 46517" width="9.425" height="11.452" transform="translate(72.673 90.349)" fill="#5038a1"/>
          <rect id="Rectángulo_46518" data-name="Rectángulo 46518" width="8.614" height="11.452" transform="translate(74.997 90.349)" fill="#8c6df2"/>
          <rect id="Rectángulo_46519" data-name="Rectángulo 46519" width="4.563" height="0.801" transform="translate(77.023 91.562)" fill="#fedc72"/>
          <rect id="Rectángulo_46520" data-name="Rectángulo 46520" width="4.563" height="0.801" transform="translate(77.023 93.342)" fill="#fedc72"/>
          <path id="Trazado_205216" data-name="Trazado 205216" d="M763.348,941.574c0-1.569-.995-2.84-2.222-2.84s-2.222,1.272-2.222,2.84.995,2.84,2.222,2.84,2.222-1.272,2.222-2.84" transform="translate(-681.821 -843.386)" fill="#fedc72"/>
          <rect id="Rectángulo_46521" data-name="Rectángulo 46521" width="11.421" height="14.642" transform="translate(22.014 65.978)" fill="#5038a1"/>
          <rect id="Rectángulo_46522" data-name="Rectángulo 46522" width="11.013" height="14.642" transform="translate(24.821 65.978)" fill="#8c6df2"/>
          <path id="Trazado_205217" data-name="Trazado 205217" d="M275.7,688.674c0-2.059-1.306-3.728-2.917-3.728s-2.917,1.669-2.917,3.728,1.306,3.728,2.917,3.728,2.917-1.669,2.917-3.728" transform="translate(-242.455 -615.375)" fill="#5038a1"/>
          <rect id="Rectángulo_46523" data-name="Rectángulo 46523" width="5.834" height="0.836" transform="translate(27.41 67.623)" fill="#5038a1"/>
          <rect id="Rectángulo_46524" data-name="Rectángulo 46524" width="5.834" height="0.836" transform="translate(27.41 78.138)" fill="#5038a1"/>
          <rect id="Rectángulo_46525" data-name="Rectángulo 46525" width="11.421" height="14.642" transform="translate(69.842 65.978)" fill="#dee4f0"/>
          <rect id="Rectángulo_46526" data-name="Rectángulo 46526" width="11.013" height="14.642" transform="translate(72.649 65.978)" fill="#727997"/>
          <path id="Trazado_205218" data-name="Trazado 205218" d="M746.587,688.674c0-2.059-1.306-3.728-2.917-3.728s-2.917,1.669-2.917,3.728,1.306,3.728,2.917,3.728,2.917-1.669,2.917-3.728" transform="translate(-665.514 -615.375)" fill="#dee4f0"/>
          <rect id="Rectángulo_46527" data-name="Rectángulo 46527" width="5.834" height="0.836" transform="translate(75.239 67.623)" fill="#dee4f0"/>
          <rect id="Rectángulo_46528" data-name="Rectángulo 46528" width="5.834" height="0.836" transform="translate(75.239 78.138)" fill="#dee4f0"/>
          <rect id="Rectángulo_46529" data-name="Rectángulo 46529" width="11.421" height="14.642" transform="translate(37.957 65.978)" fill="#dee4f0"/>
          <rect id="Rectángulo_46530" data-name="Rectángulo 46530" width="11.013" height="14.642" transform="translate(40.763 65.978)" fill="#727997"/>
          <path id="Trazado_205219" data-name="Trazado 205219" d="M432.662,688.674c0-2.059-1.306-3.728-2.917-3.728s-2.917,1.669-2.917,3.728,1.306,3.728,2.917,3.728,2.917-1.669,2.917-3.728" transform="translate(-383.475 -615.375)" fill="#dee4f0"/>
          <rect id="Rectángulo_46531" data-name="Rectángulo 46531" width="5.834" height="0.836" transform="translate(43.353 67.623)" fill="#dee4f0"/>
          <rect id="Rectángulo_46532" data-name="Rectángulo 46532" width="5.834" height="0.836" transform="translate(43.353 78.138)" fill="#dee4f0"/>
          <rect id="Rectángulo_46533" data-name="Rectángulo 46533" width="15.349" height="9.647" transform="translate(8.025 113.286)" fill="#727997"/>
          <rect id="Rectángulo_46534" data-name="Rectángulo 46534" width="17.188" height="3.665" transform="translate(7.105 112.444)" fill="#dee4f0"/>
          <rect id="Rectángulo_46535" data-name="Rectángulo 46535" width="15.349" height="9.647" transform="translate(46.905 113.286)" fill="#fedc72"/>
          <rect id="Rectángulo_46536" data-name="Rectángulo 46536" width="17.188" height="3.665" transform="translate(45.985 112.444)" fill="#fdb74d"/>
          <rect id="Rectángulo_46537" data-name="Rectángulo 46537" width="15.349" height="9.647" transform="translate(27.465 113.286)" fill="#8c6df2"/>
          <rect id="Rectángulo_46538" data-name="Rectángulo 46538" width="17.188" height="3.665" transform="translate(26.545 112.444)" fill="#5038a1"/>
          <rect id="Rectángulo_46539" data-name="Rectángulo 46539" width="15.349" height="9.647" transform="translate(66.345 113.286)" fill="#8c6df2"/>
          <rect id="Rectángulo_46540" data-name="Rectángulo 46540" width="17.188" height="3.665" transform="translate(65.425 112.444)" fill="#dee4f0"/>
          <path id="Trazado_205220" data-name="Trazado 205220" d="M89.331,465.68H85.3v-1.637a2.014,2.014,0,1,1,4.027,0Z" transform="translate(-76.64 -415.1)" fill="#fdb74d"/>
          <path id="Trazado_205221" data-name="Trazado 205221" d="M75.879,498.241h-4.24a1.426,1.426,0,0,1-1.426-1.426v-7a1.426,1.426,0,0,1,1.426-1.426h4.24a1.426,1.426,0,0,1,1.426,1.426v7a1.426,1.426,0,0,1-1.426,1.426" transform="translate(-63.081 -438.783)" fill="#fedc72"/>
          <path id="Trazado_205222" data-name="Trazado 205222" d="M185.541,465.68h-4.027v-1.637a2.014,2.014,0,1,1,4.027,0Z" transform="translate(-163.078 -415.1)" fill="#d2e1f1"/>
          <path id="Trazado_205223" data-name="Trazado 205223" d="M172.088,498.241h-4.24a1.426,1.426,0,0,1-1.426-1.426v-7a1.426,1.426,0,0,1,1.426-1.426h4.24a1.427,1.427,0,0,1,1.426,1.426v7a1.427,1.427,0,0,1-1.426,1.426" transform="translate(-149.518 -438.783)" fill="#dee4f0"/>
          <path id="Trazado_205224" data-name="Trazado 205224" d="M281.75,465.68h-4.027v-1.637a2.014,2.014,0,1,1,4.027,0Z" transform="translate(-249.514 -415.1)" fill="#5038a1"/>
          <path id="Trazado_205225" data-name="Trazado 205225" d="M268.3,498.241h-4.24a1.426,1.426,0,0,1-1.426-1.426v-7a1.426,1.426,0,0,1,1.426-1.426h4.24a1.427,1.427,0,0,1,1.426,1.426v7a1.427,1.427,0,0,1-1.426,1.426" transform="translate(-235.955 -438.783)" fill="#8c6df2"/>
          <path id="Trazado_205226" data-name="Trazado 205226" d="M377.959,465.68h-4.027v-1.637a2.014,2.014,0,1,1,4.027,0Z" transform="translate(-335.952 -415.1)" fill="#5038a1"/>
          <path id="Trazado_205227" data-name="Trazado 205227" d="M364.507,498.241h-4.24a1.426,1.426,0,0,1-1.426-1.426v-7a1.426,1.426,0,0,1,1.426-1.426h4.24a1.426,1.426,0,0,1,1.426,1.426v7a1.426,1.426,0,0,1-1.426,1.426" transform="translate(-322.392 -438.783)" fill="#8c6df2"/>
          <path id="Trazado_205228" data-name="Trazado 205228" d="M474.168,465.68h-4.027v-1.637a2.014,2.014,0,1,1,4.027,0Z" transform="translate(-422.388 -415.1)" fill="#fdb74d"/>
          <path id="Trazado_205229" data-name="Trazado 205229" d="M460.716,498.241h-4.24a1.426,1.426,0,0,1-1.426-1.426v-7a1.426,1.426,0,0,1,1.426-1.426h4.24a1.426,1.426,0,0,1,1.426,1.426v7a1.426,1.426,0,0,1-1.426,1.426" transform="translate(-408.829 -438.783)" fill="#fedc72"/>
          <path id="Trazado_205230" data-name="Trazado 205230" d="M570.377,465.68H566.35v-1.637a2.014,2.014,0,1,1,4.027,0Z" transform="translate(-508.825 -415.1)" fill="#d2e1f1"/>
          <path id="Trazado_205231" data-name="Trazado 205231" d="M556.925,498.241h-4.24a1.427,1.427,0,0,1-1.427-1.426v-7a1.427,1.427,0,0,1,1.427-1.426h4.24a1.426,1.426,0,0,1,1.426,1.426v7a1.426,1.426,0,0,1-1.426,1.426" transform="translate(-495.266 -438.783)" fill="#dee4f0"/>
          <path id="Trazado_205232" data-name="Trazado 205232" d="M666.586,465.68h-4.027v-1.637a2.014,2.014,0,1,1,4.027,0Z" transform="translate(-595.263 -415.1)" fill="#fdb74d"/>
          <path id="Trazado_205233" data-name="Trazado 205233" d="M653.134,498.241h-4.24a1.426,1.426,0,0,1-1.426-1.426v-7a1.426,1.426,0,0,1,1.426-1.426h4.24a1.426,1.426,0,0,1,1.426,1.426v7a1.426,1.426,0,0,1-1.426,1.426" transform="translate(-581.703 -438.783)" fill="#fedc72"/>
          <path id="Trazado_205234" data-name="Trazado 205234" d="M762.8,465.68h-4.027v-1.637a2.014,2.014,0,1,1,4.027,0Z" transform="translate(-681.7 -415.1)" fill="#5038a1"/>
          <path id="Trazado_205235" data-name="Trazado 205235" d="M749.343,498.241H745.1a1.426,1.426,0,0,1-1.426-1.426v-7a1.426,1.426,0,0,1,1.426-1.426h4.24a1.427,1.427,0,0,1,1.427,1.426v7a1.427,1.427,0,0,1-1.427,1.426" transform="translate(-668.141 -438.783)" fill="#8c6df2"/>
          <path id="Trazado_205236" data-name="Trazado 205236" d="M87.065,1352.568H83.053l-.46-7.525h4.932Z" transform="translate(-74.204 -1208.426)" fill="#fedc72"/>
          <rect id="Rectángulo_46541" data-name="Rectángulo 46541" width="5.472" height="1.421" transform="translate(8.119 136.387)" fill="#fdb74d"/>
          <path id="Trazado_205237" data-name="Trazado 205237" d="M95.656,1367.979c0,1.18-.64,2.137-1.429,2.137s-1.429-.957-1.429-2.137.64-2.137,1.429-2.137,1.429.957,1.429,2.137" transform="translate(-83.372 -1227.113)" fill="#fdb74d"/>
          <path id="Trazado_205238" data-name="Trazado 205238" d="M87.065,1276.214H83.053l-.46-7.525h4.932Z" transform="translate(-74.204 -1139.827)" fill="#727997"/>
          <rect id="Rectángulo_46542" data-name="Rectángulo 46542" width="5.472" height="1.421" transform="translate(8.119 128.631)" fill="#dee4f0"/>
          <path id="Trazado_205239" data-name="Trazado 205239" d="M95.656,1291.625c0,1.18-.64,2.137-1.429,2.137s-1.429-.957-1.429-2.137.64-2.137,1.429-2.137,1.429.957,1.429,2.137" transform="translate(-83.372 -1158.514)" fill="#dee4f0"/>
          <path id="Trazado_205240" data-name="Trazado 205240" d="M182.761,1352.568h-4.012l-.46-7.525h4.932Z" transform="translate(-160.18 -1208.426)" fill="#fedc72"/>
          <rect id="Rectángulo_46543" data-name="Rectángulo 46543" width="5.472" height="1.421" transform="translate(17.839 136.387)" fill="#fdb74d"/>
          <path id="Trazado_205241" data-name="Trazado 205241" d="M191.352,1367.979c0,1.18-.64,2.137-1.429,2.137s-1.429-.957-1.429-2.137.64-2.137,1.429-2.137,1.429.957,1.429,2.137" transform="translate(-169.349 -1227.113)" fill="#fdb74d"/>
          <path id="Trazado_205242" data-name="Trazado 205242" d="M182.761,1276.214h-4.012l-.46-7.525h4.932Z" transform="translate(-160.18 -1139.827)" fill="#8c6df2"/>
          <rect id="Rectángulo_46544" data-name="Rectángulo 46544" width="5.472" height="1.421" transform="translate(17.839 128.631)" fill="#dee4f0"/>
          <path id="Trazado_205243" data-name="Trazado 205243" d="M191.352,1291.625c0,1.18-.64,2.137-1.429,2.137s-1.429-.957-1.429-2.137.64-2.137,1.429-2.137,1.429.957,1.429,2.137" transform="translate(-169.349 -1158.514)" fill="#dee4f0"/>
          <path id="Trazado_205244" data-name="Trazado 205244" d="M278.457,1352.568h-4.012l-.46-7.525h4.932Z" transform="translate(-246.156 -1208.426)" fill="#8c6df2"/>
          <rect id="Rectángulo_46545" data-name="Rectángulo 46545" width="5.472" height="1.421" transform="translate(27.559 136.387)" fill="#5038a1"/>
          <path id="Trazado_205245" data-name="Trazado 205245" d="M287.048,1367.979c0,1.18-.64,2.137-1.429,2.137s-1.429-.957-1.429-2.137.64-2.137,1.429-2.137,1.429.957,1.429,2.137" transform="translate(-255.325 -1227.113)" fill="#5038a1"/>
          <path id="Trazado_205246" data-name="Trazado 205246" d="M278.457,1276.214h-4.012l-.46-7.525h4.932Z" transform="translate(-246.156 -1139.827)" fill="#727997"/>
          <rect id="Rectángulo_46546" data-name="Rectángulo 46546" width="5.472" height="1.421" transform="translate(27.559 128.631)" fill="#dee4f0"/>
          <path id="Trazado_205247" data-name="Trazado 205247" d="M287.048,1291.625c0,1.18-.64,2.137-1.429,2.137s-1.429-.957-1.429-2.137.64-2.137,1.429-2.137,1.429.957,1.429,2.137" transform="translate(-255.325 -1158.514)" fill="#dee4f0"/>
          <path id="Trazado_205248" data-name="Trazado 205248" d="M374.153,1352.568h-4.012l-.46-7.525h4.932Z" transform="translate(-332.132 -1208.426)" fill="#8c6df2"/>
          <rect id="Rectángulo_46547" data-name="Rectángulo 46547" width="5.472" height="1.421" transform="translate(37.279 136.387)" fill="#dee4f0"/>
          <path id="Trazado_205249" data-name="Trazado 205249" d="M382.744,1367.979c0,1.18-.64,2.137-1.429,2.137s-1.429-.957-1.429-2.137.64-2.137,1.429-2.137,1.429.957,1.429,2.137" transform="translate(-341.301 -1227.113)" fill="#dee4f0"/>
          <path id="Trazado_205250" data-name="Trazado 205250" d="M374.153,1276.214h-4.012l-.46-7.525h4.932Z" transform="translate(-332.132 -1139.827)" fill="#fedc72"/>
          <rect id="Rectángulo_46548" data-name="Rectángulo 46548" width="5.472" height="1.421" transform="translate(37.279 128.631)" fill="#fdb74d"/>
          <path id="Trazado_205251" data-name="Trazado 205251" d="M382.744,1291.625c0,1.18-.64,2.137-1.429,2.137s-1.429-.957-1.429-2.137.64-2.137,1.429-2.137,1.429.957,1.429,2.137" transform="translate(-341.301 -1158.514)" fill="#fdb74d"/>
          <path id="Trazado_205252" data-name="Trazado 205252" d="M469.848,1352.568h-4.012l-.46-7.525h4.932Z" transform="translate(-418.108 -1208.426)" fill="#8c6df2"/>
          <rect id="Rectángulo_46549" data-name="Rectángulo 46549" width="5.472" height="1.421" transform="translate(46.998 136.387)" fill="#dee4f0"/>
          <path id="Trazado_205253" data-name="Trazado 205253" d="M478.44,1367.979c0,1.18-.64,2.137-1.429,2.137s-1.429-.957-1.429-2.137.64-2.137,1.429-2.137,1.429.957,1.429,2.137" transform="translate(-427.277 -1227.113)" fill="#dee4f0"/>
          <path id="Trazado_205254" data-name="Trazado 205254" d="M469.848,1276.214h-4.012l-.46-7.525h4.932Z" transform="translate(-418.108 -1139.827)" fill="#727997"/>
          <rect id="Rectángulo_46550" data-name="Rectángulo 46550" width="5.472" height="1.421" transform="translate(46.998 128.631)" fill="#dee4f0"/>
          <path id="Trazado_205255" data-name="Trazado 205255" d="M478.44,1291.625c0,1.18-.64,2.137-1.429,2.137s-1.429-.957-1.429-2.137.64-2.137,1.429-2.137,1.429.957,1.429,2.137" transform="translate(-427.277 -1158.514)" fill="#dee4f0"/>
          <path id="Trazado_205256" data-name="Trazado 205256" d="M565.545,1352.568h-4.012l-.46-7.525H566Z" transform="translate(-504.084 -1208.426)" fill="#fedc72"/>
          <rect id="Rectángulo_46551" data-name="Rectángulo 46551" width="5.472" height="1.421" transform="translate(56.718 136.387)" fill="#fdb74d"/>
          <path id="Trazado_205257" data-name="Trazado 205257" d="M574.136,1367.979c0,1.18-.64,2.137-1.429,2.137s-1.429-.957-1.429-2.137.64-2.137,1.429-2.137,1.429.957,1.429,2.137" transform="translate(-513.253 -1227.113)" fill="#fdb74d"/>
          <path id="Trazado_205258" data-name="Trazado 205258" d="M565.545,1276.214h-4.012l-.46-7.525H566Z" transform="translate(-504.084 -1139.827)" fill="#8c6df2"/>
          <rect id="Rectángulo_46552" data-name="Rectángulo 46552" width="5.472" height="1.421" transform="translate(56.718 128.631)" fill="#5038a1"/>
          <path id="Trazado_205259" data-name="Trazado 205259" d="M574.136,1291.625c0,1.18-.64,2.137-1.429,2.137s-1.429-.957-1.429-2.137.64-2.137,1.429-2.137,1.429.957,1.429,2.137" transform="translate(-513.253 -1158.514)" fill="#5038a1"/>
          <path id="Trazado_205260" data-name="Trazado 205260" d="M661.241,1352.568h-4.012l-.46-7.525H661.7Z" transform="translate(-590.06 -1208.426)" fill="#727997"/>
          <rect id="Rectángulo_46553" data-name="Rectángulo 46553" width="5.472" height="1.421" transform="translate(66.438 136.387)" fill="#dee4f0"/>
          <path id="Trazado_205261" data-name="Trazado 205261" d="M669.832,1367.979c0,1.18-.64,2.137-1.429,2.137s-1.429-.957-1.429-2.137.64-2.137,1.429-2.137,1.429.957,1.429,2.137" transform="translate(-599.229 -1227.113)" fill="#dee4f0"/>
          <path id="Trazado_205262" data-name="Trazado 205262" d="M661.241,1276.214h-4.012l-.46-7.525H661.7Z" transform="translate(-590.06 -1139.827)" fill="#fedc72"/>
          <rect id="Rectángulo_46554" data-name="Rectángulo 46554" width="5.472" height="1.421" transform="translate(66.438 128.631)" fill="#fdb74d"/>
          <path id="Trazado_205263" data-name="Trazado 205263" d="M669.832,1291.625c0,1.18-.64,2.137-1.429,2.137s-1.429-.957-1.429-2.137.64-2.137,1.429-2.137,1.429.957,1.429,2.137" transform="translate(-599.229 -1158.514)" fill="#fdb74d"/>
          <path id="Trazado_205264" data-name="Trazado 205264" d="M756.936,1352.568h-4.012l-.46-7.525H757.4Z" transform="translate(-676.036 -1208.426)" fill="#8c6df2"/>
          <rect id="Rectángulo_46555" data-name="Rectángulo 46555" width="5.472" height="1.421" transform="translate(76.158 136.387)" fill="#5038a1"/>
          <path id="Trazado_205265" data-name="Trazado 205265" d="M765.528,1367.979c0,1.18-.64,2.137-1.429,2.137s-1.429-.957-1.429-2.137.64-2.137,1.429-2.137,1.429.957,1.429,2.137" transform="translate(-685.205 -1227.113)" fill="#5038a1"/>
          <path id="Trazado_205266" data-name="Trazado 205266" d="M756.936,1276.214h-4.012l-.46-7.525H757.4Z" transform="translate(-676.036 -1139.827)" fill="#8c6df2"/>
          <rect id="Rectángulo_46556" data-name="Rectángulo 46556" width="5.472" height="1.421" transform="translate(76.158 128.631)" fill="#dee4f0"/>
          <path id="Trazado_205267" data-name="Trazado 205267" d="M765.528,1291.625c0,1.18-.64,2.137-1.429,2.137s-1.429-.957-1.429-2.137.64-2.137,1.429-2.137,1.429.957,1.429,2.137" transform="translate(-685.205 -1158.514)" fill="#dee4f0"/>
          <rect id="Rectángulo_46557" data-name="Rectángulo 46557" width="9.647" height="15.349" transform="translate(7.081 149.872)" fill="#727997"/>
          <rect id="Rectángulo_46558" data-name="Rectángulo 46558" width="9.647" height="6.068" transform="translate(7.081 154.512)" fill="#dee4f0"/>
          <path id="Trazado_205268" data-name="Trazado 205268" d="M88.906,1534.589c0,1.031-1.615,1.867-3.607,1.867s-3.607-.836-3.607-1.867,1.615-1.867,3.607-1.867,3.607.836,3.607,1.867" transform="translate(-73.395 -1377.042)" fill="#727997"/>
          <rect id="Rectángulo_46559" data-name="Rectángulo 46559" width="9.647" height="15.349" transform="translate(20.262 149.872)" fill="#8c6df2"/>
          <rect id="Rectángulo_46560" data-name="Rectángulo 46560" width="9.647" height="6.068" transform="translate(20.262 154.512)" fill="#5038a1"/>
          <path id="Trazado_205269" data-name="Trazado 205269" d="M218.683,1534.589c0,1.031-1.615,1.867-3.607,1.867s-3.607-.836-3.607-1.867,1.615-1.867,3.607-1.867,3.607.836,3.607,1.867" transform="translate(-189.99 -1377.042)" fill="#8c6df2"/>
          <rect id="Rectángulo_46561" data-name="Rectángulo 46561" width="9.647" height="15.349" transform="translate(33.444 149.872)" fill="#fedc72"/>
          <rect id="Rectángulo_46562" data-name="Rectángulo 46562" width="9.647" height="6.068" transform="translate(33.444 154.512)" fill="#fdb74d"/>
          <path id="Trazado_205270" data-name="Trazado 205270" d="M348.46,1534.589c0,1.031-1.615,1.867-3.607,1.867s-3.607-.836-3.607-1.867,1.615-1.867,3.607-1.867,3.607.836,3.607,1.867" transform="translate(-306.585 -1377.042)" fill="#fedc72"/>
          <rect id="Rectángulo_46563" data-name="Rectángulo 46563" width="9.647" height="15.349" transform="translate(46.626 149.872)" fill="#727997"/>
          <rect id="Rectángulo_46564" data-name="Rectángulo 46564" width="9.647" height="6.068" transform="translate(46.626 154.512)" fill="#dee4f0"/>
          <path id="Trazado_205271" data-name="Trazado 205271" d="M478.238,1534.589c0,1.031-1.615,1.867-3.607,1.867s-3.607-.836-3.607-1.867,1.615-1.867,3.607-1.867,3.607.836,3.607,1.867" transform="translate(-423.182 -1377.042)" fill="#727997"/>
          <rect id="Rectángulo_46565" data-name="Rectángulo 46565" width="9.647" height="15.349" transform="translate(59.807 149.872)" fill="#727997"/>
          <rect id="Rectángulo_46566" data-name="Rectángulo 46566" width="9.647" height="6.068" transform="translate(59.807 154.512)" fill="#dee4f0"/>
          <path id="Trazado_205272" data-name="Trazado 205272" d="M608.015,1534.589c0,1.031-1.615,1.867-3.607,1.867s-3.607-.836-3.607-1.867,1.615-1.867,3.607-1.867,3.607.836,3.607,1.867" transform="translate(-539.777 -1377.042)" fill="#727997"/>
          <rect id="Rectángulo_46567" data-name="Rectángulo 46567" width="9.647" height="15.349" transform="translate(72.989 149.872)" fill="#8c6df2"/>
          <rect id="Rectángulo_46568" data-name="Rectángulo 46568" width="9.647" height="6.068" transform="translate(72.989 154.512)" fill="#5038a1"/>
          <path id="Trazado_205273" data-name="Trazado 205273" d="M737.792,1534.589c0,1.031-1.615,1.867-3.607,1.867s-3.607-.836-3.607-1.867,1.615-1.867,3.607-1.867,3.607.836,3.607,1.867" transform="translate(-656.373 -1377.042)" fill="#8c6df2"/>
          <path id="Trazado_205274" data-name="Trazado 205274" d="M0,508.093H89.75V377.063H0ZM85.687,398.224H4.063v-17.1H85.687ZM4.063,444.609H85.687v17.1H4.063Zm81.624,38.26H4.063v-17.1H85.687ZM4.063,423.448H85.687v17.1H4.063Zm0-21.161H85.687v17.1H4.063Zm0,84.645H85.687v17.1H4.063Z" transform="translate(0 -338.764)" fill="#12263f"/>
          <path id="Trazado_205275" data-name="Trazado 205275" d="M226.024,13.688V0H224.5V13.688H193.724V0H192.2V13.688h-9.4V29.847H235.42V13.688Z" transform="translate(-164.238 0.001)" fill="#12263f"/>
          <path id="Trazado_205276" data-name="Trazado 205276" d="M556.817,168.8H545.624a.762.762,0,1,1,0-1.524h11.193a.762.762,0,1,1,0,1.524" transform="translate(-489.52 -150.286)" fill="#fff"/>
          <path id="Trazado_205277" data-name="Trazado 205277" d="M244.444,168.8H214.321a.762.762,0,1,1,0-1.524h30.124a.762.762,0,1,1,0,1.524" transform="translate(-191.868 -150.286)" fill="#fff"/>
          <path id="Trazado_205278" data-name="Trazado 205278" d="M540.76,247.884H527.752a.762.762,0,0,1,0-1.524H540.76a.762.762,0,0,1,0,1.524" transform="translate(-473.463 -221.337)" fill="#fff"/>
          <path id="Trazado_205279" data-name="Trazado 205279" d="M241.592,247.884H214.321a.762.762,0,1,1,0-1.524h27.271a.762.762,0,0,1,0,1.524" transform="translate(-191.868 -221.337)" fill="#fff"/>
          <path id="Trazado_205280" data-name="Trazado 205280" d="M374.684,208.342H342.9a.762.762,0,1,1,0-1.524h31.784a.762.762,0,0,1,0,1.524" transform="translate(-307.388 -185.811)" fill="#fff"/>
          <path id="Trazado_205281" data-name="Trazado 205281" d="M223.491,208.342h-9.17a.762.762,0,1,1,0-1.524h9.17a.762.762,0,0,1,0,1.524" transform="translate(-191.868 -185.811)" fill="#fff"/>
          <path id="Trazado_205282" data-name="Trazado 205282" d="M1275.542,1155.219c-.483.833-1.584.3-1.081-.528.484-.833,1.584-.3,1.081.528" transform="translate(-1144.898 -1037.034)" fill="#f99370"/>
          <path id="Trazado_205283" data-name="Trazado 205283" d="M986.077,614.788c-2.768-5.883-3.8-16.853-12.928-13.083,0,0-7.048-5.637-7.936,7.738-.717,10.786-.338,28.78,10.139,28.335,5.268-.223,21.257-.606,10.726-22.99" transform="translate(-866.971 -539.53)" fill="#12263f"/>
          <path id="Trazado_205284" data-name="Trazado 205284" d="M702.684,765.94c-11.443,7.861-20.425,5.445-28.625-4.954-1.613-2.045-4.011-.858-3.146,1.334.149.364.436.818.605,1.168,8.051,14.749,22.3,18.529,35.975,8.3,3.8-3.16-.966-8.975-4.809-5.846" transform="translate(-602.604 -682.744)" fill="#f99370"/>
          <path id="Trazado_205285" data-name="Trazado 205285" d="M716.682,787.325v.068l-.018,2.535-.077,10.706q-.788.4-1.567.742a28.731,28.731,0,0,1-5.474,1.789q-.809.175-1.6.3c-9.141,1.41-16.794-2.289-20.561-5.888-3.811-3.638-4.869-6.145-5.047-7.667a2.63,2.63,0,0,1,.3-1.84c2.682-.562,3.422-2.016,3.422-2.016.6-.4,1.432-.041,2.351.628h0c1.15.835,2.434,2.151,3.56,3.056,2.028,1.628,7.448,3.328,10.726,2.88a24.394,24.394,0,0,0,8.794-3.279,12.618,12.618,0,0,1,3.451-1.611,12.813,12.813,0,0,1,1.6-.379l.109-.016.029,0" transform="translate(-613.003 -706.059)" fill="#5038a1"/>
          <path id="Trazado_205286" data-name="Trazado 205286" d="M1018.451,773.124l.235,1.69c.866,2.818,4.613.61,5.233-.507,0,0-.339-1.6-.4-2.352Z" transform="translate(-915.006 -693.548)" fill="#f99370"/>
          <path id="Trazado_205287" data-name="Trazado 205287" d="M1284.235,1653.241l7.85-9.63c-.376-.581-3.093-2-3.874-2.8-.561-.4-6.827-6.78-7.495-7.419l-4.507,5.529,7.843,4.907a2.291,2.291,0,0,1,.921,2.765c-.771,2.328-2.753,4.087-2.283,6.363a.9.9,0,0,0,1.545.281" transform="translate(-1146.585 -1467.49)" fill="#f99370"/>
          <path id="Trazado_205288" data-name="Trazado 205288" d="M1344.348,1708.189a3.141,3.141,0,0,1,.688,1.047l-7.915,9.71a.89.89,0,0,1-1.446-.085c-.741-1.217-1.209-3.729,2.206-8.4a12.2,12.2,0,0,0,3.282-4.026,7.742,7.742,0,0,1,3.186,1.749" transform="translate(-1199.535 -1533.116)" fill="#5038a1"/>
          <path id="Trazado_205289" data-name="Trazado 205289" d="M1333.773,1792.843c.452.116.762-.509,2.243-.079a.254.254,0,0,0,.317-.168c-.09-.952-3.479-.34-2.561.246" transform="translate(-1198.159 -1610.077)" fill="#8c6df2"/>
          <path id="Trazado_205290" data-name="Trazado 205290" d="M1339.773,1775.458a.254.254,0,0,0,.227.014,3.539,3.539,0,0,1,2.478.006.254.254,0,0,0,.19-.47,4,4,0,0,0-2.868,0,.256.256,0,0,0-.026.453" transform="translate(-1203.579 -1594.476)" fill="#8c6df2"/>
          <path id="Trazado_205291" data-name="Trazado 205291" d="M1350.557,1756.241a6.29,6.29,0,0,1,2.837.132.254.254,0,0,0,.174-.477c-1.633-.525-3.6-.317-3.01.344" transform="translate(-1213.283 -1577.282)" fill="#8c6df2"/>
          <path id="Trazado_205292" data-name="Trazado 205292" d="M1340.236,1734.316l8.684-10.654a3.148,3.148,0,0,1,.688,1.047l-7.915,9.71a.89.89,0,0,1-1.458-.1" transform="translate(-1204.108 -1548.589)" fill="#395b96"/>
          <path id="Trazado_205293" data-name="Trazado 205293" d="M965.764,1711.783l12.409-.136c.2-.664-.439-3.656-.332-4.765,0-.466-.219-5.59-.176-6.056l-.588-4.43-5.47.06,1.128,8.253c.149,1.087.2,2.917-1.411,3.388-2.351.689-4.883.506-6.342,2.3a.906.906,0,0,0,.782,1.382" transform="translate(-866.844 -1524.093)" fill="#f99370"/>
          <path id="Trazado_205294" data-name="Trazado 205294" d="M977.582,1803.2a3.145,3.145,0,0,1-.364,1.2l-12.53.138a.89.89,0,0,1-.861-1.165c.461-1.348,2.091-3.315,7.864-3.681a12.213,12.213,0,0,0,5.2-.057,7.738,7.738,0,0,1,.7,3.566" transform="translate(-865.888 -1616.846)" fill="#5038a1"/>
          <path id="Trazado_205295" data-name="Trazado 205295" d="M985.192,1812.856a.255.255,0,0,0,.234-.352,3.187,3.187,0,0,0-1.625-1.756.254.254,0,0,0-.182.474,2.69,2.69,0,0,1,1.338,1.479.254.254,0,0,0,.234.156" transform="translate(-883.57 -1626.812)" fill="#8c6df2"/>
          <path id="Trazado_205296" data-name="Trazado 205296" d="M1002.855,1806.606a.255.255,0,0,0,.241-.331c-.464-1.685-2.669-2.928-2.065-1.751a3.537,3.537,0,0,1,1.582,1.906.253.253,0,0,0,.242.176" transform="translate(-899.263 -1620.822)" fill="#8c6df2"/>
          <path id="Trazado_205297" data-name="Trazado 205297" d="M1024.664,1802a.255.255,0,0,0,.239-.34,5.013,5.013,0,0,0-1.8-2.348.254.254,0,0,0-.276.426,4.575,4.575,0,0,1,1.6,2.094.254.254,0,0,0,.239.168" transform="translate(-918.83 -1616.518)" fill="#8c6df2"/>
          <path id="Trazado_205298" data-name="Trazado 205298" d="M963.833,1834.895l13.748-.151a3.145,3.145,0,0,1-.364,1.2l-12.53.137a.89.89,0,0,1-.854-1.185" transform="translate(-865.888 -1648.388)" fill="#395b96"/>
          <path id="Trazado_205299" data-name="Trazado 205299" d="M1020.732,696.827c0,.091-.007.183-.017.273a28.939,28.939,0,0,0,.2,5.554,9.03,9.03,0,0,1-5.058,1.079,30.541,30.541,0,0,1-.219-7.458c.551-2.984,5.2-2.474,5.094.553" transform="translate(-912.354 -623.761)" fill="#e57d61"/>
          <path id="Trazado_205300" data-name="Trazado 205300" d="M972.089,621.718c-.406,2.308-1.225,4.9-3.074,6.407h0a5.78,5.78,0,0,1-2.609,1.154c-5.369,1.468-11.685-4.989-7.377-9.444,1.553-1.394,1.915-3.9,3.157-5.289,1.815-2.553,5.712-2.362,7.788-.229a8.639,8.639,0,0,1,2.118,7.4" transform="translate(-860.335 -550.444)" fill="#f99370"/>
          <path id="Trazado_205301" data-name="Trazado 205301" d="M942.3,1131.436a9.437,9.437,0,0,0,7.283-1.681c-.251-.87-.485-1.724-.71-2.592h0c-7.773-29.6.367-45.169.367-45.169,1.72,15.3,5.8,30.3,20.569,43.509q.931.835,1.922,1.66c3.327-.741,6.415-6.228,6.415-6.228q-.779-.915-1.493-1.836c-16.33-21.018-8.073-43.531-15.536-57.45-3.968-7.4-19.687-2.77-25.669,4.151-10.038,31.526,1.587,55.624,6.855,65.636" transform="translate(-836.879 -950.429)" fill="#8c6df2"/>
          <path id="Trazado_205302" data-name="Trazado 205302" d="M978,1204.841h0c-7.773-29.6.367-45.169.367-45.169-7.856,4.105-6.932,30.218-1.639,46.073h0a10.411,10.411,0,0,1-3.661,1.08c-8.865-20.743-9.292-36.422-8.059-45.983,1.36-10.547,4.976-16.13,5.012-16.185l-.483-.319c-.037.056-3.715,5.722-5.1,16.388a72.522,72.522,0,0,0,.361,20,108.025,108.025,0,0,0,7.664,26.157,14.367,14.367,0,0,1-2.257.016c.747,1.44,1.217,2.212,1.217,2.212a9.435,9.435,0,0,0,7.282-1.68q-.262-.911-.5-1.8-.106-.4-.208-.788" transform="translate(-866.003 -1028.107)" fill="#5038a1"/>
          <path id="Trazado_205303" data-name="Trazado 205303" d="M1170.675,1186.9a18.189,18.189,0,0,1-3.228,4.14c-2.436-2.695-12.875-14.671-16.092-25.395-3.64-12.134-3.236-32.086-3.231-32.286l-.655-.015c0,.2-.411,20.255,3.259,32.489,3.254,10.845,13.761,22.909,16.231,25.643a9.422,9.422,0,0,1-3.127,1.828q.932.835,1.922,1.66c3.327-.741,6.415-6.228,6.415-6.228q-.779-.915-1.493-1.836" transform="translate(-1030.906 -1018.229)" fill="#5038a1"/>
          <path id="Trazado_205304" data-name="Trazado 205304" d="M1020.024,621.233c-.406,2.308-1.225,4.9-3.074,6.407h0a12.865,12.865,0,0,0,1.7-4.046l-.461-1.258c-8-2.708-7.215-9.148-7.215-9.148,5.18-3.6,10.182,2.763,9.05,8.045" transform="translate(-908.27 -549.959)" fill="#e57d61"/>
          <path id="Trazado_205305" data-name="Trazado 205305" d="M942.423,869.145a28.229,28.229,0,0,1-7.076,2.085,8.212,8.212,0,0,1,1.45-5.436c1.522-2.29,3.3-4.482,3.3-4.482Z" transform="translate(-840.305 -773.828)" fill="#12263f"/>
          <path id="Trazado_205306" data-name="Trazado 205306" d="M1019.455,604.385s-.738,6.351,6.414,9.066l2.6-1.387c2.588-4.9-1.867-12.213-9.015-7.679" transform="translate(-915.889 -541.718)" fill="#12263f"/>
          <path id="Trazado_205307" data-name="Trazado 205307" d="M1036.758,548.925c-1.754,6.033-8.781,4.1-7.209-1.978,1.754-6.033,8.781-4.1,7.209,1.978" transform="translate(-924.773 -488.095)" fill="#12263f"/>
          <path id="Trazado_205308" data-name="Trazado 205308" d="M1085.34,692.6c-.56,2.609-3.845,1.865-3.226-.731.56-2.609,3.845-1.865,3.226.731" transform="translate(-972.133 -620.133)" fill="#f99370"/>
          <path id="Trazado_205309" data-name="Trazado 205309" d="M1094.421,699.57a1.62,1.62,0,0,0,.072-1.917c-.518-.423-1.457-.212-1.391.054.163.265.7-.287,1.208.138.519.394-.2,1.5.11,1.724" transform="translate(-982.073 -626.576)" fill="#c16256"/>
          <path id="Trazado_205310" data-name="Trazado 205310" d="M1093,704.881c.271-.011.385-.994,1.427-1.085a.133.133,0,0,0,.126-.139c-.723-.56-2.049,1.272-1.553,1.224" transform="translate(-981.887 -632.091)" fill="#c16256"/>
          <path id="Trazado_205311" data-name="Trazado 205311" d="M1094.862,722.566a.3.3,0,0,1-.595-.009.3.3,0,0,1,.595.009" transform="translate(-983.121 -648.91)" fill="#f4d4be"/>
          <path id="Trazado_205312" data-name="Trazado 205312" d="M978.571,820.5c-6.8,3.256-18.548,5.075-26.5,2.421a2.486,2.486,0,0,1-.6-2.341c2.06-6.378.394-9.754-.7-12.974a13.523,13.523,0,0,1-.72-2.951,8.289,8.289,0,0,1-.019-1.639,12.427,12.427,0,0,1,2.134-5.567c1.054-1.657,2-5.351,3.53-7.4a3.857,3.857,0,0,1,1.354-1.214c.031-.016.064-.031.1-.045l.012.028a.629.629,0,0,0,.03.064c1.037,2.246,3.91.018,5.082-1.338.425,0,.9-.013,1.407,0,3.285.086,8.1,1.268,11.33,14.053.448,1.774.866,3.773,1.245,6.024q.085.5.167,1.013c.646,4.076,4.724,9.685,2.154,11.862" transform="translate(-853.508 -707.553)" fill="#5038a1"/>
          <path id="Trazado_205313" data-name="Trazado 205313" d="M1243.037,1154.115c-.484.833-1.584.3-1.081-.528.484-.832,1.584-.3,1.081.528" transform="translate(-1115.694 -1036.042)" fill="#f99370"/>
          <path id="Trazado_205314" data-name="Trazado 205314" d="M1253.676,1154.813c-.483.832-1.584.3-1.081-.528.484-.833,1.584-.3,1.081.528" transform="translate(-1125.253 -1036.669)" fill="#f99370"/>
          <path id="Trazado_205315" data-name="Trazado 205315" d="M1264.536,1155.507c-.483.833-1.584.3-1.081-.528.484-.832,1.584-.3,1.081.528" transform="translate(-1135.01 -1037.292)" fill="#f99370"/>
          <path id="Trazado_205316" data-name="Trazado 205316" d="M1099.9,876.83a34.38,34.38,0,0,0-5.9-4.728c-5.64-3.7-6.367-7.532-6.367-7.532l11.026,6.236c.448,1.774.866,3.773,1.245,6.024" transform="translate(-977.159 -776.754)" fill="#12263f"/>
          <path id="Trazado_205317" data-name="Trazado 205317" d="M688.412,786.678s-2.911,3.589-6.077,3.228a2.63,2.63,0,0,1,.3-1.84c2.682-.562,3.422-2.016,3.422-2.016.6-.4,1.432-.041,2.351.628Z" transform="translate(-613.003 -706.059)" fill="#12263f"/>
          <path id="Trazado_205318" data-name="Trazado 205318" d="M1011.867,787.551a4.24,4.24,0,0,1-.878,1.668,7.794,7.794,0,0,1-4.9,2.3,2.6,2.6,0,0,1-.73-.1,2.339,2.339,0,0,1-1.474-1.369,3.175,3.175,0,0,1-.247-.835,12.833,12.833,0,0,1,1.6-.379c.031-.016.064-.031.1-.045l.012.028.029,0v.068c1.037,2.246,3.91.018,5.082-1.338.425,0,.9-.013,1.407,0" transform="translate(-901.7 -707.553)" fill="#12263f"/>
          <path id="Trazado_205319" data-name="Trazado 205319" d="M652.676,727.827a3.529,3.529,0,0,1-2.912-2.6c-.461-1.966.8-5.161.8-5.161s3.553.7,4.844,5.419Z" transform="translate(-583.676 -646.926)" fill="#f99370"/>
          <rect id="Rectángulo_46569" data-name="Rectángulo 46569" width="11.421" height="14.642" transform="translate(53.423 69.382) rotate(-6.103)" fill="#5038a1"/>
          <rect id="Rectángulo_46570" data-name="Rectángulo 46570" width="11.013" height="14.642" transform="translate(56.213 69.084) rotate(-6.103)" fill="#8c6df2"/>
          <path id="Trazado_205320" data-name="Trazado 205320" d="M592.016,712.844c-.219-2.047-1.695-3.568-3.3-3.4s-2.723,1.97-2.5,4.017,1.695,3.568,3.3,3.4,2.723-1.97,2.5-4.017" transform="translate(-526.649 -637.377)" fill="#5038a1"/>
          <rect id="Rectángulo_46571" data-name="Rectángulo 46571" width="5.834" height="0.836" transform="translate(58.963 70.444) rotate(-6.103)" fill="#5038a1"/>
          <rect id="Rectángulo_46572" data-name="Rectángulo 46572" width="5.834" height="0.836" transform="translate(60.081 80.9) rotate(-6.103)" fill="#5038a1"/>
          <path id="Trazado_205321" data-name="Trazado 205321" d="M649.779,739a8.267,8.267,0,0,0-2.1-1.962c-.4-.355-1.435-.525-1.106-1.247.512-.814,3.1.648,3.8,1,2.488,1.071.912,3.434-.586,2.206" transform="translate(-580.839 -660.84)" fill="#f99370"/>
          <path id="Trazado_205322" data-name="Trazado 205322" d="M1101.517,802.784c5.9,2.831,11.478,7.406,13.8,13.725,1.877,5.9,1.239,12.28-.1,18.208-.724,2.164-3.534,1.337-3.234-.916-.621-12.12-1.618-17.991-13.728-22.909-5.294-2.161-2.042-10.221,3.267-8.108" transform="translate(-984.276 -720.931)" fill="#f99370"/>
          <path id="Trazado_205323" data-name="Trazado 205323" d="M1153.329,1234.407l-2.754,15.819H1127.4l-2.754-15.819Z" transform="translate(-1010.412 -1109.027)" fill="#fedc72"/>
          <path id="Trazado_205324" data-name="Trazado 205324" d="M1260.455,1266.247v11.967h-1.377v-11.967a.688.688,0,0,1,.688-.688h0a.688.688,0,0,1,.688.688" transform="translate(-1131.193 -1137.015)" fill="#fdb74d"/>
          <path id="Trazado_205325" data-name="Trazado 205325" d="M1213.921,1278.2h-1.378l-.586-11.934a.688.688,0,0,1,.654-.721h0a.688.688,0,0,1,.721.654Z" transform="translate(-1088.857 -1137.001)" fill="#fdb74d"/>
          <path id="Trazado_205326" data-name="Trazado 205326" d="M1167.4,1278.183h-1.384l-1.168-11.9a.688.688,0,1,1,1.37-.135Z" transform="translate(-1046.528 -1136.985)" fill="#fdb74d"/>
          <path id="Trazado_205327" data-name="Trazado 205327" d="M1302.361,1266.265l-.586,11.934H1300.4l.589-12a.689.689,0,0,1,1.375.068" transform="translate(-1168.315 -1137.001)" fill="#fdb74d"/>
          <path id="Trazado_205328" data-name="Trazado 205328" d="M1344.255,1266.281l-1.168,11.9H1341.7l1.182-12.037a.688.688,0,0,1,1.37.135" transform="translate(-1205.425 -1136.986)" fill="#fdb74d"/>
          <path id="Trazado_205329" data-name="Trazado 205329" d="M1151.983,1152.754a25.544,25.544,0,0,0-2.943-4.042c-3.042-3.395-6.518-5.189-10.054-5.189s-7.013,1.794-10.054,5.189a25.554,25.554,0,0,0-2.943,4.042h-1.345v2.182h28.686v-2.182Zm-22-3.149c2.807-3.122,5.837-4.706,9.006-4.706s6.2,1.583,9.006,4.706a23.987,23.987,0,0,1,2.375,3.149H1127.6a24,24,0,0,1,2.375-3.149" transform="translate(-1010.412 -1027.375)" fill="#fdb74d"/>
          <path id="Trazado_205330" data-name="Trazado 205330" d="M1243.587,1105.614a11.373,11.373,0,0,0-1.6,5.54l4.548.235c1.249-1.89.432-5.376.432-5.376Z" transform="translate(-1115.838 -993.316)" fill="#f99370"/>
          <path id="Trazado_205331" data-name="Trazado 205331" d="M1251.9,1145.2c-.272-.024.07-1.258.281-2.14a.115.115,0,0,1,.14-.071.1.1,0,0,1,.078.126c-.335.914-.256,2.03-.5,2.084" transform="translate(-1124.652 -1026.891)" fill="#e57d61"/>
          <path id="Trazado_205332" data-name="Trazado 205332" d="M1262.645,1145.983c-.278-.024.111-1.18.329-2.053a.115.115,0,0,1,.141-.069.1.1,0,0,1,.076.127c-.337.884-.309,1.932-.546,1.995" transform="translate(-1134.31 -1027.674)" fill="#e57d61"/>
          <path id="Trazado_205333" data-name="Trazado 205333" d="M1274.433,1145.992c-.3-.059.247-1.041.208-2.034a.114.114,0,0,1,.226,0,8.968,8.968,0,0,1-.325,1.954.112.112,0,0,1-.109.077" transform="translate(-1144.906 -1027.675)" fill="#e57d61"/>
          <path id="Trazado_205334" data-name="Trazado 205334" d="M1100.857,813.727c-.316,1.158-.762,1.887-1.332,1.849a6.919,6.919,0,0,0-3.973,0s-1.159.027-1.629-1.851a7.026,7.026,0,0,1-.191-1.487c-.113-3.378-1.3-8.3-4.89-10.832s-8.652-5.036-10.551-9.114a9.063,9.063,0,0,1-.15-7.506c3.87-.951,8.869.1,14.423,4.878a23.458,23.458,0,0,1,8.156,12.769,25.648,25.648,0,0,1,.136,11.291" transform="translate(-967.974 -704.791)" fill="#5038a1"/>
          <path id="Trazado_205335" data-name="Trazado 205335" d="M1246.953,1065.527c-.316,1.158-.762,1.887-1.332,1.849a6.917,6.917,0,0,0-3.972,0s-1.159.027-1.629-1.851c0,0,3.683-1.779,6.933,0" transform="translate(-1114.07 -956.591)" fill="#12263f"/>
        </g>
      </g>
    </g>
  </g>
</svg>
